<?xml version="1.0" encoding="utf-8" ?><svg xmlns="http://www.w3.org/2000/svg" xmlns:xlink="http://www.w3.org/1999/xlink" width="1024" height="1024" viewBox="0 0 1024 1024"><path fill="#1E2D40" d="M650.767 244.204C667.052 242.463 683.834 249.884 694.535 261.996C701.208 269.549 704.194 276.875 706.842 286.405C712.844 288.068 718.008 290.695 718.867 297.588C719.267 300.931 718.31 304.294 716.211 306.925C713.318 310.595 709.716 311.834 705.287 312.489C703.918 317.028 702.859 319.085 700.669 323.248C708.381 337.632 712.908 350.548 711.013 367.22C709.337 381.961 702.092 395.594 690.316 404.768C678.142 414.333 662.623 418.577 647.276 416.539C632.443 414.747 618.934 407.124 609.732 395.353C609.435 402.444 609.765 411.102 609.832 418.295C609.914 429.319 609.926 440.344 609.868 451.369L609.886 582.533L609.941 616.374C609.958 623.166 610.444 636.53 608.875 642.704C607.087 649.804 602.536 655.896 596.234 659.625C589.806 663.348 579.591 662.773 572.42 662.749C558.345 662.701 544.269 662.688 530.193 662.665L426.926 662.653L367.608 662.7C359.698 662.732 334.853 663.502 328.211 661.791C318.973 658.683 310.005 650.403 309.144 640.287C308.955 638.212 308.825 636.133 308.755 634.05C308.285 617.824 308.8 599.074 308.793 582.541L308.891 466.611L308.857 411.288C308.83 402.672 308.498 392.808 309.08 384.25C309.401 379.537 313.17 372.795 316.665 369.368C325.676 360.53 334.787 361.269 346.105 361.341C351.222 361.373 356.339 361.352 361.455 361.279C361.371 353.679 360.121 343.214 365.681 337.291C375.207 327.146 392.561 332.858 394.051 346.861C394.564 351.681 394.391 356.324 394.36 361.176C413.047 361.742 432.881 361.199 451.694 361.186C475.954 361.35 500.215 361.353 524.475 361.195C524.281 349.246 523.046 332.587 540.111 332.235C544.816 332.126 549.35 334.003 552.601 337.406C558.595 343.704 557.269 352.864 557.192 361.237C571.595 361.466 586.485 358.826 598.255 366.407C597.301 348.342 600.729 339.869 608.544 324.009C606.23 320.117 605.083 317.105 603.698 312.851C596.919 311.151 591.583 308.186 590.337 300.714C588.966 292.488 594.78 287.876 602.146 287.011C608.668 262.447 624.759 246.407 650.767 244.204Z"/><path fill="white" d="M315.089 441.671C347.064 442.016 379.706 441.63 411.737 441.655L603.751 441.789C603.029 484.159 603.614 528.178 603.59 570.71L603.63 604.569C603.646 616.51 605.586 624.081 597.834 633.986C592.209 638.915 588.114 640.399 580.76 640.4C563.924 640.404 547.075 640.33 530.24 640.341L414.436 640.348L362.237 640.38C352.913 640.428 342.3 640.946 333.296 640.169C322.524 639.24 314.632 628.998 315.102 618.513C315.322 613.579 315.048 608.12 315.063 603.196L315.194 566.543L315.089 441.671Z"/><path fill="#1E2D40" d="M459.739 504.157C467.181 495.488 475.325 489.932 487.275 490.531C495.874 490.924 503.947 494.784 509.651 501.231C515.447 507.798 518.346 516.428 517.69 525.163C516.365 543.523 499.319 561.756 486.048 573.368C478.506 580.13 468.021 587.879 459.673 593.537C439.361 578.447 421.775 566.972 408.079 544.2C395.149 522.7 402.242 494.755 429.334 490.64C442.489 489.897 451.488 493.751 459.739 504.157Z"/><path fill="#E77A82" d="M432.838 496.697C442.411 496.348 449.8 501.319 455.086 508.873C456.176 510.43 457.985 513.029 459.566 513.857C461.714 512.41 465.386 507.231 467.638 504.844C484.052 487.442 512.278 500.096 511.561 523.473C511.06 539.809 496.396 554.764 485.078 565.686C477.923 572.554 467.819 580.062 459.729 585.712C437.958 570.246 392.33 537.149 413.657 506.041C417.797 500.001 425.833 497.414 432.838 496.697Z"/><path fill="#96CCEB" d="M557.007 367.421C570.735 367.248 592.591 363.897 600.379 377.366C604.718 388.371 603.679 393.53 603.652 405.123L603.636 435.545L315.127 435.479L315.021 404.626C314.878 388.144 312.618 372.051 333.49 367.599C341.869 367.149 352.854 367.48 361.424 367.49C361.512 377.283 359.474 394.159 365.575 401.146C368.458 404.417 372.556 406.363 376.913 406.531C398.637 407.483 394.269 381.553 394.148 367.457L524.498 367.492C524.49 377.294 522.515 394.276 528.608 401.13C531.572 404.406 535.742 406.335 540.158 406.475C544.754 406.659 549.215 404.899 552.448 401.626C559.353 394.615 557.156 377.683 557.007 367.421Z"/><path fill="#F9DDCF" d="M650.415 250.325C676.32 248.09 699.139 267.262 701.401 293.165C703.663 319.067 684.513 341.905 658.613 344.194C632.676 346.485 609.798 327.302 607.532 301.363C605.267 275.423 624.473 252.564 650.415 250.325Z"/><path fill="#1E2D40" d="M640.889 314.231C648.457 315.396 646.359 326.825 661.023 320.702C663.013 317.795 664.758 314.433 668.755 314.644L669.518 315.646C669.926 318.133 669.851 318.256 669.236 320.761C666.188 324.716 662.906 327.067 657.855 327.893C652.682 328.686 647.408 327.344 643.243 324.173C639.65 321.426 637.675 318.037 640.889 314.231Z"/><path fill="#1E2D40" d="M661.96 256.734C672.719 260.245 661.178 281.128 641.903 272.074C639.8 270.498 637.482 268.215 639.453 265.534C643.724 264.302 646.363 268.462 649.91 268.901C659.733 270.118 658.456 260.707 661.96 256.734Z"/><path fill="#1E2D40" d="M629.789 293.336C631.504 292.656 633.455 292.988 634.848 294.198C636.241 295.407 636.844 297.293 636.411 299.086C635.977 300.88 634.581 302.282 632.789 302.722C630.267 303.342 627.697 301.903 626.906 299.43C626.116 296.957 627.376 294.294 629.789 293.336Z"/><path fill="#1E2D40" d="M675.231 293.314C676.802 292.562 678.658 292.716 680.084 293.718C681.51 294.719 682.284 296.412 682.11 298.146C681.936 299.879 680.84 301.384 679.244 302.082C676.833 303.136 674.023 302.063 672.928 299.671C671.833 297.278 672.857 294.45 675.231 293.314Z"/><path fill="#96CCEB" d="M612.043 329.948C613.977 331.629 615.959 334.233 618.472 336.305C621.856 339.465 626.12 342.073 629.525 345.145C651.228 364.721 672.325 374.928 701.086 381.255C696.661 390.535 691.662 396.075 683.453 402.068C680.737 403.961 676.947 406.027 673.897 407.264C661.271 412.449 647.089 412.327 634.553 406.926C607.901 395.485 598.23 366.607 607.924 340.095C609.209 336.582 610.546 333.379 612.043 329.948Z"/><path fill="white" d="M603.354 636.889C604.162 646.935 594.387 656.451 584.604 656.566C578.115 656.643 571.763 656.722 565.268 656.71L530.053 656.671L415.988 656.64L359.02 656.69C352.153 656.7 345.123 656.658 338.27 656.719C328.723 656.804 323.187 654.292 317.437 646.43C315.6 642.815 315.422 640.529 314.857 636.578C321.59 643.001 327.481 646.494 337.195 646.472C355.698 646.43 374.203 646.414 392.707 646.42L507.493 646.422L558.708 646.435C567.804 646.468 578.321 646.868 587.266 646.031C593.347 645.463 599.028 641.032 603.354 636.889Z"/><path fill="#96CCEB" d="M696.865 329.437C697.249 329.884 697.885 330.953 698.158 331.491C705.484 345.884 707.201 360.023 702.973 375.3C688.585 372.932 679.344 369.287 666.313 363.192C659.404 359.663 650.512 354.36 644.449 349.741C665.903 352.493 682.993 346.287 696.865 329.437Z"/><path fill="white" d="M537.525 338.596C539.481 338.44 541.415 338.238 543.331 338.789C545.793 339.498 548.275 340.92 549.485 343.277C551.514 347.229 551.727 389.089 550.252 393.594C549.155 396.943 546.647 398.709 543.576 400.088C535.741 400.987 530.878 397.192 530.778 389.081C530.602 374.955 529.891 359.684 531.078 345.591C531.333 342.562 535.11 339.921 537.525 338.596Z"/><path fill="white" d="M374.571 338.614C376.057 338.401 378.268 338.24 379.736 338.491C382.489 338.946 384.904 340.585 386.344 342.975C389.627 348.431 387.734 384.929 387.423 393.028C387.312 395.906 383.335 398.564 380.989 399.892C373.055 400.705 367.787 397.557 367.801 389.039C367.825 374.867 366.96 359.984 368.076 345.864C368.315 342.839 372.206 340.022 374.571 338.614Z"/><path fill="#F9DDCF" d="M600.828 292.41C602.03 293.986 602.118 304.058 600.761 305.68L599.119 305.078C594.794 300.029 595.302 296.147 600.828 292.41Z"/><path fill="#F9DDCF" d="M707.535 292.73C713.289 295.512 713.894 299.182 710.808 304.359C709.567 305.213 709.671 305.212 708.194 305.433C706.461 303.622 707.48 296.094 707.535 292.73Z"/><path fill="#1E2D40" d="M740.37 421.26C742.783 421.863 743.046 422.082 744.149 423.857C744.693 428.312 741.545 433.777 739.217 437.537C730.55 451.538 721.039 457.489 705.43 461.389C704.756 461.293 704.024 461.004 703.352 460.787C701.844 459.124 702.277 460.049 701.832 457.996C702.086 457.381 702.354 456.297 702.922 456.111C718.24 451.089 730.216 445.027 736.187 428.945C736.992 426.779 738.61 423.139 740.37 421.26Z"/><path fill="#1E2D40" d="M576.517 224.39C579.084 224.555 579.759 225.37 580.316 227.728C579.422 230.657 576.265 231.874 573.4 233.07C566.661 235.885 563.912 240.38 559.26 245.137C553.763 250.758 553.426 264.364 550.083 268.517C549.064 268.468 548.478 268.356 547.458 268.205C543.382 265.045 546.201 258.258 547.696 254.067C552.916 239.445 562.638 230.839 576.517 224.39Z"/><path fill="#1E2D40" d="M721.842 414.254C727.452 416.167 726.131 420.235 723.726 424.463C717.54 435.34 710.484 439.543 698.863 442.929C697.785 442.9 697.868 442.812 696.799 442.461C695.31 440.889 695.778 441.777 695.271 439.731C695.478 439.028 695.583 438.122 696.084 437.818C701.58 434.476 705.969 434.641 711.277 430.367C717.323 425.5 717.979 418.338 721.842 414.254Z"/><path fill="#1E2D40" d="M586.775 240.451C589.081 240.796 590.149 241.896 590.389 244.196C589.025 247.914 581.229 250.147 576.755 255.517C570.812 262.65 572.644 268.276 569.6 271.863C567.637 271.656 567.074 271.774 565.621 270.439C564.47 268.301 564.342 266.445 565.206 264.12C569.825 251.689 575.528 246.259 586.775 240.451Z"/></svg>