<?xml version="1.0" encoding="utf-8" ?><svg xmlns="http://www.w3.org/2000/svg" xmlns:xlink="http://www.w3.org/1999/xlink" width="761" height="761" viewBox="127 136.7 760.7 760.7"><path d="M504.476 165.713C596.134 161.701 666.101 229.433 671.64 319.283C676.892 325.875 680.222 332.242 680.497 340.832C681.012 356.879 671.806 368.595 655.214 368.989C663.045 382.176 669.108 396.335 673.246 411.103C676.62 423.161 677.378 429.246 681.82 441.84C694.656 445.783 706.09 451.748 707.13 467.486C707.639 475.186 704.34 480.887 699.351 486.443C712.612 534.234 720.332 583.391 722.358 632.947C724.403 694.345 714.149 767.188 670.173 813.524C630.93 854.874 574.566 868.049 519.624 869.71C490.286 871.406 455.783 865.973 427.709 857.92C290.984 818.699 290.259 656.159 311.676 542.223C315.043 524.312 319.011 505.132 324.504 487.342C321.372 484.208 318.915 480.505 317.51 476.285C315.454 470.27 315.929 463.678 318.824 458.018C324.283 447.497 334.03 444.501 344.348 441.109C346.141 416.067 356.277 391.063 368.044 369.212C345.337 368.648 337.357 343.303 347.83 325.709C348.774 324.123 351.358 319.379 351.52 317.774C360.137 232.147 416.62 170.892 504.476 165.713Z"/><path fill="#F7D8C7" d="M494.992 355.267C503.603 355.028 512.219 354.97 520.832 355.095C517.052 377.757 500.795 385.289 479.832 380.082C487.485 375.9 493.192 368.112 494.601 359.16C494.754 358.19 493.65 357.714 492.989 357.34C492.471 357.352 491.953 357.365 491.436 357.377C489.09 362.464 486.861 369.551 482.876 373.362C478.505 377.542 469.02 373.993 467.007 375.675C466.274 381.268 479.229 384.77 483.636 385.684C492.668 387.641 502.107 385.903 509.85 380.857C519.419 374.505 522.912 365.965 525.155 355.201C533.818 355.369 542.177 355.512 550.835 356.085C549.203 369.268 541.793 378.852 528.194 381.361C526.907 381.599 526.698 382.527 526.341 383.496C526.629 385.41 526.171 384.724 527.52 385.772C531.085 386.016 537.944 383.031 540.996 380.93C550.392 374.463 553.35 366.978 555.493 356.401C584.887 357.035 620.416 362.821 649.325 367.922C660.002 383.999 668.588 406.337 672.377 425.187C673.647 431.509 674.399 438.218 675.405 444.636C690.561 449.488 709.109 454.852 700.457 477.763C696.131 489.219 680.755 488.707 672.22 492.863C670.95 493.481 665.639 511.67 664.348 514.944C658.698 529.304 651.156 542.846 641.922 555.211C624.344 578.256 600.957 596.215 574.156 607.249C533.774 623.85 488.425 623.578 448.246 606.493C410.571 590.968 380.185 561.735 363.216 524.689C358.574 514.452 355.627 504.61 352.239 493.993C351.583 491.94 343.444 490.745 341.034 490.231C326.222 487.073 316.055 475.192 322.896 459.909C327.337 450.163 338.614 447.982 348.064 444.72C351.939 416.045 358.586 392.417 374.719 367.744C414.383 360.175 454.619 356 494.992 355.267Z"/><path d="M483.781 508.606C496.119 507.82 500.133 513.651 511.992 513.82C521.864 514.01 528.576 507.736 538.735 508.583C556.942 510.101 567.057 527.781 565.378 544.723C564.268 555.915 559.874 563.296 551.326 570.409C549.805 582.621 546.548 590.08 537.206 598.294C531.492 603.156 524.504 606.279 517.071 607.293C506.526 608.628 495.887 605.678 487.535 599.104C477.943 591.569 474.218 582.515 472.869 570.782C465.405 564.865 460.375 557.834 458.8 548.318C455.707 529.63 464.011 512.184 483.781 508.606Z"/><path fill="#A0CEEB" d="M483.446 513.084C494.532 511.877 500.138 518.068 511.746 518.124C519.925 518.854 527.74 513.472 535.418 512.913C550.46 512.188 560.71 525.58 561.061 539.608C561.325 550.142 558.262 557.248 551.273 564.907L550.831 562.958C548.134 551.344 543.609 544.373 533.426 538.029C532.053 537.242 530.286 536.605 528.785 536.009C526.61 532.696 524.859 530.335 521.431 528.127C517.446 525.537 512.572 524.697 507.949 525.804C502.035 527.19 498.33 530.793 495.288 535.829C481.741 540.82 475.214 551.606 472.814 565.268C456.58 549.344 458.954 518.975 483.446 513.084Z"/><path fill="#A0CEEB" d="M530.027 541.107C535.603 544.466 538.208 546.808 541.962 552.004C550.47 568.235 547.717 585.469 532.465 596.529C524.878 602.045 515.394 604.284 506.141 602.746C496.931 601.214 488.718 596.056 483.338 588.426C471.78 571.914 476.779 552.518 492.967 541.425C493.83 542.251 494.675 548.132 494.981 549.78C489.531 554.894 485.46 560.697 485.53 568.508C485.658 582.963 496.685 594.428 511.304 594.643C518.667 594.766 525.753 591.835 530.879 586.546C542.434 574.835 540.073 560.312 528.796 549.615C529.573 546.36 529.719 544.434 530.027 541.107Z"/><path fill="#A0CEEB" d="M526.628 553.868C531.985 558.915 536.927 567.99 532.725 575.123C519.555 579.613 504.735 579.101 491.325 575.978C488.552 566.832 490.198 560.496 496.925 553.882C506.308 564.4 517.273 563.97 526.628 553.868Z"/><path fill="#A0CEEB" d="M510.942 529.857C518.331 529.358 524.756 534.873 525.384 542.252C526.012 549.63 520.609 556.151 513.243 556.906C508.362 557.407 503.591 555.235 500.763 551.226C497.936 547.216 497.492 541.993 499.601 537.564C501.711 533.134 506.047 530.188 510.942 529.857Z"/><path fill="#F7D8C7" d="M529.578 580.732L529.797 580.967C527.347 587.623 513.028 592.173 506.698 589.603C503.053 588.123 501.856 587.946 498.519 585.894C496.728 584.567 494.935 582.67 493.324 581.085C508.4 582.915 514.59 583.08 529.578 580.732Z"/><path fill="#EA8283" d="M413.399 488.872C427.634 486.019 441.488 495.243 444.345 509.478C447.203 523.712 437.982 537.568 423.748 540.43C409.509 543.292 395.646 534.067 392.787 519.827C389.929 505.586 399.158 491.726 413.399 488.872Z"/><path fill="#EA8283" d="M600.389 488.848C614.768 486.413 628.377 496.162 630.697 510.561C633.018 524.959 623.161 538.49 608.744 540.696C594.489 542.877 581.143 533.154 578.848 518.917C576.554 504.68 586.17 491.256 600.389 488.848Z"/><path d="M430.907 449.271C438.053 448.237 444.689 453.18 445.744 460.323C446.799 467.466 441.876 474.117 434.737 475.194C427.566 476.275 420.88 471.327 419.821 464.153C418.761 456.979 423.73 450.308 430.907 449.271Z"/><path d="M589.058 449.313C596.17 448.344 602.729 453.301 603.738 460.408C604.747 467.514 599.828 474.101 592.728 475.152C585.569 476.211 578.916 471.242 577.899 464.078C576.881 456.913 581.888 450.289 589.058 449.313Z"/><path d="M508.567 481.102C514.314 480.287 523.927 483.734 520.827 490.291L519.842 490.526C518.191 489.93 516.388 487.178 514.613 485.462C505.111 483.085 508.35 491.07 501.895 490.057C500.084 485.983 505.675 482.641 508.567 481.102Z"/><path fill="#A0CEEB" d="M712.518 575.302C713.896 579.209 715.923 601.01 716.3 605.75C720.456 658.02 718.016 714.746 697.171 763.528C679.95 803.829 649.42 833.186 608.704 848.802C547.273 872.364 465.332 870.792 405.07 844.491C395.007 839.763 387.675 835.661 378.457 829.23C414.129 818.123 449.106 804.895 483.2 789.616C571.999 749.989 668.472 688.972 705.804 594.327C708.259 588.103 710.119 581.574 712.518 575.302Z"/><path fill="#A0CEEB" d="M328.351 490.18C335.823 494.22 340.134 494.903 348.337 496.408C351.094 505.606 353.608 513.513 357.423 522.354C370.469 553.129 392.605 579.183 420.868 597.029C429.021 602.197 438.217 605.868 445.98 610.929C478.893 632.388 513.636 648.409 550.213 662.949C529.245 679.053 494.636 697.986 471.27 709.932C429.902 731.435 372.852 754.027 328.503 766.921C300.989 706.607 302.451 629.443 312.194 565.455C315.653 542.736 321.578 512.133 328.351 490.18Z"/><path fill="white" d="M695.428 489.518C698.36 494.131 703.631 522.969 705.291 529.704C706.27 533.673 710.731 555.843 710.463 559.563C709.13 578.079 699.294 599.733 690.98 616.298C631.803 726.482 487.859 790.232 373.964 825.923C368.295 821.738 364.172 818.068 359.218 813.069C347.617 801.427 337.364 786.046 330.411 771.161C344.638 766.149 358.959 762.107 373.556 756.811C416.058 741.478 457.331 722.931 497.018 701.332C561.02 666.129 624.822 618.553 656.832 550.929C663.764 536.283 666.504 521.514 671.79 506.343C672.989 502.904 674 499.213 675.019 495.703C683.377 494.899 688.212 493.521 695.428 489.518Z"/><path fill="#A0CEEB" d="M501.863 170.209C540.325 167.507 578.418 179.205 608.735 203.028C643.604 230.95 661.849 271.072 666.701 314.687C636.959 294.167 559.627 290.757 523.125 289.996C482.004 289.556 389.754 291.573 356.662 314.505C361.223 278.816 372 248.395 395.996 220.748C423.299 189.291 460.738 173.036 501.863 170.209Z"/><path d="M510.742 186.893C511.28 187.02 511.82 187.141 512.351 187.296C516.386 188.476 525.017 208.513 527.694 213.362C531.503 213.559 535.749 214.684 539.382 214.834C573.769 216.255 554.072 227.896 537.873 243.525C546.445 283.674 547.085 281.15 512.289 262.445C507.456 263.403 490.357 274.449 484.623 276.236C483.488 276.59 482.867 276.093 482.041 275.563C479.2 271.075 484.273 250.459 485.555 244.1C460.51 216.662 451.503 218.341 495.832 213.362C498.538 207.976 507.064 189.429 510.742 186.893Z"/><path fill="#F6B53B" d="M511.386 192.311C513.267 193.806 522.821 213.427 524.749 217.097C534.602 218.69 544.486 219.711 554.342 221.268C547.848 228.051 540.061 234.892 533.246 241.954C534.531 251.48 537.051 260.983 538.277 271.237C529.532 267.072 520.926 261.401 512.027 257.456C507.015 259.151 491.211 268.129 485.029 271.209C486.388 261.923 488.476 252.003 490.22 242.707C485.522 236.889 474.807 226.758 469.16 221.239C478.642 219.698 488.764 218.523 498.324 217.255C502.812 209.61 507.306 200.297 511.386 192.311Z"/><path fill="#A0CEEB" d="M488.583 294.722C525.257 292.663 642.406 295.951 667.798 321.797C673.311 327.455 676.289 335.11 676.048 343.006C675.795 353.614 668.502 364.471 657.05 364.128C650.822 363.941 644.308 362.374 638.16 361.274C629.726 359.805 621.269 358.469 612.794 357.266C587.535 353.814 562.108 351.725 536.625 351.006C496.918 349.719 457.171 351.488 417.735 356.298C407.272 357.656 396.84 359.243 386.446 361.058C380.774 362.041 375.123 363.23 369.427 364.054C356.701 365.894 348.632 355.564 347.882 343.776C347.312 335.823 350.058 327.988 355.469 322.131C376.716 299.209 457.693 295.984 488.583 294.722Z"/><path fill="#A0CEEB" d="M653.805 545.962C653.79 547.741 651.729 551.859 650.894 553.514C628.671 597.558 594.019 631.439 554.46 660.029C549.08 657.39 539.264 653.958 533.101 651.315C517.892 644.855 502.915 637.862 488.197 630.35C479.749 626.217 471.505 621.676 463.496 616.746C490.029 624.228 515.268 625.972 542.506 621.088C577.634 614.658 609.784 597.158 634.253 571.147C642.091 562.7 647.252 555.383 653.805 545.962Z"/></svg>