<?xml version="1.0" encoding="utf-8" ?><svg xmlns="http://www.w3.org/2000/svg" xmlns:xlink="http://www.w3.org/1999/xlink" width="654" height="654" viewBox="200.4 194.8 653.9 653.9"><path d="M530.25 275.202C565.846 274.176 597.548 285.015 624.203 308.88C649.549 331.488 664.973 363.168 667.137 397.063C673.278 398.536 677.629 399.627 682.876 403.353C692.896 410.467 695.35 423.732 687.333 433.415C680.699 441.428 672.404 442.467 662.734 443.377C653.724 470.788 645.299 483.515 625.057 503.736C625.625 504.3 626.191 504.867 626.753 505.437C650.536 529.562 686.206 594.516 655.946 626.415C646.834 636.021 634.106 636.775 621.493 636.472C621.534 651.586 619.976 663.531 615.775 678.106C626.076 694.763 628.079 709.977 620.197 728.427C609.234 754.09 591.632 772.715 572.298 792.033C551.725 812.59 529.111 823.675 504.765 801.221C500.716 797.473 498.523 792.678 496.419 787.523C482.729 787.148 475.076 786.476 461.75 783.955C448.55 781.101 437.952 777.878 425.627 772.363C421.515 780.321 416.64 786.908 408.719 791.43C399.772 796.551 389.153 797.899 379.21 795.174C365.527 791.441 358.454 782.079 351.759 770.232C337.664 745.293 318.584 697.499 326.713 669.308C330.144 657.205 338.262 646.972 349.266 640.877C361.894 634.015 373.91 633.997 387.342 637.884C388.673 627.493 389.739 621.199 392.983 611.293C391.766 610.983 390.555 610.65 389.35 610.293C353.38 599.525 356.88 563.141 373.626 537.042C387.755 515.024 404.715 495.098 428.324 482.916C418.001 469.371 412.371 453.85 407.86 437.69C395.256 435.751 381.292 431.543 379.407 416.471C378.718 411.196 380.242 405.871 383.618 401.76C389.144 394.933 396.944 392.778 405.187 391.801C407.592 365.852 420.007 338.911 437.28 319.54C461.563 292.306 494.021 277.349 530.25 275.202Z"/><path fill="#EA7D83" d="M527.663 279.7C527.902 279.667 528.141 279.635 528.38 279.602C559.353 277.723 590.74 287.6 614.883 306.634C636.319 323.559 651.775 346.899 658.991 373.241C661.512 382.761 662.537 391.315 663.664 401.018C673.861 402.99 685.501 405.936 687.394 418.186C688.073 422.545 686.971 426.993 684.338 430.532C678.834 437.798 667.781 438.409 659.418 439.712C652.291 462.314 646.094 473.794 630.833 491.728C625.978 475.805 623.832 457.454 619.632 441.218C619.01 438.812 617.958 434.657 618.845 432.335C621.044 431.07 621.102 430.737 621.235 428.344C619.349 426.039 594.649 419.966 589.965 418.728C598.084 414.717 607.094 411.697 615.225 407.873C616.164 407.431 617.329 405.865 617.496 404.544L616.845 403.834C616.007 403.71 614.673 403.512 613.908 403.797C606.184 406.674 586.646 413.97 580.455 417.903C580.02 419.52 579.955 418.745 580.73 420.296C582.506 421.614 583.462 421.577 585.722 421.986C589.53 440.63 594.3 459.443 598.129 478.14C600.456 489.499 602.932 501.903 605.866 513.054C584.929 525.944 566.924 531.993 542.623 533.873C513.881 535.193 485.522 526.878 462.042 510.248C468.398 479.923 476.545 450.308 483.224 420.222C485.735 419.744 488.106 419.845 488.904 417.182C486.399 414.512 455.726 399.84 452.727 400.302C451.377 401.684 451.778 400.889 451.435 402.748C452.944 405.572 474.487 414.366 479.108 416.566C475.259 417.272 449.386 424.044 447.348 425.729L447.421 427.509C448.541 428.913 448.335 428.477 450.599 428.964C451.15 432.237 438.888 481.951 437.186 487.256C422.194 467.694 417.591 457.541 411.241 433.791C404.308 432.748 398.536 432.184 392.285 428.468C383.788 423.417 380.586 413.718 386.723 405.318C392.037 398.043 400.284 396.514 408.712 395.287C411.591 378.125 413.826 366.701 421.788 350.676C442.755 308.479 481.427 284.203 527.663 279.7Z"/><path d="M530.31 447.72C553.626 447.038 577.559 463.335 578.031 488.202C578.462 492.996 572.162 497.494 567.881 495.851C556.358 491.429 549.385 485.637 536.625 483.978C517.82 482.474 510.323 489.275 493.418 494.434C490.466 495.335 485.102 490.827 485.087 486.896C485.055 478.642 488.98 470.239 494.378 464.038C504.51 452.387 515.316 448.72 530.31 447.72Z"/><path fill="#EA7D83" d="M528.572 452.186C537.587 451.724 546.551 453.781 554.462 458.128C563.21 462.931 569.465 470.153 572.102 479.837C573.091 483.472 574.008 487.45 572.108 490.844C571.338 491.365 570.641 492.07 569.684 491.75C565.921 490.492 561.682 488.22 558.169 486.386C550.482 482.375 544.59 480.649 536.124 479.544C519.265 478.905 510.409 482.215 495.582 489.59C494.293 490.231 492.495 489.962 491.207 489.298C488.661 486.148 490.21 481.832 491.394 478.383C497.083 461.821 512.165 453.718 528.572 452.186Z"/><path d="M547.433 307.118L549.505 307.594C550.573 309 550.679 309.894 550.492 311.698C548.826 326.958 536.223 337.511 520.801 335.875C515.665 335.33 501.653 331.228 502.404 324.956L503.486 324.315C505.839 324.046 507.434 325.094 509.667 326.098C513.621 325.143 514.723 324.51 517.761 321.813C521.164 317.833 521.824 309.394 525.85 308.097L526.971 308.868C527.32 309.908 527.435 310.454 527.159 311.506C524.654 321.063 521.893 324.345 514.191 329.629C525.434 333.511 535.905 332.367 542.49 321.422C545.266 316.81 545.559 312.51 547.255 307.619L547.433 307.118Z"/><path d="M571.932 307.284L574.184 307.699C578.242 311.727 573.534 321.552 570.963 325.634C566.835 332.19 560.176 336.359 552.625 337.904C550.854 337.806 550.833 337.725 549.244 337.113C549.511 333.332 558.241 331.905 561.698 329.354C569.992 323.235 570.067 316.414 571.932 307.284Z"/><path d="M479.583 363.801L481.203 364.218C483.661 366.555 481.46 369.256 479.668 371.551C472.744 380.42 465.318 382.319 454.581 383.583C452.529 382.819 452.561 382.58 451.759 381.081L452.161 379.909C456.635 376.728 458.888 378.604 463.264 377.653C470.83 376.009 475.487 369.516 479.583 363.801Z"/><path d="M587.614 365.777C588.248 365.785 590.013 365.936 590.35 366.293C594.179 370.352 595.909 373.873 600.554 377.159C604.528 379.972 614.788 379.301 617.244 381.808C617.547 383.701 617.655 382.808 616.879 384.583C612.874 385.036 609.933 384.48 606.074 383.669C599.157 382.215 585.313 374.083 587.614 365.777Z"/><path d="M531.482 422.522C536.731 422.312 545.935 426.604 542.343 431.979L541.242 432.115C539.533 431.601 537.518 428.43 536.046 426.897C530.17 425.958 529.272 431.87 524.9 431.027C523.619 427.092 528.64 423.908 531.482 422.522Z"/><path fill="#A1D0EA" d="M449.139 602.242C433.836 609.185 403.655 611.08 387.487 605.067C365.76 596.987 361.286 574.78 369.752 554.605C381.242 527.221 405.01 500.63 431.038 485.994C452.298 514.037 483.821 532.493 518.681 537.308C553.739 541.832 589.152 532.151 617.032 510.419C618.619 509.2 620.286 507.932 621.797 506.628C643.097 527.918 662.642 564.15 663.168 594.267C664.104 647.947 600.194 634.485 571.647 615.105C562.142 615.88 537.499 612.267 536.557 600.419C539.134 595.061 547.892 599.929 550.883 596.349C550.672 594.379 551.003 595.264 549.772 593.629C545.265 591.274 535.632 595.487 534.678 591.94C531.345 579.543 552.158 581.872 554.173 579.367C550.31 573.218 541.614 578.598 537.706 577.737C535.566 574.366 538.057 569.884 541.354 568.285C556.726 560.832 574.832 567.703 583.614 581.861C584.043 582.553 585.176 582.431 585.903 582.438C586.938 581.395 586.538 580.546 587.214 579.618C589.054 577.091 610.346 575.934 614.451 575.919C618.71 575.904 625.761 576.928 629.472 574.895L629.774 574.017C627.61 570.015 610.052 571.305 605.524 571.968C604.359 567.657 600.575 550.724 597.805 548.647L596.311 548.614C593.886 551.788 599.888 567.616 601.218 572.23C595.71 573.249 589.71 574.238 584.292 575.509C576.604 566.104 570.153 562.968 558.032 561.137C546.069 559.329 527.678 564.869 533.701 580.485C525.496 592.415 534.198 592.309 531.997 601.923C534.965 609.989 537.79 611.129 545.428 614.902L551.762 617.228C560.302 620.051 563.327 618.587 571.179 620.406C572.623 620.741 581.715 625.766 584.145 626.833C595.973 632.025 604.959 633.914 617.45 636.218C616.948 651.459 616.183 659.336 612.475 674.173C594.709 656.36 573.98 657.506 552.872 668.296C540.57 666.822 527.222 664.498 514.805 662.734C477.45 657.335 440.066 652.137 402.655 647.138C398.856 644.171 395.645 641.912 391.462 639.558C392.844 629.293 394.286 621.713 396.909 611.747C412.911 615.112 433.116 611.713 448.652 607.308C450.376 606.714 452.116 607.614 453.859 608.319L461.088 608.693C464.726 608.599 469.888 608.619 473.397 608.244C480.085 606.281 483.841 605.245 489.033 600.419C490.477 598.33 490.779 597.84 491.208 595.418C491.329 591.954 494.396 591.123 495.535 587.795C496.798 584.106 495.737 582.048 494.494 578.275C493.569 574.893 496.824 574.022 496.681 570.255C496.517 565.927 495.398 561.513 491.782 558.72C477.49 547.684 458.984 550.605 445.584 560.081C442.177 558.174 436.651 556.084 432.868 554.616C435.383 549.996 443.122 537.904 443.818 533.846L443.33 532.779C440.526 531.951 438.905 534.651 437.61 536.876C434.528 542.177 431.594 547.837 428.716 553.244C422.887 551.59 409.227 547.011 403.92 548.266C402.661 549.309 403.026 548.651 402.859 550.34C404.52 553.548 410.712 552.774 414.012 553.682C423.211 556.213 432.955 558.495 441.513 562.763C441.926 562.972 442.52 565.739 442.653 566.338C445.091 567.713 450.005 562.961 452.279 561.073C461.973 553.023 494.617 554.198 491.982 571.608C491.892 572.19 491.06 572.39 490.447 572.669C485.204 572.421 480.31 567.637 475.761 569.496C475.119 570.733 475.039 570.655 475.233 572.009C478.247 574.138 483.385 574.734 486.807 576.453C491.082 578.602 493.042 583.895 490.685 588.14C485.733 590.909 476.33 581.008 473.715 588.397C476.41 592.143 485.49 589.647 486.853 595.061C484.907 602.378 472.411 603.941 466.026 604.365C460.038 604.763 454.908 603.715 449.139 602.242Z"/><path fill="#EA7D83" d="M491.208 595.418C512.975 598.034 514.979 596.573 531.263 612.576C547.22 628.259 533.061 660.862 526.714 652.931C526.989 649.533 532.211 644.486 533.216 641.667C536.48 632.508 532.692 621.862 526.921 615.005C520.13 606.817 510.284 601.764 499.672 601.021C497.187 600.827 491.083 600.732 489.033 600.419C490.477 598.33 490.779 597.84 491.208 595.418Z"/><path fill="#EA7D83" d="M545.428 614.902L551.762 617.228C557.151 631.418 556.509 645.301 547.064 657.625C545.53 659.627 543.996 661.504 541.393 661.84C540.019 661.077 540.539 661.618 539.894 660.06C541.697 655.706 547.328 649.918 548.858 645.241C552.754 633.329 549.522 625.326 545.428 614.902Z"/><path fill="#EA7D83" d="M448.652 607.308C450.376 606.714 452.116 607.614 453.859 608.319C437.874 632.057 452.482 643.993 449.849 649.178C445.106 651.119 443.456 641.87 442.613 638.477C439.734 626.891 442.611 617.314 448.652 607.308Z"/><path fill="#EA7D83" d="M461.088 608.693C464.726 608.599 469.888 608.619 473.397 608.244C452.497 628.513 467.698 640.966 464.369 645.17C459.008 646.611 457.716 636.043 457.488 632.235C456.943 623.162 460.18 615.507 466.14 608.767C464.35 608.832 462.88 608.769 461.088 608.693Z"/><path fill="#EA7D83" d="M496.331 610.695C512.493 610.874 527.815 623.799 522.23 640.663C521.491 642.892 518.182 647.436 515.305 645.898C513.907 641.426 522.054 636.964 517.502 628.479C513.721 621.43 512.57 619.932 505.149 616.721C493.286 614.253 478.698 616.323 477.061 631.547C476.656 635.321 479.093 636.195 479.393 639.47C478.454 641.233 478.891 641.025 477.41 641.906L476.113 641.52C474.371 639.916 472.565 636.917 472.378 634.542C471.202 619.646 483.133 611.834 496.331 610.695Z"/><path fill="#EA7D83" d="M495.772 623.021C497.381 622.923 498.609 622.836 500.201 623.185C503.462 623.891 506.271 625.947 507.93 628.843C509.764 631.988 510.819 636.89 507.006 638.937C505.541 638.837 505.434 639.315 505.169 637.823C504.421 633.597 505.272 631.984 501.979 628.85C500.966 628.377 499.907 628.012 498.819 627.759C492.729 626.379 491.353 634.809 488.453 636.578C486.078 635.588 485.621 632.388 486.655 630.138C488.641 625.815 491.666 624.594 495.772 623.021Z"/><path fill="#F8BC46" d="M367.071 639.672C388.083 636.682 404.328 652.422 415.263 668.111C417.816 671.774 421.049 678.031 424.024 680.901C426.152 681.581 425.248 681.717 426.918 681.132L427.152 680.008C425.361 672.888 412.657 657.971 407.662 652.234L508.892 666.321C521.228 668.1 534.99 669.703 547.124 671.949C543.473 674.629 533.581 681.351 532.013 685.076C533.244 690.964 547.145 677.697 549.559 675.717C574.625 655.161 613.977 664.456 619.678 698.165C625.726 733.922 586.601 771.51 563.261 794.235C538.853 819.141 502.073 811.645 498.463 774.941C497.17 761.79 511.967 743.285 519.999 731.806C525.865 723.741 531.778 715.71 537.738 707.714C539.814 704.939 545.191 699.404 545.366 696.348C544.486 694.905 545.1 695.49 543.2 694.85C539.714 696.259 517.51 727.181 513.997 732.653C501.978 751.375 491.144 760.37 495.192 783.241C466.925 782.2 452.724 778.766 426.754 768.4C427.251 766.023 427.628 763.666 427.792 761.242C428.117 756.433 427.447 751.615 426.545 746.901C424.999 738.824 411.694 685.916 407.995 681.983C407.227 681.166 407.057 681.127 406.001 681.092C405.908 681.22 405.796 681.336 405.722 681.475C404.933 682.961 405.412 685.325 405.751 686.884C406.908 692.213 409.073 697.636 410.616 702.905C415.054 718.064 419.962 734.049 422.747 749.576C424.526 759.496 423.469 769.454 417.475 777.822C412.298 785.048 403.952 790.261 395.161 791.637C385.994 793.072 377.077 791.139 369.615 785.565C351.105 771.737 333.251 720.82 330.073 697.628C328.091 683.161 329.104 667.871 338.305 655.898C345.438 646.615 355.577 641.228 367.071 639.672Z"/><path fill="#A1D0EA" d="M591.267 423.598C598.373 425.735 605.52 427.735 612.703 429.598C617.157 451.622 621.854 473.596 626.794 495.516C624.103 498.696 622.132 500.381 618.972 503.162C616.041 505.69 612.793 508.171 609.739 510.581C604.949 486.89 599.274 463.224 594.423 439.534C593.354 434.311 591.883 428.875 591.267 423.598Z"/><path fill="#A1D0EA" d="M477.348 421.612L477.563 421.796C477.823 422.685 460.05 499.153 457.726 506.804C454.793 504.717 451.852 502.062 449.103 499.69C446.245 496.974 443.816 494.364 441.13 491.47C442.029 486.601 444.113 479.234 445.315 474.143L456.662 427.078C463.58 425.343 470.476 423.521 477.348 421.612Z"/><path d="M348.834 271.302C351.716 273.425 360.927 285.045 364.026 288.722L383.097 311.716C387.175 316.649 391.989 322.102 395.614 327.239C395.625 328.808 395.868 328.128 394.835 329.337C391.643 329.746 387.798 326.446 385.038 324.559C374.091 318 362.861 310.409 352.041 303.55C346.839 300.253 335.092 292.997 331.106 289.23C334.815 284.692 344.415 275.156 348.834 271.302Z"/><path fill="#F8BC46" d="M348.509 277.406C351.358 280.001 357.507 287.551 360.269 290.818C367.903 299.77 375.386 308.85 382.716 318.052C380.342 316.565 377.979 315.061 375.626 313.54C363.749 306.02 348.492 296.731 337.33 288.682C340.946 284.777 344.714 281.133 348.509 277.406Z"/><path d="M707.269 265.748C710.672 267.861 722.613 279.301 725.828 282.54C720.697 287.462 712.213 293.555 706.515 297.955L675.304 322.216C672.508 324.124 668.832 328.636 665.681 328.715C664.472 327.247 664.556 327.919 664.457 326.472C667.35 321.339 671.73 315.703 675.18 310.807L694.949 282.705C697.776 278.75 704.267 268.588 707.269 265.748Z"/><path fill="#F8BC46" d="M707.7 271.777C710.091 273.002 717.494 280.278 719.815 282.478C708.31 291.791 696.048 300.417 684.521 309.859C681.603 312.31 678.94 314.373 675.89 316.663C686.707 302.74 697.086 286.187 707.7 271.777Z"/><path d="M670.77 494.672C675.611 495.761 732.117 524.715 736.289 528.068C736 530.816 730.703 535.977 728.602 538.278C726.082 541.279 723.868 543.878 721.164 546.705C716.996 543.723 671.879 500.149 670.402 497.624C669.909 496.781 670.526 495.586 670.77 494.672Z"/><path fill="#F8BC46" d="M684.129 505.47C686.091 506.141 688.212 507.296 690.068 508.281C703.579 515.455 717.664 521.973 730.991 529.46L725.333 535.965L720.875 540.946C709.424 529.407 694.751 517.122 684.129 505.47Z"/><path d="M371.891 464.912C373.402 465.648 373.376 466.223 373.381 467.638C371.141 471.818 354.991 485.288 350.463 489.306C353.132 490.854 356.524 491.968 356.274 495.336C353.444 497.401 343.131 501.93 339.301 503.729C329.656 508.226 320.074 512.856 310.556 517.615L309.473 515.226C309.549 514.785 309.625 514.343 309.701 513.902C314.447 508.852 327.367 497.673 331.831 494.136C328.835 492.553 325.552 491.537 325.081 487.955C326.68 486.229 366.489 467.661 371.891 464.912Z"/><path fill="#F8BC46" d="M358.442 476.1L358.541 476.149C358.374 477.178 346.546 487.424 344.644 489.116C346.838 491.762 347.45 492.231 350.121 494.293C344.278 496.787 329.159 504.844 324.274 506.097C328.036 502.778 333.919 497.691 337.124 494.092L337.035 493.345C335.414 491.467 333.277 490.454 331.105 489.182C338.561 485.119 350.345 480.019 358.442 476.1Z"/><path d="M662.483 219.765C664.256 220.323 664.347 220.572 665.197 221.726C665.021 224.242 655.677 242.922 653.795 247.096C656.375 247.593 660.446 247.978 661.907 250.102C660.774 253.486 635.578 281.677 630.907 287.382C629.354 288.183 630.138 288.08 628.488 287.794L627.81 286.708C627.817 282.875 637.446 263.177 639.613 258.444L637.997 258.065C635.185 257.422 633.778 257.598 632.617 254.82C634.197 250.654 657.886 224.757 662.483 219.765Z"/><path fill="#F8BC46" d="M654.319 234.919C654.903 238.786 648.714 244.677 649.551 248.662C651.193 251.072 653.555 251.149 656.409 251.748C650.195 258.304 644.219 265.081 638.492 272.065L638.073 272.079C639.251 267.441 645.314 259.74 643.649 255.929C642.219 254.384 640.481 254.158 638.389 253.544C643.512 247.178 648.825 240.967 654.319 234.919Z"/><path d="M701.521 357.574C708.071 357.195 713.796 357.883 717.527 364.16C719.374 367.28 719.889 371.013 718.955 374.516C718.066 377.916 715.816 380.799 712.733 382.486C707.411 385.395 702.641 383.972 697.364 382.3C692.147 380.06 686.899 378.14 681.619 376.07C679.231 375.133 675.749 374.477 676.247 371.594C679.697 366.617 695.26 359.06 701.521 357.574Z"/><path fill="#A1D0EA" d="M702.55 362.055C707.003 361.671 711.082 362.084 713.657 366.283C714.89 368.323 715.266 370.767 714.701 373.083C714.151 375.369 712.668 377.321 710.613 378.464C706.464 380.739 703.173 379.524 699.024 378.284C693.689 376.105 688.355 373.983 683.127 371.557C689.561 367.227 695.058 363.996 702.55 362.055Z"/><path d="M362.649 356.078C371.898 355.008 378.658 359.397 386.313 363.921C389.009 365.514 393.674 367.887 394.544 370.973C393.587 373.331 383.343 376.651 379.734 378.319C373.378 381.334 365.887 384.557 358.983 381.309C355.869 379.845 353.466 377.203 352.303 373.965C351.029 370.528 351.257 366.713 352.932 363.452C355.14 359.23 358.352 357.502 362.649 356.078Z"/><path fill="#A1D0EA" d="M364.618 360.122C373.703 360.639 379.724 365.237 387.176 370.046C383.006 371.987 378.823 373.901 374.628 375.788C373.625 376.211 372.609 376.602 371.582 376.961C368.003 378.251 364.5 379.1 360.847 377.245C358.725 376.19 357.129 374.312 356.43 372.048C355.684 369.685 355.986 367.115 357.258 364.987C359.062 361.922 361.358 360.901 364.618 360.122Z"/><path d="M299.365 418.734C304.552 419.218 303.013 424.22 305.059 428.139C308.305 434.355 314.069 435.968 320.174 438.19C321.122 439.688 320.891 438.881 320.806 440.72C319.42 442.153 314.32 442.47 311.212 444.464C304.564 448.728 303.671 453.853 301.915 460.857L299.742 460.539C297.135 458.148 297.405 451.789 294.093 447.982C290.128 443.425 282.549 443.209 280.664 439.589C284.546 432.842 292.802 441.524 299.365 418.734Z"/><path fill="#F8BC46" d="M300.539 428.862C300.986 429.133 304.412 433.313 305.264 434.229C307.614 436.754 309.093 437.832 311.917 439.735C306.084 442.923 304.432 444.861 300.947 450.126L300.399 450.102L299.341 448.626C296.253 444.31 294.194 442.909 290.001 439.796C295.042 436.33 297.186 433.848 300.539 428.862Z"/><path d="M416.929 243.274C420.201 244.125 427.687 257.503 430.265 261.507C431.953 259.891 432.86 258.803 435.064 258.587C437.379 261.036 443.591 283.692 441.917 287.142L440.906 287.365C440.092 286.889 439.778 286.373 439.108 285.624C428.676 274.911 417.109 265.234 406.775 254.705C410.118 250.858 413.503 247.048 416.929 243.274Z"/><path fill="#F8BC46" d="M417.033 249.349C419.854 251.138 425.456 263.752 429.1 266.213C432.187 266.304 429.933 265.738 433.02 264.816C433.971 266.285 435.756 273.896 436.325 276.037L435.641 276.335L412.442 254.657L417.033 249.349Z"/><path d="M757.109 470.705C761.928 472.229 759.939 477.691 762.52 482.804C765.221 488.153 773.743 489.849 774.096 492.773C772.093 494.667 768.192 494.206 764.953 495.542C758.12 498.36 756.791 502.558 754.072 508.801C749.672 508.302 750.923 502.216 749.303 497.875C747.109 491.997 737.315 490.472 737.686 486.826C743.656 480.483 747.666 491.477 757.109 470.705Z"/><path fill="#F8BC46" d="M756.826 480.93C759.544 483.778 758.738 486.478 764.964 491.166C760.037 493.449 758.05 494.65 754.453 498.686L753.97 498.433C752.086 494.399 750.057 491.691 746.909 488.643C751.321 486.439 753.37 484.331 756.826 480.93Z"/></svg>