<?xml version="1.0" encoding="utf-8" ?><svg xmlns="http://www.w3.org/2000/svg" xmlns:xlink="http://www.w3.org/1999/xlink" width="1024" height="1024" viewBox="0 0 1024 1024"><path fill="white" d="M0 0L1024 0L1024 1024L0 1024L0 0Z"/><path fill="#030303" d="M668.946 323.892C680.223 324.371 685.824 331.809 690.742 340.773C695.078 342.931 700.832 345.269 705.394 347.285C703.447 337.948 700.355 337.762 698.925 332.788L699.659 331.7C704.209 330.542 707.948 345.974 708.654 349.195C742.088 370.5 760.698 401.011 761.364 441.159C765.776 442.466 769.909 443.855 773.437 446.949C777.084 450.101 779.248 454.633 779.409 459.45C779.568 464.1 777.74 468.598 774.382 471.817C769.141 476.902 762.658 477.544 755.852 477.524C744.428 508.836 724.349 531.026 692.866 543.509C687.164 545.77 680.746 547.216 674.781 548.77C676.711 570.203 693.347 630.883 702.456 650.091C709.198 651.484 740.224 659.57 731.719 670.512C728.506 674.645 702.293 672.671 696.486 672.784C699.511 675.819 702.077 677.896 702.288 682.178C699.497 688.456 689.169 682.904 684.822 681.374C675.788 678.194 672.593 672.137 666.098 666.272C642.851 645.281 629.758 622.747 618.875 593.631C613.14 597.822 606.033 603.859 600.088 608.402C602.807 623.922 613.123 655.203 619.967 669.782C628.037 671.023 643.123 674.405 650.595 679.065C651.869 679.86 651.676 681.204 651.819 682.715C657.476 688.901 657.389 689.551 650.737 694.238C650.264 696.333 650.232 697.333 648.971 698.986C645.072 701.224 642.162 699.319 637.308 699.737L637.529 703.035C637.091 703.869 637.086 704.141 636.238 704.651C632.141 707.119 604.82 702.081 599.123 700.345C580.29 694.605 553.064 653.602 544.012 636.316L541.697 631.671C535.447 632.759 529.179 633.466 522.884 634.237C522.743 635.408 522.558 636.573 522.327 637.73C516.569 665.668 494.353 678.24 467.275 678.563C460.757 678.641 453.455 678.748 447.061 677.398C442.375 681.507 436.836 686.159 431.021 688.564C401.885 700.613 365.751 690.266 337.993 679.649C325.021 686.657 314.797 695.149 299.474 697.997C284.89 700.707 284.299 689.296 288.163 678.847C294.108 662.772 301.792 646.271 311.942 632.447C321.988 618.964 336.099 623.772 350.091 624.841C357.059 625.388 363.449 624.996 370.262 624.38C361.814 611.726 360.32 605.289 355.829 591.288C352.634 581.326 348.931 575.921 347.504 564.528C342.898 527.763 364.118 492.822 397.482 477.651C436.574 459.537 477.917 470.571 518.787 472.379C530.278 472.887 540.456 471.76 551.782 470.207C551.524 467.932 550.988 465.318 550.579 463.036C544.897 462.254 539.451 461.029 534.897 457.266C531.182 454.241 528.864 449.831 528.479 445.057C527.508 432.206 538.743 427.083 549.725 426.375C550.607 421.825 551.611 417.3 552.736 412.803C559.789 386.029 577.215 363.167 601.162 349.269C620.747 337.758 643.831 332.811 666.46 335.257C673.545 336.022 680.059 337.814 686.936 339.581C685.278 336.389 683.517 333.848 680.864 331.395C678.129 328.866 671.187 327.968 668.903 325.743L668.946 323.892Z"/><path fill="#F5DBC5" d="M646.335 337.696C652.892 336.598 682.566 338.457 687.717 343.565C693.414 349.212 687.579 372.803 675.9 370.594C670.953 369.658 671.75 364.879 668.8 361.263L668.025 361.312C662.764 370.997 681.181 378.938 688.006 367.15C692.984 358.551 693.031 353.984 691.855 344.591C696.977 346.526 701.01 348.144 705.727 350.925C706.248 359.45 703.51 368.063 697.672 374.377C692.575 379.984 685.384 383.232 677.807 383.351C669.716 383.493 661.481 380.063 656.742 373.177C654.96 370.587 654.288 367.414 651.91 365.073L651.153 365.084L650.673 366.222C651.034 369.4 654.518 374.969 656.592 377.265C666.972 388.75 686.024 388.842 697.308 378.589C705.596 371.059 707.827 363.314 708.612 352.587C714.626 356.153 720.237 360.358 725.348 365.129C749.224 387.225 757.505 412.077 758.72 443.638C763.685 444.747 767.72 445.669 771.681 449.203C777.46 454.292 778.453 463.564 772.968 469.247C768.227 474.16 762.741 474.645 756.386 474.9C755.272 474.775 755.613 474.793 754.492 474.981C752.924 476.389 751.266 481.826 750.271 484.19C747.977 489.687 745.237 494.987 742.077 500.037C727.511 522.844 704.551 538.999 678.165 545.008C650.762 551.215 622.014 546.24 598.292 531.182C571.426 513.798 559.304 490.718 552.716 460.456C543.878 459.025 532.978 457.2 531.282 446.357C530.683 442.547 531.729 438.662 534.161 435.669C538.854 429.853 545.09 429.492 551.825 428.857C553.286 423.969 554.126 418.27 555.499 413.229C567.129 370.54 602.982 342.493 646.335 337.696Z"/><path fill="#E58085" d="M709.766 473.251C719.019 471.866 727.64 478.25 729.015 487.504C730.39 496.757 723.997 505.372 714.742 506.737C705.5 508.101 696.901 501.719 695.528 492.479C694.155 483.239 700.528 474.633 709.766 473.251Z"/><path fill="#E58085" d="M593.597 463.725C602.727 461.761 611.723 467.565 613.697 476.693C615.671 485.821 609.878 494.823 600.752 496.807C591.612 498.795 582.592 492.991 580.615 483.848C578.638 474.705 584.452 465.692 593.597 463.725Z"/><path fill="#030303" d="M609.255 439.88C614.023 439.257 618.406 442.585 619.087 447.345C619.768 452.106 616.495 456.529 611.744 457.27C608.617 457.757 605.47 456.525 603.506 454.044C601.541 451.564 601.062 448.219 602.252 445.287C603.442 442.355 606.117 440.289 609.255 439.88Z"/><path fill="#030303" d="M704.366 447.92C709.085 446.797 713.813 449.741 714.888 454.471C715.963 459.201 712.972 463.899 708.232 464.927C703.558 465.941 698.94 463.001 697.879 458.337C696.819 453.674 699.713 449.026 704.366 447.92Z"/><path fill="#030303" d="M638.94 499.224C642.006 499.812 648.067 506.823 656.028 506.924C663.425 507.017 665.028 502.983 668.167 503.121C669.117 504.352 668.896 503.669 668.82 505.248C664.097 508.507 660.343 509.238 654.532 509.175C649.396 509.119 638.668 505.804 638.94 499.224Z"/><path fill="#030303" d="M609.262 420.6C613.622 420.342 618.781 420.64 621.048 425.098L620.695 426.04C618.44 426.29 617.493 425.14 615.451 423.682C614.088 423.533 610.954 423.12 609.737 423.492C607.423 424.2 605.78 426.599 603.115 426.147C602.047 424.879 602.271 425.581 602.323 424.005C604.184 422 606.702 421.334 609.262 420.6Z"/><path fill="#030303" d="M704.647 428.066C709.291 427.813 717.949 428.519 718.348 434.605L717.54 435.15C715.633 434.588 715.825 434.255 714.213 432.579C705.058 427.781 706.527 433.244 699.259 432.409L698.775 431.781C699.983 429.804 702.591 428.821 704.647 428.066Z"/><path fill="#030303" d="M655.025 465.008C659.1 464.669 664.586 466.1 663.821 471.251L663.07 471.806C661.356 470.97 661.645 470.78 660.388 468.948C656.142 465.826 654.372 470.218 650.402 470.433C651.294 467.652 652.687 466.507 655.025 465.008Z"/><path fill="#9ECBE6" d="M439.807 470.203C455.36 468.068 489.625 473.147 505.955 474.258C524.874 475.544 533.702 475.039 552.644 472.812C567.212 519.144 599.939 545.518 648.204 550.135C637.766 572.058 618.849 591.559 599.284 605.507C597.357 595.167 596.064 584.718 595.411 574.219C595.212 571.162 595.505 558.109 593.671 556.852L593.036 557.297C591.374 561.982 593.54 582.594 594.133 588.561C596.922 616.603 606.736 643.953 617.112 669.987C616.012 670.13 614.915 670.298 613.822 670.491C601.841 672.645 593.187 678.877 586.397 688.758C572.584 674.781 565.28 665.663 554.352 649.214C542.575 629.821 534.974 612.326 530.229 589.951C529.13 584.77 527.266 569.38 526.09 565.958L525.029 565.643L524.395 566.625C523.325 574.724 530.636 603.952 533.707 612.672C535.174 616.837 538.458 624.75 540.303 629.091C517.842 633.758 486.07 633.312 463.909 627.216C463.723 609.254 461.117 593.731 450.594 578.607C440.113 563.544 424.967 553.613 406.884 550.359C389.476 547.226 370.843 552.078 361.519 568.085C357.96 574.14 357.188 578.698 356.141 585.55C344.388 555.52 348.201 527.116 369.372 502.205C387.66 480.686 412.289 472.288 439.807 470.203Z"/><path fill="#F5DBC5" d="M390.85 552.65C399.974 551.757 409.181 552.98 417.754 556.226C433.946 562.375 447.043 574.687 454.18 590.467C462.957 609.753 463.602 637.579 456.004 657.161C436.077 708.516 375.308 690.736 337.534 676.545C331.551 680.435 326.552 683.61 320.294 687.015C314.098 690.27 307.581 693.388 300.772 695.12C297.856 695.862 294.101 696.552 291.424 694.759C289.862 693.714 289.085 691.995 288.852 690.187C287.47 679.496 306.224 644.2 312.984 635.592C315.371 632.553 318.94 628.577 322.546 627.079C331.407 623.398 344.687 627.153 354.165 627.581C360.204 627.853 366.07 627.539 372.065 626.815C374.888 629.655 383.112 639.692 386.694 639.722C386.65 636.637 379.094 630.563 376.593 627.86C353.731 603.141 348.653 559.523 390.85 552.65Z"/><path fill="#9ECBE6" d="M671.469 549.21L671.939 549.221C672.415 549.807 676.502 573.313 677.166 576.336C682.821 601.17 690.225 625.573 699.323 649.362C685.501 650.666 678.036 654.899 669.474 665.626C666.076 662.35 662.702 659.05 659.351 655.727C641.792 637.664 628.681 615.761 621.057 591.753C625.049 586.707 629.988 581.415 634.212 576.346C641.749 567.301 645.607 560.531 651.158 550.421C658.824 550.516 663.933 550.049 671.469 549.21Z"/><path fill="#EBB6A6" d="M463.868 630.286C466.432 630.593 469.544 631.168 472.085 631.717C488.11 635.177 504.034 635.087 520.289 634.469C516.926 650.31 511.419 659.774 497.871 668.581C481.838 677.101 466.428 676.728 448.755 675.365C460.046 661.346 462.276 647.501 463.868 630.286Z"/><path fill="#F5DBC5" d="M616.269 672.615C625.073 671.736 643.689 677.638 651.317 681.939C645.172 681.723 639.196 679.235 634.402 680.82L634.169 681.393C637.273 683.867 654.885 683.894 653.493 689.603C653.142 689.921 652.016 691.002 651.447 691.107C646.679 691.988 632.066 683.065 628.922 687.312C630.108 689.665 646.213 690.401 647.699 695.923L647.119 696.778C645.299 697.802 644.728 697.643 642.549 697.692C637.518 696.72 625.075 692.011 622.194 692.924C621.458 695.714 633.988 697.687 635.651 701.57L635.081 702.311C634.175 702.629 632.627 703.098 631.693 702.971C618.07 701.108 598.682 700.965 588.507 690.964C594.177 680.26 604.674 674.695 616.269 672.615Z"/><path fill="#F5DBC5" d="M696.861 652.147C697.317 652.095 698.044 652.019 698.501 652.045C705.201 652.437 731.375 659.546 730.411 668.002C725.374 673.637 697.47 668.261 693.033 671.414C692.657 672.942 692.659 672.139 693.48 673.87C695.617 675.77 700.468 679.02 698.549 681.975C691.618 684.234 675.522 674.209 671.741 668.063C678.036 658.048 685.169 653.895 696.861 652.147Z"/><path fill="#030303" d="M278.88 552.25C282.177 552.175 292.123 551.492 294.354 553.069L294.262 554.148C292.228 555.497 240.582 554.911 233.756 554.907C230.227 554.965 221.486 555.629 218.86 553.9L218.757 552.941C220.574 551.94 271.757 552.294 278.88 552.25Z"/><path fill="#030303" d="M264.408 528.681C272.292 527.517 305.917 528.584 315.742 528.625C316.347 528.628 316.523 529.645 316.895 530.523C309.023 531.697 275.877 530.609 265.553 530.63C265.037 530.631 264.729 529.424 264.408 528.681Z"/><path fill="#030303" d="M243.289 614.655C254.081 614.114 277.497 614.266 289.155 614.762C289.689 614.785 289.873 616.078 290.141 616.914C285.222 617.068 245.44 617.407 243.774 616.513L243.289 614.655Z"/><path fill="#030303" d="M308.952 493.246L332.59 493.15C336.735 493.138 344.101 492.956 347.979 493.629L348.319 494.178C346.831 496.169 344.498 495.737 342.25 495.653C336.614 495.603 305.446 496.145 302.345 494.887L302.737 494.217C305.189 492.903 306.169 493.167 308.952 493.246Z"/><path fill="#030303" d="M279.815 595.634C290.453 595.588 308.635 595.043 319.429 596.072C320.09 596.135 320.296 597.074 320.685 597.895C316.084 598.29 281.763 598.694 280.071 597.523L279.815 595.634Z"/><path fill="#030303" d="M709.052 611.411C711.456 613.042 718.27 634.356 716.869 637.327C713.74 635.288 709.967 618.446 708.219 614.04C707.737 612.827 708.422 612.309 709.052 611.411Z"/><path fill="#030303" d="M725.812 618.163L727.435 618.693C729.94 622.033 733.468 634.661 732.977 638.68C732.533 638.497 731.432 638.065 731.279 637.669C729.788 633.793 725.498 621.518 725.812 618.163Z"/></svg>