<?xml version="1.0" encoding="utf-8" ?><svg xmlns="http://www.w3.org/2000/svg" xmlns:xlink="http://www.w3.org/1999/xlink" width="1024" height="1024" viewBox="0 0 1024 1024"><path fill="#010001" d="M259.312 293.638C268.069 293.189 279.11 293.518 288.062 293.525L340.252 293.545L502.575 293.539L676.891 293.552L732.47 293.521C742.416 293.506 752.196 293.414 762.301 293.578C777.025 293.817 790.388 304.951 793.321 319.4C794.583 325.615 794.186 333.61 794.306 339.984C794.438 346.96 794.324 354.085 794.32 361.086L794.325 441.26L794.314 602.06L794.317 653.434C794.335 679.83 798.841 707.375 766.036 714.921C758.323 715.733 746.468 715.428 738.466 715.431L691.946 715.44L542.042 715.493L354.122 715.456L294.198 715.496C284.587 715.504 270.304 715.929 261.082 715.283C254.72 714.873 248.607 712.661 243.457 708.906C228.56 698.153 229.14 682.506 229.495 666.007C229.656 658.512 229.546 650.73 229.547 643.215L229.539 551.532L229.524 400.053L229.515 351.866C229.515 342.89 229.353 333.921 229.734 324.953C230.466 307.724 242.724 296.099 259.312 293.638Z"/><path fill="white" d="M232.489 330.062L791.567 330.009L791.536 579.118L791.522 649.499C791.531 660.81 791.825 672.41 791.309 683.702C790.951 691.556 787.205 697.612 782.21 703.466C770.207 714.438 759.186 712.511 744.103 712.527L710.057 712.54L601.812 712.574L267.895 712.607C256.521 712.529 249.565 711.24 241.01 702.857C237.308 699.229 233.021 690.929 232.751 685.851C232.103 673.668 232.397 660.394 232.395 648.145L232.381 570.879L232.34 425.853C232.211 393.922 232.261 361.991 232.489 330.062Z"/><path fill="#010001" d="M504.002 375.201C523.671 372.556 548.915 379.784 564.854 391.286C586.887 407.186 598.462 427.232 603.179 453.422C612.547 455.322 621.388 459.851 622.561 470.426C623.073 475.149 621.573 479.87 618.429 483.431C613.832 488.724 608.198 490.17 601.58 490.636C597.827 504.847 590.905 518.024 581.332 529.177C565.711 547.307 543.598 558.581 519.75 560.576C501.849 562.181 483.873 558.469 468.071 549.907C443.99 536.849 429.913 516.775 422.152 490.988C417.146 490.429 413.121 489.623 408.891 486.565C404.889 483.73 402.211 479.391 401.471 474.543C400.735 469.859 401.993 465.08 404.94 461.365C408.803 456.524 414.303 454.765 420.189 454.074C421.378 448.225 422.514 442.61 424.472 436.955C436.972 400.863 466.705 379.124 504.002 375.201Z"/><path fill="#F9D8C7" d="M508.897 377.713C527.207 376.472 549.704 383.569 564.338 394.471C585.591 410.304 596.856 430.326 600.924 456.154C610.018 456.862 619.357 461.186 619.797 471.523C619.961 475.394 618.546 479.166 615.877 481.974C611.223 486.931 605.534 487.481 599.305 487.72C588.629 528.248 558.327 554.929 516.178 558.055C469.72 559.117 436.885 531.839 424.316 488.034C415.511 487.506 406.139 484.777 404.288 474.744C403.567 470.898 404.491 466.926 406.836 463.794C410.956 458.278 416.537 457.332 422.782 456.575C425.029 438.55 432.587 421.601 444.495 407.884C461.636 388.368 483.367 379.285 508.897 377.713Z"/><path fill="#EF7E87" d="M460.084 484.739C468.048 484.129 475.027 490.026 475.753 497.981C476.479 505.936 470.683 513 462.74 513.841C457.498 514.397 452.363 512.086 449.303 507.794C446.242 503.502 445.73 497.894 447.963 493.119C450.196 488.344 454.828 485.142 460.084 484.739Z"/><path fill="#EF7E87" d="M560.876 484.818C568.806 484.037 575.884 489.79 576.742 497.711C577.599 505.633 571.916 512.767 564.003 513.702C555.981 514.65 548.726 508.87 547.856 500.839C546.987 492.807 552.837 485.609 560.876 484.818Z"/><path fill="#010001" d="M517.483 399.085C518.84 399.595 518.3 399.177 519.121 400.426C520.152 408.222 513.461 414.355 506.805 417.461C501.96 419.721 488.937 417.997 487.14 412.705C491.858 410.994 492.611 413.791 497.246 409.593L497.691 409.183C499.311 406.647 500.267 403.471 501.669 400.56L502.606 400.464L503.092 401.334C503.392 407.019 498.955 409.912 496.479 414.195L496.782 415.001C501.015 416.62 505.648 415.63 509.477 413.367C514.887 410.169 516.115 404.742 517.483 399.085Z"/><path fill="#010001" d="M490.473 509.409C491.955 509.872 493.615 511.81 494.771 512.857C505.075 522.18 520.993 521.674 530.28 511.055C531.153 510.056 531.797 509.953 532.957 509.984C533.758 511.387 533.594 510.633 533.303 512.35C523.779 522.083 512.197 525.324 499.272 519.386C495.894 517.834 488.363 513.703 490.473 509.409Z"/><path fill="#010001" d="M544.514 465.349C545.866 466.027 548.753 469.961 550.873 471.608C558.795 477.763 564.976 473.663 570.605 466.059L570.873 465.692L571.756 465.682C572.843 467.169 572.592 466.345 572.423 468.268C560.903 485.315 540.448 472.827 544.514 465.349Z"/><path fill="#010001" d="M451.935 465.298C454.454 466.251 455.328 468.87 457.693 470.793C464.191 476.244 471.455 475.721 476.086 468.358C477.002 466.901 477.32 465.93 479.024 466.022C480.072 467.176 479.734 466.489 479.812 468.259C478.583 470.286 476.996 472.376 475.075 473.785C471.505 476.401 466.999 477.397 462.659 476.529C457.378 475.474 450.662 471.508 451.935 465.298Z"/><path fill="#010001" d="M534.347 397.667L535.788 398.248C537.418 401.263 535.579 405.723 534.054 408.464C530.685 414.518 527.002 417.012 520.634 418.763C519.159 417.774 519.564 418.428 519.217 416.846L519.943 416.005C522.503 415.397 524.971 414.747 527.2 413.294C532.701 409.709 532.41 403.782 534.036 398.624L534.347 397.667Z"/><path fill="#010001" d="M509.993 481.987C513.539 482.102 515.572 482.353 516.953 486.104L516.573 486.889C514.831 486.602 514.91 486.089 513.355 484.456L511.042 484.601C509.759 485.517 507.857 487.034 506.29 486.732C506.756 484.091 507.897 483.384 509.993 481.987Z"/><path fill="#010001" d="M676.363 361.883C677.653 361.844 678.973 361.802 680.166 362.405C681.774 363.217 682.033 365.234 682.675 366.745C682.986 367.474 682.778 367.389 683.459 367.611C686.346 368.548 719.742 368.55 721.611 367.54C723.029 366.774 723.174 365.547 723.742 364.208C724.212 363.101 724.585 362.159 725.879 361.855C727.136 361.559 728.302 361.975 729.441 362.447C732.242 364.943 729.165 368.434 735.829 368.242C741.534 368.077 743.245 371.62 743.349 376.825C743.758 397.377 743.774 418.097 743.358 438.65C743.266 443.184 739.49 444.684 735.625 445.016C714.862 445.062 694.097 445.103 673.336 445.106C662.272 445.107 661.638 442.18 661.665 432.105C661.713 413.793 661.496 395.47 661.655 377.16C661.765 364.592 670.066 370.559 673.703 367.101C674.491 364.394 674.461 363.79 676.363 361.883Z"/><path fill="white" d="M663.362 387.361C689.195 387.255 716.257 386.983 742.01 387.487C741.835 404.443 742.371 421.716 741.794 438.676C741.765 439.509 741.018 441.12 740.624 441.909C735.703 444.828 706.819 443.143 699.44 443.512C690.537 443.957 678.548 443.29 669.41 443.376C666.671 443.402 663.98 441.108 663.72 438.358C663.215 432.825 663.427 427.091 663.418 421.523L663.362 387.361Z"/><path fill="#010001" d="M672.542 408.504L684.72 408.514L684.665 419.393L672.475 419.25L672.542 408.504Z"/><path fill="#EF7E87" d="M674.037 410.024L683.102 410.015C683.027 412.463 683.088 415.108 683.096 417.574L674.096 417.589C674.255 415.153 674.106 412.483 674.037 410.024Z"/><path fill="#010001" d="M720.837 408.637C724.462 408.447 729.271 408.598 732.982 408.606C733.082 412.123 733.067 415.643 732.938 419.159C728.859 419.224 724.779 419.251 720.699 419.239C720.616 415.487 720.673 412.39 720.837 408.637Z"/><path fill="#EF7E87" d="M729.752 410.251C730.505 410.189 730.049 410.164 731.088 410.557C731.85 412.577 731.568 415.294 731.526 417.545L724.375 417.51C723.487 417.531 723.683 417.478 722.785 417.154C722.083 415.231 722.428 412.458 722.524 410.32L729.752 410.251Z"/><path fill="#010001" d="M688.58 408.579C692.563 408.5 696.761 408.567 700.764 408.564C700.864 412.004 700.766 415.846 700.752 419.32L688.473 419.242L688.58 408.579Z"/><path fill="#EF7E87" d="M690.339 410.033L699.363 410.003C699.224 412.473 699.29 415.112 699.299 417.598L690.168 417.549C690.358 415.345 690.308 412.305 690.339 410.033Z"/><path fill="#010001" d="M704.863 408.528C708.83 408.473 712.988 408.556 716.973 408.572L716.994 419.175L704.583 419.123L704.863 408.528Z"/><path fill="#EF7E87" d="M706.52 410.054C709.455 410.099 712.513 410.042 715.459 410.03L715.396 417.516L706.396 417.479L706.52 410.054Z"/><path fill="#010001" d="M672.521 422.968L684.689 422.789L684.575 433.494L672.519 433.453L672.521 422.968Z"/><path fill="#EF7E87" d="M674.065 424.511L683.206 424.518L683.223 431.98L674.138 431.986L674.065 424.511Z"/><path fill="#010001" d="M704.76 394.503L716.922 394.506C716.98 398.328 716.996 401.425 716.756 405.229L704.681 405.256C704.602 401.58 704.664 398.181 704.76 394.503Z"/><path fill="#EF7E87" d="M706.455 395.976C709.364 396.037 712.462 395.977 715.389 395.971L715.381 403.682L706.381 403.726L706.455 395.976Z"/><path fill="#010001" d="M704.801 422.898L716.938 422.851L716.971 433.473L704.707 433.516C704.676 429.976 704.708 426.436 704.801 422.898Z"/><path fill="#EF7E87" d="M706.517 424.484L715.455 424.459L715.453 431.783C712.549 431.725 709.384 431.86 706.455 431.929L706.517 424.484Z"/><path fill="#010001" d="M688.602 394.551L700.601 394.508C700.694 397.674 700.921 402.261 700.374 405.266L688.521 405.168L688.602 394.551Z"/><path fill="#EF7E87" d="M689.98 395.992L699.143 395.998L699.142 403.658L690.03 403.706L689.98 395.992Z"/><path fill="#010001" d="M720.65 394.581L732.955 394.573C733.002 396.996 733.459 403.579 732.366 405.251L720.596 405.281C720.512 401.709 720.594 398.153 720.65 394.581Z"/><path fill="#EF7E87" d="M722.291 396.001C725.183 396.091 728.482 396.001 731.411 395.982L731.442 403.724L722.208 403.716C722.35 401.345 722.281 398.418 722.291 396.001Z"/><path fill="#010001" d="M688.654 422.882L700.674 422.837C700.917 426.211 700.756 430.065 700.694 433.486L688.54 433.498C688.517 429.959 688.556 426.42 688.654 422.882Z"/><path fill="#EF7E87" d="M690.453 424.498L699.34 424.468L699.379 431.857L690.341 431.931L690.453 424.498Z"/><path fill="#2579E9" d="M722.713 369.554C722.813 374.232 722.389 375.684 726.533 378.402C731.958 378.91 729.741 370.421 732.691 369.337C736.681 367.872 740.489 371.431 741.915 374.808C742.055 378.365 742.031 382.27 742.084 385.859C715.768 385.49 689.449 385.411 663.131 385.62C663.052 378.841 661.307 371.846 669.07 369.598C669.247 369.594 671.795 369.565 672.023 369.606C675.707 370.274 673.451 378.145 678.744 378.69C682.859 376.718 682.463 373.446 682.457 369.599C695.222 369.991 709.81 369.602 722.713 369.554Z"/><path fill="#2579E9" d="M725.466 363.295C727.083 363.339 727.125 363.2 728.476 364.007C730.852 367.187 730.205 373.649 728.086 376.81C722.056 375.907 723.694 367.17 725.466 363.295Z"/><path fill="#2579E9" d="M677.346 363.204C678.682 363.472 678.62 363.493 679.801 364.205C682.099 367.582 681.711 373.821 679.286 377.07C673.578 375.292 674.48 366.858 677.346 363.204Z"/><path fill="#010001" d="M648.273 475.722C655.685 475.607 663.098 475.634 670.509 475.802L670.531 561.515L683.444 561.486C683.311 539.275 682.954 516.036 683.304 493.863L705.737 493.935C706.19 500.878 705.915 510.722 705.905 517.901L705.827 561.475L718.616 561.484L718.531 531.75L718.592 509.55C726.059 509.515 733.526 509.553 740.993 509.664L741.003 561.44C744.009 561.348 748.349 561.036 751.02 562.412C746.514 563.79 639.78 563.496 637.979 562.59C640.15 560.858 645.184 561.393 648.02 561.474L648.024 508.131C648.031 497.616 647.832 486.122 648.273 475.722Z"/><path fill="#A0CFED" d="M649.69 477.381L668.843 477.438L668.72 533.36C668.724 542.072 669.26 553.094 668.831 561.5L649.729 561.481C650.288 534.227 649.837 504.727 649.69 477.381Z"/><path fill="#A0CFED" d="M684.982 495.53L704.088 495.518L704.071 561.479L685.06 561.404L684.982 495.53Z"/><path fill="#EF7E87" d="M720.357 511.218L739.381 511.278C739.124 527.973 739.117 544.67 739.36 561.365C734.483 561.73 725.518 561.451 720.338 561.449L720.357 511.218Z"/><path fill="#010001" d="M349.059 466.09C356.451 466.002 364.071 466.121 371.482 466.144L371.516 561.471C374.232 561.403 378.963 560.973 381.132 562.507C375.75 564.02 273.223 563.746 268.784 562.478L269.084 561.996C272.048 561.197 275.347 561.454 278.448 561.502C278.347 548.508 278.35 535.514 278.455 522.52L286.25 522.517L300.856 522.596C300.959 535.567 300.962 548.537 300.864 561.508L313.683 561.497L313.761 508.117C321.203 508.019 328.646 508.051 336.087 508.213L336.221 561.502L349.177 561.49C348.963 529.691 348.924 497.89 349.059 466.09Z"/><path fill="#A0CFED" d="M350.667 467.731C357.026 467.82 363.476 467.774 369.844 467.777C369.678 499.003 369.686 530.231 369.865 561.457L350.847 561.462L350.667 467.731Z"/><path fill="#2579E9" d="M315.487 509.638C321.827 509.7 328.168 509.684 334.508 509.588C334.415 526.894 334.431 544.199 334.557 561.505L315.5 561.436L315.487 509.638Z"/><path fill="#A0CFED" d="M279.986 524.117C286.278 524.245 292.812 524.159 299.126 524.154C298.951 536.604 299.03 549.055 299.361 561.501L279.996 561.457L279.986 524.117Z"/><path fill="#010001" d="M533.442 623.01C553.121 622.993 581.104 622.215 600.321 623.218C601.157 626.527 601.45 630.69 601.514 634.074C601.807 649.401 601.932 658.105 591.111 669.582C589.698 670.731 587.909 672.215 586.397 673.191C578.26 678.38 568.408 680.16 558.969 678.147C550.235 676.408 542.554 671.26 537.625 663.842C531.087 653.866 531.178 634.164 533.442 623.01Z"/><path fill="#A0CFED" d="M534.704 624.641C541.746 624.448 596.881 623.941 599.115 625.42C602.05 635.507 583.033 624.285 582.702 635.149C582.482 642.364 595.038 640.828 599.769 640.816L599.63 647.362C591.09 647.758 585.597 650.41 579.731 656.579C574.417 663.804 573.886 667.992 574.175 676.718C569.25 677.316 564.724 677.122 559.787 676.889C560.423 659.98 551.421 648.65 534.033 647.306L533.998 640.739C536.75 640.796 546.143 641.285 547.552 640.001C559.709 628.932 537.792 629.946 534.686 629.786C534.128 628.54 534.56 626.144 534.704 624.641Z"/><path fill="#A0CFED" d="M534.254 649.004C550.728 650.718 558.168 660.041 558.024 676.359C553.475 675.16 549.226 673.028 545.547 670.099C538.65 664.574 535.214 657.655 534.254 649.004Z"/><path fill="#A0CFED" d="M597.452 649.131C598.57 649.1 598.153 649.044 599.203 649.484C599.643 651.586 598.162 655.978 597.277 658.001C593.148 667.436 586.281 672.16 577.188 675.856L576.335 675.83L575.721 675.027C573.701 661.632 584.647 650.984 597.452 649.131Z"/><path fill="#A0CFED" d="M587.28 631.572C591.248 631.424 595.759 631.524 599.77 631.519C599.873 633.618 600.348 637.056 599.39 638.795L598.125 639.021C594.547 639.038 584.671 640.059 584.448 635.079C585.241 633.153 585.641 632.991 587.28 631.572Z"/><path fill="#A0CFED" d="M534.144 631.538C538.351 631.457 546.266 630.306 548.573 634.237C548.939 636.061 548.693 636.314 547.953 637.996C544.046 639.411 538.387 639.049 534.083 639.045L534.144 631.538Z"/><path fill="#010001" d="M382.196 617.322C399.873 615.422 415.723 628.26 417.538 645.945C419.353 663.63 406.441 679.419 388.747 681.15C371.172 682.869 355.512 670.062 353.709 652.495C351.907 634.929 364.639 619.208 382.196 617.322Z"/><path fill="white" d="M380.602 619.323C397.077 616.58 412.667 627.681 415.463 644.148C418.259 660.614 407.207 676.239 390.75 679.088C374.218 681.949 358.506 670.837 355.697 654.295C352.889 637.754 364.052 622.078 380.602 619.323Z"/><path fill="#010001" d="M384.975 628.13L386.162 628.876C386.917 632.13 386.574 644.393 386.524 648.375C389.281 651.059 393.124 653.737 395.975 656.4C397.962 658.256 398.16 658.028 398.295 660.152C395.383 659.414 387.427 652.067 384.559 649.589C384.535 644.387 384.257 632.805 384.975 628.13Z"/><path fill="#010001" d="M660.956 620.208C665.833 619.663 671.375 619.851 673.119 625.928C673.363 626.776 672.683 628.493 671.971 628.97C664.073 634.253 652.025 631.187 642.914 632.346C632.491 633.545 634.384 638.714 623.225 638.508C604.598 633.217 614.601 615.96 630.766 621.682C640.51 625.131 650.627 620.992 660.956 620.208Z"/><path fill="#A0CFED" d="M663.985 621.707C667.423 621.315 670.783 622.427 671.188 626.312C668.174 633.134 646.662 629.054 640.174 631.086C631.926 633.669 630.263 638.294 620.744 636.1C611.949 631.443 613.246 623.153 623.63 622.573C629.131 622.266 635.742 625.301 638.989 625.006C647.311 624.251 655.428 622.349 663.985 621.707Z"/><path fill="#DEDDDD" d="M424.665 621.119L480.914 621.026L480.945 627.438C462.53 627.937 443.014 627.558 424.472 627.583L424.665 621.119Z"/><path fill="#DEDDDD" d="M612.128 644.185C625.056 644.712 643.464 643.994 656.958 644.027L656.994 650.426C651.219 650.634 614.618 651.158 612.242 650.013C611.585 647.99 611.938 646.333 612.128 644.185Z"/><path fill="#DEDDDD" d="M424.082 645.472C429.026 645.514 460.21 644.964 462.458 645.963C463.192 647.736 462.859 649.706 462.746 651.666C451.238 652.33 435.781 651.979 424.018 652.042L424.082 645.472Z"/><path fill="#DEDDDD" d="M424.567 633.213C433.701 632.759 443.701 632.964 452.908 632.986L452.938 639.388C449.359 639.555 426.64 640.322 424.716 639.004C424.036 637.001 424.385 635.349 424.567 633.213Z"/><path fill="#010001" d="M450.065 667.703C452.539 667.511 456.677 668.627 459.812 668.17C460.989 667.998 461.911 668.932 462.608 669.69C463.252 671.882 463.484 675.386 462.723 677.537C461.301 678.804 462.08 678.549 460.442 678.653C458.42 676.688 460.073 673.483 457.848 670.852L457.02 671.27C455.941 672.721 456.045 673.589 455.868 675.407L455.806 676.107C455.929 677.303 455.934 676.849 455.57 678.053C454.031 678.804 454.879 678.585 452.847 678.255C451.727 676.546 452.28 674.73 451.819 671.995C450.781 671.128 451.352 671.258 450.136 671.353C448.72 673.191 449.631 676.337 447.972 678.704C446.464 678.816 447.171 678.984 445.834 677.992C445.169 674.763 445.135 671.435 445.735 668.193C447.659 667.549 447.13 667.778 449.433 668.321L450.065 667.703Z"/><path fill="#010001" d="M633.254 665.368C638.141 666.032 643.905 664.92 648.335 665.746C651.095 667.778 651.712 672.636 649.896 675.42C648.364 676.048 649.126 676.02 647.535 675.465C645.48 672.552 648.799 669.867 644.65 668.306C643.327 671.544 644.597 675.341 641.913 675.893C638.453 674.451 640.889 671.04 638.98 668.473C635.166 670.112 637.986 672.531 635.978 675.488C634.356 675.949 635.148 675.952 633.515 675.453C632.547 673.784 633.145 667.64 633.254 665.368Z"/><path fill="#010001" d="M664.125 673.19C662.445 676.332 658.415 676.861 655.571 675.317C645.348 669.767 663.322 658.096 664.742 671.209L664.125 673.19Z"/><path fill="#DEDDDD" d="M664.742 671.209L664.125 673.19C662.228 672.847 660.794 673.16 658.515 672.654L658.357 672.161C660.91 671.561 662.116 671.429 664.742 671.209Z"/><path fill="#010001" d="M476.416 675.486C473.667 682.479 460.966 676.68 465.561 670.874C469.125 666.37 477.565 666.077 476.63 674.163L476.416 675.486Z"/><path fill="#DEDDDD" d="M476.416 675.486C474.69 675.486 471.541 676.406 470.329 675.049C472.342 674.081 474.347 674.245 476.63 674.163L476.416 675.486Z"/><path fill="#010001" d="M423.92 663.671C427.483 663.561 433.34 663.06 436.433 664.737L436.614 665.511C435.545 666.96 434.187 667.124 432.411 667.691L432.403 675.625C432.243 677.013 432.29 676.631 431.743 677.969C429.987 678.988 430.799 678.971 429.264 678.565C427.614 676.49 427.985 671.282 427.971 668.505C426.98 667.048 426.15 667.526 423.861 666.365C423.253 664.716 423.338 665.581 423.92 663.671Z"/><path fill="#010001" d="M611.324 661.561C614.762 661.338 618.209 661.29 621.652 661.415C623.66 661.49 623.678 661.565 624.817 662.791C624.082 664.24 622.596 664.503 620.812 665.322C620.048 666.983 620.307 670.049 620.324 672.014C620.146 674.054 620.353 675.051 618.484 676.078C614.66 675.76 615.859 668.708 615.931 665.653L612.506 664.485C611.174 663 611.694 663.869 611.324 661.561Z"/><path fill="#010001" d="M626.697 665.123C628.342 665.327 628.237 665.275 629.623 666.176C631.474 669.121 630.663 672.743 630.367 676.296C624.656 675.297 626.358 669.794 626.697 665.123Z"/><path fill="#010001" d="M439.407 667.536C440.21 667.738 440.85 667.999 441.629 668.281C443.761 671.217 443.026 675.075 442.856 678.794C442.498 678.735 442.14 678.675 441.782 678.615C437.624 678.195 438.669 670.497 439.407 667.536Z"/><path fill="#A0CFED" d="M258.076 296.59C258.472 296.554 258.868 296.522 259.265 296.496C267.669 295.92 281.667 296.321 290.31 296.319L347.884 296.313L529.608 296.334L689.077 296.349L737.188 296.328C744.432 296.321 756.766 295.964 763.659 296.562C770.153 297.127 776.295 299.762 781.18 304.08C788.606 310.645 791.038 318.89 791.664 328.406L766.75 328.332L232.284 328.364C232.619 311.56 241.898 300.659 258.076 296.59Z"/><path fill="#010001" d="M281.543 305.311C284.301 304.349 287.365 304.969 289.532 306.929C291.699 308.888 292.623 311.874 291.942 314.715C291.261 317.556 289.083 319.799 286.263 320.563C282.112 321.687 277.816 319.323 276.544 315.215C275.272 311.106 277.482 306.728 281.543 305.311Z"/><path fill="#F2C742" d="M282.212 306.793C285.5 305.752 289.015 307.54 290.11 310.809C291.206 314.079 289.478 317.624 286.227 318.774C284.075 319.536 281.68 319.077 279.961 317.575C278.242 316.073 277.467 313.76 277.934 311.526C278.4 309.291 280.036 307.482 282.212 306.793Z"/><path fill="#010001" d="M257.223 305.348C261.442 304.592 265.489 307.358 266.317 311.564C267.144 315.77 264.446 319.863 260.255 320.761C257.48 321.355 254.6 320.406 252.722 318.279C250.843 316.153 250.258 313.178 251.191 310.498C252.124 307.818 254.43 305.849 257.223 305.348Z"/><path fill="#EF7E87" d="M256.08 307.296C258.109 306.407 260.46 306.683 262.228 308.018C263.996 309.353 264.905 311.539 264.605 313.734C264.305 315.928 262.843 317.79 260.782 318.602C257.677 319.826 254.165 318.338 252.883 315.256C251.602 312.175 253.023 308.635 256.08 307.296Z"/><path fill="#010001" d="M307.785 305.295C312.032 304.441 316.162 307.208 316.989 311.46C317.815 315.712 315.022 319.824 310.765 320.624C306.546 321.416 302.479 318.653 301.66 314.44C300.841 310.226 303.577 306.141 307.785 305.295Z"/><path fill="#71CBB3" d="M307.318 307.302C309.362 306.551 311.652 306.962 313.307 308.378C314.962 309.794 315.722 311.992 315.296 314.128C314.87 316.263 313.324 318.002 311.253 318.674C308.134 319.686 304.78 318.016 303.708 314.918C302.636 311.82 304.241 308.433 307.318 307.302Z"/></svg>