<?xml version="1.0" encoding="utf-8" ?><svg xmlns="http://www.w3.org/2000/svg" xmlns:xlink="http://www.w3.org/1999/xlink" width="1024" height="1024" viewBox="0 0 1024 1024"><path d="M507.485 294.709C536.705 292 571.774 302.654 595.385 319.634C630.258 344.713 646.206 373.947 653.563 415.236C660.565 415.794 666.411 417.418 671.805 422.315C677.003 427.049 679.995 433.734 680.062 440.765C680.21 447.697 677.527 454.389 672.631 459.298C666.014 465.954 659.058 466.921 650.361 466.981C637.096 525.772 584.575 567.106 525.377 571.625C499.07 574.489 467.277 565.68 444.825 552.084C413.396 533.388 390.724 502.927 381.834 467.456C374.18 467.563 367.799 466.359 361.566 461.469C356.031 457.165 352.529 450.76 351.892 443.778C350.202 426.604 362.581 416.345 378.722 415.278C388.652 348.293 439.876 300.028 507.485 294.709Z"/><path fill="#FFFEFD" d="M508.564 302.099C581.086 297.937 643.225 353.41 647.283 425.938C651.341 498.465 595.778 560.524 523.245 564.478C450.859 568.423 388.954 512.998 384.904 440.618C380.854 368.238 436.19 306.253 508.564 302.099Z"/><path fill="#F4BEB4" d="M591.433 446.312C604.304 445.502 615.386 455.298 616.164 468.171C616.941 481.043 607.119 492.102 594.244 492.847C581.414 493.59 570.403 483.809 569.628 470.981C568.854 458.154 578.607 447.118 591.433 446.312Z"/><path fill="#F4BEB4" d="M433.341 446.878C441.552 445.249 450.003 448.164 455.464 454.507C460.925 460.85 462.551 469.642 459.719 477.518C456.888 485.395 450.037 491.139 441.788 492.554C429.26 494.702 417.333 486.383 415.022 473.885C412.71 461.386 420.874 449.352 433.341 446.878Z"/><path d="M513.459 473.138C524.627 472.011 534.608 480.119 535.793 491.281C536.978 502.443 528.922 512.466 517.766 513.709C506.528 514.961 496.415 506.833 495.221 495.588C494.028 484.344 502.208 474.273 513.459 473.138Z"/><path fill="#EA7C87" d="M512.385 480.708C519.514 479.005 526.663 483.445 528.296 490.59C529.929 497.736 525.418 504.841 518.256 506.402C511.195 507.942 504.211 503.508 502.601 496.462C500.991 489.416 505.356 482.389 512.385 480.708Z"/><path d="M484.002 321.297C491.348 321.191 489.67 328.606 492.797 334.272C501.38 349.819 518.023 356.589 535.236 353.445C540.414 352.5 550.151 346.919 553.363 347.998C555.673 350.596 554.542 352.313 552.565 354.276C546.544 357.977 538.47 360.295 531.478 361.015C519.243 362.249 507.017 358.581 497.481 350.815C491.354 345.825 477.734 328.853 484.002 321.297Z"/><path d="M573.036 416.328C579.724 415.594 585.743 420.413 586.491 427.099C587.239 433.785 582.433 439.815 575.748 440.577C569.044 441.341 562.992 436.517 562.242 429.811C561.492 423.105 566.328 417.064 573.036 416.328Z"/><path d="M453.183 416.838C459.608 415.079 466.25 418.835 468.053 425.248C469.856 431.662 466.145 438.329 459.744 440.176C453.281 442.041 446.535 438.286 444.714 431.81C442.893 425.334 446.694 418.614 453.183 416.838Z"/><path d="M519.017 317.737C527.309 318.264 522.086 328.658 527.587 334.457C531.982 339.09 540.183 341.066 545.433 336.945C548.482 334.55 549.975 328.688 555.254 329.424C557.802 331.771 557.079 333.829 555.593 336.571C536.455 361.731 507.118 331.044 519.017 317.737Z"/><path d="M571.787 387.141C576.404 386.819 581.836 387.619 585.817 390.025C589.342 392.155 592.325 396.162 589.534 400.126C586.135 401.951 584.799 400.458 582.752 397.827C578.147 391.834 569.01 396.916 563.459 395.931C562.592 395.525 562.165 395.352 561.81 394.524C559.363 388.81 568.561 387.671 571.787 387.141Z"/><path d="M453.596 387.158C457.183 386.943 472.294 387.671 468.424 395.027C466.494 398.696 459.803 394.668 456.892 394.465C455.314 394.355 454.116 394.558 452.456 394.868L451.86 394.985C447.633 396.947 443.392 404.523 439.508 399.242C438.328 391.68 447.664 388.162 453.596 387.158Z"/><path d="M513.224 437.104C520.344 436.745 530.917 440.948 528.34 449.423C523.586 454.5 521.563 446.648 518.247 444.354C517.637 444.289 517.025 444.241 516.411 444.21C510.273 443.946 511.694 448.706 509.427 449.751C498.498 454.792 501.124 440.517 513.224 437.104Z"/><path fill="#FFFEFD" d="M377.027 422.652C377.489 422.754 377.161 422.65 377.85 423.273C378.131 427.346 377.638 433.472 377.629 437.666C377.621 441.108 380.087 458.689 379.326 459.831C375.445 460.85 370.107 458.2 366.735 456.307C362.75 452.929 360.075 449.593 359.172 444.192C358.324 439.387 359.496 434.445 362.412 430.533C366.225 425.416 371.032 423.552 377.027 422.652Z"/><path fill="#FFFEFD" d="M654.259 422.304C659.75 422.865 664.132 424.671 667.942 428.849C671.359 432.545 673.107 437.482 672.779 442.504C672.423 448.267 670.01 451.938 665.829 455.634C660.9 459.185 657.857 459.472 652.093 460.094C654.275 445.574 654.797 437.002 654.259 422.304Z"/><path d="M357.565 524.104C360.922 523.868 365.917 524.164 368.777 525.903C376.375 530.521 384.514 537.167 391.7 542.575C409.164 555.679 426.537 568.903 443.819 582.247C461.479 574.845 475.617 579.369 489.976 591.032C499.668 590.786 509.362 590.636 519.058 590.585C538.417 590.522 637.878 590.825 648.138 602.024C650.195 604.27 649.572 608.061 649.51 610.87C656.954 601.517 670.136 601.485 676.834 610.662C683.625 619.967 673.789 639.71 671.569 650.45C680.72 669.801 678.161 684.227 667.384 702.631C659.898 715.416 649.368 724.976 634.7 728.628C614.464 733.667 599.631 723.135 583.281 712.995L581.65 712.176L581.25 712.685C586.348 734.829 561.826 732.064 548.111 732.066L517.714 732.069C503.799 732.068 489.849 732.021 475.937 732.025C462.532 732.03 452.498 726.678 456.571 711.78C448.207 716.937 439.164 722.992 430.082 726.634C399.913 738.736 373.261 716.701 363.209 689.063C357.565 673.546 358.814 665.179 365.451 650.571C364.169 644.119 362.335 637.641 360.26 631.338C358.074 624.697 355.441 614.486 361.688 608.95C370.395 601.234 380.237 602.428 388.061 610.743C387.963 608.454 387.479 603.596 389.06 602.066C394.705 596.605 410.982 595.407 418.262 594.775C395.286 583.715 372.152 571.848 349.407 560.292C344.976 558.04 341.295 552.802 340.477 547.879C338.361 535.137 345.273 526.638 357.565 524.104Z"/><path fill="#EA7C87" d="M395.205 611.71C420.853 618.836 466.006 618.836 492.9 619.418C527.935 620.178 564.774 619.631 599.766 617.318C613.972 616.379 628.371 615.079 642.282 612.031C641.368 617.174 640.196 622.268 638.77 627.293C631.173 622.771 622.751 617.867 613.882 624.098C608.846 627.637 608.034 633.035 607.146 638.736C598.197 638.467 592.168 645.107 591.32 653.662L591.637 658.703C579.827 662.9 576.083 670.316 579.667 682.312C571.446 687.795 570.409 691.57 570.575 701.16C539.326 710.793 497.581 711.913 466.475 701.122C468.662 692.028 464.056 687.174 457.661 681.883C459.405 677.732 459.168 672.014 457.345 667.947C455.089 662.917 450.167 660.828 445.387 659.029C447.403 646.381 441.154 640.794 429.515 638.587C429.671 631.171 426.151 623.76 418.426 621.802C410.809 619.872 404.755 623.602 398.429 627.244C396.941 622.303 396.031 616.804 395.205 611.71Z"/><path fill="#FFFEFD" d="M411.279 628.525C415.506 628.063 418.133 628.299 421.115 632.137C430.164 643.781 393.885 653.184 399.916 659.127C407.518 666.617 428.556 635.319 437.045 650.299C438.274 652.467 438.776 654.241 438.169 656.672C436.933 664.943 414.837 671.107 413.434 677.501C413.733 678.85 413.816 679.625 415.021 680.505C418.732 683.215 435.985 667.642 443.138 666.789C445.372 666.522 447.294 666.773 449.02 668.332C450.754 669.898 451.565 673.395 451.539 675.634C451.428 685.11 434.792 688.983 429.03 694.908C427.863 696.108 427.573 696.985 427.607 698.626C429.945 701.78 432.164 700.665 435.048 699.267L445.562 692.342C449.666 689.655 455.361 687.183 458.392 692.464C463.877 701.999 451.64 706.337 445.497 710.232C430.579 719.796 413.803 728.119 396.49 718.832C378.366 709.221 362.007 682.127 368.491 661.53C373.027 647.126 398.187 634.727 411.279 628.525Z"/><path fill="#FFFEFD" d="M624.045 628.156C627.024 628.138 656.207 645.163 659.444 647.882C678.893 664.576 668.49 692.398 654.229 708.528C638.175 726.686 616.067 726.095 597.103 713.145C591.409 709.257 582.667 705.265 578.705 699.892C576.693 696.074 579.506 687.891 584.54 689.056C590.219 690.37 595.64 694.869 600.743 697.948C603.972 700.052 606.972 701.686 609.87 697.979C610.42 691.402 588.151 685.353 586.395 678.72C583.825 665.943 591.464 664.014 601.711 669.612C606.155 672.04 622.19 685.98 623.947 677.029C622.899 671.138 603.68 665.06 600.15 659.388C598.627 657.359 598.362 654.166 599.054 651.688C603.534 635.636 625.029 658.064 633.23 659.984C635.022 660.403 636.763 659.185 637.892 658.366C640.834 652.216 615.033 645.731 615.035 637.222C615.036 630.389 617.923 628.762 624.045 628.156Z"/><path fill="#FBB82F" d="M358.943 531.113C366.993 530.776 377.246 540.499 383.703 545.33C396.079 554.56 408.389 563.88 420.631 573.289C426.768 578.002 437.26 586.562 443.427 590.167C456.16 584.648 465.495 583.533 478.132 590.705C486.872 595.665 491.843 602.918 494.493 612.502L487.006 612.421C471.362 612.135 455.724 611.547 440.103 610.657C438.298 606.18 438.149 602.059 437.73 597.296C431.692 593.577 422.301 588.998 415.798 585.692L374.763 565.268C367.136 561.511 349.242 554.905 347.369 546.387C346.665 543.043 347.394 539.558 349.378 536.776C352.058 532.975 354.614 531.927 358.943 531.113Z"/><path fill="#EA7C87" d="M496.965 597.729C518.264 597.45 539.567 597.629 560.858 598.268C586.944 598.903 615.446 600.059 641.071 605.226L632.119 607.075C614.004 609.943 587.76 611.166 569.364 611.753C546.699 612.669 524.013 612.97 501.332 612.654C500.173 607.287 499.174 604.103 496.594 599.099L496.136 598.225L496.965 597.729Z"/><path fill="#EA7C87" d="M466.313 708.307C496.658 719.414 540.697 717.313 571.567 708.149C573.989 713.039 574.736 714.754 574.544 720.185C571.877 723.252 569.515 724.981 565.255 725.004C539.268 725.133 513.28 724.973 487.286 725.056C481.281 724.657 472.126 725.942 466.545 723.505C459.771 720.548 464.552 711.863 466.313 708.307Z"/><path fill="#FFFEFD" d="M660.523 611.032C666.679 610.133 672.58 613.033 672.234 619.702C671.836 627.361 667.61 635.341 666.033 642.969L665.884 643.712L661.736 640.707C657.627 637.91 652.356 635.126 647.932 632.25C649.037 628.843 650.219 625.461 651.476 622.107C653.583 616.471 655.127 613.496 660.523 611.032Z"/><path fill="#FFFEFD" d="M370.991 611.111C383.697 609.706 385.876 622.661 389.255 632.402C385.574 634.439 381.71 636.82 378.065 638.972C375.812 640.499 373.762 642.237 371.648 643.953C370.284 638.798 368.543 633.743 366.964 628.654C364.597 621.031 362.564 615.112 370.991 611.111Z"/><path fill="#EA7C87" d="M423.18 601.201C425.103 600.947 428.62 600.912 430.674 600.826C431.223 604.551 431.532 606.562 432.581 610.156C425.109 609.525 417.789 608.995 410.378 607.832C406.408 607.3 400.505 606.233 396.761 605.097C406.437 603.115 413.374 601.953 423.18 601.201Z"/><path fill="#96CFF1" d="M680.035 516.415C687.849 515.859 686.056 526.137 690.122 530.903C693.492 535.202 702.823 534.596 705.865 538.806C710.173 544.766 694.962 547.08 690.724 549.131C687.733 554.552 687.046 559.71 684.424 564.472C682.549 564.68 682.427 564.789 680.53 564.372C676.836 561.71 676.219 554.735 673.595 549.349C669.257 547.225 658.71 545.397 657.08 541.268C658.426 536.038 671.074 534.342 673.744 531.497C676.333 528.74 676.818 520.776 680.035 516.415Z"/><path fill="#96CFF1" d="M340.138 331.436C343.788 331.393 344.805 332.385 346.075 335.865C347.466 339.681 348.059 342.664 350.004 346.269L350.333 346.867C355.061 349.487 363.981 351.191 366.954 355.163C369.212 358.179 352.265 363.441 350.407 364.167C347.985 369.165 347.171 375.778 344.039 379.792C342.209 379.881 342.232 379.826 340.556 379.35C336.848 376.219 336.499 369.748 333.717 364.551L333.41 363.989C329.249 361.821 317.853 360.033 317.201 355.628C319.35 350.252 331.151 349.132 333.653 346.406C336.16 343.674 336.956 335.662 340.138 331.436Z"/><path fill="#FBB82F" d="M323.221 462.879C328.805 463.845 328.511 469.469 330.943 474.262L331.241 474.836C334.635 476.354 342.849 477.905 342.925 482.381C341.645 483.229 338.571 484.216 337.108 484.638C328.233 487.2 330.395 490.978 326.825 498.217C325.892 498.169 324.908 498.072 323.972 497.997C321.156 496.195 320.444 490.424 318.531 486.971C315.018 485.389 309.058 484.392 306.921 480.855C307.465 477.931 315.836 476.914 318.136 474.007C321.229 470.096 320.09 467.346 323.221 462.879Z"/><path fill="#FBB82F" d="M678.584 324.726C682.932 325.919 683.871 332.427 685.844 336.541C690.297 338.545 692.671 337.871 696.184 341.792C696.989 346.004 688.728 347.48 685.504 348.448C683.451 353.049 683.929 356.958 680.276 360.593C675.331 359.142 675.429 353.063 672.925 348.453C669.826 347.464 662.163 345.683 661.321 342.302C662.784 339.559 670.233 338.403 672.479 336.146C676.369 332.236 674.158 329.535 678.584 324.726Z"/></svg>