<?xml version="1.0" encoding="utf-8" ?><svg xmlns="http://www.w3.org/2000/svg" xmlns:xlink="http://www.w3.org/1999/xlink" width="1024" height="1024" viewBox="0 0 1024 1024"><path d="M509.861 272.213C513.223 271.789 521.995 271.839 525.24 271.948C555.145 273.095 584.001 283.277 608.004 301.151C641.874 326.357 661.123 360.834 667.319 402.371C674.759 402.817 681.244 405.076 686.893 410.103C692.461 415.127 695.691 422.239 695.813 429.737C696.04 437.125 693.238 444.285 688.057 449.556C680.959 456.738 673.282 457.764 663.927 457.984C660.889 470.185 656.304 481.948 650.283 492.987C631.222 527.465 599.329 553.032 561.53 564.136C523.325 575.334 482.216 570.638 447.52 551.113C447.608 553.005 446.528 557.156 446.919 558.63C447.004 558.947 462.456 563.771 464.058 564.469C475.361 569.392 480.791 576.998 487.938 586.578L531.643 645.685C534.186 649.13 536.796 652.558 539.289 656.041C548.188 668.473 557.642 677.168 555.098 693.711C554.192 699.942 551.547 705.791 547.467 710.587C542.307 716.668 528.512 725.909 521.478 731.029L483.413 758.901C482.182 759.838 480.941 760.762 479.689 761.671C471.697 767.447 461.557 770.577 451.683 768.962C435.469 766.311 427.997 752.122 419.102 739.696C417.853 740.391 416.587 741.053 415.303 741.681C404.186 747.073 391.352 747.701 379.762 743.419C363.816 737.584 349.325 722.369 342.343 707.132C336.44 694.25 335.985 683.758 340.77 670.638C336.301 660.928 328.957 648.365 327.391 638.166C325.588 626.418 336.576 621.282 346.299 620.863C338.29 608.249 328.437 599.89 342.203 585.859C334.44 574.296 337.398 566.458 342.037 554.636C343.207 551.653 344.327 546.493 343.351 543.656C340.266 534.48 328.098 528.019 329.012 517.311C329.837 507.648 340.797 498.919 350.391 499.649C361.713 500.511 364.313 511.206 370.663 518.505C377.622 526.505 386.748 522.797 395.764 523.52C403.794 524.192 407.769 526.9 412.86 532.769L418.643 530.452C397.116 509.962 382.006 487.501 375.183 457.945C367.375 457.849 360.992 457.023 354.413 452.285C348.461 448.024 344.515 441.511 343.495 434.263C340.718 415.047 354.538 404.164 372.039 402.384C375.921 373.319 388.109 345.992 407.141 323.685C433.46 292.931 469.705 275.323 509.861 272.213Z"/><path fill="white" d="M514.838 279.883C592.873 277.222 658.274 338.358 660.874 416.395C663.474 494.433 602.287 559.786 524.248 562.325C446.295 564.861 381.03 503.757 378.433 425.806C375.835 347.855 436.889 282.541 514.838 279.883Z"/><path fill="#F1BDB6" d="M596.855 435.918C610.622 433.232 623.945 442.264 626.548 456.047C629.151 469.83 620.04 483.098 606.241 485.618C592.56 488.117 579.429 479.099 576.848 465.433C574.267 451.767 583.205 438.582 596.855 435.918Z"/><path fill="#F1BDB6" d="M431.438 435.942C445.052 433.772 457.844 443.058 459.999 456.675C462.154 470.291 452.854 483.073 439.235 485.213C425.637 487.35 412.879 478.067 410.728 464.472C408.576 450.877 417.845 438.108 431.438 435.942Z"/><path d="M516.615 464.292C528.508 463.107 539.129 471.738 540.403 483.621C541.677 495.504 533.127 506.19 521.254 507.554C509.253 508.932 498.428 500.27 497.14 488.259C495.852 476.249 504.595 465.489 516.615 464.292Z"/><path fill="#E9878B" d="M515.93 472.246C520.889 471.238 526.007 472.972 529.333 476.786C532.659 480.6 533.679 485.906 532.006 490.682C530.333 495.457 526.223 498.966 521.244 499.87C513.657 501.248 506.375 496.26 504.918 488.687C503.461 481.115 508.373 473.781 515.93 472.246Z"/><path d="M485.815 300.35C491.286 301.814 491.369 306.499 493.27 311.462C501.27 332.345 526.855 341.281 546.818 332.487C550.292 330.957 556.26 328.734 559.907 329.632C561.294 330.845 560.929 330.107 561.098 331.888C560.235 334.062 560.161 334.132 558.549 335.876C550.086 340.858 540.448 343.498 530.627 343.524C517.286 343.412 504.543 337.974 495.232 328.418C489.974 322.988 478.226 307.167 485.815 300.35Z"/><path d="M579.965 403.229C586.958 401.973 593.666 406.558 595.036 413.529C596.406 420.501 591.932 427.283 584.984 428.768C580.387 429.75 575.617 428.177 572.507 424.652C569.396 421.128 568.427 416.2 569.973 411.76C571.518 407.321 575.338 404.06 579.965 403.229Z"/><path d="M454.199 403.27C461.286 402.785 467.444 408.094 468.006 415.176C468.568 422.258 463.325 428.473 456.249 429.111C451.604 429.53 447.092 427.421 444.434 423.589C441.776 419.756 441.382 414.791 443.402 410.587C445.422 406.384 449.545 403.589 454.199 403.27Z"/><path d="M522.05 296.896C523.975 296.926 524.074 296.816 525.886 297.62C528.845 300.688 527.995 305.445 529.044 309.422C531.293 317.352 539.698 320.994 547.368 318.891C552.566 317.466 557.546 305.957 562.703 309.885C563.58 312.438 562.542 314.748 561.449 317.035C540.7 342.404 511.299 313.289 522.05 296.896Z"/><path d="M453.939 371.698C458.803 371.83 469.62 372.488 468.424 379.432C464.394 384.272 457.7 377.538 448.948 380.671L448.35 380.891C444.733 383.254 443.423 387.462 438.402 386.366C437.515 385.604 436.73 385.036 436.829 383.716C437.491 374.9 447.648 372.355 453.939 371.698Z"/><path d="M580.823 371.685C585.265 371.316 591.739 372.511 595.314 375.275C598.517 377.75 601.151 381.859 598.168 385.605C594.73 387.148 593.65 385.572 591.545 382.984L591.093 382.42C582.725 376.734 576.803 382.963 569.217 380C568.687 379.437 568.121 379.135 568.143 378.428C568.325 372.72 577.128 372.117 580.823 371.685Z"/><path d="M516.795 425.605C530.163 425.15 537.113 437.631 529.846 440.407C525.127 439.828 525.639 436.039 521.584 433.471C511.195 432.71 514.069 441.387 507.748 441.014C504.701 439.618 504.096 436.282 505.76 433.508C508.574 428.817 511.611 426.997 516.795 425.605Z"/><defs><linearGradient id="gradient_0" gradientUnits="userSpaceOnUse" x1="454.30652" y1="566.22925" x2="458.25928" y2="760.50488"><stop offset="0" stop-color="#F0EBD6"/><stop offset="1" stop-color="white"/></linearGradient></defs><path fill="url(#gradient_0)" d="M441.032 565.631C453.079 568.413 466.726 571.312 474.668 581.711C488.102 599.301 501.109 617.244 514.243 635.065L534.03 661.965C537.523 666.732 541.38 671.474 544.45 676.523C545.974 679.028 546.933 681.867 547.449 684.747C548.671 691.558 546.859 698.459 542.801 704.018C537.166 711.734 505.982 732.683 496.445 739.644C488.505 745.44 480.55 752.205 472.123 757.199C468.714 759.22 465.733 760.564 461.789 761.171C453.856 762.391 447.361 760.413 440.982 755.749C436.53 751.501 429.442 740.666 425.757 735.26C430.77 731.904 435.394 727.67 440.164 724.079C454.54 713.255 458.079 700.442 439.78 690.737C439.951 689.612 440.107 688.48 440.192 687.345C441.48 669.95 424.868 669.874 424.198 668.657C422.004 664.669 424.568 660.174 419.871 655.024C415.908 650.68 410.183 650.002 404.659 649.863C404.289 641.488 400.041 635.109 391.433 633.813C381.898 632.377 374.253 639.002 367.151 644.261C363.924 636.221 366.128 630.728 365.725 622.237L365.687 621.575C390.944 603.119 416.06 584.471 441.032 565.631Z"/><path d="M525.808 673.863C528.545 674.031 530.239 675.03 530.4 677.84C528.768 682.095 519.345 687.929 515.271 690.788C512.975 690.604 512.194 690.475 510.656 688.791C509.309 683.318 521.505 676.256 525.808 673.863Z"/><path d="M483.292 615.931C485.756 615.928 487.509 616.629 488.021 619.163C486.946 623.72 476.747 629.813 472.663 632.648C470.499 632.499 470.072 632.275 468.483 631.07C466.5 625.677 479.327 618.578 483.292 615.931Z"/><path d="M468.96 596.94C470.785 596.781 471.932 597.2 473.408 598.167C475.548 603.518 462.926 610.491 458.82 613.293C455.884 613.593 454.122 612.643 453.992 609.516C455.811 605.242 464.78 599.834 468.96 596.94Z"/><path d="M511.269 654.887C513.29 654.853 514.558 655.229 515.906 656.766C517.393 661.526 504.783 668.697 501.204 671.144C499.185 671.139 498.267 670.592 496.848 669.421C495.183 664.015 507.181 657.616 511.269 654.887Z"/><path d="M497.832 635.417C499.685 635.933 500.497 636.31 501.764 637.756C503.167 642.904 490.991 649.46 487.009 651.948C485.137 651.871 484.312 651.58 482.95 650.361C481.522 645.185 493.764 637.757 497.832 635.417Z"/><path fill="white" d="M385.758 640.987C389.652 640.537 394.698 642.189 396.357 645.746C401.315 656.379 378.938 663.845 376.618 672.01C376.771 673.609 376.869 673.507 377.954 674.746C386.364 678.876 404.303 647.511 414.2 660.171C424.782 673.706 394.726 682.274 393.428 692.084C397.542 702.201 415.136 677.443 424.318 676.65C426.223 676.473 428.115 677.105 429.531 678.392C443.876 691.378 410.625 702.899 410.866 711.231C413.43 715.107 416.893 713.145 419.777 710.914C425.046 706.44 437.991 692.171 443.36 702.472C447.901 711.185 435.478 717.931 429.706 722.931C417.178 733.783 401.031 742.807 384.057 737.062C361.656 729.48 338.822 700.79 346.766 676.185C350.644 664.103 374.558 646.458 385.758 640.987Z"/><path fill="white" d="M420.643 537.555C430.447 537.01 431.688 541.675 437.017 548.487C440.59 553.054 440.818 555.989 436.274 559.588C428.122 566.044 419.316 572.532 411.029 578.701L360.455 616.007C357.257 618.305 354.416 617.877 351.733 614.741C347.637 609.951 341.42 602.022 343.837 595.331C344.297 594.056 347.986 590.901 349.263 589.938C363.086 579.516 377.093 569.308 390.962 558.945C396.49 554.874 415.941 539.5 420.643 537.555Z"/><path fill="white" d="M348.152 507.098C357.481 507.89 359.831 518.414 365.804 524.536C379.484 538.559 393.614 523.054 406.848 537.714C396.958 545.868 382.751 555.708 372.177 563.494C364.223 569.506 356.208 575.437 348.132 581.285C339.004 565.579 353.11 559.035 351.272 543.649C349.901 534.343 339.453 528.782 337.198 520.049C335.477 513.386 342.449 508.461 348.152 507.098Z"/><path fill="white" d="M367.944 410.587C369.845 410.488 369.789 410.17 371.153 410.987C370.784 426.193 370.961 435.145 373.428 450.142C367.671 449.751 365.959 449.689 360.651 447.107C356.117 444.184 352.878 440.441 351.495 435.128C350.142 429.986 350.931 424.515 353.68 419.964C357.132 414.33 361.846 412.058 367.944 410.587Z"/><path fill="white" d="M668.043 409.967C673.697 410.743 678.247 412.459 682.362 416.613C686.198 420.444 688.299 425.679 688.175 431.099C688.005 437.253 685.324 441.594 680.89 445.606C675.143 449.527 672.518 449.916 665.758 450.307C668.276 435.736 668.701 424.642 668.043 409.967Z"/><path fill="white" d="M341.091 628.592C354.031 627.267 357.359 638.555 361.676 648.359C357.395 651.552 354.429 653.753 350.507 657.442C348.843 659.145 347.096 661.138 345.471 662.91C342.223 655.481 337.668 647.814 335.233 640.13C333.452 634.509 336.192 631.035 341.091 628.592Z"/><path fill="#96CFF4" d="M696.838 511.241C703.404 512.223 704.427 522.448 707.513 527.988C712.7 530.759 720.071 531.872 723.984 536.147C725.467 541.324 712.139 544.391 708.064 546.321L707.557 546.566C704.889 551.879 703.559 559.837 699.709 563.719C693.442 563.114 691.505 552.402 689.575 546.996C684.378 544.437 676.393 542.774 672.651 538.781C671.154 533.841 685.293 529.773 689.361 527.838C692.321 522.282 692.765 516.185 696.838 511.241Z"/><path fill="#96CFF4" d="M331.292 311.522C337.406 312.409 339.031 322.969 341.607 328.456C345.751 330.362 356.387 333.291 358.525 337.271C358.843 337.862 358.436 338.396 358.141 339.193C354.592 342.605 346.706 344.886 341.698 346.979C339.159 352.507 338.065 359.283 334.189 363.868C327.514 363.416 326.145 352.867 323.709 347.158C319.46 345.24 307.697 342.278 306.657 337.552C308.175 333.555 319.749 330.391 324.014 327.826C326.331 322.754 327.482 315.077 331.292 311.522Z"/><path fill="#FEBC3B" d="M694.979 304.976C699.359 306.303 700.722 312.912 702.374 317.038C705.811 318.424 713.213 320.204 712.842 324.397C710.611 327.519 705.712 328.759 701.974 330.138C700.741 334.631 699.756 339.491 696.42 342.741C692.134 340.769 690.808 334.679 689.3 330.424C685.955 328.915 678.27 327.31 677.459 323.487C678.948 320.571 685.648 318.386 688.984 316.907C691.273 312.746 691.388 308.115 694.979 304.976Z"/><path fill="#FEBC3B" d="M312.084 453.29C312.756 453.39 313.631 453.61 314.315 453.759C317.225 455.909 318.594 461.702 320.145 465.554C324.16 467.094 327.759 468.092 330.974 470.902C331.606 472.42 331.597 471.674 330.988 473.214C327.876 475.915 324.048 476.995 320.158 478.486C318.303 482.785 317.713 486.104 315.169 490.474C310.015 489.601 308.919 482.983 307.167 478.438C303.888 477.269 296.672 475.5 295.72 471.847C297.124 468.819 303.654 466.648 307.013 465.175C308.756 461.035 309.644 457.162 312.084 453.29Z"/><path fill="#FEBC3B" d="M626.672 573.195L628.748 573.482C631.555 575.263 633.222 581.189 634.737 584.716C638.268 586.057 645.265 587.557 645.203 591.802C643.098 595.006 638.287 596.191 634.542 597.591C633.133 601.46 631.922 605.5 629.715 608.932L627.797 608.818C624.829 607.201 623.176 600.997 621.903 597.625C618.834 596.222 611.712 594.537 610.937 590.931C612.166 588.191 618.768 585.935 621.842 584.568C623.673 580.385 624.18 577.599 626.672 573.195Z"/></svg>