<?xml version="1.0" encoding="utf-8" ?><svg xmlns="http://www.w3.org/2000/svg" xmlns:xlink="http://www.w3.org/1999/xlink" width="1024" height="1024" viewBox="0 0 1024 1024"><path d="M505.594 306.708C557.889 304.898 604.755 330.864 628.298 378.155C635.072 391.761 638.005 403.873 640.507 418.702C647.506 419.13 653.447 421.034 658.364 426.326C662.41 430.706 664.524 436.53 664.23 442.486C663.49 456.993 651.773 464.945 637.94 463.984C632.633 484.621 626.722 496.11 614.224 513.227C644.452 551.807 661.013 599.332 661.308 648.342C661.422 660.383 660.597 672.414 658.841 684.327C655.876 703.637 644.943 743.256 631.292 756.283C605.432 780.963 552.608 789.228 518.584 789.548C478.893 789.546 434.983 784.906 401.253 762.19C379.668 747.652 369.282 710.224 365.392 685.472C357.663 634.103 367.551 581.63 393.447 536.597C398.346 528.184 403.906 520.704 409.635 512.853C397.742 497.622 390.977 482.732 386.286 464.233C379.427 464.374 374.01 463.623 368.309 459.251C363.402 455.423 360.316 449.72 359.794 443.519C359.216 437.541 361.081 431.584 364.963 427.003C370.048 420.941 375.952 419.467 383.329 418.836C393.262 354.099 440.751 311.553 505.594 306.708Z"/><path fill="#FFFEFD" d="M504.694 310.956C572.767 306.917 631.239 358.801 635.326 426.872C639.413 494.943 587.57 553.451 519.501 557.586C451.366 561.725 392.787 509.819 388.696 441.68C384.605 373.541 436.552 314.999 504.694 310.956Z"/><path fill="#F5C1B3" d="M436.782 456.831C446.947 454.816 456.828 461.401 458.881 471.559C460.935 481.717 454.388 491.623 444.238 493.715C434.033 495.819 424.061 489.229 421.997 479.016C419.932 468.802 426.561 458.856 436.782 456.831Z"/><path fill="#F5C1B3" d="M579.598 456.939C589.749 454.762 599.733 461.26 601.854 471.423C603.975 481.586 597.422 491.534 587.248 493.599C577.152 495.649 567.297 489.158 565.193 479.073C563.088 468.988 569.525 459.098 579.598 456.939Z"/><path d="M455.023 418.708C464.084 417.244 472.636 423.344 474.201 432.388C475.765 441.432 469.759 450.051 460.733 451.715C454.805 452.808 448.747 450.631 444.87 446.015C440.994 441.399 439.896 435.056 441.997 429.406C444.098 423.756 449.073 419.67 455.023 418.708Z"/><path d="M564.1 418.669C573.204 417.524 581.526 423.941 582.733 433.036C583.941 442.132 577.582 450.497 568.495 451.768C559.319 453.05 550.854 446.615 549.634 437.431C548.415 428.246 554.908 419.826 564.1 418.669Z"/><path d="M512.233 329.234L514.267 329.933C519.128 334.953 512.974 346.911 508.836 350.944C501.896 357.707 495.034 358.548 485.938 358.584C503.93 367.661 522.386 363.636 533.159 346.074C535.123 342.871 534.835 336.857 539.246 336.649C543.184 338.904 538.658 346.24 537.112 349.349C524.635 369.202 499.583 374.014 480.132 360.825C477.833 359.267 474.495 355.686 473.97 352.939C475.887 348.885 483.098 353.695 486.749 353.785C498.852 354.084 507.897 349.682 510.437 336.961C510.956 334.359 511.146 331.709 512.233 329.234Z"/><path d="M489.623 487.161C492.33 488.104 499.764 498.331 508.427 498.968C514.352 499.753 521.006 497.933 526.036 494.695C528.667 493.001 531.962 487.016 535.584 487.765C537.086 489.546 536.286 490.998 535.471 492.732C524.127 505.966 507.117 507.565 493.122 497.535C489.36 494.838 485.835 491.18 489.623 487.161Z"/><path d="M510.786 451.103C515.614 451.118 522.483 453.365 521.357 459.417C520.271 460.63 520.922 460.3 519.385 460.526C517.284 460.013 516.002 457.84 514.174 456.341L513.786 456.027C507.712 455.957 508.039 460.721 502.928 459.99L502.411 459.091C502.41 454.114 506.661 452.24 510.786 451.103Z"/><path fill="#98CEEA" d="M610.737 516.871C627.742 535.197 643.999 573.552 649.821 597.738C659.556 636.93 658.141 678.062 645.735 716.492C642.453 726.638 638.99 735.326 633.753 744.541C623.084 763.314 591.653 774.086 571.195 778.502C521.907 789.142 452.013 787.516 408.402 760.488C471.102 757.124 530.733 732.278 577.272 690.126C580.822 686.886 593.343 677.036 592.281 672.224C590.775 671.203 589.889 670.96 588.17 672.662C584.127 676.664 580.251 680.696 576.081 684.58C566.143 693.766 555.535 702.201 544.347 709.814C502.692 737.623 451.507 754.753 401.291 755.452C399.671 754.278 398.151 752.973 396.744 751.551C380.576 735.518 371.097 695.382 368.899 672.621C368.151 664.87 367.988 656.936 367.95 649.131C453.839 641.429 544.514 599.997 598.017 530.7C601.445 526.259 606.866 521.331 610.737 516.871Z"/><path fill="#FFFEFD" d="M413.179 516.919C418.757 523.241 424.957 528.894 430.428 535.406C453.212 562.527 481.983 581.388 513.425 597.269C494.525 608.757 472.002 618.47 451.256 626.024C425.535 634.757 395.265 642.192 368.137 644.247C367.431 604.253 387.178 547.331 413.179 516.919Z"/><path fill="#FFFEFD" d="M580.525 542.523L580.819 543.164C566.652 561.266 538.066 581.878 518.913 594.227C499.936 586.061 480.162 573.41 464.03 560.628C456.777 554.71 451.326 550.332 444.839 543.591C488.381 567.45 537.486 569.415 580.525 542.523Z"/><path fill="#FFFEFD" d="M381.122 424.06L382.45 424.183C383.331 425.29 382.886 430.656 382.832 432.366C382.538 441.601 383.582 450.416 385.258 459.479C379.729 459.153 378.489 458.941 373.527 456.544C369.251 453.57 366.466 450.467 365.306 445.175C364.276 440.565 365.255 435.735 367.997 431.888C371.3 427.225 375.666 425.095 381.122 424.06Z"/><path fill="#FFFEFD" d="M641.055 423.761C658.149 425.554 665.515 442.618 652.498 455.192C649.929 456.955 642.486 460.983 639.427 459.18C639.194 458.457 640.745 446.131 640.914 444.449C641.641 437.231 641.467 430.962 641.055 423.761Z"/><path fill="#F6BC3A" d="M420.166 294.361C421.487 295.825 422.785 301.152 423.384 302.794C424.455 305.731 432.901 307.961 436.076 308.989C430.818 309.872 429.076 309.899 424.246 312.879C422.127 316.152 421.36 319.247 420.182 322.941C417.871 319.013 418.286 316.481 415.002 311.96C411.013 310.094 408.679 309.743 404.328 308.709C415.801 305.592 415.983 305.499 420.166 294.361Z"/></svg>