<?xml version="1.0" encoding="utf-8" ?><svg xmlns="http://www.w3.org/2000/svg" xmlns:xlink="http://www.w3.org/1999/xlink" width="662" height="662" viewBox="183.5 156.6 662.3 662.3"><path d="M528.337 238.787C544.222 225.093 594.693 181.592 612.841 211.928C624.347 231.161 622.586 279.323 617.474 301.267C646.196 329.173 661.059 359.704 665.929 399.187C672.783 400.054 677.942 401.214 683.434 405.385C701.545 419.142 693.827 445.097 672.563 449.862C669.426 450.565 666.463 450.794 663.325 451.104C661.391 457.968 659.311 464.791 657.086 471.566C678.727 527.202 688.881 597.905 679.161 657.145C672.661 696.757 651.568 733.058 618.417 756.412C605.952 764.654 593.67 771.502 579.464 776.659C531.962 793.904 477.593 791.575 431.507 771.188C395.979 755.471 367.43 726.371 353.983 689.637C335.542 639.264 343.078 576.525 357.716 525.937C361.54 512.72 367.488 498.907 373.121 486.538C367.502 472.621 364.265 467.293 360.322 451.643C352.81 451.018 345.964 449.79 339.799 445.084C334.266 440.908 330.671 434.66 329.841 427.778C327.852 410.583 342.109 400.982 357.352 399.316C362.072 366.047 373.497 335.854 396.886 310.994C395.598 304.644 393.424 298.327 392.958 291.758C391.298 268.376 383.562 210.012 412.839 201.6C436.112 199.648 467.077 223.096 483.426 238.494C498.065 228.193 513.889 227.832 528.337 238.787Z"/><path fill="#F2D9C3" d="M528.079 290.023C530.942 292.164 534.813 296.17 537.789 298.6C541.033 301.248 544.205 303.641 547.486 306.219C545.647 315.383 541.833 323.837 532.29 327.176C529.219 328.251 524.055 328.216 523.506 331.677C523.874 332.577 524.366 333.869 525.47 333.922C540.175 334.619 549.581 321.251 552.145 309.997C565.482 317.576 585.524 332.267 601.896 325.885C609.329 322.987 613.278 314.756 616.126 307.723C640.671 329.881 657.692 367.662 660.605 400.398C660.962 404.417 668.305 405.117 671.531 405.816C693.229 410.526 693.266 438.862 672.077 444.289C668.315 445.252 659.692 444.757 658.67 448.495C642.64 507.096 603.065 547.841 542.275 561.603C505.921 568.149 470.813 563.628 438.255 545.622C407.782 528.745 384.207 501.699 371.646 469.209C368.872 462.138 366.745 454.109 364.631 446.749C352.866 445.555 338.094 443.116 335.543 428.798C334.657 423.753 335.919 418.566 339.025 414.493C344.805 406.867 353.267 405.191 362.039 403.983C362.779 401.077 363.211 397.494 363.668 394.456C367.886 366.426 380.342 337.069 399.698 316.024C409.197 328.681 418.254 330.1 432.899 324.589C451.917 317.434 469.669 304.474 484.211 290.398C500.553 300.829 512.055 299.713 528.079 290.023Z"/><path d="M440.261 382.295C455.946 380.366 470.225 391.52 472.152 407.206C474.079 422.892 462.924 437.17 447.237 439.095C431.554 441.019 417.279 429.866 415.352 414.183C413.426 398.499 424.577 384.223 440.261 382.295Z"/><path fill="#FDFDFD" d="M431.721 392.938C436.209 391.162 441.287 393.36 443.066 397.847C444.844 402.334 442.65 407.414 438.163 409.195C433.673 410.977 428.589 408.78 426.809 404.29C425.03 399.799 427.229 394.716 431.721 392.938Z"/><path d="M576.583 382.185C592.349 380.937 606.137 392.718 607.364 408.486C608.591 424.254 596.791 438.026 581.022 439.232C565.282 440.435 551.541 428.663 550.317 412.925C549.092 397.187 560.846 383.431 576.583 382.185Z"/><path fill="#FDFDFD" d="M566.912 392.802C571.443 391.128 576.473 393.452 578.134 397.988C579.796 402.524 577.457 407.547 572.916 409.195C568.394 410.837 563.396 408.51 561.741 403.992C560.087 399.475 562.399 394.47 566.912 392.802Z"/><path fill="#E68284" d="M594.101 443.723C607.295 441.874 619.514 451.003 621.482 464.18C623.45 477.357 614.432 489.658 601.273 491.746C587.945 493.86 575.451 484.7 573.457 471.353C571.464 458.006 580.737 445.595 594.101 443.723Z"/><path fill="#E68284" d="M422.059 443.742C435.354 441.965 447.561 451.335 449.282 464.638C451.003 477.94 441.583 490.108 428.273 491.773C415.041 493.429 402.961 484.076 401.25 470.852C399.539 457.627 408.841 445.508 422.059 443.742Z"/><path d="M520.417 301.179C526.979 302.136 523.679 311.114 522.117 315.216C515.035 333.824 493.817 338.48 476.924 330.68C473.832 329.252 470.91 328.122 469.522 324.756C471.195 319.966 479.585 325.427 486.667 316.909L487.061 316.425C489.619 312.244 490.233 304.074 493.676 302.474C499.364 304.307 493.84 316.633 491.352 319.643C488.033 323.658 486.317 324.835 481.953 327.227C496.59 331.43 512.071 328.196 517.307 311.874C518.462 308.274 518.653 304.609 520.417 301.179Z"/><path d="M483.16 481.162C485.402 482.256 487.38 484.425 489.181 486.177C499.88 496.586 518.18 497.802 530.528 489.626C533.768 487.481 537.073 481.095 541.525 482.16C542.945 484.394 541.954 485.935 540.704 487.894C535.407 493.326 528.915 497.956 520.162 499.89C508.023 502.572 486.209 497.495 481.047 484.484C480.575 483.295 482.287 482.022 483.16 481.162Z"/><path d="M507.917 438.062C511.245 437.676 513.964 437.676 516.927 439.439C519.44 440.934 522.802 444.669 520.48 447.515C517.333 447.611 517.51 445.399 514.087 442.502C506.372 441.909 507.661 445.986 501.448 447.819L500.713 447.168C501.219 442.229 503.752 440.055 507.917 438.062Z"/><path fill="#F7CACC" d="M654.124 478.816C656.409 482.449 663.474 507.43 664.974 513.097C669.429 529.941 672.871 549.936 674.802 567.269C679.913 613.127 679.556 665.621 655.935 706.725C645.726 704.11 635.384 701.696 625.288 698.723C592.063 688.955 559.746 676.328 528.7 660.984C503.344 648.12 481.658 635.396 458.9 618.304C465.459 615.102 474.759 611.562 481.705 608.427C495.055 602.253 508.235 595.717 521.231 588.827C536.533 580.581 549.224 571.773 563.595 562.678C572.341 558.042 581.238 554.161 589.92 549.347C620.451 532.417 638.208 508.894 654.124 478.816Z"/><path fill="#F7CACC" d="M367.172 515.345C368.629 516.778 375.171 531.031 376.916 534.157C423.09 616.891 514.119 667.493 601.482 696.812C618.436 702.333 635.572 707.28 652.86 711.643C644.512 725.712 636.053 734.791 623.786 745.367C618.454 749.786 614.342 752.976 608.39 756.49C600.296 754.002 591.785 751.921 583.759 749.412C511.803 726.917 437.604 691.332 384.477 636.695C372.555 624.435 358.16 608.203 350.007 593.214C352.632 569.647 358.285 537.461 367.172 515.345Z"/><path fill="#F7CACC" d="M349.424 603.295C351.09 604.803 359.431 616.642 362.031 619.769C371.376 631.028 381.421 641.688 392.104 651.686C438.544 695.332 501.024 726.387 560.756 747.573C574 752.271 588.163 756.054 601.641 760.287C596.788 763.405 590.393 766.144 585.065 768.508C553.824 781.409 519.708 785.744 486.233 781.066C444.305 775.484 403.65 756.326 377.65 722.076C355.957 693.499 349.149 659.123 348.614 624.001C348.51 617.168 348.511 610.091 349.424 603.295Z"/><path fill="#E68284" d="M414.289 207.062C433.833 205.579 466.045 228.75 479.523 242.302C474.754 249.377 473.224 253.124 472.22 261.556C466.47 261.548 456.983 261.135 451.478 262.307C450.709 262.471 450.639 263.198 450.168 264.181C450.661 268.891 468.005 267.206 472.171 267.148C473.247 275.526 475.661 279.812 480.278 286.636C476.355 290.503 471.557 294.407 467.27 297.906C457.443 306.48 443.414 314.873 431.323 319.345C425.37 321.546 417.887 323.292 411.909 320.379C406.893 317.935 403.941 312.731 402.125 307.667C395.168 288.274 393.465 235.64 402.85 216.786C405.432 211.6 408.827 208.772 414.289 207.062Z"/><path fill="#E68284" d="M594.661 206.669C625.246 207.714 615.481 287.067 610.634 306.114C602.222 339.175 562.592 310.963 547.319 299.487C541.837 295.234 537.043 291.372 532.153 286.44C537.383 278.639 538.027 276.501 540.189 267.151C544.746 267.181 558.98 268.28 561.894 265.042C562.086 263.457 562.179 264.228 561.444 262.675C559.176 260.889 544.288 261.457 540.059 261.401C538.495 252.929 537.342 250.093 532.779 242.74C546.423 228.339 574.659 209.166 594.661 206.669Z"/><path fill="#F7CACC" d="M376.266 492.761C378.689 494.738 385.621 506.304 388.26 509.703C427.468 560.182 487.688 578.642 549.097 565.642C543.209 570.414 524.894 580.65 517.652 584.545C499.478 594.883 472.965 606.782 453.78 614.405C418.9 588.045 386.55 548.015 370.136 507.438C371.976 502.463 374.021 497.566 376.266 492.761Z"/><path fill="#E68284" d="M500.292 236.472C510.281 234.399 520.613 237.858 527.34 245.527C534.067 253.196 536.151 263.89 532.796 273.523C529.44 283.157 521.163 290.242 511.127 292.072C495.869 294.854 481.211 284.848 478.244 269.624C475.278 254.401 485.106 239.622 500.292 236.472Z"/></svg>