<?xml version="1.0" encoding="utf-8" ?><svg xmlns="http://www.w3.org/2000/svg" xmlns:xlink="http://www.w3.org/1999/xlink" width="1024" height="1024" viewBox="0 0 1024 1024"><path d="M510.548 261.01C511.934 261.083 513.947 261.153 515.025 262.004C518.939 265.096 522.882 268.432 526.721 271.605L552.108 292.609L634.193 360.778L717.039 429.681L741.378 449.854C751.114 457.926 760.671 463.18 762.441 476.564C763.562 484.533 761.438 492.618 756.547 499.007C745.785 512.924 726.11 513.407 713.625 501.887C709.404 497.993 703.962 493.963 699.437 490.321L699.49 659.323L699.498 709.562C699.497 717.634 699.615 726.192 699.305 734.271C699.244 735.863 698.391 737.039 697.447 738.248C693.879 740.451 640.544 739.579 630.838 739.574L514.625 739.572L393.067 739.591L353.36 739.588C346.01 739.587 338.688 739.645 331.337 739.454C325.984 739.315 324.592 737.562 324.499 732.18C324.363 724.321 324.434 716.445 324.442 708.579L324.484 658.314L324.422 490.537C310.7 500.565 302.112 513.696 282.869 509.077C275.511 507.344 269.177 502.691 265.323 496.189C261.275 489.274 260.119 481.04 262.107 473.278C263.188 469.147 264.274 465.866 267.329 462.881C273.348 457.001 279.907 451.836 286.389 446.472L313.15 424.181L409.93 343.71L479.146 286.461L498.474 270.443C501.889 267.614 506.934 263.109 510.548 261.01Z"/><path fill="white" d="M511.669 334.367C513.42 335.291 522.953 343.469 524.966 345.148L554.948 370.12L688.001 480.634L687.985 728.492L512.75 728.543L335.597 728.488L335.525 480.872C345.905 472.703 356.762 463.294 366.95 454.761L415.495 414.322C447.208 387.957 480.633 361.228 511.669 334.367Z"/><path d="M458.808 493.671C478.848 490.481 499.643 501.07 511.859 516.6C514.177 513.7 516.722 510.988 519.469 508.491C531.255 497.805 546.88 492.372 562.753 493.442C577.327 494.412 590.898 501.206 600.407 512.293C610.636 523.912 615.723 539.178 614.507 554.61C612.057 588.896 581.36 620.043 556.725 641.607C550.95 646.606 518.031 674.465 512.019 674.667C508.048 674.801 501.51 668.979 498.354 666.635C465.044 641.893 416.229 602.946 410.023 559.277C407.807 543.69 411.283 527.873 420.946 515.278C430.329 503.047 443.621 495.721 458.808 493.671Z"/><path fill="#EB7A7E" d="M460.298 504.653C479.044 502.44 495.662 512.082 505.78 527.467C507.245 529.696 509.512 532.78 512.313 532.91C515.048 531.451 516.846 529.299 518.573 526.784C527.73 513.453 542.231 504.223 558.986 504.439C570.785 504.528 582.048 509.379 590.22 517.89C598.901 526.75 603.665 538.723 603.444 551.125C602.869 580.443 577.008 607.595 556.965 626.705C540.893 640.964 528.964 649.715 511.883 662.5C509.547 660.861 507.225 659.205 504.914 657.53C470.992 632.998 394.99 572.836 429.524 522.755C436.542 512.577 448.095 506.495 460.298 504.653Z"/><path fill="#9ED0EC" d="M511.986 273.929C513.141 274.669 517.553 278.494 518.773 279.51L534.539 292.727L585.99 335.4L705.585 434.815C718.125 445.317 730.905 455.612 743.445 466.115C745.82 468.212 748.706 470.702 750.012 473.583C754.204 482.83 749.381 494.547 739.635 497.702C736.693 498.877 729.823 499.285 727.03 497.602C721.105 494.031 715.17 488.678 709.831 484.261L677.216 457.063L551.25 352.47L527.157 332.296C523.641 329.35 516.282 322.583 512.43 320.795C508.149 321.573 496.882 332.084 492.814 335.469L459.191 363.363L342.072 460.734L314.256 483.878C307.646 489.376 298.542 498.88 289.804 498.739C284.959 498.673 280.36 496.592 277.111 492.998C273.655 489.21 271.938 484.152 272.374 479.044C272.73 475.157 274.6 471.329 277.461 468.765C285.336 461.709 294.096 454.772 302.243 448.044L349.089 408.975L511.986 273.929Z"/></svg>