<?xml version="1.0" encoding="utf-8" ?><svg xmlns="http://www.w3.org/2000/svg" xmlns:xlink="http://www.w3.org/1999/xlink" width="401" height="401" viewBox="318 290 401 401"><path fill="#010101" d="M610.326 365.168C633.893 362.636 656.546 373.419 666.766 395.415C669.663 401.651 670.831 406.931 672.353 413.565C686.109 418.83 684.36 430.849 670.591 432.746C665.39 448.38 659.474 457.166 645.97 466.537L645.978 651.504C649.378 651.495 662.715 650.906 664.873 652.432L664.234 653.051C653.859 653.932 635.801 653.385 624.765 653.373L553.158 653.344L432.357 653.276C404.762 653.312 377.151 653.32 349.556 653.238C347.602 653.232 344.891 653.281 343.353 652.212C344.846 650.99 360.138 651.389 363.047 651.378C362.921 629.276 362.919 607.172 363.042 585.069L404.932 585.05C405.5 606.397 405.058 630.005 404.993 651.469L423.144 651.462L423.009 590.626C422.992 579.479 422.632 565.423 423.307 554.479L464.988 554.535C465.278 565.194 465.056 577.008 465.066 587.75L464.987 651.437L482.856 651.436L482.711 535.442C496.64 535.332 510.571 535.342 524.501 535.471L524.506 651.469L541.873 651.489L541.899 502.372C555.829 502.125 569.762 502.113 583.693 502.338C584.26 519.244 583.713 538.883 583.692 555.957L583.626 651.467L601.848 651.491L601.537 472.4C580.273 464.768 571.495 453.999 564.284 433.195C550.34 430.229 548.591 418.352 562.586 413.998C567.263 387.351 582.872 369.132 610.326 365.168Z"/><path fill="#F8DCC8" d="M612.819 366.692C623.195 365.043 638.619 369.423 647.224 375.411C662.489 386.035 667.333 397.815 670.808 415.118C675.941 416.673 682.504 419.943 678.612 426.775C676.732 430.075 672.622 430.675 669.136 431.351C661.29 454.725 648.615 468.183 623.625 472.46C593.962 474.578 574.371 459.683 565.875 431.769C561.768 430.822 556.893 429.857 555.245 425.302C554.69 423.768 554.821 422.07 555.604 420.639C557.479 417.192 560.73 416.412 564.165 415.374C569.03 388.164 584.36 369.783 612.819 366.692Z"/><path fill="#010101" d="M598.432 439.477C607.744 439.282 617.157 439.644 626.48 439.419C629.353 439.349 632.234 439.327 635.082 439.739C637.972 443.022 633.406 449.148 631.139 451.853C619.656 461.783 599.568 455.855 598.432 439.477Z"/><path fill="#F38C8C" d="M617.308 446.625C622.034 446.239 625.701 448.342 629.493 450.676C625.63 453.811 623.398 454.321 618.702 454.792C613.077 454.664 610.648 453.589 606.054 450.826C610.619 447.922 611.949 447.462 617.308 446.625Z"/><path fill="#F38C8C" d="M644.73 428.762C649.568 427.743 654.327 430.795 655.42 435.616C656.514 440.437 653.536 445.243 648.733 446.411C645.559 447.183 642.215 446.184 639.984 443.798C637.753 441.412 636.981 438.008 637.964 434.893C638.948 431.778 641.534 429.434 644.73 428.762Z"/><path fill="#F38C8C" d="M587.057 428.602C591.886 428.212 596.147 431.738 596.667 436.555C597.187 441.371 593.777 445.726 588.976 446.376C585.754 446.812 582.548 445.464 580.606 442.856C578.663 440.248 578.29 436.791 579.631 433.828C580.972 430.865 583.815 428.864 587.057 428.602Z"/><path fill="#010101" d="M591.114 414.815C593.57 414.248 596.041 415.699 596.742 418.12C597.444 420.542 596.13 423.089 593.751 423.922C592.091 424.503 590.247 424.119 588.957 422.924C587.667 421.73 587.142 419.92 587.594 418.221C588.046 416.521 589.401 415.211 591.114 414.815Z"/><path fill="#010101" d="M641.669 414.825C644.106 414.378 646.463 415.931 647.013 418.346C647.564 420.762 646.113 423.183 643.723 423.836C642.083 424.284 640.33 423.797 639.157 422.568C637.983 421.338 637.579 419.564 638.103 417.947C638.628 416.33 639.997 415.131 641.669 414.825Z"/><path fill="#010101" d="M621.572 378.806L622.352 379.998C622.142 391.666 606.067 393.052 603.571 386.975L604.199 386.434C606.5 386.739 607.24 387.279 608.9 385.8C610.172 383.643 610.843 380.915 612.435 379.744C613.601 383.325 609.748 385.38 609.759 388.209L610.731 388.699C618.354 388.565 619.41 385.146 621.572 378.806Z"/><path fill="#010101" d="M630.795 378.14L631.862 378.678C633.902 383.504 627.673 389.062 623.679 390.858L622.602 390.251L622.661 389.641C627.996 386.463 629.986 384.295 630.795 378.14Z"/><path fill="#010101" d="M615.794 426.726C617.368 426.838 617.386 426.87 618.893 427.382C620.294 428.855 620.1 428.081 620.229 429.649L619.352 429.98L617.71 429.238C616.327 428.151 616.412 430.337 614.365 429.909C614.472 428.557 615.066 427.879 615.794 426.726Z"/><path fill="#2175EC" d="M643.144 468.473L643.817 468.651C644.182 470.792 643.96 481.212 643.95 484.236L643.891 518.2C643.868 562.203 643.421 607.548 644.082 651.462L603.513 651.389L603.446 473.05C619.335 475.978 628.416 474.98 643.144 468.473Z"/><path fill="#9ED0EF" d="M543.885 504.052C556.544 503.985 569.203 504.018 581.861 504.153C581.519 521.467 581.732 539.648 581.708 556.999L581.823 651.457C569.596 651.774 555.952 651.463 543.611 651.455C544.384 602.604 543.272 553.029 543.885 504.052Z"/><path fill="#2175EC" d="M484.588 537.103L522.539 537.254L522.657 651.446L484.506 651.368L484.588 537.103Z"/><path fill="#9ED0EF" d="M427.202 556.259C439.171 556.203 451.14 556.249 463.108 556.396C462.943 566.451 463.43 649.963 462.771 651.22L461.125 651.431L424.963 651.414C425.031 643.184 424.461 558.332 425.456 556.789C425.844 556.188 426.555 556.336 427.202 556.259Z"/><path fill="#9ED0EF" d="M364.965 586.931L402.949 586.955L403.08 651.438C390.366 651.471 377.652 651.433 364.938 651.324L364.965 586.931Z"/><path fill="#010101" d="M569.967 460.713L570.662 461.046C571.415 464.062 569.116 475.844 567.239 478.566C566.174 476.784 568.372 466.912 568.813 464.32C566.225 466.163 564.093 467.983 561.679 470.032C542.231 486.552 523.075 503.695 503.074 519.536C491.283 516.153 478.989 512.454 467.139 509.444C438.122 526.685 407.93 550.425 379.221 567.878L378.687 566.782C380.336 564.023 458.805 512.42 467.147 507.253C478.307 510.515 492.043 513.921 502.789 517.565C524.247 499.809 545.47 481.769 566.451 463.452C563.077 463.541 553.201 464.677 550.705 463.854C552.037 462.314 566.69 461.104 569.967 460.713Z"/><path fill="#010101" d="M397.952 489.271C399.608 490.761 400.464 497.044 401.507 498.904C403.34 502.173 411.07 503.757 414.351 504.524C406.849 505.809 401.964 506.283 399.726 514.815C399.45 515.871 399.143 516.898 398.715 517.902L398.32 518.81C393.455 506.142 395.573 507.985 382.059 504.047C393.51 501.815 395.44 501.003 397.952 489.271Z"/><path fill="#F0B24B" d="M398.191 495.844C400.381 500.397 401.417 501.854 405.773 504.247C401.277 507.169 400.412 508.282 398.178 512.913C396.324 507.932 394.833 506.894 390.542 504.193C394.908 501.709 396.107 500.346 398.191 495.844Z"/><path fill="#010101" d="M583.811 328.832C585.478 330.441 586.269 336.175 587.354 337.931C589.454 341.328 597.035 342.754 600.549 343.541C588.871 345.289 587.331 346.225 584.189 357.775C580.078 345.8 579.339 345.48 567.016 343.109C578.661 341.127 581.185 340.939 583.811 328.832Z"/><path fill="#F0B24B" d="M584.066 334.821C585.734 339.104 587.465 340.957 591.457 343.247C587.286 346.003 585.89 347.278 583.919 351.816C582.174 347.313 580.588 345.804 576.573 343.262C580.77 340.791 582.394 339.377 584.066 334.821Z"/><path fill="#010101" d="M683.633 444.889C684 445.322 684.502 446.358 684.711 446.903C687.113 453.151 689.249 453.223 695.197 454.612C687.164 456.121 686.402 456.469 683.783 464.341C679.555 455.549 682.546 456.835 671.38 454.025C680.296 452.725 680.553 454.562 683.633 444.889Z"/><path fill="#F0B24B" d="M683.943 449.961C684.756 451.473 685.821 452.536 686.954 453.827C687.063 455.621 685.329 456.997 683.9 458.759C684.162 458.921 680.98 455.341 680.169 454.609C681.583 453.127 682.7 451.585 683.943 449.961Z"/><path fill="#010101" d="M532.903 384.732C536.941 389.291 531.791 391.172 542.085 394.163L541.962 394.657C535.27 397.125 535.615 397.388 533.236 404.16C532.04 401.107 531.552 399.719 529.821 396.923C527.8 396.057 525.004 395.247 522.858 394.558C530.276 392.697 531.138 392.229 532.903 384.732Z"/><path fill="#F0B24B" d="M533.243 389.867L536.294 393.83C536.204 396.028 534.889 396.904 533.266 398.949C531.841 396.861 530.151 395.907 530.03 393.973C531.374 392.464 532.067 391.522 533.243 389.867Z"/><path fill="#010101" d="M517.178 445.87C517.653 446.346 517.666 446.25 517.878 446.816C520.584 454.04 522.194 454.138 528.993 455.21C520.931 456.799 520.454 456.659 517.616 464.452C513.831 461.841 520.023 458.317 506.715 455.192C514.388 453.493 515.282 453.627 517.178 445.87Z"/><path fill="#F0B24B" d="M517.624 450.954C518.838 453.01 520.392 453.649 520.69 455.519C519.728 457.021 518.865 457.898 517.684 459.205C516.547 458.073 515.768 457.237 514.711 456.029C514.64 453.866 516.01 452.921 517.624 450.954Z"/><path fill="#010101" d="M683.117 368.879C684.323 370.103 685.267 373.945 686.419 375.508C687.791 377.369 691.862 377.88 694.233 378.372C686.738 380.024 686.039 379.532 683.597 386.864L682.929 386.561C680.238 379.995 679.349 379.838 672.626 378.08C680.57 377.016 680.7 376.35 683.117 368.879Z"/><path fill="#F0B24B" d="M683.28 374.322C684.514 375.554 685.483 376.361 686.33 377.895C685.918 379.884 684.932 380.403 683.396 382.081C682.445 381.578 680.978 379.985 680.488 378.906C680.943 376.51 681.596 376.356 683.28 374.322Z"/></svg>