<?xml version="1.0" encoding="utf-8" ?><svg xmlns="http://www.w3.org/2000/svg" xmlns:xlink="http://www.w3.org/1999/xlink" width="669" height="669" viewBox="211 170 669 669"><path fill="#010101" d="M799.589 315.6C810.691 314.272 817.839 322.688 810.14 331.992C810.881 337.066 811.64 340.769 808.711 345.624C807.893 346.983 806.917 348.241 805.805 349.372C804.699 350.519 795.592 359.493 794.952 359.978C789.214 364.317 749.057 407.847 745.655 408.62L744.903 407.968C745.74 404.19 795.898 356.867 802.05 349.857C803.913 347.734 805.937 346.187 807.466 342.964C808.679 340.468 808.856 337.593 807.958 334.967L807.451 334.809C799.511 341.927 789.592 352.51 781.782 360.281C764.058 377.916 746.077 395.767 728.62 413.65C743.855 416.854 760.424 419.585 770.017 433.108C789.29 460.277 804.256 490.696 822.93 518.356C828.528 526.799 834.529 534.969 840.912 542.835C845.619 548.544 851.503 554.672 855.758 560.509L854.94 559.98C852.443 558.391 850.761 556.889 848.749 554.688C818.69 521.788 798.868 481.017 775.253 443.555C761.427 421.621 751.485 420.238 727.166 415.192C713.573 427.738 696.515 445.672 683.36 459.065C691.407 461.253 699.439 463.498 707.455 465.799C708.861 476.903 708.413 488.162 706.131 499.119C711.693 497.026 714.925 493.658 718.521 492.516L718.625 492.969C697.555 518.18 649.782 484.854 623.505 488.079C606.252 489.907 600.499 513.784 615.381 522.83C627.739 530.343 642.048 535.972 655.178 542.218C671.24 549.922 687.066 558.107 702.636 566.761C711.891 571.824 722.287 577.33 731.092 583.08C736.081 586.32 740.842 589.901 745.339 593.795C749.993 597.858 767.089 615.401 768.285 621.013C766.215 620.385 755.705 606.64 752.93 603.649C749.633 600.071 746.113 596.708 742.389 593.578C729.52 582.791 711.272 573.59 696.374 565.364C695.817 586.727 696.178 609.296 696.177 630.759C696.288 634.286 696.263 637.134 696.138 640.664C689.369 641.069 680.33 640.807 673.39 640.797L633.113 640.758L498.076 640.706C477.867 659.058 455.127 659.049 435.002 640.636L327.336 640.749C326.623 658.025 327.729 676.999 327.317 694.587C319.325 687.26 311.547 678.703 303.67 671.047C296.192 678.368 287.568 688.025 279.927 694.691C279.534 677.068 280.079 658.698 279.812 640.831L236.996 640.803C236.026 611.098 236.898 577.12 236.883 547L236.833 349.117C245.52 348.656 256.293 349.595 264.65 348.617L264.701 323.709C322.311 326.204 387.982 337.216 441.161 359.95C449.651 363.58 458.449 368.529 466.478 373.068C508.774 346.209 581.344 331.518 630.247 326.113C641.709 324.846 656.693 323.241 668.259 323.215C668.618 330.826 668.315 340.581 668.29 348.352C675.343 349.352 688.128 348.839 696.073 349.053C697.038 366.416 696.242 391.729 696.317 409.542L704.416 410.34C725.637 388.656 747.012 367.122 768.538 345.741C774.018 340.226 795.116 318.164 799.589 315.6Z"/><path fill="#EC7C88" d="M266.533 325.534C327.109 329.704 413.664 341.638 465.359 375L465.51 630.289C419.872 609.648 366.719 599.291 317.106 593.702C300.693 591.853 283.1 591.012 266.506 589.666L266.533 325.534Z"/><path fill="#010101" d="M352.073 366.161C357.812 365.396 373.406 366.839 377.111 371.654C375.337 373.591 365.773 376.887 362.42 379.4C341.128 395.356 342.776 427.475 365.576 441.02C367.861 442.377 374.09 444.369 375.482 446.138L375.249 447.088C373.279 448.677 370.65 449.297 368.186 450.115C366.715 450.419 365.239 450.695 363.758 450.942C352.5 452.844 340.951 450.118 331.732 443.382C322.479 436.538 316.308 426.311 314.567 414.934C310.872 390.234 327.714 369.626 352.073 366.161Z"/><path fill="white" d="M353.454 367.688C360.821 366.904 367.057 368.859 373.867 371.288L372.943 371.674C361.867 376.328 352.852 383.589 348.312 395.024C344.534 404.616 344.768 415.322 348.96 424.74C353.789 435.583 362.118 442.394 372.966 446.605C369.102 448.039 366.147 448.755 362.116 449.425C350.921 450.424 341.393 448.421 332.29 441.527C323.39 434.806 317.597 424.763 316.234 413.694C314.854 402.909 317.847 392.021 324.543 383.456C331.994 373.993 341.651 369.117 353.454 367.688Z"/><path fill="#010101" d="M395.85 386.806C397.673 388.469 402.113 398.167 403.407 400.811C408.697 401.772 414.007 402.62 419.333 403.355C416.017 406.747 411.134 411.181 407.586 414.358C408.421 419.583 409.366 424.848 409.723 430.121C406.056 428.476 400.647 425.358 396.968 423.388C394.087 423.348 385.163 428.584 382.105 430.26C382.531 425.477 383.664 419.323 384.421 414.481C380.658 410.639 377.026 407.315 373.237 403.294C378.464 402.346 383.537 401.664 388.794 400.944L395.85 386.806Z"/><path fill="#EC7C88" d="M395.871 390.782C397.122 391.588 401.301 400.42 402.395 402.509L415.223 404.75C412.17 407.467 408.731 410.995 405.759 413.888C406.599 417.43 407.301 423.41 407.86 427.172C404.383 425.154 400.304 423.182 396.691 421.335C395.021 420.737 386.245 425.879 384.161 426.971C384.971 422.658 385.581 418.229 386.229 413.882L376.629 404.464L389.924 402.592C391.729 398.701 393.908 394.624 395.871 390.782Z"/><path fill="#0D5BD0" d="M287.292 558.971C293.44 558.576 301.628 559.327 307.958 559.831C353.14 563.427 398.775 569.627 442.764 580.501C443.672 580.726 443.725 582.334 443.798 582.978C441.178 583.099 429.786 580.261 426.639 579.555C418.305 577.681 409.942 575.934 401.555 574.315C363.957 567.264 326.297 563.61 288.311 561.039C287.592 560.991 287.475 559.607 287.292 558.971Z"/><path fill="#0D5BD0" d="M287.409 528.153C296.907 527.285 314.029 529.669 324.041 530.551C362.863 533.972 401.64 540.209 439.665 548.725C441.918 549.23 443.026 549.452 444.201 551.455C440.824 552.488 414.165 545.927 408.562 544.794C384.667 539.963 360.08 536.533 335.833 534.028C329.364 533.359 291.64 531.352 289.293 530.457C287.957 529.947 287.963 529.397 287.409 528.153Z"/><path fill="#0D5BD0" d="M287.499 467.071C290.389 466.551 303.164 467.814 306.947 468.084C348.286 470.868 389.38 476.534 429.93 485.041C433.32 485.74 440.036 486.839 443.223 488.179C443.837 488.438 443.817 489.172 444.014 489.982C440.922 491.141 420.979 485.779 416.275 484.828C391.284 479.78 366.327 476.351 341.01 473.481C334.901 472.788 290.491 469.829 288.757 469.124C287.865 468.762 287.835 467.91 287.499 467.071Z"/><path fill="#0D5BD0" d="M287.613 497.155C294.213 496.89 312.315 498.995 319.496 499.654C355.616 502.652 391.522 507.835 427.015 515.176C431.394 516.07 438.932 517.268 443.036 519.159C443.73 519.479 443.628 520.192 443.844 521.227C441.435 521.074 438.839 520.296 436.457 519.796C419.651 516.274 402.718 512.636 385.745 510.045C363.15 506.595 340.457 503.819 317.696 501.721C308.045 500.867 297.808 500.791 288.383 499.764C287.266 498.54 287.695 499.286 287.613 497.155Z"/><path fill="white" d="M467.379 374.716C520.34 341.872 605.294 328.958 666.444 324.932L666.482 409.562C652.058 412.449 647.266 418.506 636.954 428.765C635.764 430.038 634.564 431.301 633.352 432.553C627.722 439.368 615.696 454.271 611.977 462.118C611.598 462.782 610.31 465.134 609.94 465.639C605.163 474.923 599.865 484.66 597.381 494.828L596.984 497.387C596.864 505.172 598.352 507.687 605.236 511.516C597.465 519.307 586.492 529.058 579.937 537.495C577.971 540.025 573.976 550.751 572.225 554.251C572.822 556.861 572.83 557.526 575.141 559.014C593.174 552.08 594.24 549.412 607.747 536.911C611.541 544.186 615.415 544.903 622.984 545.67C623.901 549.184 624.605 550.451 626.757 553.356L629.811 555.853C636.106 557.565 639.498 556.976 645.231 554.384C650.156 564.164 656.497 566.332 666.384 561.547L666.443 587.913C652.439 588.451 636.925 590.143 622.915 591.765C570.731 597.806 515.717 608.587 467.475 630.098C467.231 618.103 467.18 605.684 467.352 593.672C468.396 520.907 465.879 447.416 467.379 374.716Z"/><path fill="white" d="M607.747 536.911C611.541 544.186 615.415 544.903 622.984 545.67C623.901 549.184 624.605 550.451 626.757 553.356C608.107 556.557 590.557 558.359 571.562 562.138C572.8 560.751 573.657 560.161 575.141 559.014C593.174 552.08 594.24 549.412 607.747 536.911Z"/><path fill="#136EC9" d="M633.352 432.553C631.244 431.934 618.589 433.841 615.244 434.277C589.2 437.539 563.282 441.728 537.537 446.838C521.57 450.117 505.463 454.553 489.942 457.599L489.37 456.858C492.554 454.123 495.27 453.86 499.198 452.899C537.709 443.481 576.562 436.612 615.9 431.699C622.829 430.834 630.113 430.132 636.954 428.765C635.764 430.038 634.564 431.301 633.352 432.553Z"/><path fill="#136EC9" d="M609.94 465.639C607.293 465.358 592.847 467.679 589.314 468.214C566.251 471.716 543.302 475.927 520.499 480.841C512.854 482.458 496.741 487.171 490.108 487.823L489.65 487.323C492.682 483.616 505.565 481.858 511.052 480.599C531.09 475.812 551.299 471.778 571.638 468.504C584.571 466.362 599.422 464.623 611.977 462.118C611.598 462.782 610.31 465.134 609.94 465.639Z"/><path fill="#136EC9" d="M597.381 494.828L596.984 497.387C592.492 498.457 583.743 499.512 578.969 500.238C570.304 501.579 561.663 503.064 553.048 504.695C536.568 507.792 520.157 511.251 503.829 515.07C500.371 515.889 492.173 519.263 489.435 517.497L489.782 516.758C494.063 514.046 504.291 512.546 509.629 511.326C538.631 504.576 567.908 499.072 597.381 494.828Z"/><path fill="#136EC9" d="M626.757 553.356L629.811 555.853C611.685 557.648 593.78 560.855 575.794 563.642C573.226 564.04 570.638 564.454 568.049 564.657L567.848 564.159C568.742 563.935 568.393 564.118 568.951 563.731L568.506 563.629L568.583 563.06L567.881 562.501L567.904 562.118C569.571 562.68 569.89 563.104 571.562 562.138C590.557 558.359 608.107 556.557 626.757 553.356Z"/><path fill="#136EC9" d="M568.049 564.657C565.543 565.773 550.79 568.456 548.524 567.579L548.538 566.928C550.759 564.875 564.054 563.149 567.881 562.501L568.583 563.06L568.506 563.629L568.951 563.731C568.393 564.118 568.742 563.935 567.848 564.159L568.049 564.657Z"/><path fill="#131E28" d="M572.225 554.251C572.822 556.861 572.83 557.526 575.141 559.014C573.657 560.161 572.8 560.751 571.562 562.138C569.89 563.104 569.571 562.68 567.904 562.118C568.594 560.367 571.163 556.119 572.225 554.251Z"/><path fill="#136EC9" d="M501.499 526.971C503.334 527.077 504.501 527.28 505.718 528.625L506.047 530.553C507.467 538.57 519.254 533.476 518.425 544.973C518.761 547.12 522.59 549.246 523.149 551.436C524.897 558.279 532.847 574.289 530.436 580.552C527.735 583.547 524.153 584.201 520.245 585.473C516.894 586.639 514.139 587.44 510.706 588.363C508.694 587.494 507.924 586.982 506.051 585.789C502.887 578.16 500.393 567.966 497.601 559.965C497.025 556.526 499.097 553.818 496.476 550.702C492.243 545.671 496.948 541.422 499.752 537.217C497.655 532.539 495.57 529.585 501.499 526.971Z"/><path fill="white" d="M513.805 546.996L514.988 546.89C520.578 549.295 522.511 555.351 524.068 560.864C525.49 565.898 529.315 573.834 528.676 578.737C526.375 581.8 519.03 583.511 515.094 584.794C513.275 585.3 509.266 586.378 508.195 584.134C504.428 576.237 501.92 566.934 499.708 558.462C499.572 557.942 500.513 552.511 500.635 551.671C504.7 549.908 509.554 548.415 513.805 546.996Z"/><path fill="#136EC9" d="M522.024 567.007C523.007 566.965 522.834 567.036 523.835 567.347L523.893 568.015C522.351 569.672 521.629 569.742 519.422 570.567C518.719 570.372 518.448 570.164 517.793 569.821L517.756 569.039C519.334 567.605 519.889 567.613 522.024 567.007Z"/><path fill="#136EC9" d="M518.713 560.947C519.908 560.879 520.169 560.945 521.367 561.118L521.771 561.704C520.914 562.999 519.653 563.306 518.176 563.945C516.791 564.189 517.29 564.16 515.882 563.939L515.602 563.259C516.483 561.741 517.102 561.658 518.713 560.947Z"/><path fill="#136EC9" d="M517.793 554.96C518.704 554.848 518.542 554.935 519.502 555.183L519.438 555.959C517.965 557.433 517.594 557.401 515.505 558.01C514.942 557.987 514.316 557.762 513.741 557.606L513.619 556.988C515.109 555.58 515.746 555.567 517.793 554.96Z"/><path fill="white" d="M512.698 539.031L513.527 538.934C515.122 539.678 516.598 541.068 516.325 542.895C513.733 545.429 504.008 547.959 500.114 549.164C497.005 550.121 496.188 547.183 496.931 545.833C498.833 542.378 509.354 540.183 512.698 539.031Z"/><path fill="white" d="M500.505 529.298C501.481 529.361 502.543 529.491 503.525 529.59C504.384 530.634 504.375 530.295 504.456 531.797C504.656 535.474 505.825 535.199 508.763 537.507C508.313 538.418 506.909 538.635 505.632 539.128C503.736 539.774 503.048 540.026 501.094 540.336C502.711 533.045 499.817 534.396 500.505 529.298Z"/><path fill="#136EC9" d="M513.152 388.413C524.235 387.352 534.093 395.443 535.214 406.519C536.335 417.596 528.297 427.498 517.226 428.679C506.071 429.868 496.077 421.756 494.948 410.594C493.818 399.432 501.984 389.482 513.152 388.413Z"/><path fill="white" d="M511.843 390.914C521.581 389.128 530.922 395.577 532.704 405.316C534.485 415.055 528.031 424.394 518.292 426.17C508.558 427.946 499.228 421.498 497.447 411.765C495.667 402.033 502.111 392.699 511.843 390.914Z"/><path fill="#136EC9" d="M511.915 394.75L512.765 395.213C514.147 397.051 515.682 405.02 516.255 407.57C519.002 407.994 523.327 408.002 525.792 409.184C526.538 409.542 526.393 409.966 526.658 411.011C523.672 410.96 517.928 410.102 514.379 409.853C513.711 405.888 511.05 397.865 511.915 394.75Z"/><path fill="#136EC9" d="M633.418 399.193C635.962 398.841 637.348 398.413 638.943 400.582L638.59 399.652L638.402 400.909C634.937 402.126 615.125 404.098 609.873 404.816C591.224 407.392 572.64 410.411 554.135 413.872C551.681 414.322 551.59 414.473 549.809 413.305L549.808 412.656C556.716 408.914 621.716 400.727 633.418 399.193Z"/><path fill="#136EC9" d="M633.6 372.185C636.438 372.048 635.647 371.685 637.757 372.955L637.725 373.684C634.199 375.249 601.529 378.849 595.781 379.662C581.03 381.709 566.347 384.216 551.752 387.178C549.365 387.545 549.783 387.875 548.118 386.94L547.914 386.024C553.514 382.295 621.201 373.783 633.6 372.185Z"/><path fill="#136EC9" d="M577.216 533.194L578.144 533.336L578.149 534.246C575.732 536.479 552.932 540.177 548.059 541.176C547.767 541.091 547.102 540.711 546.8 540.552L546.807 539.476C549.163 537.711 572.906 533.722 577.216 533.194Z"/><path fill="#98D0F1" d="M264.367 350.069C264.921 352.181 264.669 365.401 264.663 368.361L264.604 407.964L264.65 591.605C271.136 592.328 278.508 592.474 285.07 592.906C332.92 596.061 380.718 603.353 426.607 617.532C434.962 620.114 444.492 623.15 452.485 626.8C442.723 624.521 431.749 622.466 421.893 620.718C386.461 614.782 350.758 610.598 314.913 608.182C303.777 607.45 290.835 606.509 279.773 606.519L279.807 626.611L250.559 626.575L250.551 359.873C254.578 354.246 258.262 352.874 264.367 350.069Z"/><path fill="#98D0F1" d="M674.202 553.799C676.94 555.153 679.659 556.544 682.36 557.97C682.69 580.64 682.455 603.771 682.487 626.497L497.012 626.586L495.852 625.093C530.243 617.288 565.068 611.533 600.142 607.859C604.342 607.428 629.747 605.479 632.063 603.567C625.723 602.9 609.983 604.993 602.888 605.748C577.709 608.396 552.638 611.989 527.729 616.518C512.473 619.396 497.214 623.285 482.121 626.048C487.128 623.558 501.004 619.003 506.795 617.169C557.961 600.963 614.9 592.859 668.392 589.604C668.171 580.548 668.487 568.801 668.05 560.2C670.024 558.153 672.32 555.884 674.202 553.799Z"/><path fill="#EC7C88" d="M684.336 558.87C688.076 560.743 690.815 562.328 694.399 564.508C693.882 589.107 694.332 614.152 694.158 638.816C629.032 640.005 562.23 637.772 497.077 638.946C478.575 657.23 454.325 656.954 435.953 638.767L347.75 638.888L327.406 638.919C327.309 635.587 327.378 631.992 327.384 628.636L398.063 628.503C411.26 628.494 424.659 628.594 437.826 628.607C446.145 628.616 460.158 632.669 465.605 632.521C474.928 632.267 484.238 628.565 495.936 628.508L684.485 628.505L684.336 558.87Z"/><path fill="#98D0F1" d="M801.424 317.075C808.511 317.288 814.831 323.331 809.382 329.503C803.084 336.638 795.805 343.475 789.049 350.22L754.867 384.506L649.978 490.086L644.2 488.688C640.002 487.455 636.306 486.845 632 486.151C639.032 478.546 646.862 471.169 654.198 463.746L708.081 409.459L765.864 351.416C771.39 345.867 796.454 319.443 801.424 317.075Z"/><path fill="white" d="M670.965 410.656C681.135 409.913 692.6 411 702.703 411.887C696.518 419.141 682.849 432.026 675.728 439.151L629.194 485.87C622.307 485.903 618.371 486.885 612.744 490.841C606.305 497.181 605.594 500.625 604.742 509.383C604.224 509.036 603.713 508.677 603.212 508.307C600.912 506.593 598.758 504.138 598.715 501.176C599.821 483.535 614.589 459.354 625.068 445.747C637.888 429.1 649.626 413.524 670.965 410.656Z"/><path fill="#EC7C88" d="M238.82 351.007C245.07 351.012 251.32 350.95 257.569 350.821C253.119 353.718 251.579 354.366 248.545 359.046L248.533 628.493C258.375 628.656 269.476 628.286 279.108 628.735C279.942 629.926 279.697 631.668 279.702 633.236L279.632 638.755L238.903 638.816C238.433 624.977 238.797 611.056 238.762 597.193L238.721 507.381L238.802 404.435C238.814 386.844 238.369 368.473 238.82 351.007Z"/><path fill="#FCB82A" d="M281.674 608.477C293.029 608.442 313.996 609.846 325.418 610.943L325.451 690.183L314.181 679.141C310.719 675.545 307.203 672.002 303.633 668.513C296.552 675.438 288.36 683.327 281.691 690.535C282.383 663.336 281.19 635.661 281.674 608.477Z"/><path fill="white" d="M682.099 460.584C690.081 462.757 698.049 464.981 706.002 467.258C706.329 472.81 706.402 477.853 706.446 483.398C692.623 485.784 686.723 484.942 674.161 492.321L669.335 495.836C663.358 494.303 657.924 492.539 652.054 490.65C661.73 481.203 672.293 469.498 682.099 460.584Z"/><path fill="#98D0F1" d="M327.341 611.09C341.339 612.067 433.405 621.667 440.58 626.824C434.236 625.983 411.305 626.526 404.093 626.539L327.366 626.51C327.132 621.127 327.219 616.458 327.341 611.09Z"/><path fill="#98D0F1" d="M668.265 350.122C674.178 351.822 678.792 354.933 682.351 359.968C682.823 375.041 682.594 392.824 682.42 408.018L681.543 408.61C677.306 408.582 672.508 408.916 668.234 409.118C668.567 390.323 667.424 368.495 668.265 350.122Z"/><path fill="#EC7C88" d="M674.53 350.633C679.277 350.274 689.121 350.62 694.244 350.643C695.025 367.582 694.427 391.851 694.17 408.994C692.601 409.274 686.478 408.78 684.519 408.661L684.523 376.737C684.525 371.397 684.89 364.045 684.001 358.904C683.389 355.369 677.533 352.316 674.53 350.633Z"/><path fill="#98D0F1" d="M605.571 513.918C606.216 514.472 606.3 514.542 606.656 515.336C608.796 520.113 611.945 522.652 616.057 525.545L594.326 546.899C590.281 543.182 586.876 539.771 583.045 535.85L605.571 513.918Z"/><path fill="white" d="M703.469 485.706C705.241 485.508 704.57 485.238 705.777 485.985C706.802 489.356 704.96 495.888 704.159 499.598C694.395 501.69 687.851 500.572 678.269 498.375L671.397 496.501C683.118 488.339 689.313 487.423 703.469 485.706Z"/><path fill="white" d="M638.456 536.449C643.528 538.714 648.556 541.075 653.539 543.532C649.221 549.141 646.316 552.001 639.76 554.699C631.358 555.982 626.879 553.406 624.545 545.166C630.574 543.072 633.888 540.709 638.456 536.449Z"/><path fill="white" d="M617.916 526.862C619.911 527.359 633.6 534.187 636.297 535.498C632.694 539.195 631.066 540.258 626.519 542.488C618.366 545.132 613.064 542.895 608.767 535.761C611.93 532.307 614.365 529.855 617.916 526.862Z"/><path fill="white" d="M655.501 544.44C661.287 547.027 666.795 549.867 672.445 552.732C669.138 556.707 667.469 558.361 663.057 561.066C654.741 563.879 650.138 561.227 646.778 553.399C650.122 550.22 652.47 547.893 655.501 544.44Z"/><path fill="white" d="M581.635 537.73C585.693 541.266 589.238 544.609 593.109 548.324C589.608 550.446 585.72 552.233 582.021 554.024C579.719 555.159 576.394 557.513 574.572 555.078C574.244 551.412 579.756 541.45 581.635 537.73Z"/><path fill="#89ADD6" d="M487.661 627.055C490.309 626.352 493.169 625.726 495.852 625.093L497.012 626.586C493.929 626.951 490.772 626.966 487.661 627.055Z"/></svg>