<?xml version="1.0" encoding="utf-8" ?><svg xmlns="http://www.w3.org/2000/svg" xmlns:xlink="http://www.w3.org/1999/xlink" width="716" height="428" viewBox="143 290 716 428"><path fill="#010000" d="M585.044 510.947C596.617 510.546 609.89 510.853 621.555 510.854L689.782 510.882C735.161 510.899 782.259 510.123 827.461 510.924C827.551 512.307 827.619 513.691 827.665 515.077C828.241 534.121 816.563 545.183 797.498 544.631C792.839 544.496 787.516 544.609 782.789 544.579L782.898 560.427C793.709 560.332 805.396 558.714 814.057 566.236C821.224 572.462 821.689 579.519 823.513 588.118L828.401 611.375L834.767 641.854C836.265 649.038 839.836 661.871 838.044 668.851C835.014 680.649 825.368 685.378 814.122 685.773C814.146 690.09 814.279 694.787 813.913 699.055L778.477 699.082L778.382 685.779C763.199 685.433 746.632 685.761 731.348 685.744L634.037 685.713L633.945 699.04C622.252 699.218 610.172 699.075 598.449 699.081L598.321 685.675C586.212 685.488 574.805 678.458 574.114 665.049C573.741 657.814 576.516 647.995 578.059 640.683L584.411 610.573C586.848 598.796 589.093 586.045 592.267 574.464C592.881 572.225 595.48 568.836 597.139 567.133C605.449 558.606 618.328 560.331 629.576 560.469L629.598 544.553L615.959 544.596C592.738 544.513 584.353 533.523 585.044 510.947Z"/><path fill="white" d="M611.205 562.58C621.207 561.957 637.82 562.497 648.538 562.476L724.064 562.394L773.646 562.505C782.466 562.506 791.943 562.237 800.72 562.821C805.829 563.136 809.167 564.687 813.067 568.02C819.527 573.539 820.405 583.154 822.098 591.166L827.7 617.841L833.582 645.97C835.928 657.275 839.95 668.743 830.377 677.941C822.762 685.257 811.969 683.711 802.25 683.629L662.7 683.637L618.531 683.61C611.837 683.601 600.426 683.902 594.027 683.317C590.87 683.015 587.83 681.963 585.162 680.248C580.585 677.344 577.436 672.654 576.482 667.318C575.333 661.232 577.115 654.484 578.45 648.52C583.654 625.275 587.964 601.814 593.254 578.595C595.392 569.21 602.187 564.42 611.205 562.58Z"/><path fill="#010000" d="M702.464 573.692C704.094 573.484 705.427 573.486 707.066 573.515C718.392 573.779 729.155 578.503 737.016 586.659C742.128 591.938 745.77 598.462 747.582 605.583C749.612 613.611 749.015 627.759 749.007 636.63C749.058 647.452 748.993 658.275 748.81 669.096L710.75 669.164L663.526 669.081L663.447 632.894C663.371 610.963 662.104 593.783 683.305 580.008C689.633 575.897 695.031 574.533 702.464 573.692Z"/><path fill="#9ECFEF" d="M665.517 621.175L746.968 621.108L746.896 667.007L665.483 666.975L665.517 621.175Z"/><path fill="white" d="M701.68 575.657C702.69 575.496 703.212 575.568 704.26 575.587C706.666 578.033 703.125 584.237 705.816 587.402L706.527 587.222C707.29 585.216 707.007 577.966 706.999 575.401C711.197 575.658 713.284 576.093 717.442 576.985C716.628 579.371 715.331 582.219 715.883 584.587L716.633 584.519C718.236 582.421 718.594 580.13 719.29 577.537C722.968 579.148 724.943 580.152 728.413 582.174C726.637 584.888 724.136 588.491 722.625 591.251L722.898 592.025C725.196 591.279 728.373 585.884 730.405 583.439C733.455 585.96 734.772 586.995 737.258 590.025C735.484 591.635 733.145 593.293 732.464 595.448L733.105 595.822C735.541 594.963 736.832 593.435 738.756 591.663C741.18 594.762 742.305 597.081 744.01 600.572C740.855 602.006 737.743 603.058 735.371 605.501L735.863 605.906C738.821 605.644 742.046 603.982 744.823 602.764C746.96 609.193 746.965 612.344 746.976 619.143C735.428 619.078 723.88 619.125 712.333 619.284C711.708 615.733 710.73 611.996 709.876 608.472C709.039 605.185 707.89 599.952 706.525 597.063L705.586 596.735C703.477 598.777 700.764 615.369 699.97 619.369L665.472 619.269C665.387 611.842 665.422 609.101 667.585 602.08C670.53 603.557 673.326 605.294 676.544 605.612L676.585 604.981C674.211 602.753 671.404 601.755 668.408 600.384C670.181 596.579 670.737 595.605 673.119 592.164C675.109 593.694 676.777 595.3 679.16 595.865L679.553 595.271C678.446 593.314 676.251 592.011 674.371 590.625C677.124 587.513 678.547 586.114 681.723 583.507C684.49 587.394 686.86 591.648 690.374 594.846C688.709 589.491 686.477 586.849 683.361 582.305C686.947 580.181 688.69 579.318 692.533 577.85C693.976 582.151 694.703 584.565 697.154 588.37C696.888 583.614 695.956 581.548 694.331 577.124C696.791 576.454 699.172 576.092 701.68 575.657Z"/><path fill="#E87F85" d="M705.773 601.635C706.969 604.612 710.433 616.375 709.373 618.995L707.625 619.183C705.544 619.215 704.268 619.425 702.377 618.697C702.383 615.989 705.013 604.733 705.773 601.635Z"/><path fill="#9ECFEF" d="M586.988 512.9L825.666 512.845C825.712 522.47 825.521 527.533 818.874 535.248C810.913 541.928 806.625 542.52 796.571 542.568L667.334 542.532L627.972 542.527C615.952 542.518 602.621 544.452 593.542 534.997C587.26 528.454 586.968 521.314 586.988 512.9Z"/><path fill="white" d="M654.366 544.576L758.126 544.579C758.087 549.863 758.081 555.148 758.106 560.433L654.369 560.403L654.366 544.576Z"/><path fill="#9ECFEF" d="M600.443 685.608L631.968 685.709L631.962 697.101C621.569 696.86 610.767 697.009 600.344 697.012L600.443 685.608Z"/><path fill="#9ECFEF" d="M780.5 685.685C790.993 685.755 801.486 685.768 811.98 685.723L812.09 697.087C801.686 696.843 790.878 696.99 780.444 696.992L780.5 685.685Z"/><path fill="#9ECFEF" d="M631.594 544.545L652.276 544.562L652.418 560.456L631.505 560.411L631.594 544.545Z"/><path fill="#9ECFEF" d="M760.173 544.534L780.711 544.586C780.682 549.777 780.839 555.258 780.914 560.471L760.072 560.417L760.173 544.534Z"/><path fill="#010000" d="M219.857 603.211C235.084 601.499 259.812 604.596 271.484 615.607C277.641 621.416 275.881 637.822 275.889 646.267C295.946 646.775 317.822 646.358 338.052 646.374L496.464 646.395L496.48 659.099C502.648 659.033 508.817 659.059 514.984 659.177L514.964 683.035L496.54 683.138L496.487 696.62C489.298 696.712 481.953 696.63 474.75 696.627L304.832 696.646L253.567 696.707C231.607 696.73 204.348 698.217 185.033 685.645C182.356 683.772 178.15 679.491 178.045 675.965C177.779 658.787 177.195 640.143 178.162 623.073C178.973 608.762 209.885 604.049 219.857 603.211Z"/><path fill="#9ECFEF" d="M180.016 631.411C183.466 635.44 186.073 637.2 190.523 640.013C190.455 643.301 190.016 650.385 191.474 653.065C193.062 651.214 192.589 643.603 192.552 640.784C197.283 642.72 201.025 643.82 205.894 645.267C205.856 648.513 205.35 657.347 207.057 659.693C208.614 657.481 208.067 648.674 207.997 645.604C212.228 646.486 217.652 646.982 222.023 647.5C221.977 650.705 221.4 658.581 223.173 660.875C224.779 658.752 224.186 650.651 224.095 647.607C228.867 648.034 233.829 647.991 238.633 648.04C238.655 652.029 238.064 667.688 239.32 670.17L240.346 670.266C240.554 669.985 240.762 669.704 240.97 669.422C240.669 664.886 240.668 652.225 240.642 648.319L255.442 648.408C255.369 651.747 254.969 659.099 256.379 661.803C257.982 659.718 257.545 651.287 257.516 648.285L272.091 648.296C272.014 651.725 271.484 659.083 273.141 661.796C274.739 659.876 274.197 651.282 274.137 648.398L288.729 648.368C288.728 651.383 288.38 670.434 289.057 672.318L289.901 672.513L290.5 671.944C291.214 667.234 290.739 653.642 290.677 648.331L305.176 648.364C305.134 651.685 304.606 659.56 306.155 662.178C307.672 659.951 307.294 651.405 307.273 648.345L321.673 648.408C321.606 651.483 321.128 659.526 322.646 661.763C324.313 659.244 323.785 651.7 323.716 648.34L338.54 648.407C338.522 652.14 337.945 670.386 339.221 672.003L340.168 671.715C340.841 669.723 340.551 651.965 340.536 648.334L355.144 648.38C355.065 651.314 354.522 659.831 356.051 661.859C357.631 659.826 357.15 651.327 357.105 648.367L371.687 648.402C371.61 651.47 371.154 659.455 372.597 661.787C374.145 659.151 373.654 651.78 373.588 648.388C378.56 648.375 383.533 648.39 388.505 648.431C388.49 652.303 388.007 670.154 388.884 672.469L389.778 672.584C391.771 669.82 389.223 651.084 391.058 648.353L405.224 648.395C405.123 651.761 404.56 659.152 406.098 661.774C407.734 659.818 407.282 651.252 407.241 648.328L421.519 648.372C421.453 651.436 420.996 659.952 422.437 662.245C423.934 660.219 423.537 651.32 423.516 648.355L438.355 648.373C438.199 652.573 437.231 661.846 438.794 665.16L439.482 665.268C440.544 662.628 440.289 651.701 440.296 648.341L455.204 648.416C455.11 651.341 454.496 659.846 456.204 661.789C457.879 659.756 457.342 651.305 457.272 648.327L472.124 648.436C472.065 653.096 471.844 658.397 473.251 662.871C474.278 660.387 474.047 651.546 474.03 648.396L494.509 648.352L494.563 694.588L312.583 694.577L259.976 694.629C238.623 694.651 192.064 697.65 180.062 676.763C179.671 662.232 179.737 645.969 180.016 631.411Z"/><path fill="#9ECFEF" d="M221.032 605.2C235.727 604.232 255.332 606.172 267.641 615.13C277.077 622.416 273.81 631.742 264.371 636.878C254.04 642.5 243.466 644.346 231.876 645.143C220.12 646.231 194.818 642.802 186.395 634.784C163.598 613.083 210.484 605.952 221.032 605.2Z"/><path fill="#010000" d="M224.933 616.193C245.257 615.359 252.466 630.33 229.703 633.432C207.474 633.629 201.438 618.889 224.933 616.193Z"/><path fill="white" d="M222.645 618.588C226.057 618.345 244.002 617.999 241.197 627.073C240.688 628.721 234.627 630.419 232.521 630.912C226.558 631.842 215.096 631.655 212.295 625.171C212.495 620.569 218.888 619.389 222.645 618.588Z"/><path fill="white" d="M496.556 661.067L512.966 661.019L512.978 681.231C507.615 681.034 501.936 681.144 496.546 681.161L496.556 661.067Z"/><path fill="#9ECFEF" d="M273.435 631.89C274.069 634.279 273.731 643.382 273.673 646.35C264.824 646.476 255.376 646.234 246.495 646.145L245.973 645.956C247.169 645.185 251.36 644.564 253.085 643.997C261.969 641.074 267.042 638.322 273.435 631.89Z"/><path fill="#010000" d="M400.321 384.16C419.913 381.065 450.119 392.327 462.908 407.672C486.506 436.312 466.916 467.75 452.843 495.122C442.99 514.286 440.999 528.636 423.587 543.555C417.973 547.558 413.68 549.941 406.735 551.29C391.412 554.266 373.238 544.928 368.369 529.714C361.581 508.501 379.369 489.721 381.338 469.498C383.679 445.446 363.272 418.189 378.455 395.492C383.337 388.27 392.11 385.414 400.321 384.16Z"/><path fill="#FAD2C4" d="M402.249 386.168C404.206 385.976 407.019 385.93 408.97 386.061C439.343 388.095 473.168 405.562 471.55 440.145C471.172 446.93 469.77 453.618 467.393 459.984C463.208 471.511 456.105 483.235 450.729 494.376C445.451 505.312 441.328 516.968 435.021 527.269C431.612 532.839 427.957 536.619 423.177 540.977C417.923 545.329 411.619 548.552 404.798 549.413C396.076 550.466 387.292 548.021 380.369 542.614C353.203 521.394 382.344 492.564 383.571 468.597C384.968 441.341 354.416 391.646 402.249 386.168Z"/><path fill="#010000" d="M301.674 416.705C307.565 416.709 316.059 417.674 321.229 420.661C350.924 437.819 326.749 476.291 327.491 500.925C328.609 512.483 334.079 525.427 338.516 536.352C351.679 568.762 320.879 595.961 289.95 579.53C287.678 578.163 285.525 576.607 283.514 574.879C268.49 562.157 264.633 544.473 256.135 527.729C243.264 502.37 223.704 470.503 243.809 443.168C256.555 425.839 280.75 417.987 301.674 416.705Z"/><path fill="#FAD2C4" d="M297.299 419.189C309.874 417.501 326.278 421.6 331.363 434.528C340.328 457.32 322.931 481.252 325.591 504.21C327.918 524.288 345.902 543.748 336.913 564.802C333.753 572.244 326.037 578.019 318.524 580.56C308.791 583.852 301.543 582.82 292.535 578.483C272.401 567.038 268.572 548.578 259.209 529.262C246.691 503.439 224.785 470.786 246.597 443.235C258.031 428.792 279.265 421.031 297.299 419.189Z"/><path fill="#010000" d="M700.468 311.108C702.125 310.95 703.787 310.859 705.452 310.837C716.438 310.773 728.088 319.372 729.437 330.329C730.721 340.754 730.128 352.92 730.116 363.462L730.013 427.817C737.987 434.59 743.051 441.537 745.039 452.097C747.098 462.934 744.753 474.145 738.525 483.249C731.602 493.231 722.396 498.008 710.717 500.135C708.754 500.334 706.495 500.523 704.533 500.468C693.466 500.205 682.969 495.508 675.397 487.433C668.094 479.45 664.234 468.908 664.657 458.096C665.237 445.065 670.63 436.393 679.997 427.94L679.913 366.372C679.891 359.238 679.846 352.017 679.86 344.927C679.878 336.299 679.154 327.533 684.966 320.422C689.464 314.918 694.01 312.869 700.468 311.108Z"/><path fill="white" d="M704.895 312.688C711.251 313.05 717.273 314.955 721.732 319.678C728.846 327.211 728.23 334.743 728.033 344.005C725.325 343.927 722.759 343.555 720.35 344.68L720.445 345.333C722.89 346.392 725.37 346.054 728.103 345.995L728.105 355.994C725.453 355.934 722.747 355.582 720.418 356.743L720.599 357.449C723.143 358.475 725.355 358.167 728.136 358.103L728.139 368.458C725.103 368.39 722.826 368.012 720.119 369.169L720.289 369.777C722.89 370.765 725.264 370.511 728.082 370.498L728.146 380.501C725.626 380.442 722.468 380.086 720.332 381.29L720.561 381.923C722.9 382.87 725.492 382.559 728.089 382.512L728.087 392.63C725.387 392.582 722.883 392.264 720.454 393.282L720.465 393.914C722.88 394.994 725.342 394.727 728.051 394.733L728.064 404.838C725.538 404.814 722.419 404.487 720.324 405.747L720.709 406.403C723.178 407.239 725.388 406.938 728.024 406.846L727.969 417.047C725.093 416.987 722.549 416.63 719.965 417.735L720.102 418.426C722.663 419.436 725.248 419.128 728.059 419.084L727.991 428.937C728.935 429.646 729.945 430.407 730.837 431.178C738.42 437.755 743.05 447.096 743.691 457.113C744.45 467.458 741.031 477.675 734.197 485.478C726.22 494.484 716.849 497.735 705.215 498.503C704.82 498.492 704.425 498.475 704.031 498.453C693.332 497.839 683.493 493.546 676.317 485.483C669.442 477.653 665.979 467.401 666.699 457.006C667.59 444.769 673.129 436.489 682.107 428.681L681.992 416.288C682.913 416.294 683.833 416.294 684.753 416.289C687.055 416.299 687.511 416.516 689.555 415.582L689.399 414.93C686.858 413.919 684.757 414.22 681.994 414.29L681.99 403.809C684.415 403.899 687.632 404.324 689.573 402.983L689.19 402.318C686.58 401.311 684.711 401.64 681.899 401.756L681.915 391.518L684.003 391.527C686.579 391.556 687.19 391.813 689.482 390.802L689.385 390.115C686.87 389.116 684.687 389.438 681.943 389.522L681.974 379.46C684.651 379.468 686.99 379.791 689.388 378.793L689.36 378.125C686.87 377.11 684.604 377.41 681.871 377.462L681.884 367.171C684.264 367.247 687.789 367.662 689.655 366.247L689.246 365.579C686.835 364.701 684.49 365.031 681.877 365.128L681.875 354.719C684.364 354.785 687.341 355.153 689.472 353.965L689.227 353.284C686.83 352.381 684.46 352.692 681.848 352.765L681.837 342.621C684.496 342.69 687.544 343.034 689.876 341.887L689.639 341.247C687.077 340.304 684.599 340.59 681.825 340.633C681.728 324.374 687.541 314.339 704.895 312.688Z"/><path fill="#010000" d="M696.49 350.541L713.338 350.553C713.682 359.806 713.412 370.927 713.415 380.289L713.506 439.891C718.795 442.569 722.265 445.152 724.905 450.797C727.38 456.134 727.587 462.246 725.478 467.738C723.014 474.134 718.7 477.71 712.661 480.411C708.166 481.735 703.882 482.097 699.285 480.882C693.616 479.394 688.818 475.62 686.036 470.46C683.232 465.324 682.58 459.285 684.225 453.668C686.308 446.658 690.466 443.269 696.491 439.96L696.49 350.541Z"/><path fill="#1A74F1" d="M698.401 352.474L711.55 352.481C710.94 381.769 711.808 411.838 711.387 441.258C716.62 443.526 720.513 446.424 723.059 451.717C725.32 456.443 725.55 461.888 723.696 466.787C721.329 473.085 717.138 476.032 711.376 478.654C707.118 479.821 703.478 480.044 699.177 478.762C694.098 477.27 689.867 473.738 687.491 469.008C685.01 464.191 684.623 458.565 686.421 453.455C688.694 447.141 692.782 444.079 698.481 441.321C697.975 412.266 698.333 381.565 698.401 352.474Z"/><path fill="#010000" d="M380.368 337.709C391.279 336.272 401.272 344.001 402.623 354.923C403.974 365.846 396.165 375.776 385.232 377.04C374.422 378.29 364.626 370.588 363.29 359.788C361.955 348.987 369.579 339.131 380.368 337.709Z"/><path fill="#FAD2C4" d="M381.94 339.755C391.59 339.21 399.877 346.544 400.509 356.189C401.141 365.834 393.883 374.186 384.244 374.906C374.481 375.635 365.996 368.262 365.356 358.493C364.716 348.723 372.165 340.306 381.94 339.755Z"/><path fill="#010000" d="M323.681 370.796C334.571 369.607 344.348 377.507 345.473 388.403C346.598 399.3 338.64 409.03 327.738 410.09C316.926 411.142 307.294 403.265 306.178 392.459C305.063 381.654 312.883 371.975 323.681 370.796Z"/><path fill="#FAD2C4" d="M322.092 373.303C331.51 371.239 340.825 377.177 342.929 386.587C345.033 395.996 339.134 405.335 329.733 407.479C320.277 409.635 310.869 403.693 308.753 394.228C306.636 384.762 312.618 375.379 322.092 373.303Z"/><path fill="#010000" d="M421.805 343.259C427.685 341.807 433.891 343.643 438.036 348.06C442.18 352.477 443.618 358.787 441.795 364.564C439.972 370.34 435.173 374.682 429.243 375.92C420.303 377.787 411.514 372.147 409.486 363.242C407.458 354.337 412.937 345.448 421.805 343.259Z"/><path fill="#FAD2C4" d="M422.76 345.265C430.625 343.578 438.365 348.602 440.024 356.474C441.683 364.345 436.631 372.067 428.754 373.698C420.916 375.321 413.242 370.3 411.591 362.468C409.94 354.636 414.934 346.944 422.76 345.265Z"/><path fill="#010000" d="M279.76 376.355C288.673 374.333 297.541 379.9 299.595 388.805C301.65 397.71 296.115 406.599 287.218 408.686C278.275 410.783 269.329 405.214 267.264 396.263C265.199 387.311 270.802 378.386 279.76 376.355Z"/><path fill="#FAD2C4" d="M280.751 378.377C288.597 376.896 296.144 382.101 297.548 389.961C298.952 397.821 293.673 405.316 285.799 406.642C278.035 407.95 270.666 402.76 269.281 395.009C267.897 387.258 273.014 379.838 280.751 378.377Z"/><path fill="#010000" d="M245.207 390.666C253.75 388.943 262.085 394.427 263.885 402.954C265.685 411.481 260.277 419.866 251.767 421.743C243.147 423.644 234.63 418.151 232.807 409.514C230.984 400.877 236.554 392.411 245.207 390.666Z"/><path fill="#FAD2C4" d="M246.294 392.739C251.174 392.022 256.062 393.997 259.075 397.902C262.089 401.808 262.759 407.037 260.827 411.576C258.895 416.116 254.663 419.258 249.759 419.795C242.367 420.604 235.689 415.344 234.745 407.968C233.8 400.592 238.936 393.819 246.294 392.739Z"/><path fill="#010000" d="M457.354 358.277C465.911 356.319 474.425 361.704 476.323 370.274C478.221 378.845 472.776 387.321 464.192 389.159C455.694 390.978 447.319 385.599 445.44 377.113C443.561 368.627 448.882 360.215 457.354 358.277Z"/><path fill="#FAD2C4" d="M458.396 360.282C465.81 358.89 472.94 363.799 474.284 371.221C475.628 378.644 470.673 385.742 463.242 387.038C455.879 388.322 448.86 383.422 447.528 376.067C446.196 368.713 451.05 361.662 458.396 360.282Z"/><path fill="#010000" d="M762.232 326.121C773.373 325.303 770.52 332.988 770.499 341.623C774.073 341.556 784.325 340.779 785.89 343.408C792.62 354.72 773.894 352.162 770.47 352.156C770.422 355.957 771.148 361.649 770.112 365.283C769.725 366.639 768.367 366.948 767.165 367.446C756.485 367.998 759.405 360.585 759.473 352.19C755.043 352.038 748.952 352.873 745.003 351.636C743.625 350.387 742.455 348.575 742.381 346.688C742.117 339.963 755.289 341.509 759.554 341.581C759.608 336.119 757.778 329.742 762.232 326.121Z"/><path fill="#1A74F1" d="M763.064 327.567C765.609 327.603 765.695 327.303 767.599 328.439C769.58 331.566 768.697 339.081 768.692 343.324C773.062 343.376 789.05 341.129 784.545 349.263C781.111 351.585 773.151 350.591 768.57 350.435C768.671 353.741 769.435 363.489 767.908 365.58C765.371 365.704 764.332 366.013 762.314 364.827C760.218 361.458 761.357 355.353 761.38 350.543C756.492 350.61 747.014 352.118 744.543 347.804C744.467 346.052 744.42 346.169 745.254 344.633C747.24 342.811 757.605 343.328 761.45 343.079C761.381 339.032 761.253 334.734 761.444 330.691C761.54 328.647 761.86 328.626 763.064 327.567Z"/><path fill="#010000" d="M465.971 553.558C472.735 553.068 473.062 555.052 477.992 556.856C478.111 556.9 482.797 553.546 484.32 553.537C490.256 553.504 494.434 555.847 494.081 562.217C493.629 568.89 489.976 572.404 485.539 576.652C482.944 578.845 479.847 581.103 477.115 583.184C469.016 577.202 449.756 562.087 465.971 553.558Z"/><path fill="#E87F85" d="M467.001 555.047C472.96 554.894 473.838 556.368 477.536 560.651C479.484 558.008 482.022 555.523 485.489 555.308C487.082 555.2 488.649 555.75 489.826 556.828C495.745 562.18 489.973 569.893 485.811 574.021C482.723 576.694 480.427 578.493 477.115 580.893C470.177 575.643 452.802 562.588 467.001 555.047Z"/><path fill="#010000" d="M201.18 524.04C205.851 523.96 207.669 525.451 211.052 528.156C213.358 525.745 216.246 524.144 219.649 524.136C221.599 524.115 223.472 524.888 224.839 526.278C232.048 533.545 223.254 542.833 217.978 547.719C215.563 549.652 213.126 551.559 210.669 553.44C203.306 547.83 181.776 530.054 201.18 524.04Z"/><path fill="#E87F85" d="M201.113 525.516C205.939 525.759 207.984 527.239 210.509 531.325C215.298 526.097 223.463 521.541 225.515 532.907C226.24 536.921 221.949 541.428 219.126 544.206C216.758 546.467 213.312 549.15 210.717 551.286C203.461 545.948 186.403 532.866 201.113 525.516Z"/><path fill="#010000" d="M482.19 384.891C489.955 382.75 497.978 387.339 500.069 395.117C502.161 402.895 497.521 410.889 489.73 412.932C482.008 414.956 474.1 410.366 472.028 402.657C469.955 394.948 474.494 387.012 482.19 384.891Z"/><path fill="#FAD2C4" d="M483.125 386.905C489.691 385.28 496.339 389.258 498.011 395.813C499.682 402.367 495.752 409.043 489.21 410.762C482.601 412.498 475.842 408.52 474.153 401.898C472.464 395.276 476.491 388.546 483.125 386.905Z"/><path fill="#010000" d="M220.277 417.208C225.375 416.158 230.644 417.93 234.07 421.849C237.496 425.767 238.551 431.225 236.83 436.137C235.109 441.049 230.88 444.657 225.757 445.581C217.972 446.984 210.506 441.868 209.006 434.101C207.505 426.334 212.529 418.805 220.277 417.208Z"/><path fill="#FAD2C4" d="M221.616 419.233C228.223 418.384 234.296 422.974 235.282 429.562C236.269 436.149 231.807 442.317 225.242 443.441C220.871 444.19 216.436 442.516 213.65 439.066C210.864 435.615 210.162 430.928 211.815 426.812C213.468 422.697 217.217 419.797 221.616 419.233Z"/></svg>