<?xml version="1.0" encoding="utf-8" ?><svg xmlns="http://www.w3.org/2000/svg" xmlns:xlink="http://www.w3.org/1999/xlink" width="532" height="464" viewBox="248 298 532 464"><path d="M302.312 321.223L305.279 321.164C341.98 320.606 379.499 321.117 416.276 321.095L450.492 321.01C462.641 320.978 481.341 318.172 484.519 334.603C485.877 341.628 484.892 349.941 485.052 357.16C485.205 364.056 484.891 371.162 485.078 378.073C484.752 393.972 476.348 397.264 462.707 396.944C462.799 415.417 468.824 416.028 482.787 426.204C489.941 431.417 498.091 441.802 498.836 450.919C499.842 463.237 499.449 476.442 499.45 488.888L499.475 559.056L499.496 630.759C499.498 642.942 500.243 657.155 498.915 669.105C497.237 684.202 483.285 693.633 469.264 695.094L468.94 695.101C429.43 695.568 389.242 695.167 349.668 695.211L316.68 695.311C302.539 695.359 290.928 696.549 279.957 685.795C268.691 674.752 270.894 658.872 270.896 644.428L270.926 600.151L270.777 459.76C270.976 433.562 284.226 429.911 302.049 415.108C307.428 410.64 306.79 403.47 306.7 397.032C295.121 397.527 285.441 393.914 284.69 380.555C284.291 373.466 284.233 365.259 284.51 358.166C285.135 342.108 280.056 322.866 302.312 321.223Z"/><path fill="#BDDEF3" d="M312.987 397.249L457.667 397.013C457.213 420.47 468.78 420.385 483.922 433.698C491.262 440.151 494.38 449.569 494.438 459.207C494.528 474.362 494.512 489.628 494.508 504.835L494.508 593.75L494.566 643.305C494.577 656.193 496.924 672.173 487.008 681.974C478.105 690.774 468.114 690.192 456.625 690.259L360.186 690.281C341.906 690.288 323.57 690.406 305.292 690.401C296.747 690.399 288.718 687.822 282.774 681.419C279.774 678.187 276.409 671.681 276.175 667.325C275.655 657.647 275.814 647.282 275.815 637.556L275.819 581.099L275.695 498.717C275.69 484.67 275.6 470.397 275.907 456.6C276.351 436.609 290.437 431.498 303.924 420.205C312.164 413.305 311.438 407.696 312.022 397.807L312.987 397.249Z"/><path d="M326.549 485.684C372.583 479.042 419.014 528.269 465.026 510.711C469.143 509.14 475.24 501.347 479.51 502.703C480.708 506.383 480.325 517.75 480.328 522.065L480.349 556.158L480.386 617.409C480.387 628.07 480.604 638.758 480.116 649.404C479.457 663.758 470.21 672.939 456.686 675.933C453.821 676.217 450.463 676.328 447.575 676.335C418.312 676.405 389.022 676.276 359.761 676.306L332.046 676.383C319.673 676.423 307.813 677.949 298.225 668.537C288.043 658.543 289.493 647.267 289.486 634.357L289.492 606.766L289.424 503.399C299.32 492.57 312.297 487.555 326.549 485.684Z"/><path fill="#2178E8" d="M330.875 490.215C376.386 485.836 429.936 540.908 475.034 510.693C476.169 539.045 475.413 571.864 475.418 600.527L475.42 632.353C475.384 653.699 476.448 670.373 448.724 671.286L352.838 671.368C342.505 671.353 332.147 671.409 321.821 671.449C313.895 671.481 308.656 670.736 302.342 665.39C292.793 657.305 294.412 643.954 294.459 632.728L294.505 605.682L294.575 505.534C304.913 495.151 316.552 491.409 330.875 490.215Z"/><path fill="#BDDEF3" d="M301.053 326.164C337.404 325.646 374.352 326.062 410.743 326.022L448.409 325.941C456.061 325.926 468.114 324.673 474.712 328.239C477.301 329.638 479.601 333.817 479.786 336.706C480.766 351.969 480.213 367.711 479.812 383.017C479.671 388.036 473.506 391.459 469.082 392.076L352.629 392.249C336.011 392.207 319.363 392.55 302.772 392.221C296.84 392.318 290.394 388.851 289.867 382.29C289.164 373.524 289.163 363.513 289.472 354.655C289.887 342.791 285.812 328.995 301.053 326.164Z"/><path d="M410.83 336.366C411.914 336.62 414.167 337.305 414.21 338.705C414.619 352.122 414.322 365.715 414.229 379.162C414.223 380.01 413.506 381.134 413.086 381.815C412.283 381.706 411.322 381.495 410.51 381.341C409.557 380.284 409.412 380.2 409.4 378.637C409.3 365.524 409.057 352.345 409.436 339.241C409.483 337.611 409.872 337.481 410.83 336.366Z"/><path d="M330.282 336.163C332.447 337.135 332.29 336.674 333.429 338.342C333.601 339.812 333.841 343.784 333.681 345.128C332.857 352.056 335.289 377.452 332.409 382.063C330.332 381.615 328.789 381.572 328.754 379.02C328.567 365.588 328.307 351.996 328.899 338.583C328.931 337.857 329.863 336.697 330.282 336.163Z"/><path d="M303.248 336.316L305.485 336.686C306.262 337.314 306.853 337.496 306.909 338.702C307.538 352.184 307.069 366.088 306.959 379.61C306.952 380.468 306.145 381.551 305.739 382.128C304.605 381.782 302.266 380.938 302.328 379.523C302.684 371.46 300.626 342.746 303.248 336.316Z"/><path d="M463.632 336.191C464.869 336.376 467.465 336.938 467.383 338.526C467.008 345.769 469.068 377.145 466.282 381.983C464.186 381.381 464.011 381.421 462.873 379.937C462.639 378.581 462.42 374.667 462.564 373.358C463.262 367.023 461.115 340.23 463.632 336.191Z"/><path d="M356.779 336.206C357.876 336.433 360.297 336.945 360.223 338.369C359.825 346.004 361.976 376.556 359.482 381.981C356.96 381.322 357.269 381.82 355.87 380.188C354.669 371.877 356.106 348.54 355.691 338.971C355.659 338.223 356.406 336.873 356.779 336.206Z"/><path d="M383.787 336.199C385.073 336.431 387.175 336.94 387.246 338.573C387.828 352.08 387.522 365.783 387.346 379.308C387.335 380.087 386.561 381.192 386.148 381.797C385.018 381.691 382.76 381.023 382.832 379.696C383.246 371.98 381.063 341.454 383.787 336.199Z"/><path d="M437.282 336.149C438.914 336.568 440.359 336.954 440.426 338.93C440.558 342.831 440.682 346.841 440.588 350.745C440.35 360.628 441.021 370.707 440.152 380.531C440.152 380.531 439.043 382.044 438.94 382.185C437.622 381.696 435.885 381.059 435.822 379.419C435.316 366.105 435.784 352.633 435.964 339.304C435.981 338.042 436.593 337.127 437.282 336.149Z"/><path d="M720.802 439.642C730.225 439.082 739.065 440.91 746.299 447.414C758.434 458.326 761.273 478.458 750.898 491.51C744.895 499.062 738.136 506.299 731.666 513.544L709.374 538.691C713.032 542.133 716.57 545.185 717.13 550.524C718.02 559.019 706.869 570.72 698.607 571.105C693.763 571.33 689.055 566.485 685.626 563.502L632.858 623.116C623.695 633.47 614.125 644.911 604.371 654.612C597.309 661.636 588.269 661.862 578.982 661.391C575.154 664.829 572.387 668.304 569.131 672.235C561.11 682.463 561.715 680.728 551.715 672.289C547.485 668.719 542.389 664.639 538.834 660.486C543.316 653.629 551.594 647.837 555.855 641.106C554.641 634.046 553.03 623.185 556.988 616.917C562.841 607.646 572.627 597.546 579.888 589.287L616.071 548.038C623.459 539.636 631.923 530.513 638.819 521.815C635.144 518.555 630.521 514.923 630.351 509.556C630.086 501.19 640.308 489.238 648.987 489.244C654.04 489.248 657.122 492.013 660.535 495.336C671.079 485.242 680.928 471.65 691.032 460.949C701.04 450.348 705.171 441.893 720.802 439.642Z"/><path fill="#BDDEF3" d="M642.388 525.299C647.27 528.899 653.43 534.688 658.029 538.827C666.036 545.991 673.991 553.213 681.892 560.493C655.969 590.271 629.053 619.551 603.05 649.285C595.988 657.361 587.694 656.59 577.926 656.578C575.039 658.227 574.596 658.591 572.206 660.826C568.751 664.62 564.945 669.8 561.324 673.946C556.065 669.604 550.592 664.667 545.412 660.169C555.186 648.803 563.055 647.06 559.48 630.864C557.449 621.66 564.716 614.174 570.313 607.664C594.03 580.079 619.015 553.172 642.388 525.299Z"/><path fill="#2178E8" d="M604.769 576.074C605.751 574.919 606.066 574.018 607.747 573.998C624.53 573.795 641.332 573.72 658.113 573.708C659.479 573.707 659.566 574.019 660.56 574.783C660.744 576.827 660.249 577.379 658.399 578.435C655.04 581.358 649.749 587.845 646.622 591.414L617.042 625.006C611.082 631.767 605.216 638.737 598.907 645.016C591.901 651.989 587.671 650.663 579.151 651.011C571.776 651.312 565.243 660.788 560.862 666.337C557.731 663.902 555.612 662.293 552.844 659.487C553.496 658.824 554.189 658.202 554.867 657.565C557.65 654.95 560.731 652.307 562.965 649.192C569.191 640.509 562.594 630.899 566.767 621.481C570.916 612.119 604.625 580.777 604.769 576.074Z"/><path d="M604.769 576.074C605.751 574.919 606.066 574.018 607.747 573.998C624.53 573.795 641.332 573.72 658.113 573.708C659.479 573.707 659.566 574.019 660.56 574.783C660.744 576.827 660.249 577.379 658.399 578.435C641.643 578.876 624.55 578.459 607.769 578.523C606.223 578.529 605.652 577.197 604.769 576.074Z"/><path fill="#2178E8" d="M724.597 444.205C732.073 444.569 737.313 445.968 743.141 451.146C748.77 456.197 752.138 463.294 752.492 470.848C753.289 485.619 740.439 496.261 731.286 506.556L705.753 535.235L698.802 529.138C687.744 518.859 675.572 508.81 664.862 498.544C668.403 493.862 675.129 486.738 679.293 482.051L701.352 456.814C708.582 448.543 713.259 444.973 724.597 444.205Z"/><path fill="#2178E8" d="M646.697 493.994C647.9 493.95 649.208 493.856 650.387 494.136C651.594 494.422 652.773 495.099 653.761 495.831C661.604 501.64 708.382 543.201 711.665 548.744C712.551 550.239 712.74 551.411 712.26 553.123C710.874 558.064 704.806 563.894 700.337 566.238C697.87 566.492 694.515 564.925 692.727 563.289C674.191 546.341 654.635 530.066 636.766 512.489C631.099 506.915 642.352 496.906 646.697 493.994Z"/><path d="M679.658 674.701C691.206 674.33 709.112 677.826 708.249 692.063C707.783 699.76 709.878 708.066 701.783 712.862C691.046 719.224 678.493 718.398 666.973 716.087C667.175 720.895 668.068 728.452 664.1 732.037C652.635 742.394 626.907 742.526 615.21 732.453C611.486 729.247 611.683 723.083 611.614 718.667C607.279 719.554 604.922 719.944 600.533 720.284C587.726 720.426 570.921 716.691 572.138 701.793C572.647 695.564 570.185 689.084 576.259 684.208C588.409 674.453 612.824 673.816 624.31 684.879C627.861 688.346 627.201 693.707 626.999 698.295C637.898 696.297 642.539 695.904 653.257 698.808C653.512 692.846 652.173 687.665 656.856 682.358C661.816 676.738 672.576 675.314 679.658 674.701Z"/><path fill="white" d="M614.486 718.709C628.202 729.527 650.811 729.619 664.356 718.37C664.544 722.005 664.926 725.135 663.621 728.558C657.215 735.546 648.104 737.369 638.891 737.325C631.608 737.291 622.335 735.646 617.03 730.253C613.485 726.648 614.358 723.448 614.486 718.709Z"/><path fill="white" d="M705.466 696.56C705.991 709.202 701.264 711.938 689.197 714.533C681.533 716.181 674.74 715.423 667.221 713.509L667.169 712.823C666.719 707.339 666.044 706.389 661.997 702.977C659.921 701.706 657.19 700.413 655.908 698.539L656.197 697.772C671.758 707.62 690.541 707.887 705.466 696.56Z"/><path fill="white" d="M619.629 684.504C620.839 684.788 622.58 686.267 623.441 687.211C626.957 691.062 623.305 696.825 620.164 698.976C611.677 704.789 600.839 705.039 591.082 703.847C588.848 703.459 586.487 702.853 584.267 702.33C596.036 696.602 607.936 690.434 619.629 684.504Z"/><path fill="white" d="M700.558 682.095C706.356 684.446 707.141 691.867 702.303 695.646C694.297 701.9 683.129 702.69 673.386 701.939C670.698 701.526 668.008 700.882 665.349 700.295C667.654 699.309 670.388 697.891 672.6 696.641C681.654 691.523 691.613 687.293 700.558 682.095Z"/><path fill="white" d="M618.898 704.76C620.422 705.165 627.855 708.897 629.65 709.75L654.464 721.506L649.251 723.159C647.871 723.411 646.48 723.607 645.084 723.746C635.428 724.785 624.425 723.333 616.61 717.134C611.336 712.951 614.862 707.998 618.898 704.76Z"/><path fill="white" d="M574.694 699.273C587.038 708.49 599.748 708.466 614.201 704.994C612.394 707.911 611.74 709.188 611.748 712.625C611.868 714.011 612.065 714.421 611.425 715.63C602.356 720.932 581.628 717.133 575.059 707.91C574.646 705.041 574.709 702.17 574.694 699.273Z"/><path fill="white" d="M594.824 679.651C600.743 678.76 607.548 679.772 613.326 681.104C605.18 685.393 597.007 689.632 588.809 693.819C585.329 695.66 582.281 697.178 579.074 699.459C566.551 687.212 584.88 681.237 594.824 679.651Z"/><path fill="white" d="M680.153 677.214C685.953 677.295 688.275 677.614 693.9 678.995C684.413 684.056 674.9 689.07 665.362 694.035C663.757 694.839 662.028 696.026 660.5 697.01C659.966 696.621 659.444 696.217 658.935 695.797C655.662 693.125 654.294 688.732 657.499 685.401C663.409 679.258 672.026 677.719 680.153 677.214Z"/><path fill="white" d="M633.841 699.65C669.266 696.775 667.64 719.607 659.279 717.562C648.13 712.017 636.603 706.97 625.564 701.212C628.151 700.588 631.19 700.123 633.841 699.65Z"/><path fill="#7B7B80" d="M615.92 682.623L616.181 682.847C615.39 684.48 587.189 698.311 582.978 700.466C582.697 700.192 582.848 700.396 582.781 699.731C592.108 694.193 605.918 687.809 615.92 682.623Z"/><path fill="#7B7B80" d="M695.982 680.955L696.692 681.13C696.286 681.827 667.554 696.654 664.227 698.504L663.716 698.369C665.022 696.264 691.932 682.924 695.982 680.955Z"/><path fill="#7B7B80" d="M623.315 703.513C626.305 704.13 655.389 717.953 657.463 719.97C653.613 718.585 625.616 705.807 623.315 703.513Z"/><path d="M531.62 691.703C543.418 691.75 558.808 693.779 560.357 708.93C562.474 729.627 552.362 734.457 532.876 735.153C522.05 735.133 505.265 732.492 504.592 718.647C504.298 712.601 503.454 704.839 507.847 700.021C513.738 693.559 523.379 692.309 531.62 691.703Z"/><path fill="white" d="M557.368 713.94C560.114 731.152 542.274 732.51 529.429 732.595C522.139 732.644 513.436 729.62 508.411 724.168C506.968 721.226 507.175 717.482 507.118 714.203C521.139 725.505 543.152 724.365 557.368 713.94Z"/><path fill="white" d="M551.96 699.479C553.409 699.778 555.778 701.442 556.669 702.571C559.695 706.4 555.74 711.775 552.893 713.78C544.705 719.548 533.992 720.209 524.447 718.886C522.072 718.566 519.771 717.869 517.45 717.248C524.811 712.581 543.143 704.167 551.96 699.479Z"/><path fill="white" d="M526.869 694.64C534.485 693.923 538.797 694.144 546.095 696.19C538.251 700.349 530.005 704.414 522.081 708.456C518.071 710.496 515.354 711.882 511.635 714.35C498.209 703.083 517.372 696.205 526.869 694.64Z"/><path fill="#7B7B80" d="M548.019 697.944L548.503 698.048L548.503 698.567C539.375 703.808 526.041 709.995 516.238 714.923L515.728 714.741C518.146 712.504 543.342 700.28 548.019 697.944Z"/></svg>