<?xml version="1.0" encoding="utf-8" ?><svg xmlns="http://www.w3.org/2000/svg" xmlns:xlink="http://www.w3.org/1999/xlink" width="498" height="432" viewBox="260 292 498 432"><path fill="#010000" d="M307.449 392.953C312.114 393.562 319.128 393.766 324.015 394.132C332.974 394.807 341.915 395.695 350.832 396.797C398.859 402.531 469.573 417.008 509.746 445.951C557.227 411.181 654.026 394.366 711.493 393.173C711.438 400.261 711.503 407.349 711.688 414.435C716.522 416.736 723.091 419.298 728.166 420.947C731.005 421.869 737.908 418.65 738.223 426.574C738.589 435.785 738.398 445.128 738.379 454.368L738.347 505.606L738.362 675.625C738.501 681.091 737.865 686.06 731.272 686.289C724.074 686.539 716.896 686.391 709.695 686.401L666.847 686.45L538.212 686.338C524.855 704.883 496.767 704.053 482.903 686.522L342.704 686.445L305.951 686.523C299.837 686.535 292.634 686.806 286.583 686.123C283.881 685.818 282.505 683.439 281.036 681.348C280.664 676.856 280.883 669.518 280.884 664.793L280.899 634.283L280.874 539.688L280.908 464.15C280.893 454.145 280.184 432.449 281.415 423.795C283.446 420.748 290.894 420.514 294.279 419.498C298.673 418.181 303.073 416.796 307.465 415.468L307.449 392.953Z"/><path fill="#FEFEFC" d="M707.441 395.221L709.027 395.398C710.313 397.814 709.531 419.078 709.518 423.517L709.494 475.833L709.488 643.296C658.65 643.863 605.992 649.755 557.149 663.92C541.704 668.399 526.499 673.223 512.148 680.525L511.058 680.777C510.117 679.365 510.601 661.519 510.584 658.334L510.507 597.588L510.578 447.929C514.563 444.241 527.899 436.936 533.277 434.325C586.106 408.673 649.307 398.259 707.441 395.221Z"/><path fill="#010000" d="M602.233 471.864C627.5 468.197 650.993 485.606 654.837 510.847C658.682 536.089 641.438 559.703 616.224 563.725C590.759 567.787 566.858 550.333 562.974 524.84C559.091 499.346 576.713 475.568 602.233 471.864Z"/><path fill="#FEFEFC" d="M606.664 473.327C631.216 472.098 652.124 490.986 653.386 515.536C654.649 540.086 635.789 561.02 611.24 562.315C586.645 563.613 565.663 544.709 564.398 520.113C563.133 495.516 582.066 474.559 606.664 473.327Z"/><path fill="#010000" d="M617.313 500.079C639.586 498.287 640.656 517.187 634.605 532.994C631.927 539.992 631.931 544.23 624.577 548.211C621.666 549.056 616.483 549.171 614.36 547.95C604.566 542.481 613.753 530.568 613.673 525.182C613.555 517.184 599.808 504.79 617.313 500.079Z"/><path fill="#DC858B" d="M618.237 501.628C630.912 500.947 638.013 509.094 635.644 521.401C634.097 529.44 631.549 541.252 624.636 546.285C622.249 546.904 617.041 547.441 614.967 546.113C607.814 541.533 616.082 529.426 615.613 524.856C614.739 516.345 603.171 505.443 618.237 501.628Z"/><path fill="#010000" d="M590.826 508.666C602.727 508.765 599.704 518.539 597.424 526.2C600.023 530.415 603.433 532.757 604.594 537.989C606.038 544.498 600.307 547.298 594.637 547.471C580.588 541.237 566.056 512.936 590.826 508.666Z"/><path fill="#DC858B" d="M589.39 510.532C604.394 509.918 594.002 521.166 596.368 527.538C598.418 533.059 610.847 542.44 595.698 545.444C587.917 542.984 582.058 533.395 579.865 525.893C579.238 523.748 579.464 520.995 579.587 518.761C582.423 513.571 584.193 512.644 589.39 510.532Z"/><path fill="#010000" d="M618.841 488.03C620.644 488.183 621.486 488.083 622.991 489.091C623.769 490.71 624.27 492.202 625.779 492.984C633.743 487.179 631.55 493.531 634.784 495.878C637.915 495.274 638.339 494.679 640.775 496.74C641.655 498.785 640.616 499.204 640.684 500.331C640.859 503.193 646.285 500.518 646.466 504.899C645.681 506.701 645.529 506.791 644.155 508.255C642.028 509.037 642.405 508.706 639.812 508.25C638.784 506.495 639.017 505.431 638.916 503.354C637.071 503.526 636.887 503.593 634.985 503.339C633.494 502.203 633.544 501.581 633.022 499.618L632.855 498.967C631.384 498.368 629.706 498.903 628.004 499.216C626.178 498.052 625.991 496.479 625.329 494.275C623.803 494.724 620.207 502.485 615.831 495.562C613.697 492.187 615.727 489.52 618.841 488.03Z"/><path fill="#DC858B" d="M618.076 490.281C619.084 489.573 620.406 489.501 621.485 490.094C622.565 490.688 623.212 491.843 623.155 493.073C623.098 494.303 622.346 495.394 621.216 495.884C619.697 496.545 617.924 495.947 617.114 494.502C616.304 493.056 616.719 491.232 618.076 490.281Z"/><path fill="#DC858B" d="M628.855 492.671C629.707 492.306 630.69 492.429 631.426 492.994C632.161 493.558 632.535 494.476 632.402 495.394C632.27 496.312 631.652 497.086 630.787 497.42C629.483 497.922 628.017 497.288 627.49 495.994C626.964 494.699 627.571 493.222 628.855 492.671Z"/><path fill="#DC858B" d="M635.89 496.786C637.803 496.945 638.265 496.872 639.16 498.463C639.036 500.109 638.194 500.848 637.157 502.173C635.122 501.274 635.821 501.962 634.761 500.299C634.653 498.583 635.016 498.257 635.89 496.786Z"/><path fill="#010000" d="M593.503 497.906C603.082 497.413 601.023 509.191 594.108 507.567C592.88 506.288 592.69 506.032 591.197 504.986C585.932 511.514 586.863 506.115 583.493 507.232C582.946 508.458 582.385 509.677 581.809 510.889C580.494 511.742 581.195 511.63 579.731 511.508C578.632 510.102 579.198 510.424 577.701 509.837C577.206 510.931 576.349 516.239 575.918 518.001C573.012 520.769 569.762 520.029 569.471 516.115C570.413 514.368 570.867 514.244 572.608 513.077L573.155 512.716C572.405 510.795 571.8 511.343 572.006 509.315C574.209 507.454 575.297 509.315 577.145 507.448C577.326 505.888 577.311 505.381 577.949 503.905L578.982 503.608C585.077 505.462 581.588 501.235 586.8 499.143C589.153 499.521 588.716 500.704 590.809 501.357C591.617 499.788 592.317 499.178 593.503 497.906Z"/><path fill="#DC858B" d="M594.058 499.839C595.498 499.272 597.127 499.956 597.73 501.381C598.332 502.806 597.69 504.452 596.281 505.091C595.337 505.519 594.235 505.401 593.403 504.784C592.57 504.166 592.139 503.146 592.275 502.118C592.411 501.091 593.094 500.218 594.058 499.839Z"/><path fill="#C36B76" d="M586.054 501.366C587.326 500.912 588.732 501.514 589.281 502.747C589.83 503.981 589.336 505.429 588.147 506.069C587.294 506.528 586.256 506.471 585.459 505.922C584.661 505.372 584.239 504.422 584.364 503.462C584.49 502.502 585.142 501.692 586.054 501.366Z"/><path fill="#010000" d="M606.665 488.345C609.871 487.408 613.236 489.22 614.217 492.413C615.199 495.606 613.433 498.996 610.254 500.021C608.158 500.697 605.86 500.193 604.24 498.701C602.621 497.208 601.929 494.96 602.431 492.816C602.933 490.671 604.551 488.963 606.665 488.345Z"/><path fill="#DC858B" d="M607.979 490.355C610.14 490.095 612.119 491.593 612.456 493.743C612.794 495.893 611.369 497.924 609.233 498.339C607.78 498.622 606.29 498.088 605.346 496.948C604.403 495.808 604.157 494.244 604.706 492.87C605.255 491.496 606.51 490.531 607.979 490.355Z"/><path fill="#FEFEFC" d="M309.501 395.421C362.605 395.855 466.037 415.511 508.517 447.666L508.486 602.987C508.489 628.555 508.105 655.309 508.779 680.764C506.859 680.515 493.494 674.374 490.125 673.109C479.497 669.053 468.673 665.53 457.694 662.551C408.949 649.069 359.848 643.846 309.475 643.097L309.448 508.145C309.443 470.697 309.101 432.818 309.501 395.421Z"/><path fill="#010000" d="M362.194 439.31C368.759 441.272 386.406 443.42 394.091 444.775L490.797 460.923C489.902 468.332 487.983 477.711 486.647 485.25C484.677 496.491 482.79 507.747 480.986 519.016C478.003 537.574 474.828 556.101 471.463 574.594C469.682 584.681 467.943 595.782 465.737 605.664C443.193 602.685 417.688 597.317 394.972 593.566C376.711 590.55 355.604 587.551 337.778 583.835C344.387 549.353 349.467 514.292 355.71 479.72C358.086 466.563 360.561 452.54 362.194 439.31Z"/><path fill="#FEFEFC" d="M363.803 441.766C388.655 445.793 413.485 449.954 438.291 454.249C454.785 456.95 472.339 459.301 488.66 462.795C488.282 466.965 486.748 474.055 485.988 478.4L481.327 506.107C476.044 538.69 470.365 571.208 464.292 603.653C460.385 602.628 454.583 601.901 450.467 601.217L426.509 597.104L339.986 582.482C341.459 575.732 342.71 566.446 343.887 559.472L350.584 520.184L363.803 441.766Z"/><path fill="#010000" d="M371.201 451.352C381.457 452.677 393.571 455.024 403.845 456.755C428.796 461.106 453.779 465.273 478.791 469.255C472.833 502.747 467.682 536.37 461.279 569.805C459.036 570.108 439.959 566.293 436.059 565.626L354.244 551.686C355.292 540.413 358.702 523.129 360.779 511.728C364.41 491.79 367.454 471.16 371.201 451.352Z"/><path fill="#9DCDEA" d="M372.83 453.407C381.344 455.49 393.603 456.763 402.487 458.428C426.928 463.006 452.376 466.289 476.656 471.128C474.926 479.411 473.793 488.472 472.316 496.897C468.168 520.558 464.521 544.308 459.665 567.843C454.854 566.869 450.022 566.004 445.173 565.247C443.36 554.253 442.074 549.652 435.681 540.575C441.3 535.988 443.84 532.93 447.71 526.909C448.53 526.835 449.349 526.742 450.164 526.63C457.702 525.539 457.529 518.574 451.155 514.375L450.827 508.144C449.974 499.346 445.835 491.193 439.236 485.311C424.726 472.335 399.444 473.655 388.369 490.92C386.405 493.981 385.049 497.784 383.087 500.835C382.001 502.525 377.332 503.756 376.098 505.722C373.045 509.563 378.873 513.346 382.165 515.019C383.252 522.602 384.722 526.599 388.934 532.908C380.683 538.27 375.43 543.2 371.967 552.573C366.894 551.6 361.221 550.862 356.075 550.085L366.694 488.324C368.712 476.705 370.405 464.934 372.83 453.407Z"/><path fill="#FEFEFC" d="M412.646 478.657C430.175 476.407 446.184 489.432 448.808 506.597C449.291 509.753 449.464 512.712 449.615 515.898C451.875 517.11 453.737 518.575 454.415 521.191C452.937 524.836 447.151 524.098 446.418 525.351C439.991 536.332 433.894 541.912 419.619 543.887C400.013 544.605 385.753 532.694 383.7 513.029C380.744 512.097 378.725 511.401 377.897 508.149C378.433 504.191 381.636 504.015 384.853 503.627C388.86 488.827 397.5 480.93 412.646 478.657Z"/><path fill="#010000" d="M418.211 484.882L418.639 485.34C418.933 488.961 414.744 490.872 411.756 491.644C416.298 496.31 422.656 492.882 426.904 489.656L427.56 489.154L428.209 489.47L428.064 491.084C421.239 497.95 413.962 496.662 407.674 490.098C413.746 489.732 414.495 489.67 418.211 484.882Z"/><path fill="#010000" d="M402.894 520.773C405.121 522.099 406.796 526.564 410.643 528.162C414.733 529.861 420.189 527.763 424.128 526.078L424.634 525.857L425.291 526.652C417.797 532.745 402.797 531.12 402.894 520.773Z"/><path fill="#010000" d="M431.858 511.468C434.156 511.277 435.615 511.139 437.512 512.511C438.543 514.364 438.271 513.382 438.23 515.6L437.617 516.071L437.234 515.132C435.053 512.505 433.674 513.55 430.503 514.001L430.379 513.216L431.858 511.468Z"/><path fill="#010000" d="M395.65 504.996C398.719 504.793 400.011 504.52 402.337 506.527C403.058 507.981 403.091 507.868 402.863 509.459L402.081 509.611L401.788 508.606C400.962 507.529 400.933 507.559 399.821 506.752C397.966 506.451 396.155 507.17 394.307 507.695C394.195 506.233 394.408 506.532 395.65 504.996Z"/><path fill="#F5CE7F" d="M390.188 534.533C394.362 536.849 397.482 540.945 404.206 543.503C415.6 547.839 422.823 545.915 433.501 541.705C440.27 548.175 441.84 555.98 443.089 564.801C440.001 564.377 436.952 563.822 433.883 563.285C414.757 560.603 392.913 556.388 373.793 553.048C377.153 544.126 381.959 539.07 390.188 534.533Z"/><path fill="#DC858B" d="M285.859 422.452C287.261 422.428 287.828 422.46 289.224 422.613C290.47 424.199 290.028 434.27 290.026 437.089L289.984 475.757L289.992 602.936C289.99 624.193 289.214 652.139 290.258 673.01L411.36 673.346C432.236 673.479 455.299 673.227 475.992 675.066C481.305 675.538 503.704 681.536 509.188 683.807C519.594 681.406 534.341 675.979 544.25 674.914C559.575 673.267 578.259 673.433 593.949 673.182C625.169 672.933 656.391 672.855 687.612 672.947C701.166 672.938 715.846 673.176 729.315 672.735C728.634 652.053 729.166 628.942 729.145 608.072L729.25 482.653L729.395 439.504C729.406 434.766 727.533 424.894 731.997 422.49C738.468 423.112 736.47 434.465 736.388 439.489L736.294 599.08L736.358 653.468C736.344 661.657 736.45 670.118 736.183 678.298C736.098 680.9 735.531 682.034 733.81 683.841C729.659 685.312 683.851 684.518 676.706 684.517L536.979 684.556C533.91 688.751 531.916 690.945 527.427 693.724C514.64 701.642 492.1 698.016 484.266 684.521L354.527 684.537C333.699 684.524 312.864 684.62 292.039 684.454C286.751 684.412 283.152 684.404 283.026 678.033C282.804 666.749 282.827 655.459 282.772 644.171L282.71 571.279L282.607 468.167C282.654 455.104 282.637 441.993 282.706 428.93C282.724 425.577 283.499 424.653 285.859 422.452Z"/><path fill="#FEFEFC" d="M711.689 416.675C716.635 418.391 722.946 420.396 727.364 423.113C726.926 458.166 727.303 493.498 727.202 528.585C726.955 576.099 727.027 623.614 727.417 671.126C669.976 670.73 612.532 670.952 555.096 671.792C569.101 668.43 583.317 666.019 597.648 664.575C601.255 664.179 620.374 662.809 622.087 662.262L622.256 660.956L622.467 662.079L621.99 660.909C617.254 660.426 607.046 661.64 601.879 662.116C579.421 663.18 544.542 672.017 522.962 677.898C564.748 659.146 627.162 649.635 672.742 646.757C684.032 646.044 700.412 644.791 711.492 645.478L711.49 494.887C711.488 469.917 710.866 441.389 711.689 416.675Z"/><path fill="#FEFEFC" d="M306.392 417.575L307.032 417.667C307.924 419.452 307.275 627.346 307.509 645.136C358.953 644.322 448.478 655.739 495.786 677.339C471.36 671.004 441.322 663.876 415.991 661.842C410.508 661.283 402.92 660.25 397.629 660.917L397.324 661.459L397.804 660.873L397.424 661.537C400.066 663.007 413.551 663.596 417.488 663.984C432.982 665.387 448.34 668.017 463.418 671.848C457.651 672.142 450.13 671.668 444.164 671.578L407.032 671.146L292.088 671.073C291.71 660.004 291.977 647.247 291.958 636.072L291.952 564.834C291.94 518.111 291.187 468.957 292.085 422.462C296.927 420.409 301.352 419.013 306.392 417.575Z"/><path fill="#010000" d="M510.751 329.339C532.327 327.302 551.476 343.125 553.544 364.698C555.612 386.271 539.817 405.443 518.247 407.543C496.632 409.647 477.412 393.812 475.34 372.194C473.268 350.576 489.13 331.379 510.751 329.339Z"/><path fill="#DC858B" d="M509.989 331.416C530.379 328.958 548.921 343.444 551.469 363.823C554.017 384.202 539.612 402.807 519.244 405.444C498.75 408.098 480.004 393.584 477.44 373.079C474.876 352.573 489.472 333.89 509.989 331.416Z"/><path fill="#010000" d="M510.272 337.874C521.264 336.388 532.206 340.931 538.914 349.765C545.622 358.599 547.059 370.359 542.675 380.548C538.292 390.738 528.766 397.781 517.739 398.986C500.989 400.816 485.88 388.841 483.836 372.116C481.793 355.391 493.574 340.131 510.272 337.874Z"/><path fill="#FEFEFC" d="M509.749 339.874C525.444 337.307 540.256 347.923 542.868 363.61C545.479 379.297 534.905 394.139 519.225 396.795C503.483 399.461 488.568 388.836 485.946 373.086C483.324 357.336 493.992 342.451 509.749 339.874Z"/><path fill="#010000" d="M513.675 347.695L514.331 347.984C515.572 349.734 515.334 364.716 515.407 368.154C518.603 370.246 527.186 375.099 527.966 378.609C525.151 378.452 516.909 371.831 513.542 369.652C513.165 364.197 512.733 352.802 513.675 347.695Z"/><path fill="#010000" d="M550.483 316.019C554.586 316.005 555.538 316.944 558.77 319.295C564.442 314.411 571.818 315.225 572.132 323.829C572.328 329.18 568.205 333.431 564.744 337.075C562.458 339.356 561.309 340.374 558.766 342.361C551.676 336.815 534.966 322.901 550.483 316.019Z"/><path fill="#DC858B" d="M550.051 318.002C554.837 317.702 555.864 319.332 558.796 322.672C567.459 312.381 575.626 321.981 565.309 333.621C563.376 335.664 560.825 337.985 558.754 339.953C552.092 335.113 540.658 325.7 550.051 318.002Z"/><path fill="#010000" d="M440.722 345.818C443.431 348.559 443.362 354.532 447.554 356.99C450.703 358.838 453.318 359.729 456.71 360.967C456.336 361.075 455.962 361.185 455.589 361.296C443.74 364.857 445.769 365.991 440.713 375.357C436.767 364.112 435.181 364.279 424.422 360.671C435.327 357.661 436.99 356.657 440.722 345.818Z"/><path fill="#F5CE7F" d="M440.817 350.898C444.814 355.454 442.719 357.584 451.58 360.843C445.434 363.523 444.262 364.103 440.96 369.859L440.474 369.617C437.385 364.189 435.687 362.836 430.113 360.332C436.455 358.805 437.851 356.211 440.817 350.898Z"/></svg>