<?xml version="1.0" encoding="utf-8" ?><svg xmlns="http://www.w3.org/2000/svg" xmlns:xlink="http://www.w3.org/1999/xlink" width="1024" height="1024" viewBox="0 0 1024 1024"><path d="M393.629 396.947C399.184 396.547 408.569 396.889 414.391 396.909L451.958 396.939L583.362 396.937C589.482 396.934 628.045 396.276 630.953 397.334C632.475 400.887 632.022 412.864 632.027 417.232C642.608 417.327 653.19 417.339 663.771 417.267C692.731 417.22 697.552 418.666 696.649 448.337C694.582 516.238 654.358 556.696 589.566 569.755C574.792 587.469 556.786 598.82 534.774 605.172C535.241 622.433 536.156 639.679 537.517 656.892C556.764 656.72 568.515 656.99 573.753 679.126C578.259 679.032 587.822 678.459 591.751 679.725C593.186 681.942 592.663 736.906 592.672 743.758C595.63 743.78 599.012 743.782 601.931 743.475C610.573 742.566 610.956 744.516 610.789 751.985C610.886 758.301 611.141 766.866 610.589 772.981C605.719 773.641 593.922 773.358 588.612 773.361L547.507 773.376C505.757 773.388 463.944 773.412 422.192 773.362C420.362 773.36 416.892 773.381 415.386 772.49C413.819 768.3 414.446 749.259 414.654 744.042C420.355 743.648 426.798 743.843 432.566 743.883C432.479 722.766 432.096 700.159 432.588 679.145C437.882 678.771 445.815 679.02 451.298 679.057C456.915 656.963 468.832 656.925 488.052 656.837C489.315 640.251 489.702 621.665 490.166 604.998C468.759 599.833 449.83 586.439 435.641 569.877C367.856 556.563 328.055 512.527 328.142 442.088C328.176 414.223 340.874 417.308 363.445 417.336C373.302 417.351 383.159 417.315 393.016 417.229C392.984 412.237 392.706 401.334 393.629 396.947Z"/><path fill="#FAB93B" d="M397.514 401.178L627.507 401.187C629.36 456.77 624.994 520.5 587.967 565.165C568.083 588.408 541.911 604.283 510.448 603.675C484.65 603.176 460.289 590.153 442.763 571.648C399.77 526.252 396.098 460.273 397.514 401.178Z"/><path d="M544.353 465.203C563.925 464.591 587.274 479.669 583.292 501.262C580.629 515.703 562.084 550.591 550.753 559.36C547.549 561.621 543.838 563.06 539.948 563.552C533.894 564.277 528.816 562.367 524.089 558.55C515.552 551.658 517.204 540.976 521.067 532.046C523.085 527.38 526.786 520.782 527.47 515.682C529.941 497.259 514.079 467.792 544.353 465.203Z"/><path fill="#EA7F83" d="M541.437 469.573C552.003 468.669 562.912 471.773 570.973 478.586C589.763 494.467 573.389 518.05 564.233 534.049C560.143 541.197 557.126 547.15 551.829 553.302C543.068 561.535 527.554 562.764 522.564 549.611C518.929 540.032 528.958 527.297 531.32 517.747C535.085 502.521 519.044 474.961 541.437 469.573Z"/><path d="M480.394 465.195C510.866 466.432 496.205 496.718 497.809 514.15C498.867 525.648 513.761 541.359 505.302 554.136C498 565.167 486.292 565.812 475.633 559.726C474.897 559.218 474.199 558.707 473.504 558.143C463.933 550.375 442.934 512.291 441.824 499.734C441.173 492.362 443.235 485.16 448.053 479.473C455.885 470.228 468.703 466.147 480.394 465.195Z"/><path fill="#EA7F83" d="M477.774 469.656C506.82 467.13 491.996 498.567 493.761 514.509C495.235 527.811 516.082 549.811 492.651 559.051C487.988 560.889 482.183 558.81 477.896 556.461C466.592 547.79 464.007 537.167 456.826 526.288C439.026 499.321 441.212 475.169 477.774 469.656Z"/><path d="M531.494 438.742C535.785 437.541 540.39 438.745 543.543 441.894C546.696 445.043 547.906 449.647 546.71 453.94C545.514 458.232 542.096 461.547 537.769 462.611C531.225 464.221 524.599 460.283 522.885 453.765C521.171 447.247 525.003 440.559 531.494 438.742Z"/><path fill="#EA7F83" d="M533.715 442.277C538.217 441.715 542.348 444.84 543.032 449.325C543.717 453.81 540.705 458.024 536.24 458.83C533.242 459.371 530.187 458.241 528.262 455.88C526.337 453.519 525.845 450.299 526.979 447.471C528.112 444.644 530.692 442.655 533.715 442.277Z"/><path d="M489.176 438.325C495.824 437.533 501.866 442.253 502.706 448.895C503.547 455.536 498.872 461.613 492.237 462.502C485.532 463.401 479.378 458.667 478.528 451.955C477.679 445.244 482.459 439.125 489.176 438.325Z"/><path fill="#EA7F83" d="M489.108 442.338C493.602 441.559 497.881 444.557 498.684 449.047C499.486 453.536 496.511 457.831 492.026 458.658C487.507 459.49 483.173 456.488 482.364 451.965C481.555 447.441 484.58 443.123 489.108 442.338Z"/><path d="M558.142 442.761C563.919 442.536 568.804 446.995 569.108 452.768C569.411 458.542 565.019 463.488 559.25 463.87C555.448 464.122 551.804 462.308 549.714 459.121C547.624 455.935 547.41 451.87 549.155 448.482C550.9 445.095 554.334 442.909 558.142 442.761Z"/><path fill="#EA7F83" d="M557.297 446.806C560.899 446.176 564.337 448.563 565.004 452.158C565.672 455.753 563.321 459.216 559.733 459.921C557.378 460.384 554.957 459.546 553.391 457.728C551.826 455.909 551.358 453.39 552.166 451.13C552.974 448.871 554.933 447.219 557.297 446.806Z"/><path d="M466.106 442.891C471.82 442.353 476.898 446.524 477.481 452.233C478.065 457.942 473.935 463.054 468.23 463.683C462.461 464.319 457.278 460.132 456.688 454.358C456.098 448.583 460.327 443.434 466.106 442.891Z"/><path fill="#EA7F83" d="M465.459 446.944C467.757 446.33 470.207 446.998 471.875 448.694C473.542 450.39 474.169 452.851 473.515 455.138C472.862 457.425 471.029 459.184 468.717 459.742C465.203 460.592 461.659 458.457 460.767 454.953C459.875 451.449 461.966 447.879 465.459 446.944Z"/><path d="M447.673 452.783C452.999 452.65 457.432 456.846 457.592 462.172C457.752 467.498 453.579 471.952 448.254 472.139C442.891 472.327 438.398 468.117 438.237 462.753C438.076 457.389 442.308 452.917 447.673 452.783Z"/><path fill="#EA7F83" d="M447.253 456.818C450.202 456.478 452.908 458.49 453.432 461.412C453.956 464.334 452.119 467.161 449.235 467.868C447.201 468.366 445.059 467.694 443.675 466.123C442.291 464.551 441.895 462.341 442.646 460.387C443.398 458.432 445.173 457.057 447.253 456.818Z"/><path d="M574.793 453.244C579.912 451.686 585.321 454.593 586.845 459.722C588.369 464.851 585.426 470.241 580.287 471.731C575.196 473.207 569.868 470.298 568.358 465.216C566.847 460.135 569.722 454.788 574.793 453.244Z"/><path fill="#EA7F83" d="M576.655 456.822C579.708 456.353 582.584 458.39 583.154 461.426C583.724 464.462 581.783 467.403 578.768 468.073C576.726 468.527 574.6 467.832 573.221 466.26C571.841 464.688 571.429 462.489 572.144 460.524C572.859 458.559 574.588 457.14 576.655 456.822Z"/><path d="M587.839 468.818C590.92 467.969 594.22 468.849 596.469 471.119C598.718 473.389 599.568 476.697 598.69 479.77C597.812 482.843 595.345 485.203 592.235 485.943C587.544 487.06 582.823 484.212 581.624 479.54C580.425 474.869 583.19 470.099 587.839 468.818Z"/><path fill="#EA7F83" d="M588.648 472.857C590.309 472.257 592.164 472.604 593.496 473.763C594.829 474.922 595.428 476.712 595.063 478.44C594.698 480.168 593.426 481.562 591.739 482.084C589.213 482.865 586.526 481.486 585.687 478.98C584.847 476.473 586.162 473.755 588.648 472.857Z"/><path d="M433.137 468.799C437.793 467.579 442.562 470.342 443.82 474.989C445.077 479.635 442.353 484.427 437.717 485.722C433.027 487.031 428.169 484.269 426.897 479.569C425.625 474.869 428.427 470.034 433.137 468.799Z"/><path fill="#EA7F83" d="M434.143 472.683C436.609 472.033 439.154 473.42 439.944 475.844C440.734 478.269 439.495 480.889 437.119 481.817C435.456 482.466 433.571 482.141 432.222 480.974C430.872 479.806 430.279 477.987 430.682 476.249C431.085 474.51 432.417 473.137 434.143 472.683Z"/><path fill="#BA7638" d="M436.788 683.466C452.155 683.008 469.081 683.4 484.62 683.387L588.488 683.333L588.573 724.679C588.583 728.115 588.839 740.94 588.305 743.751L436.589 743.852C437.095 735.695 436.81 725.725 436.753 717.437C436.69 706.113 436.701 694.789 436.788 683.466Z"/><path d="M465.404 695.142C491.458 694.57 517.803 695.484 543.894 694.988C547.533 694.918 556.414 694.633 559.711 695.681C560.958 699.429 561.199 729.514 559.591 731.993C546.833 731.942 470.099 733.168 465.502 731.023C463.622 727.177 464.744 716.493 464.549 711.802C464.415 708.579 463.837 697.471 465.404 695.142Z"/><path fill="#FAB93B" d="M468.613 699.401L556.44 699.294C556.507 708.766 556.519 718.239 556.476 727.712C527.443 727.459 497.64 727.651 468.604 727.83L468.613 699.401Z"/><path fill="#BA7638" d="M419.822 748.24C442.031 747.82 465.067 748.168 487.346 748.159L606.497 748.001C606.537 751.511 607.085 767.171 605.919 769.159L604.625 769.291C543.337 769.112 479.857 770.193 418.722 769.025C418.7 764.566 418.364 752.673 418.862 748.759L419.822 748.24Z"/><path fill="#FAB93B" d="M344.254 421.656C348.9 421.313 356.267 421.489 361.154 421.48L393.006 421.492C392.973 426.855 393.067 432.218 393.287 437.577C381.8 437.755 361.993 437.031 350.038 438.061C349.595 438.033 348.926 439.581 348.901 439.9C347.541 457.588 351.963 479.749 359.718 495.109C371.692 518.545 392.407 536.329 417.386 544.616C419.185 545.579 428.79 561.583 431.21 564.802C386.56 553.928 350.028 529.253 337.565 482.492C333.68 467.918 332.087 453.406 332.361 438.336C332.524 429.355 335.182 423.834 344.254 421.656Z"/><path fill="#FAB93B" d="M632.267 421.507C641.408 421.473 678.943 419.894 685.42 423.034C688.493 424.524 690.774 427.602 691.807 430.79C693.282 435.342 692.719 440.819 692.591 445.537C692.026 466.458 688.347 486.578 678.447 505.225C663.508 533.364 637.136 551.917 607.122 561.168C602.979 562.43 598.467 563.447 594.239 564.481C599.19 557.94 602.624 552.129 606.727 545.104C647.824 530.067 673.588 497.8 676.177 453.589C676.403 449.723 677.212 441.836 675.516 438.421C672.881 436.865 637.132 437.478 632.06 437.476C632.043 432.233 632.191 426.768 632.267 421.507Z"/><path fill="white" d="M631.633 441.67C643.917 441.312 660.053 441.531 672.34 441.781C672.293 447.765 671.954 453.743 671.322 459.693C668.207 486.575 656.799 507.828 635.597 524.606C628.854 530.065 618.053 536.332 609.944 539.34C612.518 532.991 615.158 527.777 617.53 521.132C626.238 496.731 630.813 467.517 631.633 441.67Z"/><path fill="white" d="M352.585 441.873C365.554 441.486 380.367 441.839 393.483 441.84C394.129 474.845 400.966 509.451 415.274 539.274C371.325 521.768 353.636 487.474 352.585 441.873Z"/><path fill="#FAB93B" d="M494.539 605.991C507.857 608.761 517.26 608.412 530.447 606.026C531.816 622.474 532.022 639.888 533.399 657.014L492.339 657.042C492.906 639.963 494.168 623.411 494.539 605.991Z"/><path fill="#FAB93B" d="M475.353 661.185C499.733 660.255 525.674 661.488 550.206 661.188C561.204 661.054 566.837 669.307 569.572 679.147L550.25 679.163L455.447 679.118C458.935 668.098 463.483 662.704 475.353 661.185Z"/><path d="M511.296 262.263C515.017 262.407 516.552 266.426 518.147 269.44C521.65 276.057 524.709 282.844 528.526 289.304C536.602 290.678 544.686 291.855 552.779 293.11C555.482 293.528 557.686 293.905 558.377 296.741C557.296 300.648 542.053 315.341 538.283 319.231C539.14 328.207 541.105 337.523 542.103 346.493C542.314 348.386 541.894 349.178 540.811 350.424C537.174 351.474 518.435 341.16 513.911 338.92C508.013 337.173 491.953 350.985 485.973 350.757C485.212 350.728 484.574 350.509 484.101 349.913C481.853 347.084 486.166 324.323 486.743 319.49C481.483 313.114 471.416 304.661 466.605 297.708C465.943 296.751 466.45 295.84 466.848 294.977C470.005 292.585 490.859 290.154 496.44 289.297C501.472 280.73 505.863 270.498 511.296 262.263Z"/><path fill="#9FCCEE" d="M512.598 268.798C515.361 272.603 522.426 287.322 525.721 292.928C534.292 295.008 544.059 296.139 552.905 297.771C546.656 304.483 539.341 310.824 533.798 318.182C534.652 326.758 536.43 337.087 537.698 345.728C529.294 341.871 521.051 337.327 512.532 333.683C504.769 336.791 494.767 341.973 487.242 345.766C488.924 337.294 490.183 326.81 491.187 318.194C487.761 313.434 476.518 302.296 471.999 297.603C479.89 295.88 490.686 294.632 498.997 293.146C502.807 287.551 508.976 275.329 512.598 268.798Z"/></svg>