<?xml version="1.0" encoding="utf-8" ?><svg xmlns="http://www.w3.org/2000/svg" xmlns:xlink="http://www.w3.org/1999/xlink" width="1024" height="1024" viewBox="0 0 1024 1024"><path d="M498.331 234.715C533.806 232.735 571.647 244.937 599.414 267.034C632.402 293.286 651.934 329.952 656.666 371.659C667.678 374.866 680.61 379.807 683.225 392.102C687.64 412.858 670.908 419.88 655.631 423.326C685.121 516.24 706.205 646.022 634.191 725.889C603.658 759.751 559.415 778.762 514.125 780.773C493.489 781.579 472.879 778.645 453.288 772.113C410.855 758.191 375.731 727.911 355.711 687.991C318.363 613.014 332.54 506.194 358.159 429.577L356.805 423.971C344.564 421.309 331.493 417.995 327.225 404.277C325.397 398.588 326.005 392.395 328.906 387.171C334.171 377.892 343.893 374.464 353.437 371.689C363.004 294.828 421.154 239.98 498.331 234.715Z"/><path fill="#F5D9C5" d="M494.582 239.201C527.028 237.055 560.606 245.295 587.574 263.662C617.623 283.92 639.249 314.446 648.396 349.513C650.687 357.954 651.879 366.376 653.543 374.953C664.001 378.573 677.554 381.959 679.395 395.021C680.137 400.209 678.678 405.472 675.37 409.537C669.757 416.316 658.974 418.872 650.568 419.628C645.932 437.015 641.386 450.916 631.867 466.409C605.802 508.834 564.624 533.308 515.444 537.293C490.133 539.392 461.596 533.515 438.988 521.975C407.507 506.222 382.697 479.729 369.042 447.283C365.008 437.679 363.167 429.839 360.042 420.105C352.188 418.632 342.456 416.931 336.507 411.12C331.022 405.761 328.863 396.675 332.536 389.719C337.4 380.508 347.962 377.817 357.142 375.077C360.997 344.125 371.383 315.989 391.681 291.885C417.584 261.305 454.629 242.339 494.582 239.201Z"/><path fill="#E87E7E" d="M416.187 418.47C429.042 415.838 441.6 424.12 444.24 436.974C446.881 449.828 438.606 462.391 425.754 465.039C412.89 467.69 400.315 459.407 397.671 446.541C395.028 433.676 403.32 421.106 416.187 418.47Z"/><path fill="#E87E7E" d="M585.28 418.411C593.726 417.156 602.194 420.536 607.455 427.262C612.716 433.987 613.956 443.021 610.704 450.916C607.452 458.81 600.208 464.349 591.737 465.417C578.838 467.045 567.032 457.988 565.263 445.107C563.494 432.227 572.42 420.323 585.28 418.411Z"/><path d="M573.954 381.763C580.919 379.893 588.081 384.022 589.952 390.986C591.823 397.95 587.696 405.113 580.732 406.985C573.767 408.859 566.602 404.73 564.73 397.764C562.858 390.798 566.988 383.634 573.954 381.763Z"/><path d="M428.895 381.827C433.423 380.528 438.299 381.77 441.654 385.077C445.009 388.384 446.321 393.241 445.088 397.788C443.854 402.334 440.266 405.862 435.701 407.019C428.791 408.771 421.755 404.655 419.896 397.774C418.037 390.892 422.044 383.793 428.895 381.827Z"/><path d="M514.843 272.684C515.702 272.945 517.438 273.253 517.522 274.404C519.075 295.845 497.419 311.426 477.267 304.761C474.088 303.709 463.516 299.81 464.784 295.841C469.944 293.793 474.114 299.626 481.59 291.613L482.049 291.113C484.723 287.433 486.52 277.987 489.617 276.672L490.636 277.096C490.961 277.839 491.077 278.041 490.933 278.873C489.072 289.622 486.168 293.999 477.797 300.134C484.47 301.932 490.76 302.617 497.444 300.106C505.051 297.249 510.714 290.322 512.552 282.483C513.313 279.236 513.274 275.626 514.843 272.684Z"/><path d="M472.874 459.627C476.061 460.15 478.988 463.988 482.383 466.161C486.83 468.945 491.744 470.904 496.887 471.942C512.64 475.121 522.645 470.407 534.676 461.142C535.846 460.241 536.695 460.522 537.945 460.882C538.683 462.391 538.595 461.598 537.998 463.356C535.97 465.349 533.797 467.189 531.496 468.859C514.476 481.04 487.897 480.284 472.882 463.397C471.88 462.271 472.523 460.917 472.874 459.627Z"/><path d="M541.406 272.268C542.852 272.198 542.761 272.188 544.133 272.651C547.369 276.571 542.454 289.136 539.845 293.105C535.09 300.343 529.079 304.14 520.801 305.917C518.946 305.893 518.373 305.361 517.79 303.752C519.532 300.35 524.561 301.524 529.21 298.34C540.356 290.705 538.964 282.772 541.277 272.809L541.406 272.268Z"/><path d="M503.169 412.577C503.441 412.574 503.714 412.573 503.986 412.574C509.635 412.619 516.18 418.337 512.267 421.239C510.886 420.834 508.628 417.842 506.375 416.539C500.389 416.285 500.7 421.018 496.645 420.869C494.898 416.612 500.142 413.973 503.169 412.577Z"/><path fill="#A0CEE8" d="M463.923 596.45C472.161 603.776 484.061 611.823 493.241 618.013C546.381 653.846 595.426 671.368 657.197 684.93C653.203 692.101 649.394 699.188 644.668 705.906C617.979 743.856 581.362 765.89 536.342 774.146C495.278 781.409 452.982 773.065 417.752 750.752C378.978 726.408 353.907 686.71 343.768 642.508C351.794 640.111 360.223 638.076 368.354 635.749C401.84 626.163 432.944 612.201 463.923 596.45Z"/><path fill="#A0CEE8" d="M652.576 428.361C653.357 430.18 654.072 432.027 654.721 433.898C658.778 445.299 664.478 468.231 666.961 479.88C680.369 542.783 687.347 620.912 658.877 680.814C612.699 671.453 577.709 660.223 535.418 638.457C510.728 624.9 489.923 612.033 467.636 594.533C471.47 591.894 476.416 589.328 480.523 586.975C508.126 571.15 534.26 553.099 558.77 532.809C561.218 531.214 564.438 529.847 567.066 528.72C590.361 518.732 609.639 503.183 625.238 483.33C638.774 466.101 646.581 449.154 652.576 428.361Z"/><path fill="#A0CEE8" d="M350.329 472.311C352.423 474.11 358.8 483.627 360.728 486.438C388.998 527.657 422.56 560.862 460.035 593.707C448.326 600.472 433.162 606.933 420.641 612.498C395.554 623.504 369.496 632.149 342.805 638.322C331.296 583.723 338.137 526.145 350.329 472.311Z"/><path fill="#A0CEE8" d="M360.262 436.893C360.464 437.096 367.26 453.32 368.265 455.455C380.778 481.887 400.719 504.101 425.652 519.384C455.183 537.398 489.925 544.93 524.265 540.764C532.75 539.768 539.917 537.997 548.222 536.059C537.246 545.278 526.012 553.032 514.266 561.189C496.78 572.682 482.408 581.52 464.044 591.58C422.934 557.757 380.235 511.412 351.648 466.154C353.423 458.026 357.267 444.535 360.262 436.893Z"/><path d="M673.332 201.211C673.766 201.247 676.108 201.503 676.205 201.916C680.067 218.341 685.043 230.814 702.603 235.935C705.225 236.7 713.886 236.909 713.724 240.235C713.465 240.568 713.057 241.17 712.644 241.259C689.066 246.386 680.876 253.796 676.594 278.151C676.041 278.132 674.162 278.05 673.902 277.566C671.5 273.206 671.371 267.05 669.278 262.55C664.533 252.534 655.118 244.866 644.066 243.073C641.793 242.704 636.49 241.777 636.307 239.12C638.683 236.485 646.417 236.471 650.229 234.969C666.082 228.722 670.677 217.204 673.332 201.211Z"/><path fill="#F6B53D" d="M674.862 213.891C675.749 214.806 677.704 219.718 678.492 221.168C684.34 231.925 690.271 235.609 701.03 239.908C687.215 245.525 679.782 251.977 674.931 266.649C669.487 251.534 662.542 245.544 648.011 239.645C663 235.295 668.973 227.826 674.862 213.891Z"/><path d="M331.75 200.804L334.008 201.542C334.789 202.841 335.592 207.174 336.027 209.002C338.787 221.893 346.607 231.759 359.507 235.46C361.929 236.155 370.157 237.531 370.587 240.083C367.785 243.016 358.286 243.13 352.15 247.179C338.661 256.081 337.533 264.193 333.944 278.094C330.163 276.983 330.596 275.109 329.705 271.167C326.991 258.989 320.642 249.592 308.638 245.093C304.076 243.384 294.753 243.495 294.677 238.717C296.923 237.842 303.707 236.131 306.292 235.42C317.709 232.281 326.132 223.303 328.767 211.763C329.333 209.284 330.659 202.9 331.75 200.804Z"/><path fill="#F6B53D" d="M332.76 213.38C332.984 213.803 333.512 215.275 333.751 215.813C339.859 229.562 345.486 234.346 358.757 239.825C343.08 246.51 339.304 251.291 332.519 266.242C325.826 250.03 321.3 246.186 305.665 239.505C320.87 236.076 327.479 227.334 332.76 213.38Z"/><path d="M737.275 301.185C738.228 301.324 738.702 301.454 739.636 301.687C740.884 303.265 742.74 310.697 743.565 313.334C746.531 323.527 755.139 329.548 765.129 331.757C768.587 332.522 771.84 331.443 772.555 334.934C771.575 337.38 764.334 337.414 761.51 338.487C746.279 344.279 743.342 353.569 740.227 368.369L738.722 368.373C736.164 366.752 735.971 360.533 734.8 357.242C731.526 348.038 724.779 341.093 715.243 338.446C711.847 337.503 709.081 337.67 706.165 335.973C705.189 334.452 705.367 335.259 705.613 333.469C706.71 332.354 715.166 331.028 717.767 330.146C720.254 329.315 722.601 328.114 724.73 326.584C733.519 320.307 735.668 311.136 737.275 301.185Z"/><path fill="#F6B53D" d="M738.888 313.214C739.162 313.539 742.61 319.843 743.056 320.653C747.458 328.637 752.282 331.214 760.39 334.744C748.083 339.66 743.666 345.368 738.515 357.189C738.255 356.39 737.979 355.597 737.687 354.81C733.569 343.621 727.161 339.379 716.909 334.61C729.698 329.766 733.287 325.43 738.888 313.214Z"/></svg>