<?xml version="1.0" encoding="utf-8" ?><svg xmlns="http://www.w3.org/2000/svg" xmlns:xlink="http://www.w3.org/1999/xlink" width="1024" height="1024" viewBox="0 0 1024 1024"><path d="M509.185 363.688C535.984 362.246 562.481 369.917 584.366 385.451C614.778 407.064 628.247 435.308 634.335 471.114C637.726 471.879 640.799 472.725 643.905 474.183C659.681 481.583 660.338 500.9 645.308 509.556C642.77 511.018 640.571 511.621 637.826 512.49C646.8 543.284 652.768 570.006 654.456 602.381C657.287 656.7 649.589 722.336 611.795 764.428C586.921 792.131 555.931 801.186 520.096 802.986C502.504 803.292 484.999 801.692 468.125 796.453C437.897 787.066 414.287 766.36 399.694 738.496C364.497 671.287 371.944 583.213 393.936 513.082C385.09 510.577 376.873 506.719 374.121 496.997C372.826 492.353 373.427 487.386 375.792 483.186C380.067 475.666 387.718 472.955 395.522 470.972C400.105 443.414 406.645 424.339 425.717 402.916C447.564 378.376 476.764 365.833 509.185 363.688Z"/><path fill="#E87A83" d="M506.514 367.198C532.763 365.147 558.928 372.103 580.693 386.918C601.202 401.102 616.64 421.472 624.75 445.052C627.948 454.59 629.755 464.189 631.607 474.042C640.732 475.943 650.418 478.639 652.437 489.323C653.221 493.574 652.203 497.961 649.627 501.432C644.578 508.3 636.53 509.073 628.798 510.237C622.398 535.587 608.277 558.321 588.39 575.293C586.761 558.279 585.344 541.245 584.14 524.196C583.244 512.834 581.895 500.27 581.448 489.005C583.91 489.866 585.462 490.827 587.843 490.148L588.191 489.352C584.269 482.335 566.651 483.941 560.194 484.756C570.625 475.9 576.754 480.771 580.653 478.556L580.512 477.725C574.901 472.39 558.847 478.037 554.921 483.754C555.045 483.573 550.054 491.592 550.193 491.149L550.558 491.828C552.713 492.496 561.009 489.145 564.441 488.277C564.599 495.589 563.95 504.789 563.683 512.228L562.088 558.295C561.704 568.817 561.021 581.625 561.296 592.071C547.437 597.38 539.144 599.712 524.386 601.305C504.655 603.129 487.163 599.4 468.97 592.107C467.987 582.719 467.99 565.703 467.645 555.75C466.89 533.234 466.003 510.723 464.983 488.218C469.839 488.905 476.71 492.449 479.548 491.501L479.439 490.665C476.751 487.5 477.647 488.376 476.032 485.272C473.252 480.45 468.325 477.963 463.24 476.462C460.175 475.557 449.661 474.419 448.948 478.163C451.173 479.467 457.065 478.664 460.748 479.83C465.944 481.475 466.784 482.24 471.147 485.334C465.08 483.978 444.561 481.883 442.042 489.169L442.623 489.961C444.438 490.38 446.431 489.491 448.284 488.916C446.74 515.347 444.14 548.579 441.373 574.881C417.446 556.264 409.934 537.533 401.163 510.281C389.116 509.396 371.559 502.562 378.094 486.028C381.098 478.43 391.009 475.859 398.334 473.576C403.038 447.225 407.301 430.622 425.149 408.822C446.121 383.208 473.873 370.372 506.514 367.198Z"/><path d="M473.65 548.108C480.306 524.799 500.271 506.693 525.779 514.094C546.584 520.13 561.728 546.636 556.329 567.83C551.915 582.564 538.737 574.173 530.183 570.194C520.508 565.693 508.642 565.342 499.228 570.16C490.101 574.832 478.512 582.137 472.997 567.574C471.672 563.194 472.422 552.759 473.65 548.108Z"/><path fill="#AB1F13" d="M477.385 548.072C482.139 535.391 487.963 524.812 500.893 519.034C530.762 505.686 558.164 537.957 553.23 566.528C546.807 552.097 533.667 539.396 516.738 546.961C515.89 547.342 515.048 547.738 514.214 548.149C497.881 539.311 483.678 551.038 476.384 565.26L476.196 565.635L475.637 559.768C475.499 555.762 476.432 551.925 477.385 548.072Z"/><path fill="#180000" d="M473.65 548.108L474.524 548.712C475.339 548.525 476.603 548.191 477.385 548.072C476.432 551.925 475.499 555.762 475.637 559.768C471.48 562.554 473.119 562.795 472.997 567.574C471.672 563.194 472.422 552.759 473.65 548.108Z"/><path fill="#E87A83" d="M525.012 548.068C544.499 547.709 557.657 577.159 544.586 572.794C527.983 567.249 523.889 560.058 504.048 564.828L503.385 564.992C498.725 566.143 494.662 568.567 490.504 570.77C478.208 577.285 476.818 568.139 484.112 559.719C488.333 554.847 492.232 551.113 498.806 549.28C505.516 547.408 509.359 549.332 514.966 552.587C518.833 549.911 520.443 549.037 525.012 548.068Z"/><path d="M412.416 479.118C417.606 478.764 435.637 480.163 437.061 485.216C434.062 487.923 423.918 494.011 419.615 497.089C415.241 500.6 409.948 503.403 404.478 500.385C402.105 499.067 400.388 496.822 399.738 494.187C397.55 485.642 405.333 480.885 412.416 479.118Z"/><path fill="#9ACFEA" d="M414.962 482.121C420.83 481.887 425.618 483.349 431.068 485.227C425.235 489.105 421.436 491.745 415.955 496.029C401.872 504.412 395.613 485.276 414.962 482.121Z"/><path d="M610.782 479.204C617.811 478.88 625.38 479.526 629.139 486.54C630.588 489.182 630.855 492.311 629.876 495.16C627.4 502.183 620.733 502.092 614.821 499.831C611.735 498.198 593.875 486.952 592.502 484.681C594.139 481.306 607.13 479.546 610.782 479.204Z"/><path fill="#9ACFEA" d="M607.42 482.647C626.714 480.394 635.615 495.937 619.871 498.208C614.778 496.659 603.474 488.442 598.422 485.058C602.142 483.764 603.568 483.302 607.42 482.647Z"/><path d="M437.081 498.347C438.2 498.591 437.812 498.435 438.744 499.097C439.607 502.925 436.119 519.792 434.01 523.769C431.188 529.093 429.875 530.316 424.571 532.228C421.874 531.824 420.308 531.696 417.751 530.626C403.165 517.272 427.131 504.111 437.081 498.347Z"/><path fill="#9ACFEA" d="M434.419 504.02C435.974 507.368 432.509 533.339 419.019 527.447C410.33 517.451 427.118 508.19 434.419 504.02Z"/><path d="M591.229 498.146C594.59 499.114 602.264 504.226 605.116 506.374C612.225 511.73 620.763 519.869 613.624 528.815C603.702 536.805 595.427 527.216 593.799 517.387C592.911 512.032 590.261 503.258 591.229 498.146Z"/><path fill="#9ACFEA" d="M594.819 503.778C600.478 506.227 610.556 513.468 612.73 519.441C613.721 522.167 613.117 523.725 611.849 526.161C598.193 535.338 595.799 511.954 594.819 503.778Z"/><defs><linearGradient id="gradient_0" gradientUnits="userSpaceOnUse" x1="487.41934" y1="416.96823" x2="523.89856" y2="396.06839"><stop offset="0" stop-color="black"/><stop offset="1" stop-color="#1F0203"/></linearGradient></defs><path fill="url(#gradient_0)" d="M522.343 393.159L523.963 393.973C526.787 398.416 521.998 407.183 518.939 410.715C514.696 415.668 508.611 418.668 502.098 419.017C497.229 419.27 483.664 416.04 483.576 410.209L484.493 409.892C486.693 410.041 487.974 410.975 489.928 412.032C492.861 410.441 493.74 409.933 496.399 407.817C499.63 403.181 498.987 400.437 501.483 395.975C501.783 395.439 502.59 395.739 503.464 395.824C504.414 402.658 498.624 410.198 493.598 414.217L494.011 414.351C504.012 417.51 515.833 413.845 519.827 403.453C521.12 400.091 521.149 396.612 522.343 393.159Z"/><path d="M478.899 448.694C480.112 449.308 479.696 449.016 480.602 450.068C480.915 451.995 480.805 452.688 479.626 454.287C473.008 463.26 462.98 467.854 452.456 469.915C451.315 469.281 451.593 469.345 450.685 468.259C450.947 465.418 458.637 465.313 462.078 463.707C470.395 459.826 473.598 455.865 478.899 448.694Z"/><path d="M549.271 448.807C549.713 448.843 551.242 449.023 551.53 449.358C555.065 453.458 559.095 458.823 563.804 461.628C567.216 463.66 574.582 465.022 578.044 467.106C578.595 467.438 578.416 468.781 578.436 469.641C568.567 469.659 549.353 459.731 549.271 448.807Z"/><path d="M544.466 392.652C546.403 393.204 545.653 392.692 546.905 394.067C548.475 399.296 544.942 406.237 542.126 410.613C538.865 415.68 534.009 417.364 528.692 419.441C527.802 419.504 528.166 419.462 527.164 418.945C526.424 417.455 526.444 418.187 526.712 416.742C541.495 410.126 541.443 408.069 544.466 392.652Z"/><path d="M513.21 490.036C517.952 489.826 526.577 494.176 523.603 498.383C521.922 497.945 519.754 494.777 517.008 493.395C510.663 493.29 512.034 495.93 505.829 498.007L505.257 497.334C506.416 493.548 509.63 491.227 513.21 490.036Z"/><path fill="#9ACFEA" d="M636.754 523.328C638.205 524.685 639.167 529.264 639.719 531.33C662.824 617.921 661.141 768.125 552.622 795.351C517.948 804.051 474.017 800.185 442.837 781.278C428.15 771.169 418.974 762.817 408.995 747.917C462.907 726.513 509.526 699.355 552.122 659.43C593.21 620.919 624.475 579.191 636.754 523.328Z"/><path fill="#9ACFEA" d="M397.962 513.228C399.269 514.463 400.829 519.774 401.372 521.74C404.442 532.858 409.476 542.398 415.816 551.981C424.768 565.345 436.309 576.778 449.756 585.605C454.347 588.6 461.497 592.007 465.478 595.305C482.667 609.546 499.425 621.056 518.668 632.523C503.937 645.386 480.016 661.294 463.205 671.357C440.208 684.892 415.354 697.791 390.057 706.475C374.458 655.868 376.17 598.822 388.003 547.737C389.939 539.381 394.359 520.743 397.962 513.228Z"/><path fill="#9ACFEA" d="M631.189 513.235C636.69 514.066 634.179 518.265 633.287 522.462C610.953 627.508 501.648 709.344 407.233 744.883C405.08 741.643 403.944 739.629 402.15 736.166C397.451 727.289 394.395 719.526 391.257 710.1C400.318 705.557 414.14 700.779 424.593 695.825C454.915 681.407 483.668 663.899 510.396 643.579C522.648 634.121 534.299 623.91 545.282 613.005C547.979 610.334 560.413 596.616 562.502 595.607C598.174 578.374 620.32 551.995 631.189 513.235Z"/><path fill="#9ACFEA" d="M451.652 487.718C454.797 487.413 458.233 487.39 461.42 487.302C462.374 498.92 462.621 513.16 463.105 524.882C464.024 546.823 464.814 568.769 465.475 590.72L461.375 588.537C455.359 585.333 450.169 582.228 444.854 577.966C445.364 567.533 446.572 555.846 447.398 545.267L451.652 487.718Z"/><path fill="#9ACFEA" d="M568.407 487.205C571.327 487.245 574.518 487.446 577.458 487.578C577.955 491.119 578.329 495.112 578.585 498.68C580.488 525.121 583.287 551.725 584.962 578.156C581.773 580.636 579.276 582.267 575.854 584.448C572.326 586.59 568.153 588.691 564.475 590.648C564.779 559.621 567.218 528.072 567.526 496.981C567.552 494.296 567.608 489.628 568.407 487.205Z"/><path fill="#9ACFEA" d="M553.934 598.63L554.214 598.994C545.716 608.698 531.488 622.207 521.545 630.282C511.497 624.912 500.159 617.232 490.739 610.735C485.323 606.88 479.92 602.609 474.636 598.54C504.841 607.391 523.727 607.374 553.934 598.63Z"/><path d="M422.662 181.193C434.104 180.273 445.497 183.484 454.775 190.242C468.282 200.228 472.765 211.439 475.084 227.431C484.539 227.373 493.226 230.272 500.048 236.958C506.545 243.303 510.214 251.996 510.228 261.078C510.282 270.02 506.815 279.04 500.518 285.452C489.358 296.816 474.539 294.808 459.996 294.731L428.845 294.64C425.074 302.276 420.708 310.247 417.395 318.037C421.527 317.999 433.205 317.587 436.699 318.632L437.084 319.725C436.537 322.153 403.958 368.995 400.365 374.228C399.197 375.746 399.917 375.317 398.328 375.835L397.613 375.325C397.237 371.987 407.459 341.714 409.189 335.798C403.336 335.738 395.929 337.13 390.299 335.786C389.6 335.619 389.49 335.759 389.244 335.189C387.799 331.854 398.112 300.519 399.71 294.537C387.139 294.41 374.5 294.908 361.915 294.717C351.782 294.564 343.831 295.863 334.318 291.448C317.456 283.62 314.681 258.504 328.326 246.566C332.622 242.786 336.08 241.159 341.582 239.751C339.08 214.022 358.771 201.262 382.376 209.225C391.163 192.42 403.721 183.248 422.662 181.193Z"/><path fill="#575756" d="M419.523 184.662C450.662 181.319 468.67 201.106 472.43 230.452C480.399 230.515 485.062 231.068 492.222 235.016C509.338 244.451 511.574 269.584 498.027 283.239C494.43 286.844 489.912 289.391 484.965 290.6C477.426 292.426 461.807 291.951 453.466 291.907L407.25 291.481C392.455 291.273 377.21 292.161 362.364 291.906C357.355 291.82 349.591 292.009 344.742 291.354C341.714 290.97 338.771 290.079 336.039 288.718C319.064 280.187 318.086 256.395 333.983 246.499C338.178 243.887 340.08 243.379 344.804 241.998C343.469 229.808 345.592 218.558 357.801 212.31C366.843 207.683 374.928 210.049 383.804 213.283C391.199 197.001 402.154 188.339 419.523 184.662Z"/><path fill="#F4B533" d="M415.287 294.546L425.272 294.568C424.743 295.762 423.493 298.794 422.879 299.757C420.304 305.064 416.538 311.794 414.191 317.269C413.699 318.418 414.327 319.134 414.887 319.961C418.445 321.732 428.394 321.036 432.797 320.977C429.723 326.642 422.999 335.747 419.23 341.193C414.694 347.746 408.776 357.495 403.837 363.448C406.175 353.744 410.917 342.35 412.609 333.478C407.041 332.76 397.969 332.987 392.014 332.981C394.256 323.987 400.125 302.799 403.213 294.647L415.287 294.546Z"/><path d="M363.494 301.377C368.215 306.074 375.884 324.311 377.474 331.289C379.864 341.775 373.731 347.889 363.725 349.508C340.777 347.9 351.847 322.228 358.393 310.735C360.21 307.546 361.408 304.53 363.494 301.377Z"/><path fill="#0F71EC" d="M363.537 307.422C370.459 317.382 384.226 343.014 363.708 346.318C342.341 344.007 358.602 317.521 363.537 307.422Z"/><path d="M463.311 302.182C466.049 303.263 492.41 344.629 465.17 349.217C445.916 348.97 447.99 331.874 454.433 319.571C457.508 313.7 459.31 307.796 463.311 302.182Z"/><path fill="#0F71EC" d="M463.629 307.825C467.562 312.636 473.073 325.63 474.265 331.809C475.734 339.428 471.771 345.224 463.748 346.192C442.147 343.237 458.971 318.841 463.629 307.825Z"/></svg>