<?xml version="1.0" encoding="utf-8" ?><svg xmlns="http://www.w3.org/2000/svg" xmlns:xlink="http://www.w3.org/1999/xlink" width="1024" height="1024" viewBox="0 0 1024 1024"><path fill="#000203" d="M505.313 270.205C505.444 270.187 505.575 270.17 505.706 270.152C573.412 264.728 626.118 312.893 633.858 377.138C649.606 379.097 662.077 392.101 651.023 407.79C646.63 414.026 638.949 415.775 631.696 416.649C629.134 426.007 627.294 432.026 623.612 441.044C637.504 471.459 642.146 501.624 646.049 534.5C656.409 621.757 625.278 694.055 528.288 703.438C503.869 704.043 485.2 703.426 461.611 694.31C433.043 683.447 410.046 661.549 397.798 633.547C374.058 579.754 387.894 496.252 408.406 442.875C404.292 432.698 402.362 427.813 399.587 417.105C394.239 416.31 389.977 415.53 385.169 412.687C376.389 407.497 372.466 395.556 378.495 386.788C383.179 379.975 389.428 378.484 397.047 376.849C403.918 318.563 446.775 275.821 505.313 270.205Z"/><path fill="#F6DBCA" d="M399.269 379.661C400.583 371.124 401.638 363.757 404.099 355.421C411.402 331.279 426.26 310.117 446.487 295.049C471.605 276.814 502.88 269.176 533.575 273.777C563.082 278.455 591.041 294.861 608.612 319.173C622.7 338.665 628.188 356.104 631.589 379.58C638.307 380.483 644.908 382.014 649.297 387.783C651.645 390.865 652.636 394.77 652.042 398.598C650.291 410.064 639.3 412.976 629.491 413.807C622.23 441.609 613.153 459.987 591.196 479.251C592.425 469.764 593.186 463.429 590.668 453.872C586.903 441.44 574.536 426.312 576.256 414.092C576.705 409.526 577.557 405.176 578.375 400.67C580.276 402.268 585.085 407.55 587.31 404.488C586.851 395.421 572.663 390.715 564.976 390.832C560.133 390.906 548.705 393.68 549.077 399.884L550.102 400.604C551.954 400.759 553.575 399.696 555.297 398.848C552.467 417.662 554.834 429.93 561.846 447.707C564.541 454.459 566.733 460.698 567.448 467.952C568.437 477.986 564.184 487.197 563.369 496.805C535.531 510.739 492.872 510.7 465.721 495.401C464.107 487.146 461.401 477.965 461.635 469.602C461.946 458.545 467.968 448.12 471.318 437.778C475.954 423.467 475.314 412.796 474.259 398.316C476.538 399.695 479.502 402.207 481.751 399.906C481.847 393.741 469.437 390.93 464.742 390.877C457.547 390.797 442.69 395.748 442.982 404.467C445.513 407.337 449.374 402.95 451.442 401.114C452.299 405.582 453.046 409.024 453.211 413.615C454.23 428.088 442.957 439.354 438.846 453.877C436.594 462.433 436.198 468.68 437.717 477.555C417.509 457.557 408.557 442.512 401.74 414.288C395.171 413.557 385.779 411.824 382.121 406.129C371.586 389.732 385.844 381.551 399.269 379.661Z"/><path fill="#E38586" d="M590.668 453.872C586.903 441.44 574.536 426.312 576.256 414.092L576.832 414.848L580.621 415.09C597.259 416.063 604.691 428.164 599.417 443.76C597.615 449.087 592.604 450.557 590.668 453.872Z"/><path fill="#E38586" d="M453.211 413.615C454.23 428.088 442.957 439.354 438.846 453.877C438.504 453.305 436.512 451.293 435.904 450.727C428.38 443.719 426.554 430.648 433.358 422.475C438.565 416.221 444.969 415.529 452.625 414.754L453.211 413.615Z"/><path fill="#000203" d="M512.311 430.709C513.586 430.589 514.802 430.506 516.082 430.512C528.352 430.479 540.096 435.494 548.557 444.38C553.961 449.979 564.821 467.543 557.056 475.135C552.835 479.261 542.426 474.5 537.218 473.161C530.598 471.459 525.237 470.221 518.124 469.715C504.062 469.144 493.356 473.933 480.229 477.24C475.694 478.368 470.959 474.059 471.193 469.537C472.372 446.773 491.097 432.438 512.311 430.709Z"/><path fill="#E38586" d="M508.944 433.632C516.061 432.971 522.648 433.181 529.479 435.423C540.015 438.963 548.715 446.541 553.668 456.491C558.614 466.524 558.647 479.331 543.883 471.895C543.361 469.953 542.577 468.092 541.553 466.362C536.702 458.147 530.654 455.333 521.987 452.985C507.181 449.66 491.331 457.854 486.586 472.588C482.321 474.356 474.154 476.335 474.185 469.661C474.277 449.666 492.446 436.771 508.944 433.632Z"/><path fill="#E38586" d="M513.478 455.201C526.234 454.87 535.029 459.375 540.739 470.922C532.343 468.348 526.208 467.683 517.654 467.048C507.279 466.839 499.554 468.224 489.784 471.361C494.847 461.082 502.247 456.49 513.478 455.201Z"/><path fill="#000203" d="M524.093 299.35C524.992 299.825 525.037 299.952 525.827 300.618C526.628 303.332 524.772 308.273 523.789 310.798C519.817 321.001 510.073 326.454 499.317 325.136C495.436 324.66 485.332 321.314 483.838 317.752L484.345 317.116C490.73 317.176 493.787 317.556 498.014 312.239C499.799 309.385 501.147 303.757 502.598 302.225L503.383 302.412C503.981 303.385 504.417 303.906 504.021 305.271C501.759 313.051 499.719 315.977 493.127 320.011C504.367 324.289 513.974 322.898 520.095 311.418C522.204 307.463 522.878 303.606 524.093 299.35Z"/><path fill="#000203" d="M545.977 298.069C550.911 299.976 547.733 307.162 546.186 310.808C542.768 318.863 536.975 322.972 529.06 326.033C527.724 325.7 527.639 325.369 527.192 324.339C528.045 322.929 533.984 320.227 536.289 318.66C544.622 312.993 544.294 306.599 545.977 298.069Z"/><path fill="#000203" d="M562.423 358.805C565.001 360.056 569.389 368.278 574.129 370.416C577.661 372.01 584.476 372.455 586.195 374.694L585.597 376.478C579.403 375.65 574.294 374.15 569.245 370.409C566.212 368.161 559.217 362.755 562.423 358.805Z"/><path fill="#000203" d="M466.848 358.727C467.751 359.235 467.554 359.191 468.286 360.009C468.449 361.63 468.521 362.333 467.497 363.712C461.444 371.862 454.533 374.696 445.116 376.597C444.229 375.97 444.431 376.033 443.76 375.093C444.834 372.139 452.005 372.984 456.43 369.908C462.46 365.717 463.004 364.67 466.848 358.727Z"/><path fill="#000203" d="M514.695 409.056C518.825 409.516 522.994 411.557 522.894 416.338L522.183 416.809C520.613 416.284 518.875 413.568 516.718 412.196C512.046 412.561 512.856 414.368 508.535 416.892C507.267 416.239 507.699 416.731 507.245 415.331C508.394 412.225 511.591 409.943 514.695 409.056Z"/><path fill="#9ACDEA" d="M621.707 444.781C630.031 452.327 640.78 512.619 642.199 526.512C638.851 531.964 635.398 537.35 631.841 542.667C591.479 602.956 506.591 661.859 435.014 676.073C432.48 674.495 430.128 672.394 427.818 670.473C414.574 658.432 408.65 648.969 400.898 633.366C409.652 629.845 420.992 626.967 430.652 623.279C495.74 598.432 563.923 554.68 600.643 494.137C611.013 477.038 613.787 462.062 621.707 444.781Z"/><path fill="#7AD5D4" d="M409.985 446.283C412.982 451.465 416.494 457.904 420.233 462.489C427.03 470.823 433.078 480.079 440.065 488.171C467.288 519.702 503.271 541.09 541.589 556.419C524.629 570.836 503.177 584.676 483.768 595.568C453.386 612.322 432.088 620.308 399.694 630.503C377.177 578.588 391.271 497.6 409.985 446.283Z"/><path fill="#7AD5D4" d="M642.325 531.852C644.002 533.487 644.271 548.121 644.427 551.276C645.861 580.154 643.497 609.289 630.922 635.783C618.004 662.395 595.057 682.795 567.115 692.506C532.869 704.649 488.297 704.065 455.34 688.344C449.329 685.43 443.525 682.108 437.966 678.403C440.204 678.024 443.022 677.491 445.21 676.889C524.021 655.167 598.835 600.718 642.325 531.852Z"/><path fill="#9ACDEA" d="M611.477 461.956C611.414 466.225 607.467 474.069 605.635 478.108C599.138 492.429 590.162 506.001 580.33 518.256C569.783 531.402 557.122 543.249 544.605 554.477C512.803 541.422 488.332 529.06 461.844 505.948C452.775 497.73 446.788 491.677 438.769 482.466C445.119 486.503 450.444 490.774 457.223 494.646C477.745 506.237 501.237 511.5 524.743 509.771C551.605 507.563 576.947 496.4 596.709 478.073C602.351 472.829 606.506 467.808 611.477 461.956Z"/><path fill="#7AD5D4" d="M559.288 397.172C566.443 396.614 569.053 396.974 575.842 398.939C572.633 412.875 571.752 423.379 579.195 436.131C589.338 453.511 591.484 463.087 586.75 482.718C584.315 484.866 581.354 486.782 578.654 488.644C574.881 490.951 570.539 493.183 566.619 495.301C568.189 487.879 571.13 474.502 570.406 467.356C568.67 450.201 557.103 434.046 557.287 416.031C557.324 412.407 557.004 399.618 559.288 397.172Z"/><path fill="#7AD5D4" d="M461.637 397.09C465.164 396.811 467.111 396.897 470.661 397.075C474.119 414.17 471.927 428.261 465.512 444.281C461.938 453.208 459.15 460.179 458.747 469.918C458.377 478.848 460.948 485.584 462.434 494.211C460.338 493.19 457.327 491.384 455.246 490.209C450.344 487.1 444.804 483.72 441.037 479.349C437.051 456.438 443.059 450.297 452.747 430.525C457.473 420.879 457.303 409.749 453.515 399.657C456.857 398.297 458.121 397.895 461.637 397.09Z"/><path fill="#F7BFCC" d="M680.635 428.216L681.819 427.778C684.165 420.044 682.304 392.784 680.534 384.233C679.575 377.751 677.487 370.956 677.65 364.41C677.722 361.495 680.102 356.316 682.908 355.099C694.697 349.988 703.11 358.428 707.756 368.307C714.944 383.593 714.608 397.863 713.942 414.16C740.349 400.969 760.987 423.133 762.703 448.725C763.056 453.989 762.65 459.776 762.47 465.076C775.696 461.78 784.506 461.13 796.577 468.818C840.144 496.566 826.046 575.57 776.399 587.948C766.136 590.507 757.374 587.866 747.893 584.102C744.087 605.855 727.155 628.624 702.546 624.095C694.155 622.477 686.733 617.632 681.874 610.601C676.608 602.996 674.67 593.572 676.508 584.506C677.909 577.328 680.163 570.289 680.013 562.938C679.852 555.095 678.48 548.011 676.453 540.483C675.646 537.486 674.721 534.509 675.604 531.455C673.654 529.456 668.347 524.73 668.518 522.135C670.199 521.453 669.818 521.723 671.974 522.206C672.19 521.478 672.265 521.599 672.086 520.921C665.247 494.911 673.956 470.376 680.55 444.916C672.776 441.11 667.106 438.726 658.504 437.464C656.872 437.225 656.832 437.173 656.147 436.18C656.491 435.323 656.429 435.063 657.182 434.577C665.105 429.46 671.669 427.739 680.635 428.216Z"/><path fill="#000203" d="M675.604 531.455C673.654 529.456 668.347 524.73 668.518 522.135C670.199 521.453 669.818 521.723 671.974 522.206C674.828 524.703 702.555 538.503 707.584 541.018C709.316 537.293 713.327 526.462 715.833 524.514C717.159 524.745 718.216 525.065 719.292 525.925C734.31 537.921 750.653 548.828 765.709 560.66C763.524 564.428 759.579 571.731 756.607 574.507L726.205 551.213C723.917 555.109 718.438 567.315 715.766 569.123C712.005 567.883 680.176 536.446 675.604 531.455Z"/><path fill="#7AD5D4" d="M716.91 527.696C718.997 528.74 732.264 539.297 735.12 541.465C743.847 548.09 753.667 554.599 762.174 561.308C760.338 564.84 758.407 567.541 756.152 570.827C750.889 566.429 730.305 550.174 724.981 547.706L720.75 555.654L715.268 565.829C703.676 554.639 687.393 540.877 677.363 528.75C686.631 532.291 698.976 540.404 708.87 544.545C711.676 538.868 713.628 533.305 716.91 527.696Z"/><path fill="#000203" d="M680.55 444.916C672.776 441.11 667.106 438.726 658.504 437.464C656.872 437.225 656.832 437.173 656.147 436.18C656.491 435.323 656.429 435.063 657.182 434.577C665.105 429.46 671.669 427.739 680.635 428.216C701.325 432.614 696.36 451.393 680.55 444.916Z"/><path fill="#9ACDEA" d="M672.669 431.096C679.044 430.684 692.231 431.576 691.207 440.792C689.018 444.237 686.681 443.673 683.072 442.749C674.51 438.744 670.932 437.039 661.74 434.967C665.811 432.911 668.272 432.023 672.669 431.096Z"/><path fill="#F7BFCC" d="M284.677 390.388C284.991 366.807 289.998 331.895 321.394 329.279C329.385 328.613 337.547 331.875 343.331 337.54C347.632 341.702 350.487 347.133 351.478 353.036C353.789 366.923 346.529 378.8 348.83 394.273C350.354 404.515 358.015 419.444 357.761 427.478C358.566 428.194 361.179 427.763 362.901 428.195C368.838 429.115 377.356 431.078 381.502 435.805L381.66 436.897C379.638 439.015 372.015 439.027 368.391 440.466C365.076 441.784 363.152 442.546 359.929 444.363C360.669 454.793 356.923 468.15 354.606 478.264C347.6 507.326 347.743 535.946 355.7 564.773C357.384 570.873 358.04 581.958 349.212 582.522C328.193 583.865 323.871 552.595 321.364 538.049C308.08 540.197 297.686 534.303 291.131 522.762C288.027 517.296 284.505 506.831 284.261 500.639C272.009 506.408 261.606 505.763 249.809 499.297C200.03 472.014 222.534 374.156 284.677 390.388Z"/><path fill="#000203" d="M362.901 428.195C368.838 429.115 377.356 431.078 381.502 435.805L381.66 436.897C379.638 439.015 372.015 439.027 368.391 440.466C365.076 441.784 363.152 442.546 359.929 444.363C355.889 446.339 350.926 447.738 346.955 444.779C345.379 443.626 344.355 441.868 344.129 439.929C343.503 434.23 349.491 430.176 354.371 429.044C356.992 428.436 360.167 428.483 362.901 428.195Z"/><path fill="#9ACDEA" d="M358.381 431.132C365.093 430.703 370.002 432.436 375.998 435.102C369.478 436.579 367.141 437.62 361.004 440.528L360.399 440.822C344.219 448.598 341.764 433.912 358.381 431.132Z"/><path fill="#9ACDEA" d="M790.256 275.62C808.555 273.703 820.144 291.322 829.354 304.688C843.361 325.016 864.357 376.002 836.944 393.911C840.804 409.249 846.537 424.356 839.708 440.188C836.341 447.966 829.938 454.026 821.987 456.96C812.778 460.446 802.021 459.299 794.515 452.774C789.515 448.427 787.864 444.17 785.853 438.228C783.686 428.823 784.873 421.187 784.804 411.682C784.756 405.067 784.147 399.695 783.271 393.228C778.09 397.643 772.641 400.424 765.779 400.598C744.32 400.968 732.706 382.952 731.473 363.363C729.302 328.868 763.376 305.772 791.099 331.729C787.811 321.477 781.249 313.989 777.706 304.182C772.975 291.085 776.622 279.874 790.256 275.62Z"/><path fill="#9ACDEA" d="M235.871 519.727C243.02 519.487 248.644 519.989 254.689 524.418C267.35 533.696 267.261 548.585 268.668 562.653C269.272 568.693 270.44 575.123 271.467 581.107C280.639 571.813 293.55 570.398 305.512 576.118C336.487 590.93 334.74 650.626 295.986 652.538C287.711 652.946 281.287 649.292 274.01 645.516C279.714 655.512 286.104 661.355 291.216 671.484C292.513 674.358 293.382 677.608 293.511 680.764C293.755 686.016 291.772 691.128 288.051 694.843C274.161 708.97 253.185 691.798 243.424 680.694C226.448 661.382 209.243 635.157 209.043 608.658C208.976 599.734 212.512 593.507 218.785 587.566C209.681 568.136 200.374 536.642 224.996 522.786C228.322 520.914 232.056 519.937 235.871 519.727Z"/><path fill="#F7BFCC" d="M572.617 186.206C575.947 185.946 581.844 186.179 585.274 186.572C621.982 190.777 668.587 201.51 693.726 230.471C698.749 236.256 703.031 243.897 701.856 251.471C701.323 254.9 700.396 257.359 697.455 259.458C687.067 266.87 674.85 254.513 665.655 250.325C661.303 248.343 660.127 248.249 655.54 247.526C660.832 253.187 665.96 260.108 669.467 266.995C680.299 288.266 663.961 310.692 640.057 299.998C634.056 296.256 621.038 282.035 612.988 275.849C590.909 259.173 564.195 249.769 536.539 248.938C525.074 248.543 505.802 252.702 497.797 243.483C492.416 237.285 496.074 226.184 502.866 222.198C520.876 211.63 546.183 217.142 565.578 220.967C563.551 219.503 561.557 217.993 559.599 216.438C547.836 206.988 546.437 192.745 562.756 187.803C566.225 186.752 569.006 186.526 572.617 186.206Z"/><path fill="#F7BFCC" d="M388.351 676.075C402.963 674.806 409.178 683.581 419.425 692.177C439.501 709.021 462.592 719.115 488.467 723.22C496.755 724.479 505.148 724.903 513.52 724.487C524.571 723.92 541.269 718.737 550.119 725.612C552.125 727.173 554.694 730.787 554.584 733.488C553.785 753.066 523.009 752.327 510.939 752.376C513.042 754.821 513.6 755.379 514.962 758.444C514.626 761.254 514.05 764.799 511.797 766.801C507.514 770.606 495.885 771.767 490.15 771.508C459.926 770.145 419.254 768.369 395.484 747.354C392.291 744.247 390.394 740.111 390.551 735.756C390.974 724.089 405.726 726.796 414.316 727.777C404.816 721.202 391.369 711.354 384.057 702.647C377.212 694.495 374.889 679.64 388.351 676.075Z"/><path fill="#9ACDEA" d="M472.97 186.124C476.974 186.073 481.956 187.178 484.054 190.983C491.124 203.807 474.434 211.421 465.409 216.031C471.596 232.625 459.264 248.684 442.466 250.663C438.527 251.127 436.441 250.325 432.825 249.088C428.488 257.395 425.043 264.883 415.684 268.108C402.282 269.199 400.314 258.599 405.633 248.546C408.576 242.985 411.866 239.352 416.191 234.814C413.722 228.896 412.664 224.302 414.386 217.973C417.473 206.622 428.278 197.072 440.228 196.757C444.251 196.65 446.908 197.574 450.618 198.73C455.824 192.852 465.249 187.607 472.97 186.124Z"/><path fill="#9ACDEA" d="M689.774 650.579C697.226 651.298 699.777 654.637 701.764 661.315C699.965 670.956 694.398 678.467 688.136 685.758C688.714 690.965 689.482 696.584 687.678 701.602C681.595 718.522 667.655 725.603 650.7 719.982C641.887 725.34 638.299 728.373 628.119 729.919C620.026 730.243 613.502 724.148 616.846 715.904C619.896 708.388 630.296 704.644 637.399 701.928C635.688 697.607 635.387 692.855 636.541 688.353C640.288 673.837 655.683 665.772 670.151 669.678C670.93 668.115 671.769 666.582 672.664 665.083C676.928 657.91 681.37 652.69 689.774 650.579Z"/><path fill="#000203" d="M350.034 228.996C352.655 231.461 361.658 242.401 364.182 245.549C371.218 254.326 380.773 264.713 387.142 273.789C382.42 277.272 375.453 281.589 370.381 285.04C374.383 290.14 398.491 316.542 398.628 320.33L397.633 321.031C394.662 320.226 386.819 315.055 383.721 313.131C374.727 307.363 365.689 301.664 356.606 296.036C351.069 292.594 341.059 286.68 336.456 282.777C341.621 278.246 347.798 273.906 353.546 270.138C345.132 262.578 333.363 253.078 325.75 245.345C329.24 242.117 345.398 231.908 350.034 228.996Z"/><path fill="#F19767" d="M349.25 232.951C351.596 233.891 380.051 268.747 383.155 273.299C377.693 276.923 371.746 280.408 366.636 284.461C369.059 288.399 374.596 294.449 377.846 298.236C382.46 303.604 386.958 309.068 391.339 314.627C387.364 311.959 382.846 309.292 378.75 306.655C367.244 299.242 351.473 290.25 340.91 282.526C346.365 278.558 352.253 274.431 357.414 270.159C355.453 267.894 350.737 264.096 348.282 261.936C342.111 256.535 335.987 251.08 329.911 245.573C336.122 241.427 342.822 236.572 349.25 232.951Z"/><path fill="#000203" d="M707.664 256.286C710.47 257.403 727.558 270.332 729.844 272.555C722.308 280.069 710.862 287.795 702.434 295.311C706.507 299.118 713.672 304.249 717.089 308.19C716.399 310.564 675.96 335.001 671.106 338.014C668.249 339.834 660.025 345.47 657.177 345.789L656.567 344.987C656.546 342.625 681.266 314.867 685.235 310.268C680.089 305.774 674.383 302.769 669.572 298.489C674.021 292.159 682.25 283.854 687.627 278.148C694.367 270.917 701.046 263.63 707.664 256.286Z"/><path fill="#F19767" d="M707.997 259.779C713.004 262.839 721.079 269.177 725.904 272.885C718.032 279.744 707.011 288.186 698.648 294.697C702.175 299.055 709.291 304.734 713.732 308.488C701.088 316.024 688.582 323.789 676.221 331.779C672.697 334.117 668.473 336.395 664.761 338.508C672.53 329.144 681.363 318.388 689.655 309.53C684.337 306.146 678.432 301.796 673.217 298.121C676.814 293.277 682.438 287.664 686.663 283.116C693.874 275.429 700.986 267.649 707.997 259.779Z"/><path fill="#000203" d="M377.693 618.338C378.968 618.73 378.507 618.338 379.115 619.466C378.145 622.793 360.428 645.098 357.24 649.306C361.798 652.553 366.323 654.197 370.841 657.943C369.538 659.642 367.985 661.273 366.491 662.816C356.147 673.5 346.16 684.731 335.584 695.174L328.827 689.947C327.009 688.624 325.224 687.539 324.718 685.334C326.368 682.355 342.748 666.927 346.64 662.97C343.255 660.711 333.416 654.658 331.551 651.646C333.153 648.997 371.945 622.558 377.693 618.338Z"/><path fill="#F19767" d="M370.463 626.59L370.681 627.068C365.97 634.617 358.74 642.519 353.655 650.367C357.32 652.986 362.981 655.925 367.037 658.179C363.881 662.242 359.505 666.195 355.962 670.023C349.184 677.348 342.564 684.312 335.414 691.291L330.236 687.75C329.242 687.085 329.129 686.87 328.324 685.964C328.811 683.674 347.194 665.941 350.213 662.763C345.296 658.82 340.328 656.21 335.211 651.686C344.168 644.439 360.628 633.496 370.463 626.59Z"/><path fill="#8467B1" d="M250.636 317.888C255.004 319.732 268.062 334.417 271.701 338.824C272.822 340.182 273.057 341.741 272.642 343.483C271.045 344.656 271.917 344.306 269.908 344.521C266.307 342.979 254.587 329.989 250.923 326.262C247.333 330.006 234.002 344.506 230.66 346.601C226.428 343.727 213.98 330.781 209.629 326.392C186.052 350.435 193.088 352.641 168.854 326.361C162.847 332.261 157.387 338.777 151.26 344.501C149.646 346.008 147.608 344.334 146.86 342.614C146.923 340.726 147.49 339.02 148.713 337.663C151.891 334.137 165.626 318.938 169.352 318.649C171.674 318.469 186.838 335.608 189.13 338.073C194.448 332.794 204.195 321.269 209.793 317.952C214.505 320.774 225.629 333.369 230.629 338.217C234.66 333.796 246.374 320.267 250.636 317.888Z"/><path fill="#8467B1" d="M807.791 656.066C812.079 651.139 823.108 638.474 828.069 635.137C832.587 638.239 843.82 650.799 848.997 655.802C851.873 652.498 864.776 637.489 868.178 637.194C870.159 638.081 869.426 637.419 870.556 639.132C870.909 644.362 853.17 661.094 848.532 663.42C844.96 662.682 831.844 647.511 828.139 643.861C804.246 668.323 811.614 669.861 787.143 643.798C783.507 647.673 770.225 662.765 766.775 663.804C762.138 661.879 756.189 654.44 752.428 650.819C749.652 648.146 742.979 642.041 743.928 638.017C745.018 637.232 745.632 637.007 747.001 637.074C749.823 637.213 763.724 652.955 766.606 655.907C770.934 651.477 782.277 638.213 786.669 635.738C789.826 636.09 804.554 652.624 807.791 656.066Z"/><path fill="#8467B1" d="M264.6 227.338C267.502 234.369 268.542 242.671 272.148 250.337C278.249 253.773 292.158 256.055 293.476 258.119C292.831 258.925 275.682 263.447 271.956 265.441C269.794 269.959 266.496 282.538 265.033 287.715C262.856 285.937 260.618 271.517 256.347 265.032C248.882 262.32 241.188 260.74 233.808 257.889C240.268 256.187 251.08 253.731 256.742 250.734C259.822 245.532 262.658 233.711 264.6 227.338Z"/><path fill="#F19767" d="M759.748 697.395C761.336 698.987 763.562 710.528 766.546 715.432C771.204 717.761 779.478 719.446 784.91 721.102C778.929 723.161 772.732 724.272 766.506 726.567C764.382 730.075 761.896 739.625 760.6 743.934C758.773 743.229 756.181 731.481 753.908 727.361C750.056 725.232 740.133 723.037 735.006 721.152C741.679 718.829 747.328 718.763 753.931 715.037C756.426 710.781 758.427 702.344 759.748 697.395Z"/><path fill="#7AD5D4" d="M309.683 722.367C310.876 723.83 312.704 731.681 313.328 734.065C318.413 737.741 322.962 737.837 329.108 739.538C323.63 740.646 319.771 741.7 314.454 743.256C313.035 747.6 311.542 751.92 309.974 756.212C308.558 753.831 306.85 747.506 306.158 744.713C300.313 741.302 298.157 740.915 291.401 739.134C305.762 737.001 305.751 735.392 309.683 722.367Z"/><path fill="#7AD5D4" d="M760.014 214.261C762.894 219.225 761.618 226.749 768.59 228.263C771.44 228.882 774.683 229.983 777.443 230.954C772.124 232.272 769.511 232.744 764.35 234.773C763.042 238.223 761.742 242.642 760.582 246.213C760.308 246.1 760.034 245.988 759.759 245.876C758.822 242.554 756.934 237.32 755.68 234.477C752.034 233.652 747.087 231.92 743.424 230.754C747.979 228.811 752.003 228.473 756.276 225.882C757.683 222.832 759.028 217.634 760.014 214.261Z"/><path fill="#F19767" d="M199.388 390.882C201.353 390.056 203.61 390.358 205.289 391.669C206.969 392.981 207.807 395.098 207.482 397.204C207.156 399.31 205.717 401.075 203.72 401.819C200.72 402.935 197.378 401.448 196.199 398.472C195.02 395.495 196.437 392.123 199.388 390.882Z"/><path fill="#8467B1" d="M337.034 717.782C339.063 717.17 341.264 717.7 342.792 719.168C344.321 720.635 344.939 722.812 344.411 724.864C343.883 726.916 342.29 728.524 340.243 729.071C337.146 729.898 333.959 728.088 333.083 725.005C332.206 721.922 333.966 718.707 337.034 717.782Z"/><path fill="#8467B1" d="M309.668 278.312C312.774 277.503 315.953 279.347 316.793 282.445C317.634 285.543 315.822 288.741 312.732 289.612C310.706 290.184 308.528 289.623 307.03 288.143C305.532 286.664 304.943 284.494 305.489 282.46C306.034 280.427 307.63 278.843 309.668 278.312Z"/><path fill="#8467B1" d="M702.065 705.295C705.116 704.316 708.385 705.982 709.386 709.026C710.387 712.07 708.744 715.35 705.707 716.372C702.64 717.405 699.319 715.742 698.309 712.667C697.298 709.593 698.984 706.284 702.065 705.295Z"/><path fill="#8467B1" d="M321.668 196.878C324.655 195.744 327.997 197.232 329.152 200.211C330.307 203.189 328.843 206.542 325.873 207.718C322.872 208.907 319.478 207.424 318.311 204.415C317.144 201.406 318.651 198.023 321.668 196.878Z"/><path fill="#8467B1" d="M839.006 591.251C841.084 590.91 843.184 591.722 844.492 593.372C845.801 595.022 846.114 597.251 845.309 599.197C844.504 601.143 842.708 602.501 840.616 602.744C837.484 603.109 834.634 600.907 834.197 597.784C833.759 594.662 835.894 591.761 839.006 591.251Z"/></svg>