<?xml version="1.0" encoding="utf-8" ?><svg xmlns="http://www.w3.org/2000/svg" xmlns:xlink="http://www.w3.org/1999/xlink" width="1024" height="1024" viewBox="0 0 1024 1024"><path d="M528.818 347.714C558.343 346.213 587.563 354.291 612.126 370.743C637.444 387.85 656.152 413.099 665.147 442.301C667.765 450.882 669.058 458.93 670.738 467.688C680.765 470.881 691.003 475.19 693.429 486.841C694.526 492.095 693.431 497.568 690.397 501.995C685.017 509.931 676.606 512.108 667.889 513.968L665.147 523.453C683.916 572.702 691.988 623.994 690.573 676.654C687.802 779.743 615.87 823.602 520.376 818.868C465.794 814.844 413.208 790.618 392.982 736.828C370.628 677.38 382.248 582.081 406.402 525.537C405.615 521.931 404.393 517.894 403.389 514.296C390.621 511.208 376.597 506.045 377.155 489.472C377.384 482.694 381.78 477.776 386.76 473.613C384.86 471.228 379.283 466.231 378.678 463.982C380.992 460.884 395.364 452.295 398.977 451.051C401.272 452.476 401.657 455.979 402.369 458.761C406.127 436.655 414.055 418.625 427.272 400.569C430.438 396.245 436.405 390.93 438.579 386.888C438.401 386.747 437.435 386.006 437.395 385.852C436.497 382.36 435.945 363.974 438.175 361.773C442.796 361.895 457.946 366.359 464.074 367.534C484.502 355.114 505.037 349.138 528.818 347.714Z"/><path fill="#F8DAC7" d="M527.588 352.204C555.955 348.982 590.711 360.599 613.606 377.23C636.76 394.076 653.646 418.149 661.603 445.655C664.184 454.6 665.235 461.639 666.714 470.815C671.026 472.695 675.499 473.693 679.846 475.921C687.885 480.043 692.258 490.785 687.3 498.844C682.761 506.221 672.555 508.265 664.621 510.238C663.006 514.303 661.288 521.433 659.618 526.201C654.347 541.456 646.395 555.647 636.135 568.107C612.959 596.012 580.856 611.061 545.124 614.433C519.454 615.884 496.036 611.309 473.235 599.117C447.495 585.625 427.182 563.686 415.709 536.984C411.652 527.391 409.829 520.146 406.828 510.375C397.972 507.826 386.276 506.708 382.852 496.527C377.206 479.739 393.345 474.861 404.781 470.966C405.951 466.769 406.931 457.625 408.094 452.415C412.67 431.847 422.284 412.739 436.07 396.805C459.546 369.733 492.1 354.836 527.588 352.204Z"/><path d="M495.666 530.555C507.585 529.613 524.027 530.631 536.43 530.354C548.256 530.09 561.314 530.377 573.137 530.568C577.192 530.634 580.314 532.066 582.755 535.275C585.012 538.243 585.563 542.008 584.987 545.693C582.716 560.215 576.424 569.873 565.124 578.594C561.696 580.957 558.009 582.92 554.135 584.447C541.379 589.306 527.22 588.937 514.734 583.42C502.53 577.93 493.017 567.803 488.301 555.279C484.535 545.081 483.428 534.815 495.666 530.555Z"/><path fill="#E77D82" d="M496.088 535.104C506.299 534.134 522.116 535.017 533.041 534.782C546.042 534.813 558.797 534.666 571.823 534.973C585.382 535.292 580.017 551.002 576.283 558.585C574.242 562.728 571.804 565.857 568.765 569.601L564.681 565.534C544.885 549.166 520.256 551.279 502.13 568.942C495.981 562.525 489.058 550.472 490.859 541.067C491.44 538.03 493.571 536.598 496.088 535.104Z"/><path fill="#E77D82" d="M531.386 559.171C545.001 557.609 556.208 562.944 565.389 572.623C557.763 578.961 550.122 581.785 540.427 583.089C539.399 583.201 538.368 583.281 537.336 583.329C525.479 583.827 514.522 580.054 505.728 572.089C513.528 563.874 520.258 560.813 531.386 559.171Z"/><path fill="#E77D82" d="M609.222 507.254C620.743 504.775 632.073 512.171 634.44 523.715C636.808 535.258 629.303 546.516 617.736 548.772C606.328 550.996 595.256 543.616 592.921 532.229C590.586 520.842 597.859 509.7 609.222 507.254Z"/><path fill="#E77D82" d="M453.12 507.181C464.627 504.849 475.833 512.331 478.09 523.854C480.347 535.376 472.792 546.533 461.256 548.715C449.824 550.878 438.791 543.407 436.555 531.99C434.318 520.573 441.717 509.491 453.12 507.181Z"/><path d="M543.271 383.244C545.339 383.586 544.629 383.081 545.747 384.362C547.402 393.613 539.517 404.547 531.561 408.59C524.595 412.078 516.509 412.578 509.166 409.973C506.497 409.043 497.388 404.684 499.281 401.048C502.153 400.23 504.206 401.354 506.846 402.437C510.645 400.963 511.657 400.364 514.44 397.407C516.399 394.196 518.604 385.81 521.174 384.783L522.152 385.296C524.736 392.33 515.865 401.903 510.575 405.7C516.903 407.649 523.072 407.916 529.286 405.154C534.948 402.597 539.199 397.68 540.913 391.708C541.75 388.697 542.03 386.172 543.271 383.244Z"/><path d="M469.844 478.091C474.913 477.537 479.385 478.228 483.775 480.93C486.952 482.885 491.61 487.737 489.079 491.634C486.121 491.728 484.23 486.997 481.766 485.153C480.343 484.087 479.201 483.725 477.537 483.112L476.877 482.875C461.919 480.621 463.901 491.558 457.472 492.055C456.722 491.5 456.774 491.74 456.556 490.893C456.198 489.464 456.416 487.952 457.164 486.683C459.759 482.204 465.036 479.5 469.844 478.091Z"/><path d="M594.391 478.088C600.957 477.572 606.791 479.211 611.395 484.177C612.953 485.857 615.167 490.759 612.768 492.242C609.807 491.53 607.712 487.038 605.514 485.208C604.668 484.503 602.007 483.281 600.932 482.776C585.66 480.915 588.862 489.912 581.812 491.475L581.011 490.894C579.293 483.474 588.65 479.49 594.391 478.088Z"/><path d="M567.751 381.241C569.118 381.431 570.578 382.025 570.643 383.597C571.235 397.797 561.868 408.569 548.656 411.635L547.51 411.034C546.444 409.316 546.648 410.211 546.764 408.282C548.007 406.629 550.123 406.62 552.234 405.798C561.28 402.744 564.509 397.209 565.917 388.162C566.275 385.862 566.597 383.409 567.751 381.241Z"/><path d="M533.522 502.027C537.897 501.805 545.936 504.51 543.248 509.729L541.97 509.993C540.02 509.471 538.958 507.786 537.6 506.204C531.422 505.188 532.158 510.506 527.885 509.83C525.383 506.388 530.833 503.204 533.522 502.027Z"/><path fill="#9ECFEC" d="M662.716 530.45C665.756 535.011 673.524 563.471 675.02 570.285C687.421 626.776 696.71 702.649 664.962 754.492C647.003 783.458 615.392 802.656 582.43 809.647C534.48 819.817 483.691 816.26 441.499 789.946C415.142 771.514 400.434 750.426 392.129 719.452C416.222 713.598 439.78 705.726 462.552 695.919C500.287 679.598 539.055 656.962 570.492 630.415C575.956 625.776 581.258 620.951 586.389 615.946C589.212 613.143 594.956 606.968 597.664 604.822C603.133 600.487 610.382 597.358 616.377 592.773C639.344 575.209 652.273 556.868 662.716 530.45Z"/><path fill="#9ECFEC" d="M408.636 531.831C411.635 537.656 413.554 543.524 417.031 549.913C428.624 570.737 445.55 588.099 466.072 600.218C472.049 603.671 485.499 608.592 489.824 611.815C506.698 624.392 523.769 635.798 541.691 646.749C523.663 659.366 504.728 670.633 485.04 680.46C457.372 694.985 421.11 707.755 390.89 714.987C388.066 702.417 386.328 689.626 385.696 676.758C383.486 633.703 392.789 571.99 408.636 531.831Z"/><path fill="#9ECFEC" d="M585.141 610.034L585.439 610.079L585.666 610.539C572.5 623.741 560.504 633.083 545.735 644.091C536.624 638.996 527.251 632.725 518.523 626.986C513.04 623.211 507.657 619.295 502.378 615.241C532.674 621.688 555.791 620.29 585.141 610.034Z"/><path fill="#F8B73B" d="M440.59 366.275C445.722 367.22 453.525 369.482 458.68 370.849C456.683 372.504 453.944 374.413 451.802 375.988C447.177 379.664 446.201 380.414 440.586 382.087C440.458 377.043 440.586 371.366 440.59 366.275Z"/><path fill="#F8B73B" d="M397.363 456.475C398.465 457.969 400.471 465.529 401.019 467.555C398.532 468.52 392.142 471.418 390.129 470.567C387.985 468.584 386.136 466.51 384.16 464.366C388.554 461.865 393.018 459.092 397.363 456.475Z"/><path d="M334.549 285.752C382.707 283.344 423.731 320.36 426.269 368.511C428.808 416.662 391.903 457.786 343.759 460.455C295.431 463.134 254.114 426.056 251.566 377.721C249.018 329.386 286.207 288.169 334.549 285.752Z"/><path fill="#F8B73B" d="M330.638 290.287C376.375 285.701 417.178 319.04 421.801 364.772C426.424 410.505 393.119 451.335 347.39 455.995C301.608 460.661 260.721 427.309 256.092 381.524C251.464 335.738 284.849 294.878 330.638 290.287Z"/><path d="M368.955 352.713L369.622 352.698C381.399 352.464 396.982 352.707 408.988 353.316C416.622 353.703 413.284 361.544 407.767 365.321C407.302 372.542 406.843 378.01 402.929 384.412C398.689 391.282 391.877 396.17 384.011 397.987C376.511 399.688 368.117 398.138 361.727 393.897C351.947 387.408 348.91 379.805 346.478 368.989C340.11 366.894 338.051 367.101 331.647 368.912C329.955 377.163 328.226 381.469 323.109 388.06C317.696 393.742 311.896 397.364 303.95 398.377C296.274 399.369 288.527 397.169 282.518 392.291C273.408 385.014 271.552 376.043 270.26 365.215C264.378 360.756 262.862 352.594 270.583 353.151C287.572 354.376 317.025 348.273 330.332 359.855C337.912 358.841 340.593 358.814 348.195 359.67C355.688 353.819 359.836 353.166 368.955 352.713Z"/><path fill="white" d="M387.8 357.312L394.609 357.413C390.531 367.428 382.171 384.241 377.084 394.003C374.519 393.896 372.981 393.477 370.499 392.929C376.004 381.158 382.123 369.073 387.8 357.312Z"/><path fill="white" d="M308.819 357.469C310.792 357.476 312.761 357.294 314.325 358.392C314.234 361.302 300.354 389.341 297.826 393.833C295.771 393.594 293.458 393.459 292.036 391.909C293.016 387.393 306.11 362.947 308.819 357.469Z"/><path fill="white" d="M375.292 357.309L382.036 357.51C377.823 367.034 371.043 380.544 366.136 389.777L365.257 390.297C363.29 389.693 362.214 388.382 360.678 386.948L375.292 357.309Z"/><path fill="white" d="M296.204 357.475L303.23 357.529L287.992 388.77C287.647 389.209 287.915 388.914 287.008 389.447C284.914 388.789 283.798 387.436 282.157 385.915C287.017 376.781 291.664 366.821 296.204 357.475Z"/><path d="M323.475 400.148C326.259 401.321 327.783 404.974 330.428 407.47C334.547 411.358 343.776 411.342 347.757 407.391C349.811 405.353 351.279 400.913 355.046 400.868L355.559 401.629C355.915 403.863 355.734 404.012 354.768 406.172C351.609 410.587 348.494 413.104 342.716 414.312C335.075 415.91 323.363 411.466 321.756 402.95C321.509 401.645 322.608 400.964 323.475 400.148Z"/><path d="M685.838 297.363C686.094 297.379 687.43 297.439 687.569 297.553C689.703 300.362 692.624 311.368 693.711 315.009C697.501 327.704 720.157 328.812 722.054 332.199C719.824 338.542 694.325 328.683 689.278 366.778C688.568 366.732 686.533 366.697 686.259 366.002C683.045 357.833 684.272 352.602 678.274 345.258C669.771 334.846 663.09 337.677 653.292 333.045C652.766 332.797 652.99 332.171 653.042 331.441C655.725 328.885 666.376 329.677 673.237 324.107C683.006 316.176 683.913 308.868 685.838 297.363Z"/><path fill="#F8B73B" d="M687.425 311.385C688.099 312.099 688.483 313.191 688.901 314.103C693.556 324.257 698.152 328.53 708.693 332.111C696.748 337.21 692.505 341.589 687.581 353.524C687.189 353.125 687.341 353.34 687.088 352.825C681.221 340.854 678.707 337.08 666.063 332.263C667.127 331.931 668.181 331.567 669.224 331.172C678.892 327.44 683.454 320.34 687.425 311.385Z"/><path d="M741.419 380.082C742.161 380.143 743.992 380.274 744.256 380.96C747.853 390.297 745.841 393.217 751.906 401.685C759.644 412.488 774.381 410.926 778.004 414.534L777.876 415.456C774.123 418.453 764.985 417.621 758.157 422.445C747.506 429.972 747.052 437.881 744.548 449.449L742.502 449.207C740.639 447.638 739.554 440.773 738.914 437.946C736.727 427.524 727.727 420.359 717.602 418.191C715.044 417.643 708.282 417.172 707.864 414.354C711.119 411.239 722.158 412.084 728.74 407.032C738.276 399.713 739.521 390.969 741.419 380.082Z"/><path fill="#F8B73B" d="M742.879 393.922C743.388 394.471 745.437 399.117 746.074 400.276C750.417 408.166 755.909 411.418 763.798 414.761C763.183 415.03 762.57 415.304 761.96 415.582C751.609 420.321 746.93 425.845 743.033 436.307C742.502 434.97 741.945 433.643 741.364 432.326C737.036 422.671 731.274 418.501 721.822 414.898C723.051 414.462 724.269 413.994 725.473 413.494C734.853 409.539 739.168 402.939 742.879 393.922Z"/><path d="M218.813 303.438C223.409 303.66 255.555 311.776 258.935 314.31C259.328 316.92 253.764 325.595 252.25 328.259C251.006 330.849 249.935 334.066 247.256 335.058C243.859 333.799 219.619 310.519 217.606 307.092C217.646 304.84 217.587 305.592 218.813 303.438Z"/><path fill="#F8B73B" d="M224.534 308.932C233.577 310.612 244.726 314.027 254.041 316.219C252.705 318.896 251.016 321.795 249.545 324.439L246.753 329.524C239.197 322.949 231.827 315.824 224.534 308.932Z"/><path d="M246.771 413.27L248 413.445C250.292 414.8 259.205 430.89 260.44 434.027C255.77 436.217 235.136 441.922 229.548 443.379C226.709 444.167 220.216 446.898 218.497 444.015C218.7 438.199 241.511 418.179 246.771 413.27Z"/><path fill="#F8B73B" d="M246.903 418.934C248.279 420.309 253.466 429.474 254.739 431.672C247.866 433.905 240.079 436.005 233.085 438.055C230.532 438.759 227.93 439.423 225.367 440.098C232.294 432.792 239.477 425.733 246.903 418.934Z"/><path d="M269.302 253.176C269.545 253.194 269.79 253.193 270.031 253.229C272.977 253.675 296.898 277.285 298.911 280.707C299.294 281.358 299.596 281.876 299.309 282.599C298.31 285.11 294.011 286.705 291.739 287.904C289.581 289.22 287.432 290.55 285.291 291.893C283.521 292.999 280.588 295.088 278.584 294.625C275.738 290.814 270.971 268.649 269.326 262.866C268.369 259.504 267.422 256.19 269.302 253.176Z"/><path fill="#F8B73B" d="M273.457 260.971C278.626 265.265 289.1 276.564 294.04 281.79L289.076 284.669L280.758 289.339C278.578 283.165 274.396 267.416 273.457 260.971Z"/><path d="M237.393 361.583C239.213 361.258 239.508 361.316 240.685 362.429C242.04 366.392 241.351 381.712 240.326 386.132C237.561 386.923 216.096 380.754 212.034 379.682C208.787 378.853 202.705 377.717 200.374 375.505C200.282 374.703 200.072 374.426 200.569 373.708C203.275 369.797 231.391 363.252 237.393 361.583Z"/><path fill="#F8B73B" d="M235.259 366.535L236.539 366.573C237.436 368.785 237.052 378.804 236.999 381.902C230.398 380.039 223.495 378.335 216.844 376.617C213.673 375.827 210.924 374.998 207.804 374.024C215.536 372.457 227.365 368.744 235.259 366.535Z"/><path d="M278.425 451.698C280.969 451.947 299.006 461.85 299.44 464.432C297.603 468.344 284.081 481.113 280.201 484.97C277.924 487.249 272.825 492.994 270.02 493.368C269.224 492.785 268.854 492.719 268.646 491.47C267.74 486.027 276.676 454.929 278.425 451.698Z"/><path fill="#F8B73B" d="M280.849 457.227C285.244 459.753 289.613 462.326 293.953 464.945C290.2 469.173 284.349 474.739 280.25 478.883L273.06 486.176C275.324 476.521 278.169 466.792 280.849 457.227Z"/><path d="M457.991 303.692C459.928 304.413 460.152 304.987 460.26 306.847C456.617 312.637 439.506 327.381 433.905 333.153C432.599 334.499 431.71 335.258 430.039 335.14C428.371 333.917 428.033 332.701 427.082 330.768C425.567 327.699 418.167 316.706 419.176 314.253C423.677 311.311 451.572 304.803 457.991 303.692Z"/><path fill="#F8B73B" d="M452.072 309.15L452.292 309.673C447.123 315.405 437.302 323.999 431.362 329.904L428.674 325.174L423.717 316.429C432.826 314.361 442.923 311.484 452.072 309.15Z"/><path d="M337.494 234.328C338.278 234.378 340.315 234.563 340.565 235.1C343.343 241.044 350.893 269.395 350.803 274.511C348.881 276.143 342.709 275.588 339.882 275.535C336.869 275.577 328.448 276.275 326.561 274.196C326.32 269.302 335.242 239.179 337.494 234.328Z"/><path fill="#F8B73B" d="M338.82 243.115C340.587 246.64 345.232 266.517 346.425 271.4L338.75 271.415L331.067 271.385C333.118 262.751 336.143 251.594 338.82 243.115Z"/><path d="M406.948 253.322C409.251 253.856 408.363 253.287 409.85 254.84C411.112 259.381 405.655 272.537 404.472 277.561C403.771 280.538 400.876 293.638 398.182 294.298C395.161 293.234 390.744 290.312 387.858 288.546C385.152 287.068 379.124 284.327 378.197 281.634C379.74 277.623 402.311 257.492 406.948 253.322Z"/><path fill="#F8B73B" d="M403.979 261.496L404.299 261.921C403.848 266.577 398.302 283.962 396.758 288.973L388.226 284.106C386.392 283.056 385.309 282.386 383.608 281.138C390.34 274.531 397.131 267.983 403.979 261.496Z"/><path d="M327 470.49C330.328 470.201 349.291 469.641 350.979 471.589C351.373 476.383 345.005 496.727 343.387 502.636C342.549 505.877 342.415 509.028 339.119 510.364C335.112 509.13 333.423 500.407 332.658 496.47C331.664 491.356 326.048 474.731 327 470.49Z"/><path fill="#F8B73B" d="M331.301 474.573C336.379 474.468 341.743 474.595 346.843 474.633L340.745 496.459C340.046 498.324 339.375 501.263 338.853 503.265L331.301 474.573Z"/><path d="M363.405 533.473C363.985 533.494 364.369 533.63 364.944 533.766C365.992 535.446 365.87 534.595 365.548 536.364C362.748 539.483 316.836 558.217 309.187 561.539L307.734 561.232C306.444 559.741 306.679 560.55 306.704 558.829C308.614 556.214 356.65 536.27 363.405 533.473Z"/><path d="M721.873 533.172C726.676 534.424 778.007 556.374 779.629 558.483C779.626 560.462 779.793 559.475 778.64 561.465C774.261 560.365 755.629 551.983 750.378 549.718C745.226 547.494 725.193 539.268 721.449 536.848C720.877 535.186 721.243 535.276 721.873 533.172Z"/><path d="M536.921 259.712C539.058 260.537 538.651 260.03 539.81 261.628C540.497 268.064 540.67 311.791 538.994 315.217C537.973 314.877 535.759 314.32 535.833 313.025C536.291 305.039 534.026 264.739 536.921 259.712Z"/></svg>