<?xml version="1.0" encoding="utf-8" ?><svg xmlns="http://www.w3.org/2000/svg" xmlns:xlink="http://www.w3.org/1999/xlink" width="1024" height="1024" viewBox="0 0 1024 1024"><path fill="#D8ECF6" d="M509.128 238.536C509.084 234.32 507.873 218.491 511.482 216.569C514.326 217.622 513.61 219.914 513.701 222.598C514.25 224.995 513.933 235.752 513.884 238.781C541.539 239.291 582.136 244.437 607.9 254.982C609.58 251.084 613.38 239.836 616.106 237.762L617.153 237.766C620.056 241.155 613.683 252.79 612.11 256.754C647.659 271.014 664.486 280.666 695.072 304.641C697.894 301.516 704.681 292.987 708.782 292.868C710.25 295.983 701.074 304.964 698.657 307.623C717.994 322.34 739.736 349.379 752.862 369.976C757.29 376.926 760.58 383.925 764.546 390.378C766.903 389.714 765.828 389.631 767.896 390.215C768.938 391.666 768.691 390.863 768.536 392.743C767.644 393.714 767.694 393.676 766.54 394.312C781.12 423.932 790.614 454.692 793.835 487.405C793.978 488.864 794.073 493.788 795.373 494.33C798.148 494.464 797.644 494.043 799.669 495.36L800.114 496.532C798.783 499.201 797.797 498.788 794.938 498.852C799.761 573.134 774.671 646.259 725.259 701.932C691.044 741.065 646.604 769.894 596.922 785.186C590.508 787.131 572.968 792.565 566.816 791.458C533.891 799.876 489.413 800.812 456.629 791.411C455.645 791.942 454.634 792.347 453.483 792.134C346.047 772.292 259.473 685.758 234.545 580.279C229.592 559.132 227.202 537.466 227.425 515.748C227.451 510.408 227.543 505.073 227.931 499.746C227.718 499.482 227.505 499.219 227.292 498.956L224.24 498.679C222.705 498.266 222.766 497.796 222.384 496.495C223.154 494.577 222.533 495.281 224.244 494.25C224.756 494.23 228.185 494.069 228.271 493.705C229.095 490.245 229.191 486.542 229.586 483.01C232.396 457.849 239.448 433.054 249.157 409.713C250.765 405.859 254.268 397.975 256.429 394.632C254.41 393.555 254.577 394.011 253.477 392.33C253.47 390.432 253.13 391.172 254.295 389.941C256.299 389.556 255.644 389.657 257.838 390.529C259.65 388.228 262.803 382.36 264.4 379.62C267.562 374.242 270.83 368.928 274.201 363.679C286.561 344.404 306.144 322.211 323.657 307.501C320.678 304.431 312.449 297.047 312.717 292.79C316.892 292.418 324.585 301.737 327.587 304.931C331.929 301.726 336.14 298.008 340.518 294.779C357.739 282.073 375.978 271.268 395.617 262.73C399.988 260.83 406.015 258.829 410.007 256.4C408.428 252.523 402.856 240.962 404.701 237.338L405.53 237.491C409.469 240.829 412.404 250.114 414.42 255.278C451.028 244.009 470.092 239.828 509.128 238.536Z"/><path d="M388.33 467.796C393.438 433.224 408.02 404.59 436.481 383.313C463.548 363.255 497.514 354.857 530.81 359.989C563.038 364.705 592.079 382.016 611.557 408.122C626.498 428.275 630.573 444.123 635.456 467.671C642.961 469.628 649.332 472.001 653.517 479.242C656.156 483.741 656.785 489.143 655.249 494.128C653.506 499.791 649.275 503.81 644.206 506.592C666.955 569.911 675.075 663.356 646.122 726.508C632.595 756.012 609.111 776.944 578.448 787.817C574.609 789.15 570.73 790.364 566.816 791.458C533.891 799.876 489.413 800.812 456.629 791.411C425.095 782.594 397.984 765.261 381.982 735.767C348.864 674.724 355.688 590.852 373.408 526.191C375.057 520.172 377.323 512.757 379.476 507.054C373.939 503.707 369.489 500.246 367.732 493.538C366.495 488.744 367.229 483.654 369.769 479.404C373.846 472.541 380.467 469.623 387.855 467.903L388.33 467.796Z"/><path fill="#F8D8C9" d="M502.096 363.199C525.925 359.883 556.715 368.858 576.94 381.704C600.251 396.563 617.629 419.109 626.062 445.434C628.801 454.237 629.884 462.18 631.894 471.075C643.404 474.09 658.513 481.277 649.214 496.98C645.606 503.072 636.31 504.684 629.619 505.682C622.791 526.521 619.964 538.336 605.018 556.503C583.496 582.664 555.819 596.625 522.624 600.412C501.637 601.529 484.598 599.612 464.844 591.257C436.523 579.539 413.881 557.248 401.722 529.113C398.347 521.276 396.931 513 393.859 505.814C365.632 503.559 363.321 477.861 389.339 471.882C393.109 471.016 394.591 455.841 395.771 451.243C400.135 434.525 408.107 418.964 419.127 405.656C440.369 380.104 469.269 366.227 502.096 363.199Z"/><path fill="#EE7C83" d="M574.867 502.909C585.814 501.269 596.028 508.783 597.721 519.722C599.414 530.661 591.948 540.911 581.017 542.656C570.013 544.412 559.678 536.885 557.974 525.873C556.27 514.86 563.846 504.561 574.867 502.909Z"/><path fill="#EE7C83" d="M441.727 502.861C452.602 501.443 462.588 509.056 464.1 519.919C465.613 530.782 458.087 540.834 447.237 542.44C436.254 544.067 426.051 536.427 424.52 525.43C422.989 514.433 430.717 504.297 441.727 502.861Z"/><path d="M518.296 391.184C520.521 391.792 520.012 391.302 521.185 392.834C521.915 396.554 520.8 399.411 519.257 402.683C513.06 415.828 497.005 421.57 484.207 414.245C481.999 412.982 479.895 411.527 479.186 408.972L479.669 408.12C482.156 407.416 483.394 408.297 485.575 409.488L486.212 409.842C488.321 408.456 489.404 407.467 491.282 405.827C494.503 401.923 495.663 392.566 499.41 392.937C501.771 399.228 494.554 408.475 489.795 412.214C499.273 413.862 507.655 413.49 513.491 404.43C516.747 399.377 516.238 397.13 517.976 392.086L518.296 391.184Z"/><path d="M485.462 536.167C488.314 537.653 489.394 540.088 491.708 542.02C500.274 548.869 509.871 550.3 520.23 547.596C528.434 545.454 530.164 540.545 536.678 537.293C538.393 537.424 537.789 537.05 538.831 537.979C538.824 539.236 538.28 539.999 537.7 541.13C533.807 545.288 529.804 548.364 524.485 550.536C515.467 554.118 505.385 553.905 496.526 549.947C491.672 547.817 485.837 544.262 483.882 539.16C484.046 537.222 483.895 537.904 485.462 536.167Z"/><path d="M568.066 477.101C575.266 476.64 582.289 477.96 587.061 483.817C587.359 485.464 587.523 484.747 586.703 486.066C583.372 487.139 580.077 483.137 575.164 481.703L574.565 481.535C564.104 480.495 562.601 485.233 555.585 486.282L555.039 485.489C554.741 480.467 564.146 477.876 568.066 477.101Z"/><path d="M448.585 477.1C454.966 476.707 463.51 477.648 467.251 484.19C467.876 485.284 467.637 485.422 467.245 486.429C463.906 487.39 461.176 483.311 455.83 481.74L455.202 481.561C444.422 480.881 447.573 482.026 438.662 486.315C437.43 486.908 436.892 486.37 435.948 485.826C435.232 484.342 435.273 485.066 435.653 483.597C438.806 479.912 443.992 478.111 448.585 477.1Z"/><path d="M540.78 390.172C547.745 390.843 542.521 402.013 540.525 405.627C536.762 412.437 531.485 415.473 524.26 417.492C522.541 417.114 522.332 416.472 521.809 415.041C523.038 412.276 527.26 412.398 530.001 411.004C539.374 406.239 538.029 398.105 540.78 390.172Z"/><path d="M509.564 499.497C513.363 499.495 519.193 501.38 517.821 506.172L516.787 506.622C514.95 506.353 513.845 504.989 512.446 503.693C508.434 503.536 507.181 507.416 503.448 506.304C503.285 502.755 506.896 500.812 509.564 499.497Z"/><path fill="#9ED0EC" d="M656.828 580.43C656.981 580.644 657.134 580.858 657.288 581.073C664.359 624.563 660.722 689.407 640.895 727.707C624.543 759.296 599.388 777.191 573.186 785.117C527.602 798.904 470.171 797.214 428.484 775.826C419.375 770.8 413.944 766.621 406.282 759.837C437.053 751.192 467.13 740.243 496.258 727.085C550.301 702.688 606.263 668.341 639.056 617.238C646.799 605.171 651.794 593.753 656.828 580.43Z"/><path fill="#9ED0EC" d="M383.482 508.28C386.399 509.195 387.948 509.39 390.915 509.818C392.818 517.94 395.527 525.852 399.002 533.437C405.663 547.999 415.198 561.067 427.034 571.854C437.401 581.383 445.964 586.137 457.971 592.749C463.493 595.79 469.947 600.998 475.706 604.521C495.699 616.754 516.815 627.048 538.766 635.264C519.818 648.823 499.866 660.923 479.083 671.457C448.655 687.504 408.666 702.185 375.83 711.951C371.718 701.423 368.332 686.866 366.545 675.78C357.608 620.353 365.804 561.176 383.482 508.28Z"/><path fill="#9ED0EC" d="M640.368 508.205C640.796 508.893 642.234 513.033 642.623 514.31C647.431 530.07 654.381 554.054 655.078 569.915C655.298 574.94 646.637 595.217 644.314 599.808C609.173 669.231 526.593 712.665 457.057 738.75C446.077 742.886 434.992 746.74 423.813 750.307C416.941 752.454 409.459 754.326 402.769 756.593L397.827 751.006C387.584 738.699 383.439 730.323 377.132 716.012C387.911 712.501 398.338 709.436 409.112 705.663C441.107 694.7 472.02 680.802 501.456 664.145C550.966 635.836 599.698 597.337 621.07 542.571C625.372 531.548 629.525 521.097 632.633 509.657L640.368 508.205Z"/><path fill="#9ED0EC" d="M609.417 557.447C609.257 559.78 605.191 565.411 603.839 567.626C588.405 592.911 566.348 614.987 542.553 632.455C525.861 626.482 511.281 619.261 495.556 611.242C489.073 607.807 482.112 603.568 475.723 599.845C528.288 613.388 574.604 599.493 609.417 557.447Z"/><path fill="#F9B628" d="M764.546 390.378C766.903 389.714 765.828 389.631 767.896 390.215C768.938 391.666 768.691 390.863 768.536 392.743C767.644 393.714 767.694 393.676 766.54 394.312C759.032 397.389 751.693 400.874 744.255 404.108C741.537 405.29 736.23 408.117 733.638 406.256L733.543 404.946C734.827 402.193 759.989 392.272 764.546 390.378Z"/><path fill="#F9B628" d="M410.007 256.4C408.428 252.523 402.856 240.962 404.701 237.338L405.53 237.491C409.469 240.829 412.404 250.114 414.42 255.278C415.691 258.617 420.348 268.32 419.752 271.063C418.397 272.361 419.15 272.109 417.554 272.176C414.718 270.121 411.543 260.309 410.007 256.4Z"/><path fill="#F9B628" d="M607.9 254.982C609.58 251.084 613.38 239.836 616.106 237.762L617.153 237.766C620.056 241.155 613.683 252.79 612.11 256.754C610.472 260.729 607.914 270.687 604.074 272.126C602.535 271.452 603.105 271.966 602.255 270.586C603.071 266.477 606.24 259.263 607.9 254.982Z"/><path fill="#F9B628" d="M256.429 394.632C254.41 393.555 254.577 394.011 253.477 392.33C253.47 390.432 253.13 391.172 254.295 389.941C256.299 389.556 255.644 389.657 257.838 390.529C266.675 394.363 275.524 398.248 284.473 401.813C285.721 402.311 286.934 404.075 287.575 405.222L287.569 406.426C284.317 407.872 261.289 396.611 256.429 394.632Z"/><path fill="#F9B628" d="M794.938 498.852C790.45 498.811 767.301 499.013 764.686 498.189C763.575 497.086 763.81 497.742 763.724 496.282L764.522 495.404C769.295 493.461 788.59 494.582 795.373 494.33C798.148 494.464 797.644 494.043 799.669 495.36L800.114 496.532C798.783 499.201 797.797 498.788 794.938 498.852Z"/><path fill="#F9B628" d="M224.244 494.25C233.599 494.622 242.98 494.23 252.34 494.335C254.622 494.361 257.389 494.475 258.999 496.212C258.704 497.759 259.051 497.094 257.815 498.215C250.916 499.21 232.253 498.413 224.24 498.679C222.705 498.266 222.766 497.796 222.384 496.495C223.154 494.577 222.533 495.281 224.244 494.25Z"/><path fill="#F9B628" d="M509.128 238.536C509.084 234.32 507.873 218.491 511.482 216.569C514.326 217.622 513.61 219.914 513.701 222.598C513.695 227.708 514.275 242.626 512.476 246.389L511.715 246.918C508.192 245.274 509.061 242.3 509.128 238.536Z"/><path fill="#F9B628" d="M323.657 307.501C320.678 304.431 312.449 297.047 312.717 292.79C316.892 292.418 324.585 301.737 327.587 304.931C329.811 307.167 331.956 308.621 331.916 311.993C329.142 314.404 325.473 309.348 323.657 307.501Z"/><path fill="#F9B628" d="M695.072 304.641C697.894 301.516 704.681 292.987 708.782 292.868C710.25 295.983 701.074 304.964 698.657 307.623C696.724 309.757 693.916 313.915 690.848 311.676L690.739 310.137C691.53 307.772 693.257 306.444 695.072 304.641Z"/><path fill="#F9B628" d="M511.174 258.287C512.774 259.629 514.405 262.975 515.134 264.883C520.208 278.168 527.231 279.541 539.591 285.408C515.777 297.438 523.769 292.082 511.691 313.372C508.153 308.649 503.963 296.474 499.928 294.139C495.65 291.664 489 288.772 484.264 285.92L483.66 285.552C488.591 282.505 497.331 279.431 501.337 275.932C503.979 273.625 509.188 262.163 511.174 258.287Z"/><path fill="#F9B628" d="M681.594 320.494C682.33 320.422 682.247 320.51 683.02 320.745C683.488 323.423 679.192 336.393 678.204 339.691C680.461 346.146 682.782 352.578 685.167 358.987C678.808 357.04 672.414 355.205 665.991 353.482C660.882 354.995 653.297 358.11 648.107 360.079C647.211 360.319 647.728 360.268 646.547 360.053C645.965 357.781 650.619 343.329 651.52 339.942C649.17 333.544 646.946 327.461 644.877 320.969C651.457 322.913 658.089 324.68 664.765 326.267C670.4 324.419 676.01 322.494 681.594 320.494Z"/><path fill="#F9B628" d="M338.535 320.689C344.349 322.025 351.74 324.744 357.498 326.691C364.222 324.919 370.915 323.03 377.573 321.023L370.593 340.308C372.473 347.008 374.421 353.689 376.436 360.35C373.212 359.735 361.023 355.042 356.752 353.635C350.553 354.99 343.451 357.35 337.182 359.074C339.473 352.677 341.694 346.255 343.845 339.809C341.994 334.198 340.046 326.473 338.535 320.689Z"/><path fill="#F9B628" d="M723.414 468.732C726.636 470.336 730.596 483.124 733.421 485.575C737.792 489.368 746.137 492.812 751.482 495.769C747.332 498.793 737.194 502.685 734.097 505.342C731.548 507.528 726.501 518.243 724.454 521.919L724.228 522.113C722.003 522.45 718.148 511.069 716.19 508.449C711.646 502.369 703.389 499.548 696.683 496.149C717.653 483.538 711.63 492.411 723.414 468.732Z"/><path fill="#F9B628" d="M298.364 468.696C301.541 470.09 305.778 483.765 308.917 486.275C313.603 490.02 321.112 493.286 326.483 495.927C304.091 508.211 311.516 500.121 299.26 522.683C297.682 521.184 295.943 517.344 295.066 515.273C289.943 503.181 282.629 501.703 271.473 496.162C276.265 492.889 282.914 490.548 287.437 487.234C291.893 483.97 295.875 473.882 298.364 468.696Z"/><path fill="#F9B628" d="M719.386 556.953C720.845 558.908 719.467 567.718 720.699 570.205C722.538 573.92 726.523 578.514 729.075 581.893C724.155 581.984 719.858 582.106 714.927 582.486C711.89 584.557 707.315 588.433 704.233 590.832C703.189 588.268 703.259 580.355 703.164 577.27C701.102 574.026 696.729 568.791 694.223 565.546C699.065 565.459 703.904 565.25 708.736 564.918C711.757 562.939 716.222 559.27 719.386 556.953Z"/><path fill="#F9B628" d="M302.874 556.654C305.431 557.841 312.086 562.978 314.723 564.889C319.244 565.063 323.763 565.29 328.279 565.569C325.115 569.509 322.188 573.093 319.335 577.285C319.067 581.493 318.764 585.699 318.428 589.902L317.775 590.017C316.199 589.241 309.833 583.845 307.36 582.096L293.831 581.48C296.578 577.878 300.578 572.964 302.663 569.109C302.632 564.886 302.556 560.88 302.874 556.654Z"/><path fill="#F9B628" d="M596.982 286.324C599.43 287.748 597.812 296.468 598.916 299.052C600.455 302.65 605.48 307.405 608.212 310.418L594.928 311.664C591.247 314.316 587.423 317.886 583.988 320.932L583.539 320.672C582.517 319.082 582.381 309.61 582.258 307.109C580.011 303.859 575.644 299.344 572.875 296.336C587.692 295.319 586.097 296.293 596.982 286.324Z"/><path fill="#F9B628" d="M424.353 286.294C426.716 287.471 432.394 293.092 435.291 295.408C439.583 295.987 444.487 296.263 448.844 296.608C446.081 300.184 442.793 303.933 439.903 307.534C439.444 312.3 439.634 316.519 438.923 321.448C437.631 320.711 434.218 317.851 433.239 316.83C427.134 310.458 422.737 311.255 414.146 310.669C416.98 307.229 420.346 303.703 423.323 300.17C423.588 295.713 423.771 290.674 424.353 286.294Z"/><path fill="#F9B628" d="M329.348 404.857L330.348 405.331C331.179 408.896 330.886 413.405 331.48 417.527L331.575 418.152C333.935 421.411 338.021 425.757 340.784 428.871C336.466 429.468 331.847 429.47 327.47 429.583C323.349 432.08 320.513 434.63 316.849 437.693L316.347 437.82C314.257 436.779 315.656 428.058 314.614 425.771C312.62 421.392 308.815 417.584 305.799 413.788C310.674 413.421 314.4 413.463 319.525 412.866C322.436 410.857 326.533 407.214 329.348 404.857Z"/><path fill="#F9B628" d="M690.692 405.166C692.833 406.059 699.294 411.649 701.546 413.455C706.121 413.712 710.698 413.929 715.277 414.106C706.567 426.469 705.923 422.323 705.361 438.88C701.71 437.731 697.601 431.907 694.199 430.722C690.728 429.513 684.764 429.579 681.007 429.427C683.943 425.526 686.955 422.424 689.899 418.211C690.22 413.866 690.484 409.517 690.692 405.166Z"/><path fill="#F9B628" d="M647.103 281.941C650.214 281.304 653.445 282.138 655.859 284.202C658.273 286.266 659.6 289.328 659.454 292.501C659.238 297.208 655.853 301.168 651.236 302.114C645.665 303.256 640.224 299.665 639.083 294.094C637.941 288.524 641.532 283.083 647.103 281.941Z"/><path fill="#D8ECF6" d="M647.616 286.224C649.695 285.674 651.909 286.285 653.411 287.824C654.913 289.363 655.47 291.592 654.868 293.656C654.267 295.721 652.6 297.302 650.507 297.793C647.333 298.539 644.149 296.597 643.358 293.434C642.568 290.271 644.465 287.06 647.616 286.224Z"/><path fill="#F9B628" d="M540.57 326.338C546.015 325.015 551.515 328.306 552.923 333.73C554.33 339.155 551.124 344.705 545.722 346.196C542.153 347.181 538.33 346.166 535.719 343.54C533.108 340.915 532.115 337.086 533.12 333.522C534.125 329.959 536.972 327.213 540.57 326.338Z"/><path fill="#D8ECF6" d="M542.506 330.295C545.834 329.991 548.785 332.422 549.125 335.745C549.465 339.069 547.067 342.047 543.747 342.423C541.567 342.67 539.423 341.727 538.132 339.953C536.841 338.179 536.602 335.849 537.508 333.85C538.413 331.852 540.322 330.494 542.506 330.295Z"/><path fill="#F9B628" d="M380.274 280.931C385.824 280.056 391.043 283.816 391.971 289.358C392.898 294.9 389.188 300.155 383.655 301.135C378.048 302.128 372.706 298.357 371.766 292.74C370.826 287.123 374.648 281.818 380.274 280.931Z"/><path fill="#D8ECF6" d="M379.92 285.362C381.995 284.639 384.3 285.091 385.947 286.546C387.595 288 388.33 290.23 387.869 292.38C387.409 294.529 385.825 296.262 383.727 296.915C380.557 297.9 377.183 296.162 376.144 293.009C375.105 289.857 376.786 286.454 379.92 285.362Z"/><path fill="#F9B628" d="M413.906 345.358C419.408 344.209 424.807 347.716 425.993 353.21C427.179 358.704 423.708 364.126 418.221 365.348C412.683 366.582 407.199 363.071 406.002 357.525C404.805 351.979 408.352 346.518 413.906 345.358Z"/><path fill="#D8ECF6" d="M413.808 349.825C415.86 349.019 418.188 349.4 419.875 350.819C421.562 352.237 422.337 354.466 421.894 356.625C421.452 358.784 419.862 360.528 417.753 361.168C414.667 362.106 411.391 360.439 410.331 357.392C409.271 354.345 410.806 351.005 413.808 349.825Z"/><path fill="#F9B628" d="M342.844 454.295C345.957 453.691 349.174 454.565 351.552 456.661C353.931 458.757 355.202 461.839 354.993 465.003C354.687 469.639 351.293 473.486 346.731 474.366C341.19 475.435 335.831 471.813 334.759 466.273C333.686 460.733 337.305 455.372 342.844 454.295Z"/><path fill="#D8ECF6" d="M344.062 458.279C347.392 457.856 350.442 460.191 350.902 463.516C351.361 466.841 349.059 469.917 345.739 470.412C343.559 470.737 341.373 469.866 340.014 468.131C338.655 466.397 338.333 464.065 339.17 462.027C340.008 459.989 341.876 458.557 344.062 458.279Z"/><path fill="#F9B628" d="M321.047 599.424C326.444 597.666 332.24 600.643 333.956 606.053C335.671 611.464 332.651 617.236 327.227 618.911C321.862 620.567 316.165 617.586 314.468 612.234C312.77 606.881 315.708 601.162 321.047 599.424Z"/><path fill="#D8ECF6" d="M322.401 603.404C325.573 602.332 329.012 604.044 330.07 607.221C331.127 610.399 329.399 613.83 326.217 614.872C323.055 615.908 319.651 614.194 318.601 611.037C317.551 607.881 319.249 604.469 322.401 603.404Z"/><path fill="#F9B628" d="M743.728 436.876C749.18 435.741 754.536 439.182 755.769 444.612C757.003 450.042 753.66 455.46 748.254 456.792C744.668 457.676 740.884 456.555 738.358 453.86C735.832 451.166 734.958 447.317 736.071 443.796C737.185 440.275 740.112 437.629 743.728 436.876Z"/><path fill="#D8ECF6" d="M743.789 441.282C746.942 440.166 750.401 441.828 751.5 444.986C752.6 448.145 750.921 451.595 747.757 452.678C744.615 453.754 741.195 452.09 740.104 448.954C739.012 445.818 740.659 442.39 743.789 441.282Z"/><path fill="#F9B628" d="M475.584 314.833C481.026 313.853 486.257 317.386 487.382 322.8C488.506 328.214 485.113 333.538 479.731 334.806C476.12 335.657 472.331 334.48 469.837 331.734C467.343 328.987 466.537 325.103 467.731 321.59C468.925 318.077 471.932 315.49 475.584 314.833Z"/><path fill="#D8ECF6" d="M475.671 319.26C478.82 318.28 482.175 320.004 483.21 323.136C484.245 326.269 482.579 329.652 479.466 330.742C477.403 331.465 475.11 331.017 473.47 329.572C471.83 328.127 471.097 325.91 471.553 323.772C472.009 321.634 473.583 319.909 475.671 319.26Z"/><path fill="#F9B628" d="M600.514 342.42C604.029 341.342 607.853 342.239 610.523 344.768C613.192 347.297 614.295 351.067 613.408 354.636C612.522 358.204 609.784 361.02 606.241 362.006C600.862 363.503 595.279 360.399 593.712 355.04C592.145 349.681 595.176 344.057 600.514 342.42Z"/><path fill="#D8ECF6" d="M602.326 346.31C604.507 345.819 606.78 346.579 608.228 348.282C609.675 349.986 610.059 352.351 609.223 354.425C608.387 356.498 606.471 357.936 604.247 358.16C601.083 358.478 598.219 356.277 597.71 353.139C597.201 350 599.224 347.008 602.326 346.31Z"/><path fill="#F9B628" d="M269.86 436.34C273.412 435.258 277.271 436.192 279.936 438.777C282.601 441.363 283.65 445.192 282.676 448.775C281.702 452.358 278.859 455.129 275.252 456.009C269.887 457.319 264.454 454.122 262.994 448.796C261.534 443.47 264.577 437.949 269.86 436.34Z"/><path fill="#D8ECF6" d="M271.668 440.271C274.901 439.607 278.068 441.666 278.772 444.891C279.477 448.116 277.458 451.308 274.242 452.053C272.126 452.543 269.909 451.857 268.44 450.257C266.97 448.657 266.475 446.39 267.143 444.323C267.812 442.256 269.54 440.708 271.668 440.271Z"/><path fill="#F9B628" d="M675.132 457.812C680.501 456.078 686.255 459.045 687.956 464.425C689.658 469.804 686.656 475.54 681.266 477.208C678.181 478.163 674.826 477.597 672.226 475.681C669.625 473.766 668.089 470.73 668.087 467.5C668.083 463.084 670.93 459.169 675.132 457.812Z"/><path fill="#D8ECF6" d="M676.443 461.829C678.508 461.128 680.791 461.589 682.422 463.039C684.052 464.488 684.779 466.701 684.325 468.835C683.87 470.968 682.305 472.693 680.226 473.353C677.056 474.357 673.668 472.622 672.631 469.463C671.594 466.304 673.294 462.899 676.443 461.829Z"/><path fill="#F9B628" d="M698.576 604.957C704.07 604.519 708.912 608.537 709.496 614.017C710.08 619.497 706.193 624.445 700.73 625.175C697.065 625.664 693.422 624.126 691.218 621.156C689.014 618.187 688.595 614.255 690.124 610.889C691.653 607.522 694.89 605.25 698.576 604.957Z"/><path fill="#D8ECF6" d="M697.975 609.277C701.146 608.445 704.399 610.309 705.286 613.465C706.173 616.621 704.367 619.906 701.227 620.849C699.146 621.473 696.89 620.926 695.326 619.418C693.763 617.909 693.135 615.674 693.684 613.572C694.233 611.47 695.873 609.828 697.975 609.277Z"/><path fill="#F9B628" d="M746.752 529.888C752.168 528.889 757.394 532.384 758.54 537.771C759.686 543.158 756.334 548.478 750.98 549.77C747.385 550.637 743.603 549.484 741.103 546.758C738.603 544.033 737.781 540.165 738.955 536.658C740.129 533.151 743.115 530.559 746.752 529.888Z"/><path fill="#D8ECF6" d="M746.6 534.298C749.758 533.178 753.225 534.831 754.344 537.99C755.463 541.148 753.809 544.615 750.65 545.733C747.493 546.85 744.027 545.197 742.909 542.04C741.791 538.883 743.443 535.417 746.6 534.298Z"/><path fill="#F9B628" d="M706.148 358.869C711.459 357.047 717.24 359.877 719.058 365.189C720.876 370.502 718.041 376.281 712.727 378.095C707.42 379.906 701.648 377.074 699.833 371.769C698.017 366.463 700.844 360.689 706.148 358.869Z"/><path fill="#D8ECF6" d="M708.044 362.833C711.171 362.013 714.377 363.853 715.247 366.966C716.117 370.08 714.329 373.315 711.23 374.235C709.181 374.843 706.963 374.299 705.428 372.812C703.892 371.325 703.277 369.126 703.82 367.058C704.362 364.99 705.976 363.376 708.044 362.833Z"/><path fill="#F9B628" d="M652.311 389.962C657.919 389.325 662.969 393.386 663.551 399C664.132 404.614 660.022 409.624 654.403 410.151C648.861 410.67 643.935 406.628 643.361 401.092C642.788 395.556 646.78 390.59 652.311 389.962Z"/><path fill="#D8ECF6" d="M652.203 394.262C655.358 393.549 658.503 395.491 659.28 398.631C660.056 401.771 658.179 404.955 655.055 405.795C652.977 406.354 650.76 405.746 649.258 404.206C647.755 402.665 647.203 400.433 647.814 398.37C648.425 396.307 650.104 394.735 652.203 394.262Z"/><path fill="#F9B628" d="M456.512 252.841C462.043 252.445 466.866 256.564 467.341 262.089C467.816 267.613 463.766 272.495 458.248 273.049C454.609 273.414 451.054 271.791 448.947 268.801C446.839 265.811 446.504 261.918 448.071 258.613C449.638 255.308 452.863 253.102 456.512 252.841Z"/><path fill="#D8ECF6" d="M455.353 257.307C458.483 256.205 461.916 257.841 463.031 260.967C464.146 264.093 462.524 267.532 459.402 268.66C456.263 269.794 452.8 268.16 451.678 265.016C450.557 261.872 452.204 258.416 455.353 257.307Z"/><path fill="#F9B628" d="M266.311 528.321C271.68 526.861 277.221 530.011 278.713 535.372C280.205 540.732 277.089 546.292 271.738 547.817C266.34 549.355 260.722 546.206 259.217 540.799C257.712 535.392 260.895 529.793 266.311 528.321Z"/><path fill="#D8ECF6" d="M267.248 532.321C270.393 531.341 273.741 533.077 274.752 536.213C275.762 539.349 274.057 542.713 270.931 543.754C267.763 544.808 264.343 543.075 263.319 539.897C262.295 536.718 264.06 533.315 267.248 532.321Z"/><path fill="#F9B628" d="M361.71 386.977C367.109 385.853 372.412 389.266 373.626 394.645C374.84 400.025 371.517 405.384 366.158 406.688C362.611 407.551 358.874 406.434 356.383 403.766C353.892 401.098 353.033 397.293 354.137 393.814C355.241 390.334 358.136 387.72 361.71 386.977Z"/><path fill="#D8ECF6" d="M361.754 391.35C363.763 390.6 366.019 390.991 367.658 392.372C369.297 393.754 370.064 395.911 369.666 398.017C369.268 400.123 367.765 401.851 365.735 402.538C362.662 403.578 359.323 401.96 358.236 398.904C357.149 395.848 358.715 392.484 361.754 391.35Z"/><path fill="#F9B628" d="M745.039 587.753C747.822 588.298 775.842 601.391 778.304 603.235C779.049 605.075 778.81 604.516 778.325 606.822C774.067 606.114 747.997 594.02 744.443 591.433C743.993 589.677 744.322 589.833 745.039 587.753Z"/><path fill="#F9B628" d="M275.85 587.946C276.454 588.047 276.976 588.323 277.568 588.566C278.317 589.951 278.221 589.248 277.956 590.731C275.214 594.001 250.689 604.385 245.63 606.631L244.293 606.178C243.214 604.818 243.395 605.55 243.576 603.954C246.097 601.01 270.55 590.408 275.85 587.946Z"/><path fill="#F9B628" d="M683.752 514.248C685.463 515.824 685.711 519.283 686.311 521.978L694.732 526.148L685.997 527.651C684.803 529.648 683.242 533.012 682.155 535.198C680.521 534.089 680.26 529.46 679.766 527.035C676.823 525.611 673.864 524.221 670.89 522.865L680.351 521.654C681.513 519.618 682.78 516.468 683.752 514.248Z"/><path fill="#F9B628" d="M307.213 360.327C308.471 361.417 309.767 366.299 310.456 368.348C313.107 369.337 315.748 370.349 318.381 371.385C315.75 372.233 312.869 372.818 310.161 373.439C309.162 375.456 307.834 379.052 306.95 381.258C305.509 379.795 304.986 376.267 304.391 373.994C302.266 372.73 297.959 371.231 295.464 370.281C298.75 369.289 300.877 368.845 304.254 368.201C305.24 365.906 306.322 362.73 307.213 360.327Z"/><path fill="#F9B628" d="M339.203 513.736C341.022 514.965 342.58 519.156 343.578 521.315C346.793 522.109 349.953 522.412 353.238 522.81L344.209 526.936C343.944 529.36 343.525 531.968 343.184 534.401L342.371 534.272C340.836 532.573 339.661 529.522 338.663 527.349L329.532 525.679C332.497 524.455 335.431 523.154 338.33 521.779C338.493 518.973 338.833 516.508 339.203 513.736Z"/><path fill="#F9B628" d="M554.438 252.141C556.453 254.004 556.839 257.105 557.64 260.024C560.062 260.995 563.719 262.064 566.28 262.883C563.382 263.856 560.451 264.691 557.519 265.554C556.549 267.586 555.439 271.021 554.648 273.234C553.124 272.267 552.187 267.501 551.6 265.457L542.853 262.509C546.407 261.251 548.306 260.859 552.026 260.118L554.438 252.141Z"/><path fill="#F9B628" d="M636.613 366.342C638.634 366.593 639.005 366.844 639.384 368.697C637.984 372.639 630.644 379.199 627.322 381.993C621.3 379.93 627.688 374.937 630.09 372.439C632.081 370.368 634.487 368.311 636.613 366.342Z"/><path fill="#F9B628" d="M667.52 432.898C669.057 432.816 669.941 433.014 670.865 434.207L670.607 435.5C668.076 438.381 659.626 441.383 655.815 443.04C654.481 443.155 654.295 442.934 653.002 442.451C652.398 441.119 652.492 441.819 652.896 440.267C655.698 437.288 663.464 434.55 667.52 432.898Z"/><path fill="#F9B628" d="M576.768 331.796C578.607 331.987 578.996 332.257 579.733 333.777C579.779 338.237 575.522 346.715 573.284 350.692C571.048 349.791 571.385 350.323 570.355 348.641C570.284 344.381 574.654 335.73 576.768 331.796Z"/><path fill="#F9B628" d="M384.141 366.142C387.284 367.06 395.25 375.596 397.361 378.501C397.402 380.305 397.172 379.98 395.899 381.832C392.857 380.992 384.705 372.372 382.707 369.504C382.703 367.709 382.959 367.963 384.141 366.142Z"/><path fill="#F9B628" d="M442.722 332.221C443.176 332.268 444.403 332.375 444.685 332.63C448.139 335.759 452.732 346.829 451.188 350.645C449.884 350.642 449.938 350.632 448.693 350.22C445.893 346.974 441.092 336.362 442.722 332.221Z"/><path fill="#F9B628" d="M509.616 323.28C510.831 323.331 512.647 323.286 513.159 324.561C514.798 328.637 514.418 337.773 513.384 341.784C511.051 341.909 511.683 342.218 510.043 341.139C508.254 337.309 509.244 327.742 509.616 323.28Z"/><path fill="#F9B628" d="M351.856 431.624C355.002 432.036 366.143 436.267 368.663 438.926C369.092 440.787 368.962 440.202 368.266 442.282C365.107 441.662 353.77 437.112 351.313 435.318C350.818 433.851 351.308 433.106 351.856 431.624Z"/><path fill="#F9B628" d="M667.499 551.248C671.372 552.008 680.361 556.128 683.306 558.899C683.957 560.657 683.754 560.1 683.072 562.317C679.559 561.798 669.792 557.299 666.801 555.002C666.419 553.129 666.708 553.381 667.499 551.248Z"/><path fill="#F9B628" d="M352.427 551.902C353.527 551.915 353.641 552.062 354.736 552.381C355.54 553.527 355.351 552.9 355.105 554.358C352.529 557.358 345.03 560.374 341.165 562.138C340.655 562.203 340.066 562.099 339.526 562.047C338.282 560.66 338.575 561.433 338.435 559.726C339.882 557.284 349.385 553.4 352.427 551.902Z"/><path fill="#F9B628" d="M671.058 494.523C675.114 494.42 685.175 493.523 688.136 495.302C688.851 496.982 688.605 496.535 688.278 498.642C683.791 498.825 675.215 499.881 671.553 497.949C670.578 496.285 670.88 496.82 671.058 494.523Z"/><path fill="#F9B628" d="M334.002 494.516C338.035 494.454 348.647 493.501 351.403 495.371C352.104 496.949 351.885 496.452 351.494 498.482C347.172 498.591 337.41 499.427 334.293 497.701C333.35 495.913 333.614 496.905 334.002 494.516Z"/><path fill="#F9B628" d="M293.549 270.633C297.492 271.558 303.041 278.495 305.021 282.013C305.718 283.251 304.677 284.314 304.041 285.311C300.679 284.802 293.728 276.688 292.411 273.245C292.14 272.537 293.15 271.301 293.549 270.633Z"/><path fill="#F9B628" d="M626.931 209.716C629.09 210.716 628.335 209.987 629.566 211.675C629.875 215.911 626.01 223.801 623.604 227.112C622.257 226.377 621.683 226.246 621.051 224.859C620.901 220.553 624.452 213.069 626.931 209.716Z"/><path fill="#F9B628" d="M726.545 270.75C728.297 270.85 728.488 271.075 729.348 272.333C729.206 275.862 721.833 282.469 719.039 285.254C717.343 284.592 717.03 284.35 716.479 282.825C717.286 279.21 723.69 273.595 726.545 270.75Z"/><path fill="#F9B628" d="M790.517 608.776C794.102 609.224 802.192 612.525 804.953 615.184C805.542 617.046 805.35 616.474 804.591 618.733C800.457 618.289 793.514 615.227 790.227 612.359C789.505 610.556 789.727 611.143 790.517 608.776Z"/><path fill="#F9B628" d="M393.837 209.651L395.519 210.028C398.093 211.809 400.615 219.526 401.277 222.743C401.708 224.84 401.293 224.961 400.226 226.62L398.531 225.983C396.308 223.474 394.262 217.918 393.379 214.699C392.542 211.65 392.567 211.936 393.837 209.651Z"/><path fill="#F9B628" d="M509.769 186.742C511.176 186.865 512.566 186.79 513.092 188.331C514.297 191.866 514.181 201.006 512.773 204.283C510.744 204.017 511.139 204.369 509.798 203.243C508.18 199.623 508.629 190.39 509.769 186.742Z"/><path fill="#F9B628" d="M227.903 377.675C231.734 378.351 239.155 381.528 241.978 384.359C242.478 386.277 242.342 385.638 241.37 387.894C237.537 387.126 229.929 383.89 227.135 381.066C226.794 379.229 226.945 379.74 227.903 377.675Z"/><path fill="#F9B628" d="M792.632 377.865C794.784 378.264 795.159 378.871 794.975 380.747C792.854 383.44 785.594 386.128 782.135 387.603C781.229 387.55 780.907 387.34 780.014 387.037C779.215 385.714 779.364 386.427 779.697 384.8C782.004 381.971 789.049 379.376 792.632 377.865Z"/><path fill="#F9B628" d="M230.567 608.403C231.96 608.577 231.999 608.792 233.175 609.643L233.338 610.682C231.975 613.731 223.508 616.741 220.286 618.118C218.799 618.121 218.457 617.834 217.574 617.126L217.724 615.571C219.864 612.78 227.093 609.956 230.567 608.403Z"/><path fill="#F9B628" d="M813.182 494.531C817.184 494.328 826.074 493.263 828.941 495.334C829.635 496.974 829.414 496.476 829.081 498.519C825.284 499.116 816.913 499.681 813.581 497.893C812.643 496.299 812.943 496.786 813.182 494.531Z"/><path fill="#F9B628" d="M194.057 494.405C197.989 494.325 207.171 493.15 209.888 495.727C210.164 497.202 209.971 497.211 209.317 498.625C205.27 498.835 197.305 499.879 194.121 497.863C193.324 496.271 193.633 496.611 194.057 494.405Z"/></svg>