<?xml version="1.0" encoding="utf-8" ?><svg xmlns="http://www.w3.org/2000/svg" xmlns:xlink="http://www.w3.org/1999/xlink" width="1024" height="1024" viewBox="454 253 520 520"><path d="M806.306 399.182C814.178 399.137 835.117 398.533 841.902 399.961L842.849 400.712C849.461 406.018 848.916 419.738 849.963 428.942C857.632 431.344 863.031 433.878 870.251 437.259C875.535 433.589 891.072 417.913 897.236 423.111C905.794 430.33 921.795 442.939 926.261 453.053C928.355 457.793 914.527 473.841 911.114 478.322C914.949 485.725 916.945 490.279 919.609 498.357C944.763 503.161 949.645 494.888 949.692 524.074C949.744 556.264 949.55 552.169 919.913 555.654C917.151 563.391 915.15 568.75 911.156 576.067C915.714 581.924 931.584 598.443 924.131 605.491C916.076 613.108 904.196 628.336 893.875 631.832C889.552 633.296 874.42 620.008 870.255 616.724C863.209 620.494 857.507 622.984 849.937 625.478C848.642 636.077 850.931 655.414 836.625 655.515C826.083 655.456 814.569 655.982 804.195 655.316C793.613 654.637 793.953 633.48 793.388 625.714C785.116 622.553 780.732 621.236 772.814 616.657C765.983 621.858 750.446 638.319 742.701 628.75C736.006 620.478 711.12 606.469 717.625 594.681C719.953 590.463 728.56 580.213 732.085 575.864C727.968 568.661 725.968 563.535 723.433 555.659C716.516 554.93 704.679 553.948 698.179 551.283C695.559 550.209 693.495 543.512 693.651 540.689C694.204 530.737 691.422 513.722 695.946 505.007C698.519 500.049 717.522 499.523 723.297 498.404C725.264 491.388 728.482 484.69 731.925 478.302C727.269 472.232 719.496 463.865 716.64 456.806C715.909 455.001 717.075 450.909 718.413 449.235C725.394 440.586 734.47 433.076 742.613 425.495C744.557 423.685 750.361 421.265 752.936 422.77C759.917 426.852 765.873 432.701 772.484 437.549C779.097 434.273 786.148 431.032 793.302 429.198C793.891 424.512 794.231 419.56 794.691 414.844C795.533 406.207 796.529 400.153 806.306 399.182Z"/><path fill="#1272E7" d="M804.686 405.151C813.563 404.841 822.752 405.396 831.575 404.751C840.956 404.065 841.673 408.321 842.341 416.468C842.79 421.948 843.528 427.686 844.215 433.167C847.626 434.836 852.846 436.356 856.52 437.886C861.504 439.961 866.025 442.174 870.882 444.53C875.333 441.587 890.505 428.329 893.146 428.599C897.228 429.017 917.853 450.347 920.676 453.926C917.972 460.096 908.595 470.36 904.31 477.794C905.638 481.793 907.95 485.887 909.594 489.799C911.512 494.363 913.262 499.111 915.023 503.746C919.016 504.921 926.237 505.916 930.468 506.315C939.716 507.187 943.995 505.733 943.652 517.418C943.562 520.481 943.768 524.5 943.603 527.719C943.335 532.932 944.637 539.691 942.94 544.643C937.879 550.493 917.905 546.221 915.163 551.937C912.183 558.151 907.18 570.345 904.163 576.923C908.265 583.737 915.524 591.229 920.623 599.587C917.682 604.2 898.47 622.376 893.875 626.111C889.37 624.466 876.736 613.605 871.053 609.8C866.81 611.348 861.646 614.164 857.325 615.981C852.953 617.819 848.673 619.424 844.269 621.157C842.771 628.448 843.43 640.615 840.54 647.546C840.081 648.645 838.739 649.179 837.606 649.449C832.547 649.446 806.05 650.438 803.785 648.665C800.502 646.095 800.282 626.683 798.932 621.492C798.887 621.318 798.837 621.146 798.789 620.973C787.618 617.149 781.63 613.705 771.733 609.904C765.369 613.702 756.263 622.533 750.509 625.358C744.953 625.368 723.998 603.357 722.816 600.118C721.735 597.158 736.792 580.57 738.845 576.414C736.016 568.758 731.018 559.454 727.83 551.531C726.02 547.034 700.179 549.713 699.792 543.404C699.226 534.178 699.606 523.761 699.601 514.382C699.6 511.751 700.979 507.954 703.989 507.308C711.933 506.144 719.712 505.903 727.604 504.018L728.254 503.857C729.802 500.056 730.845 495.801 732.533 491.867C734.588 487.078 736.83 482.543 738.954 477.792C735.426 471.327 723.317 459.602 722.915 454.114C724.868 449.942 744.818 431.451 749.452 427.638C756.879 431.909 764.725 440.718 772.298 444.601C782.863 439.36 788.072 437.659 798.873 433.487C800.121 427.176 800.124 421.3 800.823 414.967C801.3 410.646 801.312 407.931 804.686 405.151Z"/><path d="M813.612 469.939C845.346 465.638 874.56 487.87 878.871 519.602C883.183 551.334 860.961 580.555 829.231 584.878C797.485 589.203 768.246 566.968 763.932 535.22C759.618 503.473 781.864 474.242 813.612 469.939Z"/><path fill="white" d="M815.557 475.896C843.89 472.654 869.51 492.931 872.864 521.251C876.217 549.57 856.041 575.27 827.735 578.736C799.271 582.221 773.395 561.907 770.023 533.429C766.651 504.951 787.066 479.156 815.557 475.896Z"/><path d="M625.399 490.243C637.373 490.535 645.72 485.673 645.491 501.418L652.447 504.453C655.46 502.113 658.494 499.802 661.549 497.518C665.919 500.719 673.601 508.612 677.265 512.768C675.698 517.042 673.684 519.231 670.874 522.771C671.772 524.771 672.635 526.91 673.492 528.939C675.514 529.266 682.319 530.17 683.635 531.423C686.177 533.842 686.23 549.092 684.473 551.919C683.131 554.076 675.823 554.145 673.218 554.212L670.504 560.995C672.047 562.677 676.928 568.006 676.65 569.684C676.031 573.431 664.68 583.552 661.981 585.73C658.719 583.905 655.9 581.228 653.078 578.755C650.307 580.366 648.562 580.881 645.537 581.934C645.493 584.623 645.882 590.534 643.963 592.577C642.733 593.887 641.266 593.541 639.377 593.607C627.647 594.312 621.063 596.82 620.807 582.706C618.689 581.578 616.286 580.027 614.208 578.761C611.093 581.171 607.954 583.549 604.792 585.896C599.596 581.605 592.996 575.254 588.752 570.1C590.836 567.198 593.75 563.756 596.023 560.912C594.949 559.011 593.895 556.615 592.949 554.609C588.767 554.321 585.288 553.948 581.209 553.06C581.035 549.653 580.828 545.801 580.563 542.418C579.656 530.855 583.29 530.262 593.413 529.464C593.988 527.116 594.701 524.974 595.435 522.676C592.603 519.359 591.184 517.451 589.093 513.665C591.821 509.606 600.289 501.243 604.438 498.347C608.366 500.286 610.158 502.078 613.423 504.966L620.688 501.913C620.648 499.026 620.298 494.167 621.905 491.69C622.901 490.155 623.587 490.46 625.399 490.243Z"/><path fill="#1272E7" d="M625.918 495.022C630.691 494.966 635.466 495.007 640.238 495.146C640.556 498.445 641.007 501.871 641.396 505.175C645.314 507.179 649.252 507.486 653.686 509.764C656.334 507.39 658.625 505.665 661.476 503.526C665.367 506.322 668.783 509.891 671.986 513.426C669.411 516.731 667.62 518.991 665.497 522.563C667.491 526.471 668.488 528.451 669.863 532.567C673.482 533.892 676.688 534.395 680.471 534.93C680.72 539.034 680.647 544.204 680.706 548.389C676.411 549.095 673.806 549.394 669.47 549.632C668.361 553.584 666.684 557.881 665.375 561.879C667.354 564.605 669.83 567.576 671.953 570.214C668.309 574.018 665.027 576.009 661.446 580.352C658.576 577.199 656.667 575.783 653.108 573.69C640.965 580.525 642.371 573.163 640.055 588.71C635.552 588.987 630.724 588.935 626.189 588.969C625.807 584.738 625.252 582.578 624.211 578.432C620.606 576.755 617.505 575.971 613.488 573.969C609.94 576.192 607.956 577.454 604.772 580.111C601.503 576.836 597.744 573.29 594.968 569.644C601.676 561.838 601.615 560.695 596.697 550.854C595.407 550.124 587.829 549.559 585.572 549.233C585.481 544.661 585.739 539.483 585.868 534.868C601.808 533.389 593.883 533.437 600.705 523.176L601.195 522.445C599.412 519.506 596.455 515.89 594.297 513.15C597.385 510.15 601.214 506.2 604.596 503.7L613.118 509.991C617.023 508.418 620.883 507.146 624.863 505.805L625.918 495.022Z"/><path d="M629.386 519.319C639.424 517.644 649.363 522.793 653.785 531.959C656.892 538.398 656.813 545.919 653.573 552.292C650.333 558.665 644.303 563.16 637.27 564.444C624.758 566.729 612.781 558.382 610.592 545.853C608.403 533.325 616.841 521.412 629.386 519.319Z"/><path fill="white" d="M629.866 524.103C639.62 522.262 649.03 528.645 650.926 538.389C652.822 548.133 646.492 557.578 636.759 559.529C626.948 561.496 617.41 555.104 615.499 545.282C613.588 535.46 620.033 525.959 629.866 524.103Z"/><path d="M628.133 364.678C643.227 363.797 662.97 371.107 669.631 385.692C676.588 400.67 668.609 415.067 663.823 429.157C659.063 443.169 658.111 455.871 642.867 462.775C631.815 466.502 618.686 463.357 613.413 452.136C608.304 441.263 615.919 428.713 613.155 417.815C610.842 408.695 603.38 400.481 601.929 390.878C599.749 373.845 613.475 366.179 628.133 364.678Z"/><path fill="#F6B23C" d="M626.219 369.597C639.419 368.663 654.86 372.209 663.076 383.472C673.257 397.429 664.992 412.251 659.904 426.115C655.393 438.407 655.414 449.259 643.784 457.329C633.605 464.065 616.699 457.702 616.338 444.437C616.077 434.858 619.864 426.081 617.819 416.896C615.971 408.597 609.249 401.402 607.372 393C603.566 377.766 613.154 372.188 626.219 369.597Z"/><path d="M587.775 618.62C598.993 617.38 602.979 620.228 610.593 627.804C616.003 622.411 620.304 618.622 628.63 618.338C634.426 618.141 640.113 620.446 644.147 624.661C648.242 629.021 650.433 634.83 650.237 640.808C649.826 654.181 638.262 664.648 629.201 672.894C623.289 678.057 617.114 682.91 610.701 687.435C594.933 676.912 562.17 652.221 573.073 629.801C575.896 623.997 581.818 620.578 587.775 618.62Z"/><path fill="#E57B8D" d="M610.728 635.739C616.174 628.884 618.313 623.676 628.416 623.021C638.173 622.389 645.419 630.659 645.294 640.073C645.146 651.221 636.294 659.275 628.994 666.638C623.222 671.971 617.081 676.756 610.933 681.645C596.635 671.865 566.157 649.292 579.243 629.179C581.71 625.388 585.988 623.954 590.21 623.155C601.145 622.724 604.613 627.784 610.728 635.739Z"/><path d="M509.203 571.121C526.844 569.521 542.487 582.418 544.28 600.041C546.073 617.664 533.347 633.447 515.745 635.432C504.186 636.736 492.818 631.728 485.978 622.319C479.138 612.911 477.881 600.553 482.686 589.96C487.492 579.366 497.618 572.172 509.203 571.121Z"/><path fill="#1272E7" d="M507.251 576.781C521.957 574.084 536.052 583.858 538.683 598.576C541.313 613.294 531.476 627.345 516.747 629.909C502.111 632.457 488.168 622.696 485.555 608.072C482.941 593.448 492.639 579.461 507.251 576.781Z"/><path d="M509.138 487.309C526.727 485.657 542.362 498.488 544.174 516.062C545.986 533.636 533.298 549.387 515.742 551.359C497.957 553.356 481.957 540.468 480.122 522.666C478.286 504.864 491.32 488.982 509.138 487.309Z"/><path fill="#1272E7" d="M508.162 492.802C522.949 490.585 536.711 500.835 538.821 515.637C540.932 530.439 530.583 544.127 515.766 546.131C501.099 548.114 487.58 537.893 485.491 523.241C483.402 508.589 493.526 494.996 508.162 492.802Z"/><path d="M507.037 403.19C524.507 400.402 540.951 412.241 543.848 429.694C546.745 447.146 535.008 463.663 517.574 466.669C499.986 469.7 483.291 457.837 480.369 440.231C477.446 422.624 489.413 406.003 507.037 403.19Z"/><path fill="#1272E7" d="M508.947 408.313C523.694 406.568 537.064 417.11 538.807 431.858C540.551 446.606 530.009 459.974 515.261 461.717C500.514 463.46 487.147 452.919 485.403 438.172C483.66 423.425 494.2 410.057 508.947 408.313Z"/><path d="M620.054 339.603C627.446 339.081 629.977 342.194 633.624 347.943C635.673 344.853 637.744 342.418 641.478 341.371C643.937 340.669 646.579 341.051 648.739 342.421C652.574 344.854 653.451 348.281 654.235 352.33C668.04 343.998 668.962 350.413 671.787 362.693L679.119 362.518C686.643 370.324 684.749 378.369 673.749 380.363C666.806 377.239 666.662 375.039 666.406 367.906L657.415 368.405C654.498 364.562 653.55 363.037 651.677 358.696C642.715 365.395 639.152 361.858 632.864 354.569C629.703 359.692 625.483 363.881 618.877 361.7C615.919 360.697 613.486 358.549 612.124 355.737C608.323 347.955 613.061 342.497 620.054 339.603Z"/><path fill="#F6B23C" d="M619.925 344.339C622.304 343.505 624.949 344.024 626.836 345.695C628.723 347.367 629.558 349.93 629.016 352.392C628.475 354.855 626.643 356.831 624.228 357.557C620.61 358.645 616.785 356.644 615.616 353.052C614.446 349.459 616.36 345.59 619.925 344.339Z"/><path fill="#F6B23C" d="M641.733 345.734C643.866 345.04 646.207 345.558 647.85 347.086C649.492 348.614 650.176 350.912 649.638 353.09C649.099 355.267 647.422 356.981 645.256 357.567C642.023 358.442 638.681 356.58 637.725 353.369C636.769 350.158 638.547 346.771 641.733 345.734Z"/><path fill="#F6B23C" d="M659.105 353.863C661.725 352.42 665.018 353.317 666.545 355.89C668.071 358.462 667.281 361.782 664.759 363.391C663.054 364.478 660.891 364.551 659.117 363.579C657.343 362.608 656.239 360.748 656.236 358.725C656.234 356.702 657.333 354.839 659.105 353.863Z"/><path fill="#F6B23C" d="M673.714 366.685C676.055 366.012 678.515 367.279 679.326 369.576C680.136 371.872 679.016 374.403 676.771 375.347C675.196 376.01 673.384 375.745 672.064 374.66C670.745 373.575 670.135 371.848 670.482 370.174C670.828 368.501 672.073 367.158 673.714 366.685Z"/><path d="M595.726 343.725C603.488 343.494 609.98 349.572 610.262 357.331C610.544 365.091 604.509 371.623 596.752 371.956C588.921 372.292 582.314 366.189 582.03 358.357C581.745 350.524 587.892 343.958 595.726 343.725Z"/><path fill="#F6B23C" d="M594.702 348.342C599.868 347.505 604.759 350.944 605.718 356.09C606.677 361.235 603.355 366.205 598.234 367.286C594.811 368.008 591.266 366.82 588.971 364.181C586.676 361.541 585.99 357.866 587.181 354.577C588.371 351.288 591.249 348.902 594.702 348.342Z"/></svg>