<?xml version="1.0" encoding="utf-8" ?><svg xmlns="http://www.w3.org/2000/svg" xmlns:xlink="http://www.w3.org/1999/xlink" width="1024" height="1024" viewBox="0 0 1024 1024"><path d="M622.877 490.647C627.686 490.614 632.442 490.367 637.243 490.125C645.728 489.697 645.41 495.142 645.585 501.688C647.822 502.54 650.25 503.629 652.476 504.569C655.701 502.179 658.125 499.965 661.583 497.599C664.996 500.66 675.111 509.644 676.763 513.269C676.405 516.499 672.748 520.195 670.541 522.878L673.522 529.338C676.79 529.794 681.669 530.163 684.399 531.712C686.01 534.719 685.888 548.236 684.825 551.83C682.018 553.978 676.824 553.869 673.107 554.139L670.265 561.095C673.281 564.413 675.242 566.536 677.181 570.593C673.438 574.825 666.312 582.114 661.98 585.58C658.211 583.654 656.222 581.765 653.002 579.037C650.616 580.232 648.094 581.096 645.59 582.032C645.372 585.939 645.362 589.787 643.625 593.317C639.067 593.643 629.91 594.112 625.419 593.498C621.142 592.912 621.114 586.027 620.852 582.447C618.447 581.52 615.799 580.164 613.449 579.04C610.413 581.547 608.073 583.446 604.838 585.661C601.028 582.89 591.869 574.227 588.99 570.423C590.647 567.368 593.346 564.2 595.546 561.433L592.984 554.657C588.621 554.236 585.825 553.917 581.56 553.028C581.182 549.27 579.695 535.141 582.099 532.561C584.662 529.811 589.372 530.087 592.914 529.86C593.616 527.637 594.791 524.954 595.683 522.751C593.569 520.258 590.535 517.138 589.569 514.153C590.626 510.552 600.812 500.945 604.268 498.898C606.918 498.711 611.253 503.07 613.482 504.976C615.529 503.953 618.34 502.911 620.511 502.035C620.766 498.219 620.495 493.415 622.877 490.647Z"/><path fill="#0B71EC" d="M625.623 494.936L640.428 494.982C640.961 497.966 641.266 502.009 641.585 505.107C645.664 506.582 649.216 508.02 653.21 509.719C655.622 508.143 658.95 505.326 661.293 503.454C665.005 506.76 668.656 510.132 672.245 513.57C669.833 516.645 667.638 519.387 665.498 522.655C667.525 526.636 668.496 528.984 669.902 533.179C673.324 534.071 677.443 534.528 680.996 535.018L681.077 548.917C676.927 549.146 674.026 549.554 669.951 550.265L665.344 561.662C667.078 564.27 670.04 567.495 672.158 569.939L661.366 580.371C658.202 577.589 656.624 576.349 653.127 574.011C649.155 575.828 645.854 577.101 641.747 578.621L640.406 588L640.344 588.33C638.986 589.595 628.612 589.083 626.05 589.054C625.611 585.12 625.325 582.488 624.425 578.657L612.991 574.224C609.804 576.219 607.85 577.846 604.924 580.241C601.616 576.842 597.811 573.338 594.363 570.036C596.989 567.044 598.409 565.228 600.693 561.966C599.096 558.052 597.805 554.809 596.508 550.797C592.211 549.871 590.04 549.615 585.634 549.292C585.53 544.526 585.527 539.759 585.627 534.993C589.206 534.656 592.78 534.261 596.346 533.807C597.582 529.917 599.321 526.189 600.97 522.451C598.873 519.649 596.359 516.639 594.144 513.9L604.644 503.662C607.405 506.145 610.076 507.942 613.107 510.073C616.958 508.393 620.849 506.805 624.776 505.311L625.623 494.936Z"/><path d="M628.409 519.578C640.846 516.985 653.008 525.038 655.478 537.5C657.947 549.961 649.775 562.044 637.289 564.39C624.977 566.704 613.099 558.669 610.663 546.38C608.228 534.092 616.145 522.134 628.409 519.578Z"/><path fill="white" d="M629.345 524.137C639.184 522.053 648.844 528.354 650.902 538.198C652.96 548.042 646.632 557.686 636.783 559.718C626.971 561.741 617.371 555.443 615.321 545.636C613.271 535.829 619.544 526.213 629.345 524.137Z"/><path d="M624.772 365.124C639.865 363.291 659.797 369.253 668.013 382.826C677.367 398.281 669.094 414.555 663.7 429.487C658.77 443.135 659.15 453.415 645.32 461.749C632.159 467.945 615.153 462.847 612.075 447.697C609.665 438.463 616.01 426.222 613.041 417.401C608.36 403.494 595.301 391.012 605.669 375.558C610.018 369.074 617.205 366.476 624.772 365.124Z"/><path fill="#F8B12F" d="M625.448 369.654C629.173 369.206 633.124 369.324 636.812 369.759C655.019 371.911 671.185 383.858 667.559 404.328C666.055 412.818 662.441 419.762 659.573 427.827C657.151 434.641 656.026 442.292 652.41 448.69C650.151 452.695 647.965 454.596 644.359 457.155C642.514 458.092 640.817 458.914 638.79 459.398C633.468 460.623 627.879 459.689 623.244 456.802C608.923 447.894 620.975 429.787 617.545 417.003C615.479 408.106 608.663 401.092 606.824 392.156C603.926 378.075 613.346 371.733 625.448 369.654Z"/><path d="M504.865 322.727C524.372 321.329 550.154 325.349 568.76 331.145C572.409 332.281 582.416 334.957 584.061 338.062C583.752 339.85 584.122 339.087 582.91 340.434C580.224 341.361 574.566 338.673 571.708 337.673C551.61 330.64 529.518 327.389 508.232 327.884C458.806 328.91 411.866 349.754 377.961 385.732C344.795 420.801 326.864 467.576 328.089 515.829C329 564.747 349.322 611.296 384.577 645.22C423.024 681.724 469.301 697.314 521.746 695.929C542.712 694.361 562.303 690.825 581.703 682.521C583.877 681.59 587.367 680.54 589.091 682.62C588.063 686.791 580.407 688.858 576.607 690.196C560.044 696.203 542.705 699.804 525.12 700.888C474.274 704.481 424.119 687.479 385.94 653.707C348.744 620.532 326.17 573.998 323.14 524.25C319.692 473.613 336.773 423.72 370.532 385.82C405.814 346.031 452.318 325.865 504.865 322.727Z"/><path d="M588.525 618.564C590.078 618.466 591.634 618.427 593.189 618.449C600.826 618.588 605.668 622.676 610.528 627.817C611.148 627.1 611.791 626.405 612.458 625.732C616.984 621.214 622.701 618.3 629.19 618.377C634.954 618.448 640.43 620.904 644.317 625.16C648.485 629.689 650.462 635.968 649.99 642.058C648.976 655.112 637.874 665.324 628.647 673.376C623.171 678.175 616.58 683.231 610.768 687.609C597.806 678.907 576.64 662.071 571.905 646.74C567.906 633.791 575.2 621.934 588.525 618.564Z"/><path fill="#EA788A" d="M610.548 635.456C612.165 633.491 614.175 630.715 615.751 628.943C618.975 625.335 623.515 623.176 628.348 622.951C632.809 622.794 637.134 624.505 640.279 627.672C643.648 631.069 645.521 635.671 645.48 640.455C645.394 651.473 635.866 660.218 628.494 667.295C623.064 672.222 616.567 677.237 610.806 681.904C597.803 672.893 567.335 650.683 577.704 631.261C580.125 626.726 584.638 624.478 589.409 623.063C601.013 622.346 603.93 627.145 610.548 635.456Z"/><path d="M510.556 571.167C528.234 570.314 543.297 583.866 544.312 601.535C545.326 619.205 531.913 634.391 514.254 635.567C496.364 636.759 480.937 623.132 479.909 605.233C478.881 587.334 492.648 572.031 510.556 571.167Z"/><path fill="#0B71EC" d="M507.175 576.769C521.864 574.066 535.975 583.743 538.746 598.42C541.517 613.096 531.905 627.251 517.241 630.09C502.482 632.946 488.214 623.258 485.425 608.486C482.636 593.713 492.391 579.49 507.175 576.769Z"/><path d="M507.226 487.666C524.727 484.977 541.109 496.944 543.87 514.433C546.631 531.923 534.733 548.354 517.255 551.188C499.674 554.038 483.125 542.055 480.348 524.462C477.57 506.87 489.622 490.371 507.226 487.666Z"/><path fill="#0B71EC" d="M507.725 492.737C522.438 490.324 536.336 500.254 538.82 514.955C541.305 529.656 531.444 543.601 516.755 546.158C501.964 548.732 487.901 538.787 485.399 523.984C482.897 509.181 492.91 495.167 507.725 492.737Z"/><path d="M507.752 403.195C525.364 400.809 541.569 413.174 543.917 430.792C546.266 448.409 533.867 464.587 516.245 466.899C498.675 469.204 482.556 456.85 480.214 439.285C477.872 421.72 490.192 405.574 507.752 403.195Z"/><path fill="#0B71EC" d="M508.634 408.247C523.513 406.32 537.117 416.873 538.95 431.764C540.783 446.655 530.144 460.192 515.242 461.931C500.473 463.654 487.082 453.13 485.266 438.372C483.449 423.614 493.888 410.157 508.634 408.247Z"/><path d="M621.353 339.635C628.391 340.048 630.715 342.966 633.467 348.905C635.188 345.184 637.583 342.408 641.769 341.498C644.29 340.943 646.928 341.449 649.064 342.897C652.926 345.518 653.459 348.441 654.22 352.562C656.901 350.402 660.995 348.052 664.698 348.896C671.485 350.442 670.125 359.772 671.727 362.419C674.166 363.87 678.213 361.022 680.961 364.597C687.256 372.785 681.903 380.789 672.056 379.716C664.266 376.038 668.159 371.342 665.855 367.995C664.276 368.21 660.338 368.763 658.904 368.514C653.871 367.641 653.629 360.929 651.647 358.406C643.735 365.228 637.483 362.281 632.892 353.772C632.559 354.622 632.172 355.451 631.732 356.251C630.246 358.964 627.881 360.953 624.859 361.719C621.86 362.453 618.692 361.955 616.062 360.338C613.496 358.798 611.69 356.258 611.079 353.329C609.508 345.69 614.346 341.091 621.353 339.635Z"/><path fill="#F8B12F" d="M620.205 344.253C623.94 343.245 627.787 345.451 628.803 349.185C629.819 352.918 627.62 356.77 623.889 357.793C620.147 358.82 616.282 356.614 615.263 352.869C614.244 349.125 616.458 345.264 620.205 344.253Z"/><path fill="#F8B12F" d="M642.01 345.75C645.304 344.904 648.667 346.858 649.564 350.137C650.462 353.417 648.562 356.811 645.296 357.759C643.138 358.387 640.809 357.802 639.203 356.229C637.597 354.657 636.963 352.341 637.545 350.17C638.127 347.998 639.833 346.309 642.01 345.75Z"/><path fill="#F8B12F" d="M659.288 353.84C662.018 352.521 665.301 353.61 666.7 356.3C668.099 358.989 667.107 362.303 664.46 363.781C662.677 364.776 660.494 364.723 658.762 363.642C657.029 362.561 656.022 360.624 656.131 358.586C656.241 356.547 657.45 354.729 659.288 353.84Z"/><path fill="#F8B12F" d="M672.958 366.818C674.517 366.105 676.34 366.291 677.723 367.303C679.107 368.315 679.836 369.996 679.629 371.697C679.423 373.399 678.313 374.857 676.727 375.508C674.34 376.489 671.607 375.379 670.581 373.012C669.554 370.644 670.611 367.89 672.958 366.818Z"/><path d="M675.492 420.238C679.092 421.21 682.726 430.465 684.32 434.01C694.733 456.646 700.475 481.15 701.202 506.056C702.467 543.128 692.8 579.752 673.404 611.37C669.476 617.758 663.917 625.998 658.859 631.425C657.358 630.717 656.613 630.242 656.072 628.745C656.27 625.801 659.759 621.503 661.649 619.133C667.765 611.459 672.463 602.941 676.833 594.155C697.674 552.186 701.771 503.861 688.294 458.983C686.485 453.183 684.413 447.468 682.084 441.857C679.689 436.211 675.202 429.337 673.802 423.497C673.537 422.394 674.749 421.099 675.492 420.238Z"/><path d="M593.139 344.17C600.728 342.471 608.257 347.247 609.952 354.837C611.647 362.426 606.867 369.952 599.277 371.643C591.692 373.333 584.173 368.557 582.479 360.974C580.785 353.39 585.557 345.869 593.139 344.17Z"/><path fill="#F8B12F" d="M595.055 348.231C600.327 347.578 605.149 351.274 605.886 356.536C606.623 361.797 603.004 366.677 597.755 367.497C594.284 368.04 590.791 366.67 588.615 363.913C586.439 361.155 585.918 357.439 587.252 354.19C588.587 350.941 591.569 348.663 595.055 348.231Z"/></svg>