<?xml version="1.0" encoding="utf-8" ?><svg xmlns="http://www.w3.org/2000/svg" xmlns:xlink="http://www.w3.org/1999/xlink" width="514" height="514" viewBox="257.2 204.6 513.5 513.5"><path d="M527.426 234.705C531.777 234.317 537.74 234.471 542.061 234.798C570.847 237.045 597.539 250.711 616.191 272.752C632.08 291.307 640.979 314.835 641.346 339.261C641.458 344.802 640.807 351.502 640.371 357.099C644.178 358.996 647.052 360.272 650.028 363.457C653.366 366.969 655.139 371.682 654.944 376.523C654.778 380.829 652.838 384.874 649.583 387.698C643.934 392.601 637.494 392.358 630.65 391.947C621.629 408.849 616.784 415.375 602.527 428.78C604.148 431.7 606.126 434.4 607.97 437.202C639.318 484.861 677.001 531.831 677.561 591.783C677.935 631.759 656.395 667.253 618.57 681.464C600.018 688.434 579.303 687.015 559.832 686.918L511.125 686.878L455.568 686.94C446.335 686.95 430.577 687.433 421.906 686.034C415.15 684.97 408.667 682.601 402.817 679.058C390.788 671.884 382.223 660.096 379.116 646.439C375.844 632.498 378.276 617.827 385.873 605.688C395.669 590.216 408.738 582.999 426.119 579.107C414.622 559.247 423.939 546.057 431.791 526.853C444.448 495.894 459.621 465.457 472.012 434.469C444.59 416.374 431.778 391.213 425.238 360.007C421.068 358.508 417.421 357.39 413.843 354.942C401.243 346.324 404.226 329.508 418.857 325.496C421.582 324.749 423.792 324.631 426.509 324.402C431.437 304.017 436.3 290.428 450.121 273.793C469.876 250.016 496.909 237.414 527.426 234.705Z"/><path fill="#FFFFFE" d="M531.011 237.71C534.87 237.535 540.305 237.843 544.128 238.198C571.817 240.951 597.268 254.62 614.856 276.182C635.815 301.77 640.191 327.303 637.011 359.119C640.943 361.084 644.553 362.71 647.681 365.999C652.722 371.301 653.697 380.133 647.609 385.102C641.882 389.777 636.012 389.068 629.177 388.4C621.097 401.296 618.947 408.265 606.653 420.193C585.254 440.955 561.924 450.425 532.434 450.536C487.548 450.744 444.128 418.371 432.178 375.06C430.513 369.027 429.201 363.313 427.924 357.184C418.373 354.473 403.115 348.058 411.577 334.08C414.748 328.842 423.194 327.92 428.965 327.308C434.816 305.463 438.252 292.291 454.111 274.147C474.296 251.054 500.704 239.687 531.011 237.71Z"/><path d="M511.346 343.666C517.568 342.479 525.417 344.569 530.413 348.184C551.365 363.348 540.812 398.827 516.08 402.718C506.187 404.274 499.762 401.346 492.227 395.846C486.447 391.018 454.219 364.554 452.913 360.495C453.141 359.92 453.13 359.845 453.576 359.293C457.42 354.546 503.29 344.844 511.346 343.666Z"/><path fill="#F46E21" d="M513.983 346.692C525.044 345.621 535.442 354.193 537.63 364.787C538.895 370.909 538.404 374.194 537.046 379.992L496.369 369.235C484.71 365.967 471.189 363.149 459.072 359.974C471.831 355.162 500.371 348.243 513.983 346.692Z"/><path fill="#F46E21" d="M460.501 364.327C465.159 364.604 476.731 367.892 481.594 369.026C499.581 373.223 517.676 378.739 535.612 382.891C533.448 387.682 532.28 389.341 528.666 393.142C523.881 397.055 518.85 399.597 512.534 399.95C508.403 400.179 504.284 399.316 500.592 397.447C493.482 393.89 467.783 370.776 460.501 364.327Z"/><path d="M594.739 346.62C597.629 346.872 599.15 353.147 602.582 356.162C611.52 364.012 617.106 352.051 621.576 351.642C622.552 352.784 622.188 352.129 622.325 353.816C611.277 367.26 592.882 361.095 594.739 346.62Z"/><path d="M452.614 318.165C456.501 318.466 455.379 321.763 459.073 325.22C461.868 328.134 463.827 329.306 467.789 329.66C473.423 330.163 476.275 322.127 480.205 322.49C481.128 323.731 480.827 323.01 480.765 324.846C479.932 325.911 479.02 326.911 478.035 327.838C468.882 336.407 451.575 331.548 452.614 318.165Z"/><path fill="#F8B52F" d="M428.132 582.091C430.023 582.204 436.931 589.033 443.009 589.795C453.076 591.056 459.09 588.206 467.12 582.964L521.252 582.709C532.205 582.661 544.739 582.05 555.448 583.542C574.732 586.228 591.368 600.835 596.419 619.504C600.005 632.877 598.076 647.129 591.064 659.067C583.432 672.042 572.925 678.928 558.566 682.671C549.86 684.065 538.232 683.677 529.18 683.663L488.756 683.625L448.284 683.703C440.681 683.717 430.69 684.2 423.291 683.134C403.238 680.244 386.769 665.392 382.217 645.516C379.287 632.351 381.684 618.561 388.884 607.155C398.56 591.882 411.26 585.854 428.132 582.091Z"/><path fill="#FFFFFE" d="M599.696 431.037C602.702 434.288 612.584 449.616 615.304 453.843C623.581 466.711 633.441 480.379 641.142 493.489C637.437 497.111 631.756 501.406 627.418 504.444C589.036 531.314 541.992 535.839 496.911 528.037C498.851 524.07 504.703 513.378 504.351 509.889L503.582 509.495C499.506 512.079 475.632 567.336 468.368 576.824C460.535 585.273 448.747 589.759 437.785 584.376C431.886 581.463 427.4 576.309 425.326 570.066C421.006 557.188 427.747 544.916 432.656 533.178C437.536 521.611 442.51 510.085 447.577 498.599C456.012 479.32 465.875 454.801 474.911 436.383C488.108 444.231 497.504 448.695 512.994 451.756C537.557 456.674 563.068 452.697 584.968 440.534C589.707 437.926 595.151 434.101 599.696 431.037Z"/><path fill="#1173F1" d="M642.721 496.344C645.263 498.918 648.831 506.287 650.634 509.785C637.336 527.203 626.759 542.16 619.01 563.062C606.304 597.338 607.459 642.683 622.613 676.034C601.02 684.464 591.134 684.183 568.283 683.592C597.504 669.99 609.668 638.656 596.063 609.252C593.447 604.252 590.667 600.016 586.73 595.947C579.593 588.599 570.508 583.439 560.542 581.073C550.291 578.565 532.414 579.411 521.379 579.431C504.472 579.531 487.564 579.519 470.657 579.396C475.672 572.981 478.98 565.131 482.575 557.77C486.852 548.882 491.229 540.042 495.706 531.252C546.903 541.164 603.137 532.026 642.721 496.344Z"/><path fill="#9ACDEE" d="M652.203 513.846C652.564 514.253 653.258 515.009 653.509 515.489C680.988 567.922 687.714 634.613 632.04 671.305C629.849 672.645 627.789 673.577 625.48 674.681C618.543 662.392 614.86 637.572 614.033 623.273C611.958 583.21 625.661 543.928 652.203 513.846Z"/><path d="M309.502 298.636C340.205 296.865 362.637 327.108 372.386 354.403C372.604 355.014 372.102 355.243 371.662 355.698C369.302 355.223 360.968 350.77 358.442 349.503C350.483 345.977 339.077 342.656 330.363 342.058C319.39 341.305 309.413 346.17 298.839 339.527C294.073 336.533 290.734 331.186 289.598 325.724C288.376 319.991 289.529 314.008 292.792 309.139C296.865 303.047 302.525 300.037 309.502 298.636Z"/><path fill="#9ACDEE" d="M308.912 302.082C337.304 299.652 357.088 326.51 367.144 349.782C363.155 347.851 359.092 346.077 354.964 344.465C346.297 341.465 341.096 339.83 331.83 338.859C322.5 337.717 311.856 341.949 303.011 338.103C293.504 333.968 289.525 321.788 294.596 312.775C298.207 306.359 302.282 304.116 308.912 302.082Z"/><path d="M321.812 387.674C333.469 386.412 346.208 388.007 357.644 390.514C361.422 391.342 370.614 392.844 372.841 395.758C372.292 397.922 365.905 399.318 363.581 400.041C346.04 405.5 335.722 412.992 324.359 427.005C319.862 432.733 315.379 437.687 307.645 438.843C302.695 439.592 297.652 438.318 293.652 435.307C283.685 427.893 282.194 413.175 289.821 403.462C297.864 393.22 309.318 389.392 321.812 387.674Z"/><path fill="#9ACDEE" d="M324.366 390.698C335.189 389.065 354.243 393.026 365.134 395.571C361.31 397.436 355.734 399.062 351.554 400.966C337.755 407.251 329.612 415.139 320.408 426.649C313.998 434.726 304.566 439.474 295.406 432.325C291.618 429.37 289.145 425.042 288.522 420.278C286.121 400.636 308.803 392.279 324.366 390.698Z"/><path d="M382.852 426.454C384.454 426.693 383.757 426.369 384.974 427.543C385 430.08 379.54 445.531 378.873 451.634C377.014 463.282 384.855 476.128 377.906 487.025C370.673 498.367 358.192 498.935 347.882 492.638C345.333 490.575 343.207 488.038 341.621 485.168C327.1 459.28 364.136 436.343 382.852 426.454Z"/><path fill="#9ACDEE" d="M379.793 432.002C380.106 433.799 376.189 446.813 375.62 450.996C373.683 462.251 381.601 475.953 374.405 486.185C368.001 495.292 357.375 495.221 349.115 489.369C347.233 487.465 345.636 485.3 344.372 482.941C332.949 461.251 363.828 440.244 379.793 432.002Z"/><path d="M704.44 276.615C712.705 275.724 719.947 276.753 724.514 284.74C728.637 291.949 726.241 300.484 719.66 305.313C713.682 309.701 705.845 308.104 698.837 309.442C693.093 310.538 689.501 312.059 684.324 314.813C681.239 316.63 673.413 322.079 670.593 322.949L669.763 322.271C668.943 318.264 676.132 301.57 678.709 297.307C685.178 286.609 692.336 279.876 704.44 276.615Z"/><path fill="#9ACDEE" d="M705.472 279.556C712.799 279.014 719.222 280.21 722.128 287.204C728.827 303.323 710.401 305.951 699.115 306.249C695.831 306.336 689.649 308.736 686.78 310.063C681.864 312.53 678.181 314.767 673.511 317.628C679.036 300.317 686.779 284.543 705.472 279.556Z"/><path d="M331.51 538.003C333.075 539.095 332.563 538.404 333.258 540.017C332.077 546.672 329.471 553.51 327.905 560.141C324.298 575.419 315.874 591.542 297.749 580.684C295.598 578.925 293.353 575.952 292.406 573.374C284.784 552.646 318.265 542.735 331.51 538.003Z"/><path fill="#1173F1" d="M327.312 542.946L328.248 542.915L328.566 543.45C327.93 546.635 327.264 549.777 326.43 552.913C322.968 565.928 318.617 588.6 299.927 578.174C297.892 576.349 296.406 574.464 295.479 571.875C289.668 555.641 317.051 546.716 327.312 542.946Z"/><path d="M369.991 582.932C373.334 585.779 368.483 602.874 367.987 607.619C366.355 623.235 356.212 638.435 339.116 627.973C318.156 606.172 354.212 590.335 369.991 582.932Z"/><path fill="#1173F1" d="M366.249 588.368L367.18 588.412L367.517 589.203C365.731 602.212 363.206 639.606 340.867 625.063C323.784 608.546 354.542 593.943 366.249 588.368Z"/><path d="M692.695 378.69C727.565 372.793 745.666 407.368 719.631 412.913C704.304 413.347 705.095 399.397 694.491 391.6C690.946 388.993 682.293 384.885 680.401 382.723L680.525 381.565C682.77 379.289 689.281 379.073 692.695 378.69Z"/><path fill="#9ACDEE" d="M692.098 381.616C704.609 380.578 728.327 382.239 728.417 401.103C728.43 403.976 726.043 406.581 723.838 408.287C706.47 415.419 706.411 392.324 693.048 386.956C692.021 386.544 688.386 383.866 687.745 383.055C688.822 381.893 690.426 381.898 692.098 381.616Z"/><path d="M364.874 530.581C366.987 530.442 369.819 530.446 371.834 530.867C376.858 531.916 396.718 537.219 399.186 540.849C398.68 543.094 383.742 552.814 380.754 554.896C377.896 556.813 375.658 558.36 372.374 559.55C364.139 562.532 355.097 559.08 352.468 550.293C351.341 546.412 351.79 542.244 353.715 538.692C356.286 533.938 360.007 532.037 364.874 530.581Z"/><path fill="#1173F1" d="M366.49 533.589C373.98 533.21 387.128 538.466 394.223 541.247C389.066 544.767 383.657 548.807 378.556 552.473C372.943 556.151 367.152 559.675 360.519 555.597C357.864 553.962 355.972 551.336 355.261 548.3C354.58 545.339 355.106 542.229 356.722 539.656C359.096 535.856 362.399 534.603 366.49 533.589Z"/></svg>