<?xml version="1.0" encoding="utf-8" ?><svg xmlns="http://www.w3.org/2000/svg" xmlns:xlink="http://www.w3.org/1999/xlink" width="1024" height="1024" viewBox="0 0 1024 1024"><path fill="#071016" d="M508.839 271.939C510.588 265.422 521.616 223.101 523.836 221.055C527.901 223.148 551.203 256.282 555.903 262.141C560.566 258.986 563.158 255.43 566.969 251.936C574.045 245.449 587.687 229.839 594.926 224.691C596.292 233.633 597.748 244.483 598.649 253.475C655.219 255.031 695.019 294.34 703.794 349.04C710.109 349.725 715.21 351.433 719.391 356.713C722.329 360.381 723.61 365.106 722.927 369.756C721.255 380.691 711.804 384.923 701.805 385.133C697.267 405.108 689.89 418.161 676.746 433.797C692.693 433.112 708.987 433.765 724.969 433.481C728.247 433.423 732.274 433.344 735.518 433.577C736.129 442.955 735.791 455.225 735.793 464.809L735.794 519.907C735.827 573.248 741.084 612.626 719.175 662.669C711.735 680.037 701.586 696.115 689.106 710.302C648.961 755.952 595.34 779.286 535.238 782.3C496.96 784.219 464.522 780.944 428.563 767.918C415.692 763.446 398.328 753.988 386.922 746.43C371.035 736.67 355.168 721.8 343.142 707.55C291.388 646.224 296.828 584.535 297.068 510.504L297.178 462.31C297.166 453.967 296.753 441.471 297.436 433.532C302.334 433.376 307.671 433.516 312.603 433.573C362.419 434.15 412.544 432.759 462.327 433.909C462.945 428.921 464.841 421.938 466.026 416.873L472.322 389.589C467.442 389.287 451.991 385.5 446.315 384.592C441.615 383.84 425.913 380.958 422.326 379.557C431.563 369.041 451.093 355.801 461.268 345.888C460.955 344.297 460.293 344.12 458.931 342.715C457.155 341.463 450.777 336.084 449.389 334.613C446.047 331.07 424.53 314.154 424.536 311.878C429.224 307.802 465.278 304.594 473.401 300.996C470.79 293.722 468.498 283.337 466.5 275.77C465.223 270.935 461.438 259.008 461.306 254.539L462.423 253.976C466.74 254.035 471.863 256.813 475.918 258.668C483.917 261.688 491.864 264.843 499.758 268.13C500.889 268.592 508.417 271.823 508.839 271.939Z"/><path fill="#5BABDA" d="M302.99 605.717C341.766 609.762 377.436 628.774 402.411 658.711C425.876 687.356 440.466 729.357 434.994 766.384C433.449 765.948 430.277 765.154 428.906 764.616L428.563 767.918C415.692 763.446 398.328 753.988 386.922 746.43L389.34 744.288C357.725 723.145 332.368 694.711 317.367 659.685C312.681 648.743 308.661 638.081 306.294 626.326C304.968 619.494 303.866 612.621 302.99 605.717Z"/><path fill="#100B09" d="M389.34 744.288C400.441 751.007 416.389 760.472 428.906 764.616L428.563 767.918C415.692 763.446 398.328 753.988 386.922 746.43L389.34 744.288Z"/><path fill="#F1B339" d="M525.049 227.091C530.675 233.696 547.982 256.313 551.991 263.678C524.379 277.777 506.402 297.253 496.011 327.091C494.506 331.411 492.102 341.021 491.814 345.574L492.32 346.32C491.089 352.43 491.585 358.437 490.925 364.517C490.832 368.993 492.614 379.644 492.374 381.416C490.529 382.699 491.127 381.89 490.29 383.746C491.067 383.947 494.008 384.587 494.06 385.155C494.492 389.868 503.32 409.398 503.232 412.04C504.086 413.89 504.114 413.079 503.905 414.752C501.293 416.958 470.906 431.19 466.123 432.966C468.312 419.191 472.616 402.883 475.894 389.109C474.452 389.207 473.68 389.14 472.322 389.589C467.442 389.287 451.991 385.5 446.315 384.592C441.615 383.84 425.913 380.958 422.326 379.557C431.563 369.041 451.093 355.801 461.268 345.888C460.955 344.297 460.293 344.12 458.931 342.715C457.155 341.463 450.777 336.084 449.389 334.613C446.047 331.07 424.53 314.154 424.536 311.878C429.224 307.802 465.278 304.594 473.401 300.996C470.79 293.722 468.498 283.337 466.5 275.77C465.223 270.935 461.438 259.008 461.306 254.539L462.423 253.976C466.74 254.035 471.863 256.813 475.918 258.668C483.917 261.688 491.864 264.843 499.758 268.13C500.889 268.592 508.417 271.823 508.839 271.939C506.227 273.528 504.838 271.348 504.474 272.285L505.797 272.622L505.388 273.462L505.913 273.749C506.526 274.089 506.31 273.925 506.665 274.234C508.647 275.212 509.178 275.432 511.289 276.052C515.249 261.646 520.047 241.027 525.049 227.091Z"/><path fill="#F0D9BF" d="M492.374 381.416C472.22 383.436 468.097 354.636 490.581 352.717C490.568 356.726 490.479 360.521 490.925 364.517C490.832 368.993 492.614 379.644 492.374 381.416Z"/><path fill="#100B09" d="M458.931 342.715C461.993 342.519 461.344 344.868 464.205 346.04L464.907 345.707C463.368 342.836 461.708 343.606 460.676 340.486C462.735 342.108 464.921 343.762 466.874 345.496C456.731 355.014 438.414 368.244 429.86 378.031C435.113 379.22 474.062 386.131 475.612 387.475L475.894 389.109C474.452 389.207 473.68 389.14 472.322 389.589C467.442 389.287 451.991 385.5 446.315 384.592C441.615 383.84 425.913 380.958 422.326 379.557C431.563 369.041 451.093 355.801 461.268 345.888C460.955 344.297 460.293 344.12 458.931 342.715Z"/><path fill="#281B0F" d="M473.401 300.996C474.294 303.449 473.707 303.007 475.506 304.05C461.68 307.438 444.266 310.109 430.051 312.948C437.241 321.178 447.183 327.562 455.04 335.34C456.419 336.705 459.646 339.254 460.676 340.486C461.708 343.606 463.368 342.836 464.907 345.707L464.205 346.04C461.344 344.868 461.993 342.519 458.931 342.715C457.155 341.463 450.777 336.084 449.389 334.613C446.047 331.07 424.53 314.154 424.536 311.878C429.224 307.802 465.278 304.594 473.401 300.996Z"/><defs><linearGradient id="gradient_0" gradientUnits="userSpaceOnUse" x1="492.19885" y1="367.52399" x2="472.45258" y2="364.28946"><stop offset="0" stop-color="#190F07"/><stop offset="1" stop-color="#351C08"/></linearGradient></defs><path fill="url(#gradient_0)" d="M493.388 385.519C483.7 385.111 474.41 381.527 472.111 370.971C471.092 366.226 472.026 361.271 474.705 357.224C477.296 353.254 481.086 350.455 485.937 349.962C491.03 349.444 490.548 349.851 491.814 345.574L492.32 346.32C491.089 352.43 491.585 358.437 490.925 364.517C490.479 360.521 490.568 356.726 490.581 352.717C468.097 354.636 472.22 383.436 492.374 381.416C490.529 382.699 491.127 381.89 490.29 383.746C491.067 383.947 494.008 384.587 494.06 385.155C494.492 389.868 503.32 409.398 503.232 412.04C498.143 402.553 496.28 395.734 493.388 385.519Z"/><defs><linearGradient id="gradient_1" gradientUnits="userSpaceOnUse" x1="465.94727" y1="279.70792" x2="480.63898" y2="274.19485"><stop offset="0" stop-color="black"/><stop offset="1" stop-color="#3E3326"/></linearGradient></defs><path fill="url(#gradient_1)" d="M473.401 300.996C470.79 293.722 468.498 283.337 466.5 275.77C465.223 270.935 461.438 259.008 461.306 254.539L462.423 253.976C466.74 254.035 471.863 256.813 475.918 258.668L475.299 259.446C475.566 260.686 475.767 260.639 475.424 261.833C472.135 260.641 468.861 259.409 465.602 258.137C467.139 265.591 468.924 272.991 470.953 280.326C472.342 285.278 476.455 298.695 476.704 303.209C475.908 303.969 476.33 303.723 475.506 304.05C473.707 303.007 474.294 303.449 473.401 300.996Z"/><defs><linearGradient id="gradient_2" gradientUnits="userSpaceOnUse" x1="493.76566" y1="275.70456" x2="484.91635" y2="255.21681"><stop offset="0" stop-color="#1F1000"/><stop offset="1" stop-color="#472E1D"/></linearGradient></defs><path fill="url(#gradient_2)" d="M475.424 261.833C475.767 260.639 475.566 260.686 475.299 259.446L475.918 258.668C483.917 261.688 491.864 264.843 499.758 268.13C500.889 268.592 508.417 271.823 508.839 271.939C506.227 273.528 504.838 271.348 504.474 272.285L505.797 272.622L505.388 273.462L505.913 273.749C506.526 274.089 506.31 273.925 506.665 274.234C496.467 270.403 485.319 266.321 475.424 261.833Z"/><path fill="#9ACFE6" d="M300.639 436.986L596.584 436.874L685.724 436.981C700.2 436.96 718.201 435.886 732.561 436.831C732.467 446.557 732.525 456.284 732.736 466.009L657.971 465.949C647.551 465.976 636.937 465.615 626.646 466.061C615.745 466.535 609.353 475.93 609.811 486.209C609.928 488.845 610.279 492.665 609.81 495.176C608.898 495.845 609.352 495.642 608.502 495.896C609.224 496.821 608.785 496.458 609.813 496.993C608.615 498.4 605.831 498.177 603.448 498.439L610.051 498.549C609.815 518.297 604.889 540.154 632.02 540.3L700.461 540.132C710.387 540.122 722.847 539.773 732.614 540.255L732.633 574.486C732.659 583.348 732.835 593.591 731.989 602.337C690.146 606.701 654.014 625.564 627.506 658.339C608.683 682.03 597.426 710.837 595.201 741.013C594.628 749.805 595.235 759.218 595.695 768.057C548.136 781.77 502.444 783.607 454.326 772.349C448.976 771.097 443.722 769.431 438.428 768.174C438.694 761.597 439.597 756.627 439.423 749.718C438.482 712.32 425.68 680.052 401.004 651.945C377.66 625.356 337.964 604.02 302.228 602.385C301.003 589.322 300.672 578.004 300.601 564.895C300.565 558.159 300.902 546.545 300.228 540.214C300.573 538.552 300.88 538.336 302.112 537.149L300.512 536.463L300.566 469.508C300.439 461.122 299.842 444.842 300.639 436.986Z"/><path fill="#5BABDA" d="M300.639 436.986L596.584 436.874L685.724 436.981C700.2 436.96 718.201 435.886 732.561 436.831C732.467 446.557 732.525 456.284 732.736 466.009L657.971 465.949C647.551 465.976 636.937 465.615 626.646 466.061C615.745 466.535 609.353 475.93 609.811 486.209C609.928 488.845 610.279 492.665 609.81 495.176C608.898 495.845 609.352 495.642 608.502 495.896C605.169 495.276 594.015 495.472 590.102 495.471L555.958 495.473L489.891 495.332C477.852 495.299 464.595 495.017 452.67 495.417L452.089 495.471C447.718 495.846 425.077 495.585 422.968 496.742C427.564 498.782 437.261 496.65 442.798 498.338C436.292 498.375 429.197 498.284 422.74 498.531C422.84 506.051 423.322 517.659 422.805 524.865C421.477 531.387 416.373 539.212 409.119 539.793C398.841 540.617 388.05 540.172 377.705 540.143L327.381 540.096C318.695 540.103 308.758 539.882 300.228 540.214C300.573 538.552 300.88 538.336 302.112 537.149L300.512 536.463L300.566 469.508C300.439 461.122 299.842 444.842 300.639 436.986Z"/><path fill="#9ACFE6" d="M300.566 469.508L375.528 469.531C381.416 469.532 389.609 469.867 395.317 469.439C423.716 467.306 419.46 481.022 419.684 503.642C421.749 506.498 418.542 519.782 420.381 523.48C420.913 524.552 421.25 523.473 422.459 524.817L422.805 524.865C421.477 531.387 416.373 539.212 409.119 539.793C398.841 540.617 388.05 540.172 377.705 540.143L327.381 540.096C318.695 540.103 308.758 539.882 300.228 540.214C300.573 538.552 300.88 538.336 302.112 537.149L300.512 536.463L300.566 469.508Z"/><path fill="#071016" d="M419.684 503.642C421.749 506.498 418.542 519.782 420.381 523.48C420.913 524.552 421.25 523.473 422.459 524.817L422.805 524.865C421.477 531.387 416.373 539.212 409.119 539.793C398.841 540.617 388.05 540.172 377.705 540.143L327.381 540.096C318.695 540.103 308.758 539.882 300.228 540.214C300.573 538.552 300.88 538.336 302.112 537.149L300.512 536.463C323.98 537.025 348.25 536.257 371.801 536.501C383.578 536.145 396.034 537.24 407.743 536.327C422.477 535.179 419.675 513.423 419.684 503.642Z"/><defs><linearGradient id="gradient_3" gradientUnits="userSpaceOnUse" x1="367.84525" y1="528.74719" x2="359.80051" y2="459.65369"><stop offset="0" stop-color="#000208"/><stop offset="1" stop-color="#0A202F"/></linearGradient></defs><path fill="url(#gradient_3)" d="M300.566 469.508C300.439 461.122 299.842 444.842 300.639 436.986C301.083 446.357 300.734 456.303 300.845 465.75L374.542 465.85C385.923 465.827 397.399 465.589 408.759 466.068C411.681 466.191 415.503 469.275 417.553 471.166C424.994 478.03 422.889 486.422 422.996 495.334C429.956 495.225 446.417 494.655 452.67 495.417L452.089 495.471C447.718 495.846 425.077 495.585 422.968 496.742C427.564 498.782 437.261 496.65 442.798 498.338C436.292 498.375 429.197 498.284 422.74 498.531C422.84 506.051 423.322 517.659 422.805 524.865L422.459 524.817C421.25 523.473 420.913 524.552 420.381 523.48C418.542 519.782 421.749 506.498 419.684 503.642C419.46 481.022 423.716 467.306 395.317 469.439C389.609 469.867 381.416 469.532 375.528 469.531L300.566 469.508Z"/><path fill="#100B09" d="M452.67 495.417C464.595 495.017 477.852 495.299 489.891 495.332L555.958 495.473L590.102 495.471C594.015 495.472 605.169 495.276 608.502 495.896C609.224 496.821 608.785 496.458 609.813 496.993C608.615 498.4 605.831 498.177 603.448 498.439C598.777 498.772 590.22 498.502 585.154 498.502L548.626 498.488L442.798 498.338C437.261 496.65 427.564 498.782 422.968 496.742C425.077 495.585 447.718 495.846 452.089 495.471L452.67 495.417Z"/><path fill="#100B09" d="M516.282 590.719C519.831 590.805 525.723 594.479 528.519 596.71C538.422 604.614 547.512 611.898 544.673 625.884C557.912 630.959 565.003 636.736 563.401 652.101C572.509 655.814 580.866 662.061 581.299 672.777C582.323 698.125 545.508 700.741 527.643 701.846C509.377 702.452 454.106 701.07 465.487 668.641C467.921 661.705 474.973 657.073 481.627 654.387C480.022 641.156 485.068 634.589 497.528 630.836C494.764 610.615 514.468 617.077 517.543 601.751C518.047 599.241 515.378 594.653 516.282 590.719Z"/><path fill="#966633" d="M558.747 656.029C567.709 654.909 579.842 667.63 577.208 676.795C576.473 681.249 572.678 686.643 568.454 688.808C545.672 700.487 512.315 699.421 488.249 694.088C480.665 691.898 471.552 688.852 468.591 680.667C467.301 677.112 467.509 673.185 469.169 669.787C472.192 663.653 477.832 660.353 483.987 658.149C498.687 662.265 523.325 662.948 538.38 660.796C545.314 659.805 552.04 657.988 558.747 656.029Z"/><path fill="#966633" d="M542.821 629.526C550.444 631.874 559.375 637.919 559.865 646.691C560.218 652.993 554.586 653.164 549.666 654.385C534.835 658.067 519.668 658.593 504.539 657.144C500.837 656.876 487.861 655.875 485.775 653.44C484.998 650.049 485.267 646.933 486.683 643.667C492.357 630.578 508.15 636.599 519.273 635.363C529.278 634.25 533.69 633.173 542.821 629.526Z"/><path fill="#966633" d="M521.57 596.78C527.793 600.989 546.66 614.786 540.53 624.812C538.005 628.943 525.03 630.271 520.117 630.927C515.922 631.2 505.672 632.322 502.231 629.752C499.205 627.072 502.417 621.645 504.765 619.905C515.585 611.887 522.408 611.98 521.57 596.78Z"/><path fill="#F0D9BF" d="M588.613 257.293C595.299 256.644 602.033 256.65 608.718 257.311C675.196 264.502 718.461 335.674 694.443 397.894C689.963 409.5 680.74 426.173 670.821 433.947C664.513 433.201 652.665 433.497 646.072 433.516L606.987 433.542L522.82 433.544C505.692 414.885 497.017 396.666 494.539 371.313C491.864 343.668 500.218 316.087 517.78 294.572C536.119 272.395 560.208 260.103 588.613 257.293Z"/><path fill="#DD8982" d="M534.663 375.811C540.637 374.632 542.791 374.146 548.639 377.651C552.187 379.777 554.698 383.772 555.409 387.868C556.151 392.214 555.113 396.675 552.529 400.246C548.098 406.321 543.249 407.029 536.372 407.304C531.406 404.873 527.631 402.345 525.238 397.039C518.284 390.552 525.368 374.886 534.663 375.811Z"/><path fill="#EDC5AF" d="M525.238 397.039C518.284 390.552 525.368 374.886 534.663 375.811C525.735 380.461 521.861 386.975 525.238 397.039Z"/><path fill="#DD8982" d="M653.012 375.171C661.697 374.032 669.665 380.136 670.827 388.817C671.99 397.499 665.908 405.484 657.229 406.669C648.518 407.86 640.496 401.749 639.329 393.035C638.163 384.32 644.295 376.314 653.012 375.171Z"/><path fill="#100B09" d="M607.327 279.599L609.137 280.268C611.702 284.367 605.587 293.864 602.445 296.677C598.552 300.223 593.342 301.958 588.1 301.455C583.779 301.071 577.136 298.666 574.332 295.201L574.768 294.301C578.579 291.625 579.856 296.243 585.275 291.254C588.114 287.167 588.735 282.542 591.206 280.88L591.838 281.071C594.056 287.294 587.263 293.896 582.876 297.294C600.337 298.877 602.399 295.451 607.327 279.599Z"/><path fill="#100B09" d="M579.985 400.257C582.252 401.014 587.805 406.088 593.924 407.423C606.666 410.202 611.796 400.598 615.599 401.106C616.523 402.557 616.294 401.766 616.16 403.598C607.349 412.226 589.198 414.767 579.649 403.674C578.691 402.562 579.448 401.398 579.985 400.257Z"/><path fill="#100B09" d="M645.245 352.633C650.032 352.531 657.856 354.741 660.095 359.368L659.416 360.512C656.719 360.815 652.423 357.434 648.891 356.443L648.378 356.438L647.523 356.441C637.565 356.418 638.879 361.158 633.034 360.783L632.569 360.016C634.351 354.897 640.394 353.224 645.245 352.633Z"/><path fill="#281B0F" d="M546.853 352.666C551.32 352.407 561.502 354.641 562.098 359.843C559.402 361.01 555.931 358.11 552.459 356.814L551.9 356.611C542.713 356.18 542.186 359.714 535.992 360.146L535.478 359.503L535.655 358.391C538.05 355.088 542.957 353.372 546.853 352.666Z"/><defs><linearGradient id="gradient_4" gradientUnits="userSpaceOnUse" x1="624.50781" y1="278.45062" x2="614.6911" y2="301.76471"><stop offset="0" stop-color="black"/><stop offset="1" stop-color="#2A2420"/></linearGradient></defs><path fill="url(#gradient_4)" d="M626.215 278.622C631.216 280.697 627.786 288.39 625.924 291.557C622.235 297.827 617.86 300.068 611.138 301.681C609.426 300.606 609.57 301.072 609.009 299.553C611.294 294.606 621.429 302.391 626.215 278.622Z"/><path fill="#281B0F" d="M595.072 370.564C599.264 369.985 606.154 371.802 603.757 377.132L602.561 377.378C600.945 376.899 600.586 376.102 599.616 374.831C599.062 374.29 598.643 374.222 597.87 373.875C595.265 374.482 594.612 375.839 591.343 376.42L590.913 375.87C591.59 373.431 593.168 372.029 595.072 370.564Z"/><path fill="#5BABDA" d="M726.79 606.184C728.439 605.951 729.076 605.725 730.674 606.243C731.341 608.956 729.769 615.66 729.224 618.622C725.697 637.784 719.592 654.896 710.684 672.205C691.235 709.406 660.171 739.239 622.215 757.17C615.434 760.44 609.315 763.42 602.124 765.722C600.969 766.087 600.978 766.058 599.781 766.236C597.869 764.503 598.486 754.514 598.458 751.532C598.473 719.406 609.1 688.184 628.687 662.72C652.586 631.599 687.88 611.259 726.79 606.184Z"/><path fill="#9ACFE6" d="M624.553 469.586C636.072 468.98 652.591 469.474 664.456 469.482C687.175 469.406 709.894 469.46 732.612 469.643C732.105 491.198 732.523 514.834 732.601 536.477C728.69 536.561 724.656 536.533 720.734 536.557L658.064 536.594C651.42 536.612 627.697 537.6 622.854 535.705C619.121 534.263 616.129 531.375 614.556 527.695C611.312 520.109 614.179 492.699 613.362 483.3C612.796 476.78 618.971 471.876 624.553 469.586Z"/><path fill="#F0D9BF" d="M704.191 352.408C717.982 353.605 725.192 367.246 714.598 378.028C710.436 381.123 707.77 381.396 702.887 381.863C704.552 372.68 704.605 361.751 704.191 352.408Z"/><path fill="#FDFEFD" d="M506.377 417.568C510.14 420.596 513.684 429.128 514.9 433.881C504.292 433.462 493.335 433.725 482.694 433.837C479.589 433.747 476.691 433.819 473.589 433.893C479.307 429.761 498.655 421.381 506.377 417.568Z"/><path fill="#F1B339" d="M592 232.925C594.12 234.981 595.017 250.312 595.089 253.837C584.841 254.265 579.106 255.034 569.284 257.519C568.164 257.91 567.824 257.95 566.642 258.143C566.856 255.916 588.344 235.969 592 232.925Z"/></svg>