<?xml version="1.0" encoding="utf-8" ?><svg xmlns="http://www.w3.org/2000/svg" xmlns:xlink="http://www.w3.org/1999/xlink" width="1024" height="1024" viewBox="0 0 1024 1024"><path d="M476.799 262.597C500.078 261.168 525.447 263.262 548.963 262.475C562.454 262.023 564.473 279.433 566.682 289.42L572.552 315.795C592.232 321.268 602.737 326.276 620.809 335.693C634.838 327.786 648.117 317.726 662.62 310.974C665.328 310.072 672.46 310.331 674.692 312.259C693.288 328.31 710.569 346.764 728.118 364.011C734.474 370.258 730.307 380.431 726.441 386.724C719.67 397.744 713.155 409.35 706.446 420.416C708.667 425.393 712.03 431.225 714.485 436.427C719.487 447.026 722.556 456.08 725.901 467.229C733.509 468.945 741.127 470.618 748.754 472.249C756.549 473.882 766.601 474.786 773.619 478.475C776.778 480.135 778.817 483.505 779.773 486.86C781.147 491.681 781.151 555.162 780.351 562.241C780.096 564.505 779.258 566.862 778.082 568.808C776.576 571.3 774.559 573.01 771.927 574.22C765.446 577.2 757.405 578.071 750.425 579.502C742.231 581.195 734.052 582.956 725.888 584.786C721.945 600.895 714.399 617.175 706.296 631.596C711.126 640.935 717.119 649.82 722.633 658.774C725.54 663.496 729.112 668.383 730.76 673.716C732.023 677.805 731.385 682.443 729.269 686.145C726.836 690.402 683.036 733.335 676.604 738.349C674.951 739.637 672.933 740.502 670.907 741.001C667.648 741.803 664.571 741.45 661.437 740.295C655.266 738.02 649.546 733.665 643.99 730.164L621.231 715.936C603.229 725.407 592.383 730.333 572.691 735.932C569.27 750.392 566.38 766.794 561.81 780.999C560.423 785.31 555.223 787.749 551.098 789.137C547.082 789.628 540.622 789.44 536.405 789.432L512.09 789.376C503.597 789.358 494.993 789.372 486.581 789.509C477.897 789.651 469.649 789.408 465.738 780.218C463.359 774.625 462.175 767.906 460.769 761.99C458.744 753.472 456.611 744.874 455.015 736.276C435.973 730.5 424.02 725.37 406.681 715.871C396.963 721.421 373.281 738.517 364.587 741.008C360.517 742.174 355.966 741.337 352.374 739.178C347.786 736.419 303.945 693.367 300.147 688.649C298.615 686.768 297.518 684.572 296.936 682.217C294.68 673.022 302.319 663.354 306.981 655.807L321.625 631.915C312.509 615.77 306.704 602.853 301.98 584.757C287.402 580.848 268.469 578.804 254.379 573.568C251.843 572.626 247.919 567.237 247.764 564.526C246.379 539.728 247.315 514.442 247.438 489.574C247.505 476.23 264.447 475.301 274.178 473.227L301.65 467.252C306.865 449.185 312.248 436.967 321.492 420.647C316.612 412.431 311.682 404.245 306.702 396.09C303.507 390.801 299.531 385.238 297.559 379.365C296.015 374.767 295.998 370.193 298.337 365.852C300.205 362.384 344.619 318.69 350.44 314.049C352.338 312.535 354.367 311.515 356.725 310.903C359.191 310.262 362.34 310.223 364.796 310.91C370.761 312.577 376.814 317.293 382.067 320.547C390.269 325.628 398.413 330.833 406.769 335.656C423.219 326.685 436.77 320.953 454.831 316.017C457.214 305.722 459.446 295.359 461.836 285.069C464.399 274.036 464.449 266.251 476.799 262.597Z"/><path fill="#9FD3F0" d="M477.459 274.543C482.438 273.879 545.69 273.956 549.888 275.08C554.064 278.853 558.937 315.651 562.578 322.724C564.099 325.961 571.534 328.476 575.047 329.012C591.2 331.476 607.029 344.107 620.894 348.681C624.86 347.33 629.603 344.165 633.31 342.012C643.192 336.276 652.725 329.918 662.494 324.022C663.65 323.325 666.068 321.97 667.286 322.448C668.955 323.098 670.948 324.345 672.241 325.606C686.978 339.974 701.469 354.63 716.103 369.105C717.377 370.364 718.604 372.335 719.38 373.946C718.623 380.063 696.756 410.363 693.165 419.994C695.895 428.154 702.956 438.641 706.692 447.425C709.213 453.352 714.506 473.166 717.457 476.197C722.772 481.654 764.989 485.151 767.749 489.985C768.437 491.191 768.482 493.22 768.544 494.601C768.826 500.93 769.113 559.572 768.308 561.203C765.399 567.1 727.671 570.237 719.631 574.096C715.314 576.168 714.779 581.198 713.491 585.376C710.714 594.388 707.615 603.403 703.402 611.86C700.254 618.179 695.775 624.541 693.478 631.177C693.415 631.359 693.358 631.543 693.298 631.726C696.068 640.404 719.778 673.901 719.194 678.442C718.162 680.137 716.77 682.208 715.35 683.605C702.549 696.199 689.799 708.848 677.048 721.493C674.086 724.43 671.656 727.042 668.03 729.17C664.091 729.927 655.836 723.472 652.244 721.239C645.705 717.099 639.232 712.869 632.663 708.772C629.057 706.523 624.006 702.516 619.537 703.807C614.425 705.285 609.787 708.563 605.005 710.904C600.564 713.078 596.156 715.316 591.558 717.154C582.988 720.904 573.296 722.529 564.945 726.396C561.268 728.098 559.596 739.227 558.772 742.866C556.993 750.71 555.258 758.563 553.565 766.426C552.875 769.572 552.164 774.385 550.338 776.945C547.544 777.686 543.74 777.571 540.82 777.539C521.629 777.329 502.451 777.433 483.261 777.607C481.357 777.624 479.673 777.285 477.894 776.648C474.103 772.529 468.181 736.144 465.021 729.307C463.308 725.6 457.268 724.383 453.378 723.201C443.131 720.089 433.909 716.704 424.303 711.866C418.706 709.047 412.251 704.768 406.65 702.628C399.157 705.142 380.61 718.387 372.904 722.955C369.153 725.179 366.065 727.912 361.585 729.573C355.781 728.888 335.441 705.436 329.651 700.749C327.431 697.98 307.724 680.947 308.663 678.085C313.592 663.053 330.301 645.739 333.866 631.038C334.162 629.819 323.003 608.932 321.29 605.19C319.436 601.193 317.852 597.077 316.546 592.869C315.144 588.485 313.697 580.485 311.259 576.842C306.618 569.905 267.576 568.246 259.87 562.386C257.884 557.089 259.348 531.682 259.004 524.427C259.252 514.05 258.44 500.542 259.424 490.615C259.835 486.472 302.855 480.535 308.066 477.945C309.937 477.015 311.696 475.852 312.081 473.939C316.082 454.047 326.447 438.239 334.499 420.446C330.147 407.868 316.08 390.685 309.707 378.001C309.112 376.816 307.973 374.748 308.499 373.409C309.195 371.641 310.659 369.887 311.93 368.507C317.43 362.538 355.316 324.725 359.926 322.79C361.096 322.298 361.9 322.586 363.022 323.083C366.56 324.65 369.899 327.043 373.187 329.086C382.357 334.783 396.593 344.636 406.06 348.573C406.257 348.655 406.456 348.731 406.655 348.81C410.422 347.597 415.965 344.283 419.631 342.328C424.181 339.91 428.839 337.701 433.59 335.708C437.547 334.035 441.555 332.412 445.641 331.08C450.895 329.367 458.195 328.343 462.741 325.312C469.1 321.071 472.181 281.364 476.842 275.287C477.038 275.031 477.253 274.791 477.459 274.543Z"/><path d="M504.066 373.462C588.232 368.04 660.864 431.859 666.312 516.023C671.761 600.187 607.965 672.839 523.803 678.314C439.603 683.792 366.911 619.961 361.46 535.759C356.009 451.558 419.863 378.886 504.066 373.462Z"/><path fill="white" d="M502.584 385.429C580.104 379.204 648.004 436.975 654.276 514.491C660.547 592.007 602.818 659.942 525.306 666.261C447.727 672.585 379.721 614.796 373.443 537.213C367.166 459.629 424.997 391.659 502.584 385.429Z"/><path d="M505.575 421.704C525.747 420.131 545.951 424.339 563.818 433.835C583.646 444.42 599.537 461.109 609.139 481.431C612.065 487.76 613.749 493.404 615.816 500.026C620.085 500.778 624.015 502.173 627.652 504.548C633.796 508.52 638.062 514.819 639.469 521.999C640.925 529.222 639.379 536.726 635.186 542.784C630.105 550.111 623.54 553.275 615.132 554.931C611.712 568.001 605.611 580.218 597.216 590.805C578.458 614.663 553.098 626.993 523.373 630.445C471.185 632.754 427.522 606.266 412.31 555.098C401.176 552.743 391.692 546.021 388.44 534.653C386.385 527.471 387.362 519.761 391.146 513.319C395.941 505.294 402.704 501.836 411.458 499.811C415.394 485.023 422.475 471.259 432.216 459.458C451.029 436.917 476.528 424.353 505.575 421.704Z"/><path fill="#FBE7C4" d="M509.865 433.211C549.764 430.722 589.775 457.371 602.104 495.483C604.769 503.722 604.185 511.055 614.302 511.815C630.938 512.633 632.777 539.074 617.422 541.886C602.182 544.677 606.611 547.489 601.067 560.948C586.459 596.406 555.158 615.791 519.094 618.904C481.293 619.887 447.48 601.991 429.747 568.027C427.32 563.379 422.745 547.637 420.77 545.296C418.827 542.991 409.006 542.801 404.568 539.185C401.458 536.651 399.942 532.968 399.606 529.033C397.952 509.669 416.218 514.213 420.353 509.893C422.6 507.545 426.283 492.484 428.094 488.321C431.785 479.841 437.219 471.583 443.339 464.663C460.6 445.149 484.106 434.836 509.865 433.211Z"/><path d="M528.506 449.433C535.186 449.495 536.758 453.658 536.147 459.786C535.483 466.677 532.02 472.994 526.568 477.26C517.165 484.649 504.394 484.144 493.204 482.839L492.86 482.765C489.134 481.998 485.84 479.401 486.681 475.257C488.512 468.278 499.6 471.934 504.697 471.82C512.072 471.655 520.06 471.092 523.142 463.15C525.494 457.091 522.717 453.915 528.506 449.433Z"/><path d="M493.857 561.501C504.229 561.378 500.458 571.996 510.597 574.359C521.488 576.898 523.656 567.342 530.61 562.15C531.454 561.52 533.421 561.171 534.385 561.69C540.44 565.212 537.539 570.335 535.498 574.492C533.907 576.714 532.767 578.145 530.723 580C525.548 584.663 518.66 586.951 511.723 586.313C502.463 585.517 489.702 577.519 490.143 566.369C490.232 564.123 492.139 562.741 493.857 561.501Z"/><path d="M556.512 521.199C560.96 519.834 565.681 522.291 567.115 526.717C568.549 531.144 566.167 535.902 561.763 537.406C558.853 538.399 555.633 537.747 553.338 535.699C551.044 533.652 550.031 530.526 550.689 527.522C551.346 524.518 553.572 522.101 556.512 521.199Z"/><path d="M466.313 521.208C470.773 519.847 475.492 522.358 476.856 526.817C478.219 531.277 475.711 535.998 471.252 537.364C466.79 538.731 462.065 536.22 460.7 531.757C459.336 527.294 461.849 522.57 466.313 521.208Z"/><path d="M226.503 337.634C244.962 320.458 273.741 331.183 272.678 357.187C272.022 373.23 257.46 387.65 246.251 397.908C241.143 402.265 234.659 407.985 228.707 410.928C225.118 412.703 217.251 406.119 214.539 403.845C200.181 391.811 179.91 375.584 180.025 354.997C180.098 341.722 189.059 332.715 201.541 329.589C212.09 328.598 218.693 330.55 226.503 337.634Z"/><path fill="#EC7F8B" d="M244.792 341.151C245.997 341.072 247.206 341.084 248.409 341.189C252.159 341.542 255.983 343.806 258.088 346.837C270.506 364.714 238.769 389.354 226.787 398.257C220.59 393.788 215.568 389.583 209.916 384.527C200.453 375.723 177.845 349.781 203.628 341.442C213.074 338.387 218.203 347.599 223.966 352.589C228.952 356.907 234.048 346.315 237.56 344.133C240.548 342.189 240.949 342.019 244.792 341.151Z"/><path fill="#1876EA" d="M698.054 252.991C704.557 252.881 714.613 258.183 720.583 261.203C748.762 275.142 772.631 296.466 789.647 322.901C804.922 346.516 813.907 374.16 816.731 402.062C817.41 408.773 818.866 414.494 812.256 418.274C803.997 418.692 803.984 413.132 803.806 406.485C803.579 398.027 802.07 389.204 800.15 380.962C796.733 366.142 791.238 351.879 783.83 338.597C771.06 315.579 752.802 296.072 730.677 281.809C724.225 277.572 717.43 273.882 710.362 270.779C704.209 268.016 683.903 261.743 698.054 252.991Z"/><path fill="#1876EA" d="M214.971 649.524C226.582 648.645 224.161 662.036 226.079 671.214C237.252 724.692 275.327 769.158 326.784 787.594C333.911 790.147 339.038 795.634 330.678 801.167C325.771 802.238 317.119 797.745 312.52 795.745C287.976 785.073 266.063 768.742 248.832 748.251C230.695 726.308 218.433 700.116 213.196 672.133C212.192 667.049 210.614 660.498 211.026 655.407C211.279 652.27 212.606 651.347 214.971 649.524Z"/><path fill="#1876EA" d="M691.56 291.522C697.626 291.021 703.112 294.998 708.232 297.79C726.469 307.733 741.916 321.437 753.891 338.447C766.982 356.835 775.331 378.17 778.199 400.559C779.027 407.258 781.184 413.362 774.745 417.512C772.442 417.887 767.804 417.354 767.166 414.762C765.653 408.615 765.458 402.028 764.36 395.735C762.255 383.767 758.343 372.188 752.759 361.394C742.13 340.577 725.503 323.181 705.527 311.148C699.62 307.59 677.341 300.864 691.56 291.522Z"/><path fill="#1876EA" d="M253.376 649.057C263.384 647.926 262.604 655.051 263.961 663.039C269.632 696.407 291.884 725.68 320.85 742.621C326.665 746.022 333.745 747.579 338.831 751.966C342.656 755.426 339.751 759.45 336.151 761.827C331.132 763.123 326.619 759.899 322.177 757.766C286.338 740.552 259.465 706.425 251.557 667.406C250.098 660.211 246.971 654.365 253.376 649.057Z"/></svg>