<?xml version="1.0" encoding="utf-8" ?><svg xmlns="http://www.w3.org/2000/svg" xmlns:xlink="http://www.w3.org/1999/xlink" width="1024" height="1024" viewBox="0 0 1024 1024"><path d="M413.609 362.192C425.424 361.506 442.142 368.193 450.287 377.023C452.054 378.938 452.534 381.216 453.135 383.684C464.91 390.625 470.552 395.051 480.774 403.869C486.004 401.145 490.717 398.921 496.587 398.624C514.59 397.711 521.185 414.669 514.437 429.373C512.817 432.903 510.025 436.32 510.22 440.104C511.372 442.173 511.986 442.523 514.754 442.479C551.753 441.891 589.056 439.556 626.021 440.985C637.492 441.428 650.191 442.124 661.374 444.538C673.364 447.134 684.826 451.749 695.269 458.185C717.697 472.186 730.207 490.466 736.137 515.88C753.269 524.304 766.628 532.429 780.576 545.778C826.958 590.17 825.306 659.99 780.18 705.182C770.821 714.708 759.997 722.674 748.119 728.779C712.92 747.154 679.717 743.558 641.25 743.537L451.197 742.979L389.626 742.774C373.476 742.638 356.725 743.003 340.845 740.203C322.244 736.835 304.635 729.338 289.315 718.263C263.252 699.767 245.603 671.675 240.252 640.167C236.011 613.752 239.641 588.482 252.332 564.709C256.319 557.241 261.137 550.792 266.1 543.972C265.732 543.6 264.222 541.963 263.953 541.533C257.878 531.811 253.02 514.354 254.101 502.894C254.284 500.963 258.033 494.753 258.113 493.397C258.585 485.418 258.697 478.283 259.793 470.357C264.211 437.798 281.487 408.364 307.76 388.632C335.994 367.414 369.31 360.025 403.983 364.873C407.637 363.282 409.725 362.676 413.609 362.192Z"/><path fill="#2878E3" d="M736.882 520.568C751.804 526.715 768.086 538.595 779.31 549.824C844.836 615.384 800.938 718 715.839 736.542C696.726 740.707 678.273 739.604 658.796 739.586L595.816 739.519L468.59 739.052C434.861 739.112 401.133 738.95 367.406 738.568C330.506 738.019 300.3 727.007 274.301 699.999C253.121 677.775 241.599 648.069 242.255 617.375C243.131 591.376 252.534 565.207 270.208 545.892C273.252 551.161 276.165 557.957 279.232 563.537C284.452 573.036 289.025 578.755 295.826 586.811C289.851 598.506 287.797 605.728 294.516 617.207C295.934 619.629 293.935 626.248 298.158 629.738C306.623 636.735 320.537 638.552 331.379 638.72C373.293 639.37 417.395 638.81 459.109 636.548C462.747 638.99 467.483 641.356 471.933 641.983C493.714 645.055 518.238 640.425 540.006 638.167C550.406 637.088 560.783 636.53 570.972 635.89C607.141 690.537 669.258 652.186 713.676 633.207C723.019 643.309 743.184 666.332 758.246 659.958C778.6 651.343 760.136 614.371 754.161 600.867C749.975 591.409 745.415 581.005 738.272 573.852C736.709 572.287 732.635 570.735 730.461 569.933C735.959 553.258 738.521 538.046 736.882 520.568Z"/><path fill="#F6DAC6" d="M452.033 387.432C462.89 393.483 470.952 400.085 480.036 408.226C490.224 403.403 507.87 396.183 512.81 413.307C515.229 421.692 509.492 431.085 505.089 438.142C506.118 440.154 507.117 442.181 508.087 444.222C522.101 474.128 522.832 510.332 511.626 541.262C499.597 575.184 474.395 602.821 441.724 617.92C411.35 631.999 381.768 632.839 350.488 621.518C343.013 618.664 336.342 614.927 329.29 611.235C319.137 618.785 300.661 627.266 294.678 608.177C292.608 601.571 297.091 592.641 300.764 586.881C297.693 582.829 294.337 579.159 291.275 575.09C284.244 565.746 279.49 556.667 275.19 545.878C280.174 540.959 285.24 534.793 290.002 529.475C298.002 520.555 306.124 511.746 314.365 503.048C331.391 485.066 351.394 467 370.255 450.834C385.442 437.908 401.074 425.515 417.123 413.677C425.305 407.687 445.312 393.799 452.033 387.432Z"/><path fill="#E77F84" d="M385.346 572.835C396.953 571.305 407.594 579.496 409.084 591.108C410.575 602.72 402.348 613.333 390.731 614.784C379.17 616.228 368.619 608.049 367.135 596.493C365.651 584.937 373.795 574.358 385.346 572.835Z"/><path fill="#E77F84" d="M473.115 470.052C484.532 468.33 495.203 476.132 497.025 487.534C498.847 498.936 491.139 509.675 479.753 511.596C468.227 513.542 457.325 505.716 455.48 494.173C453.635 482.63 461.556 471.796 473.115 470.052Z"/><path d="M450.537 456.326C457.406 459.674 452.236 476.788 446.859 481.055C439.371 486.998 435.97 487.69 426.951 487.74C425.776 487.095 425.406 486.61 425.185 485.421C428.374 481.973 437.867 485.151 444.791 477.732C452.521 469.45 446.149 460.774 450.537 456.326Z"/><path d="M374.996 542.191C382.243 544.478 380.136 573.092 353.878 573.808C352.443 573.38 352.425 573.479 351.333 572.501C352.207 567.79 363.367 571.034 369.649 563.814C377.258 555.068 370.962 547.38 374.996 542.191Z"/><path d="M456.549 541.642L457.998 542.17C462.908 548.638 447.905 565.431 443.482 569.748C442.231 569.148 442.58 569.282 441.53 568.244C441.062 564.859 448.043 559.733 450.136 556.553C453.133 552.001 453.698 545.828 456.549 541.642Z"/><path d="M422.447 525.568C424.423 525.715 425.236 525.97 426.279 527.6C424.947 529.878 421.184 530.056 418.603 530.792C416.978 532.587 417.435 535.972 417.527 538.406C415.731 538.588 416.609 538.685 414.825 537.919C412.599 535.447 414.022 531.83 415.637 529.416C417.46 526.694 419.375 526.129 422.447 525.568Z"/><path fill="#9BCFEE" d="M573.167 444.774C595.405 443.603 627.148 444.397 648.687 446.178C649.922 454.918 651.472 463.256 652.555 472.132C656.035 498.958 656.902 526.058 655.143 553.052C654.527 562.376 653.485 571.667 652.021 580.896C651.547 583.954 649.16 596.456 649.248 598.453C650.045 599.054 650.483 599.513 651.821 599.048C656.474 597.428 661.586 595.517 666.2 593.87C678.636 589.429 691.116 585.109 703.638 580.913C711.34 578.349 720.038 574.636 728.14 574.077C731.336 573.856 733.901 575.095 736.184 577.29C745.693 586.426 763.135 628.654 763.611 641.952C763.761 646.141 763.194 651.157 760.072 654.27C758.101 656.235 755.377 657.074 752.633 656.98C738.499 656.494 723.568 638.267 714.574 628.518C708.275 630.635 701.337 634.563 694.946 637.342C663.856 650.86 624.075 672.04 591.488 651.559C576.823 642.342 570.205 629.65 566.591 613.304C577.427 582.53 587.348 550.533 598.606 520.063C599.406 517.747 601.578 513.388 599.458 511.669C595.783 512.701 590.648 530.84 589.134 535.286L575.166 576.641C570.385 590.844 565.938 605.302 559.866 619.018C555.496 628.89 550.334 632.425 539.622 633.87C519.479 636.56 496.273 640.465 476.132 638.69C454.573 636.789 448.737 615.761 468.508 606.437C470.237 605.482 474.894 600.66 476.486 600.236C487.639 597.263 503.226 597.702 514.593 597.451C515.731 593.568 520.013 573.384 520.233 570.203C520.942 559.966 534.018 511.025 531.774 503.683L531.039 503.43C527.643 506.805 523.983 530.746 522.734 537.185L511.756 593.496C501.818 593.645 491.887 594.103 481.978 594.87C494.009 582.788 503.773 568.645 510.807 553.113C526.889 518.03 526.782 482.357 513.416 446.506C530.095 445.085 555.771 445.237 573.167 444.774Z"/><path fill="#9BCFEE" d="M411.404 366.093C423.947 365.291 433.665 369.562 444.066 376.236C445.939 377.438 450.929 382.844 448.698 384.978C441.273 392.08 431.604 398.355 423.189 404.466C371.855 441.126 324.974 483.65 283.496 531.176C281.371 533.683 275.438 541.367 272.686 542.168C266.021 544.11 261.985 528.128 260.821 524.434C258.777 517.951 255.587 504.377 259.573 498.277C264.7 490.429 272.027 482.262 278.284 475.32C310.465 440.097 346.52 408.62 385.764 381.488C392.582 376.712 403.949 367.987 411.404 366.093Z"/><path fill="white" d="M652.539 446.852C682.168 449.389 713.651 470.32 726.357 497.342C737.563 521.174 734.826 546.132 726.123 570.213C719.971 571.708 714.284 573.526 708.244 575.408C689.896 581.517 671.632 587.874 653.457 594.48C655.459 585.532 656.453 576.364 657.522 567.274C662.326 526.442 659.183 487.275 652.539 446.852Z"/><path fill="#9BCFEE" d="M375.777 367.198C381.473 366.284 393.206 367.164 399.018 367.71C351.463 400.4 311.468 432.157 272.891 475.718C269.294 479.683 265.522 484.419 262.066 488.57C262.672 469.968 265.172 454.601 273.038 437.58C292.449 395.58 330.467 371.345 375.777 367.198Z"/><path fill="#9BCFEE" d="M329.572 615.57C372.989 639.656 409.642 638.201 453.274 616.435C452.402 623.674 452.668 626.457 456.286 632.701C450.006 633.159 443.176 633.353 436.875 633.534C415.718 634.405 394.058 634.553 372.847 635.009C355.931 635.373 337.696 635.661 320.885 634.038C315.032 633.473 304.16 630.979 300.653 626.01C299.708 624.671 298.47 622.779 298.759 621.043C300.372 621.612 305.697 623.495 307.218 623.621C315.933 624.339 323.018 620.431 329.572 615.57Z"/><path d="M527.411 309.138C532.598 309.101 552.246 308.595 556.086 309.653L556.364 310.381C554.704 315.692 539.303 335.686 535.001 342.159C539.813 342.225 557.171 340.81 559.857 343.48L559.854 345.502C555.117 345.546 534.039 346.086 530.638 345.15L530.088 344.063C530.572 340.741 548.217 317.443 551.518 312.49C545.634 312.497 533.186 312.927 528.075 312.293C527.09 311.088 527.439 311.112 527.411 309.138Z"/><path d="M567.415 273.959C572.105 273.911 593.568 273.285 596.824 274.395C596.858 274.531 596.913 274.663 596.927 274.803C597.29 278.326 578.86 302.246 575.634 307.062C582.026 307.297 593.462 306.454 599.773 307.923C600.376 308.063 600.603 309.404 600.859 310.193C596.741 310.688 574.36 310.787 570.93 309.994L570.6 309.386C572.413 303.933 587.506 284.374 591.864 277.421C585.246 277.259 574.803 277.618 568.547 276.895C567.328 275.853 567.718 276.06 567.415 273.959Z"/><path d="M489.366 344.722C494.095 344.674 514.559 343.666 516.894 345.927C516.822 349.003 498.937 372.966 495.888 377.496C500.265 377.539 516.949 376.698 519.614 378.655C519.954 380.095 520.007 379.393 519.316 380.815C515.217 380.855 492.356 381.745 490.894 379.787C490.769 376.958 508.787 353.17 511.778 348.196C507.681 348.037 490.907 348.898 488.791 346.934C488.675 345.267 488.44 345.966 489.366 344.722Z"/><path fill="#F6DAC6" d="M556.699 366.827C557.994 370.588 558.067 374.752 560.123 378.507C562.612 383.054 569.712 383.429 574.872 384.89C570.102 386.182 565.297 387.015 560.796 388.903C559.444 392.421 558.443 398.172 557.172 402.253C555.462 396.381 555.819 393.875 552.449 388.213C548.624 386.958 542.275 385.631 538.09 384.475C542.62 383.388 549.035 382.135 553.062 380.03C554.99 375.378 555.572 371.702 556.699 366.827Z"/><path fill="#F6DAC6" d="M451.724 289.37C453.522 291.869 453.868 300.259 454.349 301.547C455.602 304.9 466.382 306.67 470.009 307.409C455.039 310.453 455.401 309.729 452.202 324.599C451.222 323.246 449.493 314.981 448.46 311.94C443.53 309.428 438.989 309.001 433.779 306.946C449.129 304.254 448.378 304.776 451.724 289.37Z"/><path fill="#F6DAC6" d="M526.131 252.83C527.66 256.943 527.622 261.815 529.987 265.436C532.44 269.192 540.069 269.725 544.541 270.461C538.846 271.816 535.686 271.939 530.297 274.485C528.808 278.57 528.378 282.806 526.872 287.125C525.331 283.481 524.649 278.809 522.51 273.852C518.224 272.533 513.569 271.474 509.189 270.425C524.944 264.517 521.41 271.316 526.131 252.83Z"/></svg>