<?xml version="1.0" encoding="utf-8" ?><svg xmlns="http://www.w3.org/2000/svg" xmlns:xlink="http://www.w3.org/1999/xlink" width="614" height="614" viewBox="207.8 204.6 614.1 614.1"><path d="M504.171 336.702C517.89 334.732 540.697 337.812 553.707 341.792C587.687 351.887 616.221 375.15 632.954 406.4C652.008 442.478 652.742 478.564 640.905 516.748C678.365 523.359 700.366 545.883 707.332 582.881C711.663 585.302 730.324 594.894 731.467 598.064L730.876 598.975C730.469 599.062 730.063 599.15 729.656 599.237C723.096 595.555 713.932 590.316 707.63 586.855C708.253 596.422 707.601 603.965 705.189 613.178C706.987 614.795 708.717 616.24 710.124 618.152C716.854 627.298 711.672 638.08 700.269 638.352C697.513 638.418 695.386 637.751 692.805 637.124C686.812 644.546 683.264 648.212 675.903 654.236C675.733 673.415 673.77 688.473 669.128 706.993C656.001 759.367 618.657 791.143 563.277 776.034C561.315 779.224 559.354 782.358 556.242 784.482C542.696 793.724 528.215 786.395 530.852 769.705C531.726 767.12 532.773 764.4 533.719 761.823C527.68 756.289 521.658 751.304 516.961 744.544C516.041 743.22 513.458 739.277 512.353 738.667C510.963 742.361 515.348 750.586 516.058 754.701C518.707 770.046 500.608 777.232 489.837 767.505C479.603 758.263 475.707 744.683 474.289 731.341C471.881 728.822 471.473 726.764 471.001 723.277C470.783 721.1 477.832 719.249 478.446 718.158C479.723 715.887 480.508 711.689 484.242 712.419C488.69 713.288 487.878 709.774 490.779 707.815C492.359 706.747 495.786 707.773 497.618 708.135C499.004 706.211 499.93 705.026 501.506 703.257C501.472 700.325 501.525 697.463 501.718 694.538C503.826 662.539 531.811 628.092 555.461 607.54C554.848 604.355 554.52 601.009 554.138 597.782C545.788 600.135 537.257 601.794 528.633 602.743C492.918 606.541 457.168 595.881 429.365 573.142C402.362 551.2 385.246 519.378 381.824 484.753C374.112 407.831 427.381 343.871 504.171 336.702Z"/><path fill="#F8BA3E" d="M505.595 339.697C521.209 338.005 542.334 341.216 557.012 346.175C589.684 357.173 616.67 380.663 632.068 411.507C648.567 444.858 649.486 481.562 637.53 516.506C629.311 515.659 621.01 516.116 612.933 517.862C589.841 522.972 574.798 536.619 562.463 555.989C552.865 554.768 542.497 558.34 544.507 570.474C545.378 575.734 550.19 579.112 554.425 581.864C553.917 586.537 553.921 589.501 553.983 594.237C547.319 596.556 541.155 597.745 534.216 598.838C533.075 599.055 531.955 599.142 530.81 599.287C458.725 608.4 392.428 557.145 384.926 484.389C381.09 449.41 391.4 414.35 413.56 387.016C437.228 358.089 468.969 343.439 505.595 339.697Z"/><path d="M528.571 447.022C537.45 439.251 546.348 437.314 558.061 436.979C578.592 436.392 599.259 436.488 619.788 436.907C623.596 436.985 627.671 438.195 627.662 442.651C627.733 447.226 623.645 450.525 620.767 453.684C618.75 462.627 619.809 468.337 616.078 477.872C612.1 488.184 604.102 496.437 593.919 500.736C580.776 506.362 566.848 505.709 553.725 500.543C551.483 499.517 549.335 498.295 547.306 496.892C535.048 488.521 529.815 476.852 527.277 462.691C518.172 456.649 511.981 456.503 502.733 462.364C500.799 472.169 498.806 479.628 492.368 487.591C484.693 497.203 473.43 503.27 461.181 504.39C449.017 505.613 435.955 502.898 426.464 494.923C417.589 487.464 412.936 476.995 411.47 465.669C411.133 463.073 410.417 456.717 409.516 454.4C407.682 450.431 402.795 447.883 402.593 443.178C402.494 440.864 405.143 437.393 407.583 437.228C419.837 436.398 432.43 436.815 444.765 436.759C464.11 436.516 487.151 433.504 501.584 447.409C509.925 445.88 520.22 445.112 528.571 447.022Z"/><path fill="white" d="M467.716 442.372L477.689 442.944C476.426 445.909 474.86 449.056 473.393 451.947C465.509 467.477 458.513 483.714 450.491 499.139C448.861 499.76 443.168 497.787 441.214 497.213C449.924 478.872 458.758 460.592 467.716 442.372Z"/><path fill="white" d="M587.04 442.477L597.068 442.655C587.788 460.9 578.506 480.83 569.788 499.334C568.287 499.627 562.338 497.989 560.443 497.526C568.57 479.257 578.031 460.331 587.04 442.477Z"/><path fill="white" d="M568.356 442.471L578.456 442.503C571.2 458.82 561.929 477.016 554.096 493.289C553.436 494.252 553.877 493.967 552.826 494.222C550.013 492.986 548.382 491.392 546.021 489.435C553.148 473.631 560.594 457.973 568.356 442.471Z"/><path fill="white" d="M449.029 442.427L459.018 442.452C456.352 449.066 452.254 457.004 449.092 463.501L435.048 492.763C434.417 493.738 434.845 493.41 433.789 493.78C431.293 492.675 429.104 490.576 426.966 488.791C434.141 473.251 441.495 457.796 449.029 442.427Z"/><path d="M490.015 519.363C492.084 520.117 493.965 524.092 495.66 525.856C504.441 535.009 520.735 535.999 531.077 528.922C533.788 527.067 537.852 520.062 541.003 520.599C541.792 522.008 541.517 521.234 541.134 523.309C536.459 530.214 530.341 534.554 522.154 536.288C513.583 538.134 504.629 536.442 497.321 531.596C493.809 529.271 487.029 523.883 490.015 519.363Z"/><path fill="#F7D9C7" d="M627.15 519.208C665.875 517.228 701.212 546.903 704.647 585.436C705.602 596.147 704.021 604.308 702.134 614.756C707.12 618.62 715.05 626.779 707.419 632.712C702.775 636.323 697.009 635.017 691.653 634.108C689.821 636.074 687.732 638.635 685.865 640.705C671.128 657.039 654.412 664.669 632.625 665.777C596.744 667.434 562.94 639.578 557.879 604.025C556.68 595.6 556.715 588.57 557.579 580.119C552.403 577.492 546.797 573.067 547.519 566.558C547.76 564.273 548.944 562.193 550.786 560.821C554.849 557.8 559.339 558.626 563.874 559.392C567.412 554.376 570.464 549.263 574.561 544.677C589.338 528.137 605.427 520.761 627.15 519.208Z"/><path d="M593.804 573.858C596.248 572.982 598.975 573.504 600.922 575.221C602.87 576.937 603.73 579.576 603.168 582.111C602.607 584.645 600.712 586.674 598.221 587.407C594.522 588.495 590.627 586.444 589.432 582.778C588.237 579.111 590.174 575.159 593.804 573.858Z"/><path d="M659.79 600.866C662.147 599.953 664.813 600.378 666.771 601.977C668.728 603.577 669.675 606.105 669.251 608.597C668.826 611.089 667.095 613.161 664.719 614.022C661.099 615.334 657.097 613.487 655.747 609.882C654.396 606.276 656.199 602.255 659.79 600.866Z"/><path d="M643.87 538.234C644.377 538.504 644.813 538.947 645.271 539.34L645.324 540.654C643.385 544.61 639.591 545.559 636.058 548.413C644.27 555.836 650.765 548.097 656.63 542.772L657.527 542.864L657.977 543.744C657.46 545.812 656.369 546.962 655.093 548.683C648.43 554.731 640.956 556.011 633.781 550.476C631.741 548.901 629.01 547.452 628.761 544.713C630.057 543.508 629.299 543.909 631.194 543.643C637.858 546.504 639.71 543.132 643.87 538.234Z"/><path d="M601.903 614.216C604.267 615.311 604.033 617.949 604.97 620.215C608.514 628.709 616.534 634.851 625.932 631.521C628.649 630.558 632.32 627.558 634.803 628.68C634.933 630.086 634.935 629.401 634.261 630.89C615.18 643.595 596.161 623.658 601.903 614.216Z"/><path d="M669.583 546.198C671.233 547.355 670.708 546.616 671.353 548.385C670.942 555.097 660.227 559.267 654.296 559.605C653.116 558.762 653.096 558.87 652.594 557.536C655.692 553.272 660.811 561.403 669.583 546.198Z"/><path d="M621.957 601.512C623.12 601.479 625.132 601.347 626.119 601.888C628.399 603.138 630.447 605.807 628.246 608.058L627.211 607.858L626.261 605.276C624.026 603.828 623.397 605.019 620.286 604.439C620.344 602.771 620.514 603.139 621.957 601.512Z"/><path fill="#A0CDEA" d="M672.391 656.518C675.039 661.795 668.728 695.905 666.901 703.639C654.965 754.181 619.599 788.064 564.821 773.452C569.506 764.312 571.026 757.147 571.051 747.016L571.038 747.014C577.825 738.859 572.336 736.023 567.16 734.231C566.272 733.924 565.653 727.059 560.276 728.744C559.273 729.059 558.252 728.809 557.504 728.516C556.101 726.189 554.462 722.986 551.187 724.649C547.61 726.466 545.763 722.067 542.346 720.178C535.305 716.284 530.754 719.625 527.775 726.417C527.131 731.762 528.66 733.824 531.907 737.795C530.619 746.552 531.975 749.793 534.35 758.02C525.762 751.615 518.529 742.807 513.444 733.41C514.092 728.251 513.956 725.742 513.316 720.654C521.58 711.861 516.72 701.898 504.423 701.964C504.317 691.243 505.812 684.813 509.054 674.697C537.74 681.007 574.82 678.501 603.682 674.299C616.507 672.431 625.942 668.343 639.293 668.414C649.212 668.467 663.852 661.621 672.391 656.518Z"/><path fill="#A0CDEA" d="M555.888 610.956C556.677 612.143 560.886 625.349 563.424 629.562C567.737 636.72 571.117 639.852 575.995 646.395C577.638 648.6 581.272 655.858 582.981 658.761C586.097 664.055 588.793 667.937 592.376 672.874C575.56 674.728 564.201 675.209 547.325 675.077C535.881 674.997 521.425 673.838 510.211 671.872C520.956 646.853 536.975 629.668 555.888 610.956Z"/><path fill="#F7D9C7" d="M506.656 704.462C515.911 706.077 516.125 713.53 510.022 719.539C512.06 730.928 509.317 731.458 509.272 741.749C509.252 746.05 514.861 755.398 512.265 761.764C511.521 764.147 510.198 766.533 507.683 767.584C493.775 773.393 486.416 760.206 481.846 750.432C478.648 742.397 477.957 738.794 477.432 730.188C476.158 728.956 472.848 725.472 474.56 723.472C478.617 718.731 479.812 724.487 481.937 726.227L482.797 725.806C483.796 722.156 479.572 717.919 483.443 715.35C489.302 715.012 486.686 718.941 490.68 720.945C494.23 718.709 488.845 716.243 490.876 711.629C492.256 710.448 492.346 710.564 494.096 710.303C498.571 711.875 496.727 716.513 499.738 719.024L500.925 718.564C503.088 713.851 496.151 708.955 506.656 704.462Z"/><path fill="#F7D9C7" d="M536.08 721.486C546.279 721.147 544.497 728.029 544.003 734.686C543.951 735.384 544.69 735.564 545.32 735.95C548.472 734.809 546.679 730.623 549.115 728.117C550.17 727.568 551.321 726.99 552.488 727.51C557.699 729.833 552.584 734.214 553.875 737.534C556.801 736.212 557.6 732.045 561.441 731.519C563.096 732.311 562.38 731.755 563.495 733.443C564.052 737.23 561.313 738.364 561.789 741.493L562.779 742.213C565.579 740.975 564.705 738.025 568.165 737.086C573.2 739.334 570.127 743.001 567.954 745.909C568.201 754.216 567.606 757.689 565.05 765.571C562.328 771.964 559.993 776.836 554.78 781.787C547.246 788.94 534.161 785.697 533.33 774.697C532.97 769.929 536.726 764.777 537.009 759.986C537.253 755.834 535.614 751.6 534.929 747.534C534.054 743.049 534.555 740.903 535.39 736.452C529.204 730.898 528.537 726.145 536.08 721.486Z"/><path fill="#A0CDEA" d="M582.823 652.36C591.882 657.211 599.255 664.071 610.029 666.178C612.266 666.615 615.962 667.061 617.911 667.866C616.903 668.804 616.194 668.675 614.618 669.031C608.296 670.332 601.94 671.462 595.558 672.421C590.778 665.854 586.606 659.575 582.823 652.36Z"/><path d="M376.312 549.936C376.932 550.02 377.372 550.279 377.98 550.536L378.277 551.502C376.193 555.076 309.6 593.639 299.996 599.593C298.827 599.375 299.389 599.562 298.389 598.72L298.306 597.647C300.417 594.582 322.484 582.301 327.579 579.271C343.885 569.595 360.129 559.816 376.312 549.936Z"/><path d="M731.013 353.861C732.168 354.386 731.752 354.183 732.641 355.288L732.517 356.194C730.117 358.846 663.039 396.013 654.676 400.738C653.213 400.242 653.784 400.664 652.866 399.479C653.23 398.298 653.486 397.765 654.766 397.029C663.07 392.259 671.612 387.443 679.929 382.743L731.013 353.861Z"/><path d="M265.61 472.552C270.745 472.271 278.444 472.483 283.761 472.475L318.662 472.427L344.951 472.399C349.307 472.396 355.401 472.185 359.554 472.577C360.732 473.607 360.352 473.338 360.582 475.422C337.539 475.979 291.798 475.198 266.666 475.373C266.406 475.186 266.145 474.999 265.884 474.812L265.61 472.552Z"/><path d="M297.652 353.727C300.793 354.751 308.96 359.696 312.26 361.591L338.489 376.62L362.517 390.171C366.169 392.217 372.802 395.689 376.042 397.993C376.821 399.799 376.664 398.83 376.122 401.04C373.453 400.195 362.343 393.743 359.222 391.981L321.561 370.521C317.145 368 300.315 358.892 297.477 356.711C296.903 354.914 297.005 355.869 297.652 353.727Z"/><path d="M668.719 472.503L734.815 472.52C738.999 472.521 759.123 472.162 762.514 472.635C763.996 473.944 763.396 473.134 763.92 475.446C759.61 475.554 755.303 475.54 750.99 475.531C723.97 475.473 696.944 475.626 669.926 475.416C669.632 475.2 669.339 474.983 669.045 474.766L668.719 472.503Z"/><path d="M643.83 265.645C645.193 266.172 645.147 266.078 646.032 267.22C645.85 269.382 605.091 337.23 600.956 343.717C599.032 343.058 599.663 343.647 598.702 342.258C599.345 339.899 610.183 322.26 612.264 318.781C622.877 301.123 633.4 283.411 643.83 265.645Z"/><path d="M432.945 602.7C433.96 603.053 434.047 603.197 434.979 603.771C435.207 605.109 435.171 605.272 434.405 606.548C419.545 631.312 406.131 657.78 391.062 682.339C389.812 681.948 390.118 682.011 388.984 681.234C388.939 680.908 388.893 680.582 388.847 680.256C400.467 660.182 422.146 621.059 432.945 602.7Z"/><path d="M513.354 229.632C514.843 229.941 514.915 229.806 515.965 230.843C516.629 234.157 516.32 255.121 516.271 260.051C516.08 279.595 516.545 299.491 516.124 318.982C515.078 319.198 515.099 319.122 514.006 319.09C512.8 317.229 513.185 293.736 513.177 289.815L513.111 250.878C513.105 245.347 512.808 234.812 513.354 229.632Z"/><path d="M383.712 265.619C386.874 266.293 391.671 276.202 393.486 279.298L406.441 301.172L421.673 326.79C424.367 331.295 427.207 335.912 429.782 340.485C430.738 342.181 430.475 341.974 430.254 343.777C427.163 343.447 423.877 336.32 422.224 333.556L410.924 314.617L393.077 284.61C390.099 279.59 386.958 274.439 384.171 269.308C383.227 267.571 383.52 267.513 383.712 265.619Z"/><path d="M513.921 621.354C514.543 621.562 514.965 621.828 515.552 622.136C516.705 625.31 516.815 641.502 515.149 644.293C514.243 643.815 513.485 643.696 513.349 642.592C512.894 638.876 512.362 623.955 513.921 621.354Z"/></svg>