<?xml version="1.0" encoding="utf-8" ?><svg xmlns="http://www.w3.org/2000/svg" xmlns:xlink="http://www.w3.org/1999/xlink" width="1024" height="1024" viewBox="0 0 1024 1024"><path d="M463.81 284.712C506.053 282.532 548.125 304.97 570.42 340.736C581.329 358.235 586.22 374.917 588.909 395.071C602.639 398.702 615.291 409.472 607.217 425.367C603.325 433.029 593.627 434.941 585.879 436.885C584.27 440.718 582.306 447.336 580.94 451.462C621.813 451.101 659.224 468.086 672.927 509.504C674.688 514.825 674.617 522.48 676.33 527.035C679.193 534.648 682.173 541.499 684.715 549.332C694.749 543.42 709.871 531.71 720.81 540.436C735.166 551.888 765.904 578.011 753.623 598.205C761.721 603.53 769.873 608.794 776.938 615.485C785.526 623.617 792.702 634.202 792.931 646.413C793.156 658.426 787.037 668.888 778.855 677.238C735.261 721.733 607.177 738.652 545.734 739.547C466.891 743.537 322.942 733.203 257.611 687.556C245.667 679.211 234.018 668.041 231.467 653.043C229.73 642.825 232.88 632.823 238.882 624.528C259.244 596.386 315.892 577.688 349.369 572.198C350.798 543.199 364.552 516.019 383.018 494.173C364.063 473.177 359.603 463.712 350.92 437.134C346.888 436.827 342.934 435.854 339.219 434.257C333.74 431.851 329.277 427.945 327.241 422.195C325.501 417.404 325.883 412.099 328.291 407.606C332.428 399.881 339.648 397.581 347.264 395.118C348.592 388.949 349.296 382.727 350.768 376.369C355.261 357.51 364.28 340.03 377.046 325.44C399.675 299.419 429.892 287.024 463.81 284.712Z"/><path fill="#ABDFD2" d="M315.504 585.022C326.579 581.702 337.768 578.776 349.05 576.25C349.021 579.357 349.129 582.778 349.079 585.849C349.039 588.331 350.239 597.155 349.027 598.391C339.272 604.672 332.822 612.925 330.321 624.393C329.036 630.287 331.721 637.491 338.665 635.224C340.396 634.659 340.587 634.567 342.137 635.259C344.055 638.079 344.439 642.139 347.451 642.561C350.235 642.951 353.626 640.311 355.767 638.756C363.493 646.214 367.155 644.245 372.763 635.669C379.737 653.09 390.559 635.303 393.723 626.028C393.982 625.265 394.235 624.501 394.48 623.734L400.782 626.045C393.731 637.364 392.186 643.456 392.927 656.99C394.585 667.035 397.268 673.78 404.337 681.425C425.577 700.417 451.325 699.11 470.208 677.655C470.598 677.217 470.982 676.774 471.361 676.325C480.009 679.275 486.91 682.056 494.927 686.751C505.161 692.744 513.486 708.404 527.063 702.116C535.022 698.43 537.027 690.555 536.214 682.367L536.063 681.911C532.567 671.647 526.696 670.797 516.906 670.603C508.762 670.441 480.715 664.611 478.075 656.566C482.244 656.508 487.196 658.01 491.256 658.553C502.777 660.095 524.652 665.489 535.489 664.238C540.206 664.888 539.933 665.235 544.388 662.689C546.581 660.636 548.115 659.197 550.097 656.925C551.115 659.542 551.934 660.869 554.011 662.847C560.065 665.937 562.486 663.542 567.157 659.441C573.128 652.26 576.033 644.426 577.273 635.278C592.711 621.616 599.711 608.237 606.582 589.274C610.086 594.562 613.952 599.603 618.151 604.358C622.55 608.974 625.18 611.139 630.014 615.164C642.367 622.848 652.474 627.171 667.482 625.688C686.448 623.814 703.1 611.987 714.806 597.411C715.107 597.648 715.412 597.88 715.721 598.108C724.134 604.292 732.452 607.267 742.857 605.645C746.33 604.18 747.457 603.602 750.626 601.568C771.857 614.114 800.77 636.313 784.002 663.973C778.668 672.773 768.207 681.97 759.453 687.301C755.127 689.956 749.549 693.28 744.892 695.366C719.852 708.099 690.254 715.603 662.995 721.706L645.458 725.302C621.555 729.224 600.496 732.106 576.202 733.966C569.962 734.48 563.715 734.902 557.463 735.232C547.254 736.151 529.1 736.081 518.435 736.109C484.416 736.199 446.745 734.821 412.919 730.298L397.088 728.165C382.625 725.397 360.375 722.67 346.649 718.231C341.106 717.428 331.214 714.559 325.746 713.061C310.853 708.616 283.344 699.179 270.435 690.377C264.351 687.722 258.87 683.316 253.674 679.243C247.511 674.373 238.471 663.8 236.423 656.199C225.804 616.781 288.197 593.632 315.504 585.022Z"/><path fill="#97CDBF" d="M606.582 589.274C610.086 594.562 613.952 599.603 618.151 604.358C622.55 608.974 625.18 611.139 630.014 615.164C642.367 622.848 652.474 627.171 667.482 625.688C686.448 623.814 703.1 611.987 714.806 597.411C715.107 597.648 715.412 597.88 715.721 598.108C724.134 604.292 732.452 607.267 742.857 605.645C740.824 616.569 736.835 616.76 731.896 623.727L730.583 625.29C727.447 626.596 724.311 629.387 721.254 630.598C711.344 634.525 692.304 640.695 681.878 639.88C677.993 639.766 676.46 640.102 672.633 640.739C671.243 638.694 669.741 636.076 667.271 635.493C664.705 636.71 664.932 638.309 664.363 641.016C647.855 641.984 620.773 637.659 607.25 641.098C595.054 644.2 584.896 656.792 567.157 659.441C573.128 652.26 576.033 644.426 577.273 635.278C592.711 621.616 599.711 608.237 606.582 589.274Z"/><path fill="white" d="M616.201 610.609C616.828 608.045 617.185 606.807 618.151 604.358C622.55 608.974 625.18 611.139 630.014 615.164C631.212 618.172 634.893 622.169 631.073 624.374C628.748 624.639 626.441 623.706 624.126 623.026C622.581 625.135 621.276 626.777 618.941 627.882C614.871 627.74 615.791 623.039 615.858 619.975C613.146 618.567 608.651 617.085 609.791 613.498C611.562 611.808 613.803 611.376 616.201 610.609Z"/><path fill="#97CDBF" d="M471.361 676.325C480.009 679.275 486.91 682.056 494.927 686.751C505.161 692.744 513.486 708.404 527.063 702.116C535.022 698.43 537.027 690.555 536.214 682.367C550.364 686.291 556.191 698.812 540.462 705.895C532.47 709.494 523.205 710.152 514.56 710.134C511.269 710.127 501.376 710.697 499.168 709.457L497.122 711.215C496.4 711.001 477.045 710.48 475.757 710.601L475.299 709.547C463.254 709.703 450.485 709.119 437.68 708.229C427.358 707.511 395.287 708.405 393.188 693.966C392.272 687.663 401.54 685.041 404.337 681.425C425.577 700.417 451.325 699.11 470.208 677.655C470.598 677.217 470.982 676.774 471.361 676.325Z"/><path fill="white" d="M483.706 706.536C484.049 703.636 483.81 701.803 485.295 699.449C488.598 697.613 490.628 701.911 492.372 704.386C495.119 703.785 499.646 702.152 500.999 705.353C500.812 707.302 500.252 707.838 499.168 709.457L497.122 711.215C496.4 711.001 477.045 710.48 475.757 710.601L475.299 709.547C477.953 707.522 480.508 707.207 483.706 706.536Z"/><path fill="#97CDBF" d="M325.696 608.022C330.445 604.112 343.193 598.628 349.027 598.391C339.272 604.672 332.822 612.925 330.321 624.393C329.036 630.287 331.721 637.491 338.665 635.224C340.396 634.659 340.587 634.567 342.137 635.259C344.055 638.079 344.439 642.139 347.451 642.561C350.235 642.951 353.626 640.311 355.767 638.756C363.493 646.214 367.155 644.245 372.763 635.669C379.737 653.09 390.559 635.303 393.723 626.028C393.982 625.265 394.235 624.501 394.48 623.734L400.782 626.045C393.731 637.364 392.186 643.456 392.927 656.99C391.257 656.776 389.85 656.629 388.17 656.508C385.085 656.261 380.809 656.793 378.442 656.419C377.28 656.235 375.573 652.25 372.49 651.744C370.905 652.652 371.407 652.345 370.464 654.293C365.636 656.963 336.715 649.756 333.27 650.918L333.312 652.278C331.786 650.263 331.898 650.572 329.785 650.118C328.119 647.948 323.052 645.533 320.526 644.185C309.695 638.402 305.423 629.595 312.612 618.603C314.495 615.724 318.793 611.214 322.347 610.48C323.901 609.591 324.369 609.153 325.696 608.022Z"/><path fill="#ABDFD2" d="M315.504 585.022C326.579 581.702 337.768 578.776 349.05 576.25C349.021 579.357 349.129 582.778 349.079 585.849C349.039 588.331 350.239 597.155 349.027 598.391C343.193 598.628 330.445 604.112 325.696 608.022C325.321 605.49 324.861 604.025 324.142 601.613C326.407 599.649 329.405 597.897 328.664 594.731C326.578 592.794 323.535 593.072 320.693 592.971C319.16 589.006 318.766 587.664 315.504 585.022Z"/><path fill="white" d="M334.645 694.429C336.411 692.424 337.941 690.296 340.275 689.135C344.05 689.172 343.555 693.946 343.744 696.927C346.889 697.906 351.48 698.407 350.74 702.374C349.161 704.465 346.812 705.333 344.411 706.541C344.185 709.665 344.054 712.064 343.431 715.141C342.797 715.994 342.667 716.069 341.659 716.404C343.33 716.719 345.85 717.021 347.231 717.856L346.649 718.231C341.106 717.428 331.214 714.559 325.746 713.061L325.822 711.151C326.543 707.551 327.847 705.691 329.69 702.533C327.658 700.339 325.847 698.84 325.746 695.818C327.694 692.37 331.329 693.808 334.645 694.429Z"/><path fill="#97CDBF" d="M335.429 709.672C338.031 712.356 339.724 714.788 343.431 715.141C342.797 715.994 342.667 716.069 341.659 716.404C343.33 716.719 345.85 717.021 347.231 717.856L346.649 718.231C341.106 717.428 331.214 714.559 325.746 713.061L325.822 711.151C330.205 712.592 331.014 711.667 335.429 709.672Z"/><path fill="white" d="M664.363 641.016C664.932 638.309 664.705 636.71 667.271 635.493C669.741 636.076 671.243 638.694 672.633 640.739C676.46 640.102 677.993 639.766 681.878 639.88C682.124 643.847 680.641 645.073 678.263 648.321C679.809 651.215 682.864 655.118 679.352 657.368C676.658 657.757 674.657 656.741 671.985 655.845C669.986 658.275 668.582 660.708 665.462 661.092C662.375 659.434 663.191 656.121 663.315 652.963C660.419 651.41 658.341 650.667 656.506 647.967L656.595 646.917C660.747 643.668 663.332 645.242 664.363 641.016Z"/><path fill="white" d="M739.471 622.596C740.461 619.76 741.35 614.614 745.026 615.636C746.97 617.431 747.697 619.355 748.582 621.854C751.737 621.742 756.699 620.674 757.158 624.666C756.369 626.818 755.709 627.128 753.988 628.755L752.629 630.041C753.338 632.443 754.266 634.708 753.991 637.131C753.05 638.72 753.699 638.205 752.05 638.817C749.429 638.679 747.528 637.494 745.125 636.342C743.039 637.834 741.213 639.446 738.772 640.017C735.101 639.243 736.581 634.17 736.904 631.135C733.476 629.301 732.064 628.921 730.583 625.29L731.896 623.727C734.369 623.347 737.001 622.892 739.471 622.596Z"/><path fill="white" d="M315.504 585.022C318.766 587.664 319.16 589.006 320.693 592.971C323.535 593.072 326.578 592.794 328.664 594.731C329.405 597.897 326.407 599.649 324.142 601.613C324.861 604.025 325.321 605.49 325.696 608.022C324.369 609.153 323.901 609.591 322.347 610.48C320.345 609.597 318.346 608.474 316.408 607.441C314.145 608.949 312.398 610.418 309.769 610.911C308.067 610.485 308.713 610.942 307.735 609.539C307.243 607.013 307.976 604.861 308.54 602.3C306.449 599.992 301.901 597.053 304.375 593.993C306.687 592.86 309.175 593.09 311.824 593.037C313.099 589.872 313.878 588.012 315.504 585.022Z"/><path fill="white" d="M370.464 654.293C371.407 652.345 370.905 652.652 372.49 651.744C375.573 652.25 377.28 656.235 378.442 656.419C380.809 656.793 385.085 656.261 388.17 656.508C387.919 658.945 384.713 662.792 383.181 664.775C384.321 667.067 385.615 669.242 385.654 671.743C383.921 675.472 379.696 673.098 376.58 672.037C374.872 673.947 373.803 675.513 371.494 676.548C369.648 676.535 370.446 676.836 369.049 675.537C368.053 673.323 368.333 671.001 368.354 668.505C365.629 667.136 362.448 666.149 362.494 662.767C364.155 660.385 366.481 660.237 369.281 659.601C369.858 657.574 370.121 656.374 370.464 654.293Z"/><path fill="white" d="M645.411 709.108C645.859 706.518 645.996 704.105 647.458 702.006C648.967 701.066 648.165 701.243 649.952 701.487C652.058 702.823 652.892 704.645 654.249 706.795C657.006 706.339 659.242 705.589 661.826 706.254C664.925 708.795 661.692 711.879 659.835 714.427C660.99 716.664 662.02 719.356 662.995 721.706L645.458 725.302C645.157 723.959 645.009 719.679 644.915 718.084C642.218 716.86 637.553 715.633 638.899 712.091C640.732 710.375 642.968 709.915 645.411 709.108Z"/><path fill="white" d="M263.303 675.112C264.001 672.284 264.307 669.726 266.545 667.867C270.021 667.515 271.231 671.26 272.622 673.983C275.755 673.758 280.194 672.649 280.694 676.69C279.898 679.044 278.428 680.187 276.661 681.999C277.558 684.333 278.783 686.772 278.661 689.176C276.325 692.292 273.386 689.868 270.435 690.377C264.351 687.722 258.87 683.316 253.674 679.243C256.876 676.057 258.906 676.035 263.303 675.112Z"/><path d="M742.861 671.794C735.133 677.257 726.385 682.563 717.435 685.71C713.173 687.209 698.14 693.935 694.456 691.645L694.287 690.902C696.45 688.381 718.973 680.615 724.725 677.932C730.051 675.421 735.104 672.367 739.802 668.818C743.518 665.991 745.908 663.68 749.127 660.512C751.615 658.063 758.415 647.93 760.105 647.246C761.556 648.198 760.964 647.576 761.732 649.35C760.511 656.089 749.444 666.529 744.168 670.716L742.861 671.794Z"/><path fill="white" d="M744.168 670.716C747.427 673.139 748.614 673.976 751.36 677.086C754.962 675.73 761.572 672.461 759.716 679.645C758.635 683.826 757.711 683.305 759.453 687.301C755.127 689.956 749.549 693.28 744.892 695.366C743.649 694.286 743.551 691.219 743.305 689.453L742.882 689.338L742.18 689.138C739.312 688.338 735.556 687.919 736.476 684.233C738.044 682.317 740.468 681.452 742.771 680.336L742.861 671.794L744.168 670.716Z"/><path fill="white" d="M402.47 719.543C404.07 717.018 406.204 712.06 409.545 713.777C411.02 715.768 410.899 716.733 411.372 719.246L411.673 720.81C415.102 721.799 418.999 722.151 418.962 726.461C417.938 728.175 414.815 729.862 412.919 730.298L397.088 728.165C395.736 724.933 393.28 723.542 394.129 720.138C396.463 718.685 399.683 719.312 402.47 719.543Z"/><path fill="white" d="M560.731 726.008C561.887 723.652 562.582 721.556 564.551 719.888C566.203 719.382 565.397 719.354 567.045 720.061C568.743 721.875 569.207 724.079 570.014 726.491C573.103 726.829 577.66 726.651 578.847 729.85C578.524 731.687 577.463 732.537 576.202 733.966C569.962 734.48 563.715 734.902 557.463 735.232C555.385 734.492 552.399 732.205 552.125 729.807C553.194 725.748 557.369 726.183 560.731 726.008Z"/><path fill="white" d="M475.757 710.601C477.045 710.48 496.4 711.001 497.122 711.215L498.443 714.279C499.461 716.601 499.639 716.547 499.636 719.081C497.919 722.563 493.979 720.301 491.01 719.258C489.128 721.204 487.923 722.854 485.437 723.762C481.402 723.333 482.516 718.681 482.678 715.495C480.043 713.967 477.714 712.899 475.757 710.601Z"/><path d="M329.785 650.118C331.898 650.572 331.786 650.263 333.312 652.278C331.568 654.026 326.293 654.966 323.72 655.263C320.149 655.676 310.312 661.179 308.599 658.265L308.937 657.023C313.665 652.551 323.486 650.909 329.785 650.118Z"/><path fill="#97CDBF" d="M550.097 656.925C551.115 659.542 551.934 660.869 554.011 662.847C550.107 663.027 548.246 663.108 544.388 662.689C546.581 660.636 548.115 659.197 550.097 656.925Z"/><path fill="white" d="M284.929 634.136C284.529 632.528 285.427 629.152 286.542 627.925C289.562 628.112 291.85 631.729 293.519 634.066C296.74 633.274 301.568 631.107 302.99 635.012C302.699 637.643 301.505 638.996 300.126 641.283L299.835 641.758C301.73 644.166 305.069 647.169 302.275 649.857C299.357 650.751 297.301 649.887 294.29 649.123C292.594 651.692 290.933 655.368 287.496 653.766C285.78 651.43 286.064 649.575 285.89 646.523C284.028 645.568 282.533 644.672 280.503 644.159L279.248 644.575C277.781 644.142 277.898 644.083 276.949 642.84C277.155 638.473 282.407 636.995 284.929 634.136Z"/><path d="M284.929 634.136C286.642 633.673 287.078 633.403 288.774 633.958L289.167 634.819C287.791 638.18 283.004 640.552 280.503 644.159L279.248 644.575C277.781 644.142 277.898 644.083 276.949 642.84C277.155 638.473 282.407 636.995 284.929 634.136Z"/><path fill="white" d="M592.632 657.162C595.236 657.913 597.336 661.945 598.845 664.289C601.591 663.962 603.284 663.647 605.756 664.82C608.226 667.926 604.62 670.529 602.379 672.852C603.561 675.66 606.341 680.083 602.741 681.678C600.515 681.637 599.25 680.881 597.215 679.993C594.462 678.438 592.103 683.514 588.559 683.45C586.697 681.372 587.485 677.399 587.648 674.365L586.944 673.924C584.901 672.666 583.755 672.275 582.496 670.274C582.049 666.341 586.542 666.214 589.623 665.548C590.418 662.461 590.793 659.728 592.632 657.162Z"/><path d="M293.241 618.069C295.082 617.74 296.483 617.846 297.706 619.377C294.789 627.255 270.399 619.834 261.034 647.373C260.454 648.023 260.028 648.169 259.249 648.653L258.483 648.42C256.663 645.334 259.061 639.182 260.803 636.377C267.645 625.359 281.361 621.001 293.241 618.069Z"/><path d="M613.069 670.454C622.182 671.118 654.57 677.344 651.468 690.548C649.948 690.329 640.671 682.371 637.203 680.279C629.617 675.702 619.254 677.065 613.548 673.612C612.617 672.059 612.892 672.609 613.069 670.454Z"/><path d="M612.58 682.249C618.937 682.846 626.213 685.502 626.021 692.918C624.567 692.598 615.78 687.176 613.059 685.953C612.22 684.539 612.557 684.189 612.58 682.249Z"/><path fill="#F8D8C5" d="M460.05 289.196C487.701 287.064 515.192 294.991 537.463 311.518C558.83 327.16 574.224 349.621 581.101 375.194C583.253 383.213 584.244 390.429 585.464 398.618C596.905 401.58 609.767 407.494 604.031 421.868C600.321 431.167 590.336 430.62 582.429 433.862C580.838 437.286 578.443 445.149 576.96 449.207C572.717 460.918 566.583 471.855 558.803 481.582C537.163 508.243 509.628 521.073 476.005 524.446C453.467 524.957 435.062 522.272 414.654 511.775C392.116 500.238 374.043 481.548 363.27 458.636C359.345 450.259 356.863 442.399 354.029 433.652C343.569 431.672 324.863 426.553 331.491 410.301C334.265 403.497 344.03 400.579 350.754 398.668C351.613 393.375 352.37 387.911 353.492 382.672C365.005 328.917 405.951 294.147 460.05 289.196Z"/><path fill="#E87D7F" d="M530.037 428.754C540.775 427.019 550.883 434.328 552.598 445.069C554.314 455.811 546.985 465.905 536.241 467.6C525.525 469.291 515.463 461.986 513.753 451.273C512.042 440.56 519.328 430.485 530.037 428.754Z"/><path fill="#E87D7F" d="M398.862 428.72C409.547 427.225 419.418 434.68 420.904 445.366C422.389 456.052 414.925 465.917 404.238 467.392C393.564 468.866 383.714 461.414 382.231 450.741C380.748 440.069 388.191 430.213 398.862 428.72Z"/><path d="M520.44 398.76C526.534 397.664 532.379 401.667 533.559 407.746C534.739 413.825 530.816 419.724 524.753 420.986C520.758 421.818 516.623 420.435 513.933 417.366C511.242 414.298 510.411 410.018 511.759 406.165C513.106 402.313 516.423 399.483 520.44 398.76Z"/><path d="M410.309 398.748C416.508 398.174 421.989 402.753 422.528 408.955C423.066 415.156 418.456 420.611 412.251 421.114C406.097 421.613 400.695 417.048 400.161 410.897C399.627 404.745 404.161 399.317 410.309 398.748Z"/><path d="M439.929 458.647C443.077 459.13 444.273 462.794 446.521 465.673C451.04 471.462 457.686 475.203 464.979 476.062C486.068 478.411 490.416 458.846 495.315 459.52C496.346 461.272 496.008 460.903 496.071 463.22C493.335 468.131 490.06 471.987 485.367 475.129C478.436 479.754 469.955 481.442 461.782 479.823C452.8 478.04 437.253 469.507 439.929 458.647Z"/><path d="M475.087 314.724C476.108 315.241 475.989 315.251 476.88 316.022C479.47 321.713 474.69 329.723 470.788 333.842C466.155 338.805 459.663 341.613 452.873 341.591C448.098 341.577 435.386 339.168 435.573 333.258L436.484 332.565C438.569 332.22 439.032 332.568 441.146 333.306L441.825 333.55C445.116 332.183 446.641 331.524 449.16 329.004C451.231 325.458 452.35 318.96 455.152 317.133L455.795 317.711C457.582 326.277 452.183 331.192 446.211 336.184C465.651 341.546 470.504 330.135 475.087 314.724Z"/><path d="M496.999 313.127C502.434 315.783 499.525 323.028 497.586 327.256C493.63 335.881 488.251 338.921 479.635 341.894C477.875 341.473 477.448 341.154 476.907 339.565C477.803 338.34 484.179 335.647 486.216 334.582C494.609 330.194 494.499 321.828 496.999 313.127Z"/><path d="M464.767 425.469C468.757 425.336 474.138 426.239 474.142 431.249L473.243 431.987C471.046 431.404 471.253 431.042 469.344 429.239C464.548 428.613 464.022 432.788 460.265 432.155C459.15 428.7 462.341 427.119 464.767 425.469Z"/><path fill="#A0CFEB" d="M578.976 455.512C584.344 455.541 589.71 455.678 595.073 455.923C605.954 466.494 614.005 479.629 618.488 494.123C626.808 521.433 622.534 552.652 609.08 577.62C612.05 556.369 610.41 526.71 598.034 507.782C597.651 507.196 597.198 507.458 596.574 507.545C596.261 508.177 595.713 508.844 595.94 509.475C599.1 518.27 601.877 526.527 604.101 535.643C583.044 540.92 562.046 546.429 541.11 552.168C540.016 548.146 537.83 538.195 534.813 535.982L533.853 536.222C533.618 536.651 533.384 537.079 533.149 537.507C534.702 545.53 538.411 555.81 539.299 563.78C540.995 579.017 540.536 591.856 537.194 606.44C513.786 608.632 494.949 604.974 473.81 595.193C446.427 580.494 432.321 562.688 417.189 536.824C416.606 535.829 415.711 536.022 414.765 536.057L414.2 536.981C414.431 541.042 418.102 546.308 420.306 549.983L417.545 553.162C401.65 541.977 385.622 531.235 369.722 519.896C374.86 511.499 379.403 504.111 386.483 497.167C396.656 506.12 406.256 512.956 418.754 518.468C448.478 531.57 482.189 532.333 512.475 520.588C543.903 508.385 565.594 486.067 578.976 455.512Z"/><path fill="#F8D8C5" d="M667.529 528.208L672.306 528.373C676.712 537.391 679.822 546.823 682.461 556.485C683.366 559.8 683.018 568.335 686.167 569.727L687.193 569.18C688.839 565.487 686.633 557.499 685.692 553.648C695.089 548.114 709.538 536.119 719.752 544.627C731.67 554.553 748.01 569.297 752.374 584.643C755.841 596.835 742.14 605.138 731.466 601.529C725.802 599.712 722.623 597.871 717.522 594.304C718.418 593.078 719.307 591.847 720.19 590.611C721.373 588.947 723.291 586.791 722.949 584.755C721.751 583.471 722.461 583.83 720.784 583.573C719.043 584.487 718.176 586.277 717.077 587.969C696.569 617.118 662.697 634.883 630.982 610.58C621.25 603.122 615.526 595.63 609.001 585.482C612.096 580.9 615.004 575.862 617.144 570.786C621.079 561.454 621.938 555.192 628.992 547.532C639.88 535.71 651.589 529.259 667.529 528.208Z"/><path fill="#F8D8C5" d="M602.94 540.102C603.256 540.028 604.059 540.025 604.42 540.011C606.742 543.321 606.397 560.731 606.201 565.095C605.223 586.809 596.91 607.608 582.938 624.215C582.022 625.678 574.117 631.414 573.938 632.41C572.395 640.963 568.113 660.873 556.61 660.334C551.398 660.089 556.393 646.947 554.914 644.234C551.4 644.703 545.602 659.331 541.133 660.661C529.051 664.257 540.124 644.859 538.335 640.976C536.055 642.077 530.991 651.096 527.479 654.818C525.741 656.32 522.685 658.532 520.569 656.466C515.263 651.283 526.231 639.097 525.264 634.485L524.311 634.258C521.319 635.626 517.807 643.112 515.98 646.35C513.395 647.94 512.246 648.714 509.299 648.136C505.537 645.195 508.088 640.033 510.121 636.604C517.082 624.864 525.696 620.714 538.5 617.395C545.074 593.193 546.115 580.982 542.078 555.999C561.361 551.696 583.529 545.196 602.94 540.102Z"/><path fill="#F8D8C5" d="M367.819 523.754C383.003 533.664 399.848 546.011 415.117 556.438C405.314 570.349 398.401 585.568 397.221 602.743C403.268 607.935 405.85 610.239 409.655 617.156L403.037 622.495C398.068 621.175 396.799 620.441 392.754 617.336C391.026 622.601 386.444 639.275 379.67 639.049C375.165 636.246 377.021 626.172 375.265 621.559L374.571 621.473C373.305 623.202 370.476 631.917 367.933 636.393C366.261 638.516 364.455 640.415 361.61 639.749C357.336 635.439 362.33 625.926 360.195 621.271L359.386 621.318C355.186 626.747 355.985 637.928 348.483 638.392C341.981 635.376 349.019 624.213 347.096 620.317L346.155 620.258C342.992 622.536 341.14 632.142 335.934 632.542L335.056 631.716C330.657 620.109 342.746 605.091 353.562 601.137C356.615 600.02 363.3 598.587 363.57 595.164C361.496 593.533 355.98 595.439 353.716 596.212C352.046 570.271 354.795 546.874 367.819 523.754Z"/><path fill="#97CDBF" d="M411.921 568.594C418.005 567.47 426.116 566.841 432.294 566.411C436.565 572.978 447.812 582.834 454.107 587.751C475.697 602.718 493.684 609.584 520.307 611.152C523.331 611.33 534.527 610.63 535.736 611.066C535.501 613.029 535.775 612.064 534.354 613.921C531.651 615.195 528.687 615.824 525.825 617.151C516.64 621.409 508.8 629.061 505.02 638.522C503.608 642.055 501.84 649.794 507.011 651.223C509.777 652.049 512.837 650.735 515.2 652.014C517.364 657.026 517.602 663.885 525.168 660.553C527.741 659.42 529.13 658.415 531.261 656.629C532.421 660.389 532.666 661.496 535.489 664.238C524.652 665.489 502.777 660.095 491.256 658.553C487.196 658.01 482.244 656.508 478.075 656.566C480.02 650.906 477.724 642.387 476.33 636.821C473.259 629.944 472.531 628.258 467.839 622.537C461.632 616.44 456.278 612.656 447.641 610.381C436.023 607.424 423.708 609.154 413.354 615.197C409.132 608.3 407.026 606.287 401.307 600.669C401.518 599.06 401.877 597.285 402.165 595.673C404.375 584.949 407.147 578.323 411.921 568.594Z"/><path fill="#ABDFD2" d="M411.921 568.594C418.005 567.47 426.116 566.841 432.294 566.411C436.565 572.978 447.812 582.834 454.107 587.751C450.399 590.587 433.079 589.798 428.117 591.899C428.908 593.954 429.63 595.052 429.216 597.086C426.847 599.723 422.745 597.115 419.956 595.861C417.993 597.649 416.161 599.701 413.473 599.868C411.376 598.786 411.606 598.164 411.5 595.88C410.695 594.815 404.391 595.937 402.165 595.673C404.375 584.949 407.147 578.323 411.921 568.594Z"/><path fill="white" d="M414.188 582.661C414.932 580.011 415.252 577.727 416.989 575.654C418.674 574.802 417.823 574.891 419.625 575.337C421.552 576.893 422.265 578.833 423.421 581.076C425.976 581.078 430.5 580.658 432.229 582.321C432.838 586.745 426.749 587.443 428.117 591.899C428.908 593.954 429.63 595.052 429.216 597.086C426.847 599.723 422.745 597.115 419.956 595.861C417.993 597.649 416.161 599.701 413.473 599.868C411.376 598.786 411.606 598.164 411.5 595.88C414.548 589.926 405.549 590.336 406.057 585.866C407.987 583.631 411.275 583.308 414.188 582.661Z"/><path fill="white" d="M477.354 621.196C478.938 618.565 480.587 614.425 484.024 616.343C485.582 618.579 485.611 620.706 486.061 623.468C489.139 624.229 493.334 624.472 493 628.357C491.621 630.489 489.811 631.171 487.502 632.365C487.474 635.596 487.844 638.43 485.786 640.951C483.389 641.718 480.097 637.812 477.972 636.236C477.341 636.435 476.921 636.53 476.33 636.821C473.259 629.944 472.531 628.258 467.839 622.537C471.191 619.42 472.883 620.669 477.354 621.196Z"/><path fill="white" d="M601.78 456.874C614.692 458.251 632.073 465.285 642.29 473.314C660.181 487.373 668.568 502.139 671.694 524.203C662.694 524.203 659.185 524.451 650.758 527.349C640.006 531.074 632.305 537.941 624.771 546.104C631.209 514.502 623.805 480.863 601.78 456.874Z"/><path fill="#F9B937" d="M430.245 612.572C438.22 611.972 441.697 612.274 449.375 614.376C447.31 644.826 439.174 662.982 417.167 684.664L416.2 685.378C409.5 685.592 400.894 670.822 398.493 665.304C412.213 652.243 420.18 634.264 420.641 615.326C424.27 614.09 426.515 613.423 430.245 612.572Z"/><path fill="#E87D7F" d="M477.523 662.571C488.792 668.056 504.013 674.717 516.601 673.916C532.672 672.892 538.652 687.261 527.184 698.018C514.878 704.806 509.332 692.71 500.788 686.574C492.48 680.607 482.968 676.607 473.41 673.14C475.204 669.206 476.15 666.687 477.523 662.571Z"/><path fill="#A0CFEB" d="M452.599 615.643C457.013 617.708 459.06 618.992 462.667 622.181C461.778 627.785 461.44 633.383 460.198 638.964C455.777 658.835 445.043 677.93 429.192 690.951C425.909 690.148 421.936 688.639 418.672 687.497C422.398 683.163 426.711 679.169 430.55 674.48C446.389 655.13 450.318 639.584 452.599 615.643Z"/><path fill="#2176E4" d="M465.552 625.263C468.333 627.521 471.228 633.6 472.754 636.885C468.912 654.161 462.442 675.128 448.985 687.973C446.644 690.207 444.031 690.391 440.941 690.851L432.878 691.587C456.244 667.731 459.511 656.516 465.552 625.263Z"/><path fill="#E87D7F" d="M416.258 617.442L417.145 617.634C418.003 619.525 416.932 624.214 416.477 626.355C413.38 640.92 407.617 650.801 397.863 661.629C397.627 661.374 397.28 661.045 397.206 660.703C393.297 642.6 400.471 626.354 416.258 617.442Z"/><path fill="#E87D7F" d="M474.224 643.89C476.327 646.356 475.308 656.051 474.737 659.303C472.666 671.103 465.457 679.321 455.792 685.885L455.172 685.73C455.758 684.272 461.457 676.171 462.788 673.936C468.955 663.576 471.284 655.292 474.224 643.89Z"/><path fill="white" d="M422.164 553.836C423.948 554.872 427.343 560.343 428.707 562.357L420.621 563.309L414.755 563.947C417.277 560.093 419.22 557.33 422.164 553.836Z"/><path fill="#F9B937" d="M309.281 301.048C313.263 301.676 335.912 310.894 339.04 313.292C340.536 316.208 339.429 317.558 336.909 319.151C331.733 317.633 325.877 315.16 320.784 313.218C316.414 311.551 307.149 309.2 306.686 304.136C307.378 302.273 307.693 302.187 309.281 301.048Z"/><path fill="#F9B937" d="M339.91 261.874C341.05 262.038 342.432 262.202 343.226 263.055C346.564 266.637 359.867 284.553 360.379 288.208C360.069 290.016 359.324 290.497 358.038 291.825C356.801 291.722 356.775 291.672 355.56 291.359C353.098 289.382 337.815 268.693 337.452 265.553C337.854 263.676 338.556 263.241 339.91 261.874Z"/><path fill="#F9B937" d="M628.541 309.477C630.944 309.424 631.272 309.856 632.63 311.602C633.535 317.677 610.515 324.511 604.655 326.838C601.941 327.402 600.278 325.447 600.442 322.912C602.813 318.43 622.704 311.769 628.541 309.477Z"/><path fill="#F9B937" d="M597.717 269.928C599.915 270.061 600.294 270.125 601.987 271.441C602.284 272.069 602.827 272.898 602.661 273.46C601.172 278.506 588.248 295.159 584.976 298.526C583.176 298.548 583.296 298.592 581.677 297.82C580.969 296.932 580.214 296.171 580.549 294.854C581.855 289.727 594.656 272.977 597.717 269.928Z"/></svg>