<?xml version="1.0" encoding="utf-8" ?><svg xmlns="http://www.w3.org/2000/svg" xmlns:xlink="http://www.w3.org/1999/xlink" width="1024" height="1024" viewBox="0 0 1024 1024"><path d="M364.842 252.2C354.583 240.43 338.067 219.74 330.36 205.374C328.58 202.461 333.875 199.609 333.193 197.792C330.266 189.993 335.859 191.81 337.476 188.593C337.462 186.512 337.146 184.393 339.462 183.334C343.171 181.638 343.707 185.01 346.804 185.671C348.569 183.921 349.265 182.871 351.69 182.54C356.994 183.936 370.848 205.74 375.468 211.813C377.8 207.475 381.419 200.289 386.157 198.78C393.841 200.066 387.96 222.541 386.907 227.972C388.575 230.467 392.846 237.999 394.957 239.194C398.049 238.596 400.784 237.726 402.72 241.043C419.089 269.089 434.551 298.264 453.574 324.659C463.731 315.419 475.199 305.661 489.141 303.195C499.893 301.294 505.699 304.859 513.977 310.677C516.942 310.306 520.226 309.728 523.209 309.272L521.665 318.238C534.532 333.149 530.321 344.058 513.937 352.648L520.076 360.608C555.336 336.499 573.107 293.837 593.114 257.646C596.479 251.559 597.436 251.643 603.38 254.079C606.85 249.849 609.296 246.209 611.821 241.354C610.545 234.61 606.532 218.954 609.826 213.293C614.967 209.969 620.775 221.517 622.916 225.118C629.107 216.956 634.755 208.368 641.04 200.293C644.193 196.242 647.166 193.872 650.91 198.727L651.253 199.181C652.433 198.674 654.08 197.105 656.417 196.05C659.931 196.183 660.865 198.034 661.487 201.255C661.79 202.822 664.304 203.885 664.529 204.456C666.831 210.318 664.294 210.141 669.152 214.933C663.772 227.908 642.446 255.02 633.16 267.244C640.75 274.539 647.486 281.466 650.297 291.874C641.322 322.472 597.345 387.531 575.21 411.053C578.685 417.47 582.356 423.778 586.217 429.969C611.408 428.607 637.008 414.745 659.707 405.389C706.026 386.299 756.561 384.131 800.798 410.368C805.629 413.234 813.099 415.993 817.261 419.375C834.215 408.729 830.827 395.188 834.961 378.738L835.158 379.44C839.084 393.775 836.368 410.289 852.162 419.436C860.086 424.025 868.603 423.688 877.158 426.589C865.703 428.544 851.666 429.673 844.617 440.352C852.37 449.979 859.545 458.89 866.222 469.355C878.743 488.977 889.18 509.153 902.976 527.98C910.823 538.499 919.414 548.442 928.683 557.732C931.586 560.615 940.408 568.267 942.183 570.455C950.229 578.382 959.893 587.514 967.428 595.793C988.668 617.657 1005.28 652.334 1012.71 681.702C1017.29 699.799 1020.64 722.681 1021.39 741.449C1021.78 751.189 1019.53 763.06 1018.31 772.72C1014.06 802.49 1004.72 829.888 990.597 856.408C984.322 868.189 978.839 878.462 969.439 888.29L969.193 889.608C971.866 904.842 970.561 918.434 963.837 932.534C947.114 967.606 911.658 982.582 877.27 994.775C880.089 1005.05 879.359 1013.26 875.463 1023.25C856.143 1023.85 834.548 1023.33 815.087 1023.31L695.543 1023.1C671.01 1023.3 646.477 1023.35 621.944 1023.26C611.267 1023.3 592.165 1023.85 582.027 1023.04C581.654 1015.03 581.233 1004.47 583.273 996.817C582.194 995.103 554.217 991.174 550.153 990.367C525.174 985.462 500.5 979.116 476.253 971.361C466.334 968.193 456.68 964.263 446.671 961.022C447.899 964.483 453.945 981.792 455.683 983.688C469.09 998.318 467.508 1003.02 467.134 1023C451.034 1023.59 433.198 1023.22 417 1023.25L314.157 1023.21L222.308 1023.28C206.956 1023.28 187.713 1023.79 172.675 1023.1C169.248 1017.74 167.441 1010.57 167.788 1004.21C168.222 996.245 171.077 992.447 176.525 987.382C176.544 982.925 176.628 979.822 177.064 975.405C155.864 964.054 140.585 952.822 123.336 936.145C98.0656 911.712 69.0185 860.063 118.695 843.979C127.471 841.137 138.275 840.931 144.998 833.693C159.32 817.757 151.823 794.179 141.126 778.683C127.184 758.487 106.744 745.424 88.9686 729.127C69.321 711.113 55.6223 690.44 54.8033 663.032C54.3012 642.981 61.8274 623.56 75.7098 609.083C89.9743 594.12 109.663 585.53 130.334 585.253C185.98 584.389 216.841 631.6 216.845 682.241C216.846 693.518 217.306 706.569 219.258 717.509C220.579 724.917 225.157 732.865 230.607 737.94C248.574 755.093 271.373 746.47 293.301 745.802C315.104 710.49 337.678 675.659 361.006 641.335C380.65 612.406 401.387 583.71 420.732 554.743C403.654 525.082 374.187 521.617 345.172 536.398C326.977 545.667 312.623 558.796 290.785 554.967C284.406 553.903 278.359 551.381 273.115 547.597C251.45 531.877 259.36 506.297 238.698 490.9C223.513 479.884 203.372 486.214 191.886 468.841C179.289 449.788 184.961 427.948 197.989 410.749C217.395 385.133 249.182 370.4 281.149 370.565C301.515 370.671 320.851 378.45 341.242 374.901C360.327 371.74 372.946 363.085 388.494 352.644L385.527 347.854C366.436 360.068 342.321 368.467 319.532 365.732C302.964 363.743 288.07 360.679 271.223 361.081C232.458 362.006 191.487 380.729 175.077 417.681C172.248 424.063 171.109 431.345 168.195 437.815L167.885 438.49C168.239 432.318 169.54 426.715 171.752 420.891C188.529 374.429 247.056 353.151 292.913 360.205C330.803 366.034 349.92 367.337 384.485 346.274C371.516 324.544 357.778 302.099 349.086 278.277C352.505 266.193 356.8 261.746 364.842 252.2Z"/><path fill="#EDE7D5" d="M817.261 419.375C834.215 408.729 830.827 395.188 834.961 378.738L835.158 379.44C839.084 393.775 836.368 410.289 852.162 419.436C860.086 424.025 868.603 423.688 877.158 426.589C865.703 428.544 851.666 429.673 844.617 440.352C852.37 449.979 859.545 458.89 866.222 469.355C878.743 488.977 889.18 509.153 902.976 527.98C910.823 538.499 919.414 548.442 928.683 557.732C931.586 560.615 940.408 568.267 942.183 570.455C950.229 578.382 959.893 587.514 967.428 595.793C988.668 617.657 1005.28 652.334 1012.71 681.702C1017.29 699.799 1020.64 722.681 1021.39 741.449C1021.78 751.189 1019.53 763.06 1018.31 772.72C1014.06 802.49 1004.72 829.888 990.597 856.408C984.322 868.189 978.839 878.462 969.439 888.29L969.193 889.608C965.872 868.45 949.565 855.311 930.869 847.481C941.803 827.158 949.469 811.798 952.876 788.384C954.036 780.418 954.199 768.354 955.466 761.16L955.543 760.742C953.001 757.34 953.503 756.304 955.13 752.661C953.56 747.56 952.859 739.042 951.455 733.336C945.418 708.816 938.52 697.109 923.636 677.841C923.465 676.935 923.861 673.925 923.914 672.769C924.156 667.553 924.325 662.603 923.011 657.509C920.45 647.288 913.9 638.52 904.826 633.164C894.01 626.873 881.571 626.547 869.713 629.663C864.969 623.373 858.188 614.849 854.361 608.201C840.816 584.678 830.428 559.717 811.118 540.004C790.29 518.743 759.209 501.256 728.823 501.186C701.49 501.124 673.986 516.115 655.27 535.382C648.445 542.408 643.666 550.113 636.168 557.502C631.378 551.914 624.728 542.348 620.281 536.327C609.599 521.675 598.775 507.127 587.811 492.685C621.65 475.332 598.669 453.85 586.217 429.969C611.408 428.607 637.008 414.745 659.707 405.389C706.026 386.299 756.561 384.131 800.798 410.368C805.629 413.234 813.099 415.993 817.261 419.375Z"/><path d="M817.261 419.375C834.215 408.729 830.827 395.188 834.961 378.738L835.158 379.44C839.084 393.775 836.368 410.289 852.162 419.436C860.086 424.025 868.603 423.688 877.158 426.589C865.703 428.544 851.666 429.673 844.617 440.352C836.604 452.065 837.769 461.609 834.935 474.993C830.842 459.884 833.383 442.549 816.969 433.418C807.923 428.386 800.987 428.608 791.308 426.317C801.116 423.236 805.608 425.301 817.261 419.375Z"/><path fill="#FAD18F" d="M834.75 391.408C835.57 392.282 836.121 397.286 836.475 398.877C840.464 416.775 849.941 421.856 866.2 426.379C844.77 431.504 839.03 439.482 835.013 460.698C832.401 454.148 832.708 448.17 828.14 441.312C821.688 431.624 813.699 428.875 803.11 426.233C824.97 421.551 831.147 412.636 834.75 391.408Z"/><path d="M955.13 752.661C958.304 752.28 962.851 752.043 962.972 756.71C962.998 758.043 962.403 759.313 961.363 760.148C959.438 761.717 957.747 761.254 955.543 760.742C953.001 757.34 953.503 756.304 955.13 752.661Z"/><path fill="#FAD18F" d="M957.599 754.21C959.015 753.751 960.534 754.531 960.986 755.95C961.438 757.368 960.651 758.883 959.231 759.329C957.82 759.771 956.316 758.99 955.867 757.581C955.418 756.172 956.192 754.665 957.599 754.21Z"/><path fill="#BFB6AE" d="M942.183 570.455C950.229 578.382 959.893 587.514 967.428 595.793C964.729 595.209 951.8 580.219 948.493 577.913C946.745 576.695 942.724 572.627 942.183 570.455Z"/><path d="M658.546 471.743C660.892 470.582 663.735 471.543 664.895 473.889C666.056 476.235 665.095 479.078 662.749 480.239C660.403 481.4 657.56 480.439 656.399 478.093C655.238 475.746 656.199 472.903 658.546 471.743Z"/><path fill="#FAD18F" d="M659.847 473.219C660.895 472.921 662.022 473.25 662.745 474.065C663.468 474.88 663.66 476.038 663.238 477.043C662.817 478.048 661.857 478.722 660.769 478.778C659.328 478.852 658.062 477.833 657.826 476.41C657.59 474.987 658.46 473.614 659.847 473.219Z"/><path fill="#FAD18F" d="M636.168 557.502C643.666 550.113 648.445 542.408 655.27 535.382C673.986 516.115 701.49 501.124 728.823 501.186C759.209 501.256 790.29 518.743 811.118 540.004C830.428 559.717 840.816 584.678 854.361 608.201C858.188 614.849 864.969 623.373 869.713 629.663C860.757 631.863 854.388 636.232 847.793 642.42C820.719 667.825 831.523 705.296 807.127 731.407C794.654 744.757 778.807 746.845 761.529 747.098C761.765 728.689 754.166 721.15 743.734 706.852C738.174 699.274 732.673 691.654 727.23 683.991C707.584 656.082 687.755 628.302 667.744 600.653C657.589 586.622 645.667 571.638 636.168 557.502Z"/><path d="M809.274 630.388C809.507 630.375 809.741 630.362 809.975 630.35C823.425 632.443 808.66 642.71 806.167 645.149C803.217 648.039 800.59 651.24 798.331 654.697C787.935 670.67 785.174 691.277 784.658 709.712C784.585 712.321 783.726 713.281 781.746 714.871C775.941 714.89 774.857 709.568 775.112 704.776C776.489 678.886 785.512 644.533 809.274 630.388Z"/><path fill="#FAD18F" d="M809.665 632.367C811.58 632.232 811.964 632.484 813.23 633.698C813.669 637.473 807.951 640.623 804.452 644.225C790.692 658.391 785.352 677.076 783.456 696.281C782.927 701.641 783.792 708.8 781.545 713.224C780.214 712.875 778.852 712.767 778.156 711.423C775.547 706.377 778.35 689.934 779.516 684.744C784.303 663.431 791.114 644.782 809.665 632.367Z"/><path d="M823.068 598.739C827.683 597.306 832.586 599.889 834.014 604.506C835.442 609.123 832.855 614.023 828.237 615.447C823.624 616.869 818.732 614.286 817.306 609.675C815.879 605.064 818.458 600.169 823.068 598.739Z"/><path fill="#F28115" d="M825.147 600.254C828.795 599.94 832.034 602.574 832.47 606.209C832.906 609.844 830.381 613.17 826.763 613.727C824.312 614.104 821.851 613.116 820.342 611.148C818.834 609.18 818.518 606.547 819.519 604.278C820.519 602.009 822.677 600.467 825.147 600.254Z"/><path d="M757.101 512.678C760.721 511.735 764.428 513.87 765.428 517.475C766.429 521.079 764.352 524.82 760.764 525.877C758.392 526.576 755.827 525.942 754.054 524.219C752.28 522.495 751.574 519.949 752.205 517.558C752.836 515.167 754.708 513.302 757.101 512.678Z"/><path fill="#FCFCFB" d="M756.827 514.693C758.418 513.961 760.281 514.141 761.703 515.164C763.125 516.188 763.886 517.897 763.697 519.639C763.507 521.38 762.396 522.886 760.787 523.579C758.341 524.634 755.502 523.526 754.417 521.092C753.333 518.659 754.407 515.807 756.827 514.693Z"/><path fill="#FAD18F" d="M512.296 826.069C518.134 826.343 523.976 826.506 529.82 826.558C531.082 828.739 532.574 831.11 534.937 832.145C556.26 841.482 588.861 828.828 609.689 826.185C612.93 834.344 615.847 842.628 618.434 851.017C613.333 850.521 606.278 850.481 606.375 857.687C606.477 865.172 611.764 872.764 614.123 879.769C615.121 882.624 616.031 886.813 616.477 889.701C620.048 912.784 610.414 936.004 602.867 957.347C599.88 965.424 597.477 973.755 593.643 981.494C591.102 986.623 586.43 990.347 583.939 995.5C583.717 995.939 583.495 996.378 583.273 996.817C582.194 995.103 554.217 991.174 550.153 990.367C525.174 985.462 500.5 979.116 476.253 971.361C466.334 968.193 456.68 964.263 446.671 961.022C436.038 934.55 422.684 901.296 435.194 873.575C440.144 862.605 446.124 845.722 425.716 852.4C428.642 845.063 431.818 836.207 434.976 829.169C453.434 833.34 490.541 840.292 507.457 830.276C509.211 829.238 510.873 827.55 512.296 826.069Z"/><path d="M528.118 902.238C531.167 901.14 534.531 902.704 535.658 905.742C536.784 908.78 535.253 912.159 532.225 913.314C529.157 914.485 525.723 912.929 524.581 909.849C523.439 906.77 525.028 903.351 528.118 902.238Z"/><path fill="#FCFCFB" d="M528.297 904.227C529.559 903.591 531.065 903.683 532.24 904.466C533.415 905.249 534.079 906.604 533.978 908.013C533.876 909.422 533.026 910.668 531.751 911.275C529.809 912.199 527.485 911.389 526.539 909.458C525.593 907.527 526.377 905.194 528.297 904.227Z"/><path fill="#FAD18F" d="M923.636 677.841C938.52 697.109 945.418 708.816 951.455 733.336C952.859 739.042 953.56 747.56 955.13 752.661C953.503 756.304 953.001 757.34 955.543 760.742L955.466 761.16C954.199 768.354 954.036 780.418 952.876 788.384C949.469 811.798 941.803 827.158 930.869 847.481C905.938 838.606 881.96 842.406 866.86 814.876C852.57 788.824 862.374 756.687 881.756 736.162C901.507 715.246 915.571 707.114 923.636 677.841Z"/><path d="M909.644 783.714C914.03 782.368 918.8 783.488 922.13 786.644C925.459 789.8 926.831 794.504 925.721 798.955C924.611 803.407 921.191 806.915 916.769 808.139C910.064 809.994 903.111 806.119 901.163 799.44C899.214 792.761 902.993 785.755 909.644 783.714Z"/><path fill="#FCFCFB" d="M911.165 785.219C916.993 784.008 922.706 787.726 923.961 793.545C925.216 799.364 921.542 805.105 915.733 806.404C909.861 807.718 904.043 803.995 902.775 798.113C901.506 792.231 905.273 786.442 911.165 785.219Z"/><path fill="#9F6FD7" d="M531.831 465.213C542.95 464.512 560.009 466.12 569.12 472.995C574.466 477.029 583.854 490.373 588.187 496.116L620.881 540.179C617.698 550.981 621.76 560.781 617.673 570.483C610.275 588.046 584.862 588.975 577.477 607.389C574.922 613.453 574.716 622.56 577.751 628.655C587.309 647.848 611.39 635.163 626.822 641.325C642.999 647.784 645.965 668.688 663.069 673.911C670.665 676.231 678.256 675.061 685.244 671.601C694.342 666.819 697.369 658.134 699.931 648.968C711.922 666.973 725.769 684.22 737.975 702.098C746.111 714.014 756.635 725.278 759.57 739.681C741.011 721.78 695.204 733.199 672.548 739.818C633.068 751.352 595.712 771.99 562.624 796.155C550.359 805.111 538.098 810.893 530.593 824.772C525.362 824.637 520.415 824.513 515.189 824.128L531.093 573.51C538.401 565.283 550.607 553.767 558.724 545.665C560.409 543.897 561.35 542.217 562.656 540.166C557.762 543.821 552.962 548.912 548.565 553.246L528.929 572.535L518.785 742.632L515.916 790.421C515.25 801.45 514.809 814.186 512.831 824.887C511.889 822.883 510.972 820.813 509.844 818.906C498.578 799.855 435.751 776.626 413.802 770.751C376.011 760.635 313.847 755.176 279.037 775.263C286.842 759.755 294.902 746.485 304.317 731.923C308.298 740.558 313.853 746.109 323.509 747.898C344.643 751.812 352.534 729.032 371.412 725.458C382.539 723.066 399.061 726.68 408.405 718.939C420.477 708.939 420.487 689.122 406.182 680.93C401.212 678.084 392.853 673.8 390.002 669.62C378.676 653.015 399.58 637.531 400.954 621.306C401.805 611.155 399.013 605.28 393.081 597.96C409.537 574.216 426.183 550.604 443.017 527.128C451.512 515.171 461.76 500.249 470.674 488.986C483.229 473.123 512.264 466.412 531.831 465.213Z"/><path fill="#FAD18F" d="M59.116 641.137C66.9766 619.7 77.8763 604.179 99.3136 594.263C118.316 585.366 140.107 584.523 159.741 591.923C180.082 599.54 196.536 614.971 205.442 634.782C211.954 649.323 213.901 665.536 215.076 681.32C216.581 701.549 212.708 721.832 228.138 737.969C247.186 757.891 269.018 747.653 291.848 747.966C281.455 768.441 262.765 785.614 293.24 798.263C311.894 806.006 329.442 809.287 349.205 812.873L344.595 823.975C329.441 822.307 315.263 823.06 313.807 842.384L313.351 843.752C311.172 856.838 308.623 879.882 302.811 890.937C296.304 903.314 268.509 915.283 256.132 921.652C246.808 926.45 236.7 931.928 227.462 936.268L225.257 937.194C207.623 946.355 185.271 953.385 177.538 974.12C171.137 970.051 164.824 966.518 158.353 962.269C135.331 947.152 112.766 926.698 100.119 902.005C94.7632 891.546 90.9804 877.157 95.2733 865.794C103.614 843.718 125.526 846.51 142.141 838.566L143.155 837.623C155.472 830.728 156.423 810.283 152.85 798.306C144.684 769.611 118.91 752.871 97.5856 734.366C67.8871 708.594 51.251 683.767 58.7264 643.52L59.116 641.137Z"/><path fill="#FAD18F" d="M59.116 641.137C66.9766 619.7 77.8763 604.179 99.3136 594.263C118.316 585.366 140.107 584.523 159.741 591.923C180.082 599.54 196.536 614.971 205.442 634.782C211.954 649.323 213.901 665.536 215.076 681.32C216.581 701.549 212.708 721.832 228.138 737.969C247.186 757.891 269.018 747.653 291.848 747.966C281.455 768.441 262.765 785.614 293.24 798.263C311.894 806.006 329.442 809.287 349.205 812.873L344.595 823.975C329.441 822.307 315.263 823.06 313.807 842.384C268.565 828.639 220.244 811.314 194.217 768.326C184.716 752.634 179.429 734.205 174.559 716.636C169.98 700.462 166.808 682.588 155.406 669.547C134.994 646.199 101.631 641.275 72.2047 641.267C68.034 641.266 63.8463 641.492 59.693 641.185L59.116 641.137Z"/><path fill="#EDE7D5" d="M177.538 974.12C171.137 970.051 164.824 966.518 158.353 962.269C135.331 947.152 112.766 926.698 100.119 902.005C94.7632 891.546 90.9804 877.157 95.2733 865.794C103.614 843.718 125.526 846.51 142.141 838.566C152.045 867.614 167.37 894.784 190.216 915.641C199.901 924.482 212.538 933.452 225.257 937.194C207.623 946.355 185.271 953.385 177.538 974.12Z"/><path fill="#FCFCFB" d="M59.116 641.137L59.693 641.185C63.8463 641.492 68.034 641.266 72.2047 641.267C101.631 641.275 134.994 646.199 155.406 669.547C166.808 682.588 169.98 700.462 174.559 716.636C179.429 734.205 184.716 752.634 194.217 768.326C220.244 811.314 268.565 828.639 313.807 842.384L313.351 843.752C299.807 840.264 290.747 836.807 277.765 832.057C242.379 819.109 208.428 798.764 189.998 764.595C180.848 747.628 175.917 727.557 170.783 709.024C166.149 692.301 162.192 676.241 148.219 664.542C123.925 644.202 89.017 641.387 58.7264 643.52L59.116 641.137Z"/><path fill="#FCFCFB" d="M143.155 837.623C144.952 838.732 146.429 843.405 147.203 845.42C160.973 881.299 184.875 917.559 221.34 933.254C223.076 934.001 225.86 935.249 227.462 936.268L225.257 937.194C212.538 933.452 199.901 924.482 190.216 915.641C167.37 894.784 152.045 867.614 142.141 838.566L143.155 837.623Z"/><defs><linearGradient id="gradient_0" gradientUnits="userSpaceOnUse" x1="795.19617" y1="747.99487" x2="825.74048" y2="935.55371"><stop offset="0" stop-color="#FAAC44"/><stop offset="1" stop-color="#FCCD84"/></linearGradient></defs><path fill="url(#gradient_0)" d="M761.154 748.916C796.605 749.238 816.788 734.011 825.269 699.141C831.511 673.474 836.83 643.61 865.179 632.772C889.988 623.288 911.21 631.789 921.241 656.798L921.552 658.718C924.913 673.204 920.496 687.443 912.788 699.77C905.239 711.841 894.219 720.952 884.441 731.11C878.667 737.178 873.436 743.741 868.809 750.724C862.475 762.519 858.851 772.468 858.022 785.941C856.878 804.53 869.473 830.219 887.693 837.14L888.959 837.939C910.169 846.192 933.639 845.421 951.32 861.474C970.149 878.569 973.194 904.562 964.228 927.537C953.22 955.745 927.481 972.433 900.891 984.047C893.021 987.45 884.996 990.482 876.843 993.133C874.832 991.087 872.716 988.835 870.594 986.931C871.182 954.042 846.931 952.275 824.907 938.055L824.411 937.895C817.447 934.577 809.715 930.986 803.067 927.379C784.023 917.047 761.664 909.898 746.569 893.857C741.128 888.075 739.772 876.597 738.124 869.253L737.998 867.801C735.423 856.533 735.264 843.806 730.89 833.003C726.043 821.032 711.715 822.763 701.256 824.346C700.104 821.19 698.345 816.794 697.691 813.638C695.789 809.272 694.129 803.626 692.638 799.015C698.834 796.913 708.547 792.683 714.482 789.864C733.654 780.754 753.468 769.769 761.154 748.916Z"/><defs><linearGradient id="gradient_1" gradientUnits="userSpaceOnUse" x1="818.47119" y1="622.27356" x2="795.95575" y2="824.88513"><stop offset="0" stop-color="#F3770A"/><stop offset="1" stop-color="#FBB551"/></linearGradient></defs><path fill="url(#gradient_1)" d="M761.154 748.916C796.605 749.238 816.788 734.011 825.269 699.141C831.511 673.474 836.83 643.61 865.179 632.772C889.988 623.288 911.21 631.789 921.241 656.798L921.552 658.718C924.913 673.204 920.496 687.443 912.788 699.77C905.239 711.841 894.219 720.952 884.441 731.11C878.667 737.178 873.436 743.741 868.809 750.724C862.565 747.138 856.274 744.614 854.625 736.917C843.479 744.528 835.474 750.464 827.387 761.667C808.609 787.677 812.828 820.734 789.683 844.106C781.693 852.174 773.268 857.724 762.705 862.098C757.321 864.328 743.309 869.412 738.124 869.253L737.998 867.801C735.423 856.533 735.264 843.806 730.89 833.003C726.043 821.032 711.715 822.763 701.256 824.346C700.104 821.19 698.345 816.794 697.691 813.638C695.789 809.272 694.129 803.626 692.638 799.015C698.834 796.913 708.547 792.683 714.482 789.864C733.654 780.754 753.468 769.769 761.154 748.916Z"/><path fill="#FAD18F" d="M697.691 813.638C697.549 811.587 697.029 810.3 697.775 808.807C698.775 809.354 715.774 816.266 716.654 816.294C727.125 816.632 744.941 815.026 755.127 815.31C770.633 815.741 785.371 818.575 800.578 817.406C801.18 816.678 801.794 815.959 802.419 815.251C803.452 815.236 803.454 815.082 804.272 815.459C791.562 849.685 772.183 859.217 737.998 867.801C735.423 856.533 735.264 843.806 730.89 833.003C726.043 821.032 711.715 822.763 701.256 824.346C700.104 821.19 698.345 816.794 697.691 813.638Z"/><path fill="#F28115" d="M854.625 736.917C871.349 726.308 883.165 715.262 885.421 694.878C887.963 671.9 900.625 664.185 921.552 658.718C924.913 673.204 920.496 687.443 912.788 699.77C905.239 711.841 894.219 720.952 884.441 731.11C878.667 737.178 873.436 743.741 868.809 750.724C862.565 747.138 856.274 744.614 854.625 736.917Z"/><path fill="#FCFCFB" d="M921.241 656.798L921.552 658.718C900.625 664.185 887.963 671.9 885.421 694.878C883.165 715.262 871.349 726.308 854.625 736.917C843.479 744.528 835.474 750.464 827.387 761.667C808.609 787.677 812.828 820.734 789.683 844.106C781.693 852.174 773.268 857.724 762.705 862.098C757.321 864.328 743.309 869.412 738.124 869.253L737.998 867.801C772.183 859.217 791.562 849.685 804.272 815.459C815.767 783.145 817.059 759.917 849.648 738.52C858.989 732.387 869.338 724.946 875.985 715.817C885.099 703.302 882.072 687.88 889.751 675.546C896.525 664.665 909.249 659.471 921.241 656.798Z"/><path fill="#FAD18F" d="M887.693 837.14L888.959 837.939C910.169 846.192 933.639 845.421 951.32 861.474C970.149 878.569 973.194 904.562 964.228 927.537C953.22 955.745 927.481 972.433 900.891 984.047C893.021 987.45 884.996 990.482 876.843 993.133C874.832 991.087 872.716 988.835 870.594 986.931C871.182 954.042 846.931 952.275 824.907 938.055L824.411 937.895C825.241 936.132 835.243 933.017 837.549 932.211C871.652 920.296 888.832 894.145 887.901 858.211C887.768 853.07 886.946 841.958 887.693 837.14Z"/><path fill="#FCFCFB" d="M887.693 837.14L888.959 837.939C889.758 853.054 890.412 865.135 887.578 880.191C881.348 913.288 855.544 929.877 824.907 938.055L824.411 937.895C825.241 936.132 835.243 933.017 837.549 932.211C871.652 920.296 888.832 894.145 887.901 858.211C887.768 853.07 886.946 841.958 887.693 837.14Z"/><path fill="#683091" d="M400.014 369.931C402.328 371.362 413.158 386.609 415.838 389.949C427.942 405.028 440.21 417.731 453.887 431.251C444.681 452.823 437.602 476.591 429.124 498.55C423.042 514.301 429.344 519.373 443.602 523.324C436.604 533.309 429.526 543.237 422.369 553.109C415.897 543.64 409.368 535.496 398.628 530.668C379.514 522.077 358.322 526.855 340.625 536.541C332.123 541.195 323.806 547.284 314.724 550.639C302.544 555.139 291.648 554.803 279.933 549.47C252.036 535.36 262.954 507.168 239.93 489.581C226.083 478.19 203.125 484.593 193.018 467.314C178.971 443.297 190.203 418.633 210.784 404.142C220.383 397.453 231.1 392.532 242.429 389.61C280.826 379.871 304.478 397.301 342.27 393.316C365.734 390.841 380.933 382.526 400.014 369.931Z"/><path fill="#FAD18F" d="M401.375 242.935C403.866 245.325 414.53 264.652 416.853 268.686C435.299 300.707 452.466 330.708 477.901 357.887C494.26 375.366 530.078 403.889 528.694 357.028C554.184 332.123 565.74 313.638 582.596 281.788C586.669 274.092 591.908 263.639 596.25 256.333C615.774 276.648 622.072 281.909 648.761 292.054C645.216 301.614 638.696 314.08 633.893 322.959C617.408 353.979 597.44 383.017 574.376 409.513C569.475 401.29 563.391 390.484 557.609 383.218C560.528 391.077 568.234 402.915 572.793 410.682C580.134 423.26 587.39 435.887 594.558 448.565C599.97 457.823 604.181 463.378 603.821 474.368C584.853 459.463 555.5 456.488 532.159 458.605C499.151 461.598 449.631 482.035 428.626 507.388C430.553 498.437 436.526 484.376 439.688 475.385C444.748 460.997 449.9 446.349 455.361 432.14C455.775 432.275 456.19 432.406 456.607 432.531C460.148 433.584 463.985 434.11 467.321 432.146C473.251 428.655 486.889 390.892 488.666 382.916C480.572 396.102 476.992 412.32 470.001 426.078C467.365 431.265 463.098 433.285 457.89 430.585C449.372 426.167 441.033 416.39 434.741 409.238C401.589 371.558 369.924 325.764 351.031 278.975C366.745 273.497 378.054 267.701 389.624 255.286C393.32 251.32 397.35 246.409 401.375 242.935Z"/><path fill="#EDE7D5" d="M313.789 850.991C317.368 830.638 320.15 821.264 344.421 825.519C360.434 828.327 359.013 843.842 356.854 856.248C356.162 861.032 354.668 867.764 360.709 869.667C367.89 871.928 375.382 873.491 382.716 875.244C398.102 878.948 413.51 882.564 428.937 886.09C428.397 890.996 428.47 895.733 428.451 900.658C393.077 907.718 375.02 933.601 370.796 968.226C347.573 970.256 324.83 973.507 304.774 985.628L226.777 985.594C210.958 985.62 194.069 985.344 178.366 986.132C178.351 974.445 179.703 968.211 188.903 960.141C198.143 952.036 208.601 947.39 219.452 941.977L259.502 922.016C305.305 899.169 306.481 900.429 313.789 850.991Z"/><path fill="#FCFCFB" d="M313.789 850.991C317.368 830.638 320.15 821.264 344.421 825.519C360.434 828.327 359.013 843.842 356.854 856.248C343.011 855.358 327.237 851.643 313.789 850.991Z"/><path d="M308.627 892.175C314.245 891.994 321.486 891.395 326.924 892.225C333.132 893.172 334.585 900.644 327.593 903.033C322.742 903.243 306.825 905.362 304.196 900.12C302.635 897.006 305.705 893.649 308.627 892.175Z"/><path fill="#0993AA" d="M308.261 894.014C312.884 893.959 330.273 892.134 330.422 898.153C329.368 900.117 329.104 900.165 327.182 901.457C322.321 901.571 306.789 903.678 305.592 897.848C306.194 895.794 306.656 895.577 308.261 894.014Z"/><path d="M292.499 909.689C298.351 909.521 311.032 907.814 314.434 913.141C315.302 917.88 312.157 919.641 308.099 920.366C302.365 920.392 295.237 921.34 289.663 919.796C288.528 919.482 286.608 918.014 286.4 916.804C285.458 911.336 287.821 910.427 292.499 909.689Z"/><path fill="#0993AA" d="M291.542 911.704C296.74 911.627 307.422 910.309 311.331 913.064C312.269 914.912 312.054 913.937 311.833 916.126C310.826 917.817 310.541 917.86 308.847 918.769C303.404 918.545 292.17 919.677 288.421 916.659C287.179 913.603 288.854 912.571 291.542 911.704Z"/><path d="M266.648 925.719C271.86 925.762 281.188 924.844 285.815 926.479C291.146 928.364 290.114 934.776 283.808 936.339C279.685 936.354 261.403 938.162 260.338 932.188C259.648 928.317 262.818 926.282 266.648 925.719Z"/><path fill="#0993AA" d="M265.035 927.674C270.514 927.775 276.059 927.397 281.513 927.681C284.258 927.825 286.382 928.25 286.955 931.134C286.498 932.908 286.003 933.236 284.775 934.57C280.535 934.601 262.45 936.125 262.374 930.421C263.32 928.777 263.536 928.774 265.035 927.674Z"/><path fill="#EDE7D5" d="M690.557 856.26C690.022 849.401 688.582 838.321 692.506 832.209C697.935 823.755 717.012 822.47 724.92 827.68C730.938 831.645 732.163 843.848 733.308 850.639L736.765 871.461C738.775 883.376 739.896 890.857 749.383 899.325C761.144 909.823 775.414 915.836 789.407 922.673L827.994 941.775C838.954 947.229 850.162 952.488 859.359 960.746C867.528 968.082 869.044 975.16 869.119 985.608C827.163 985.38 785.206 985.452 743.252 985.824C727.227 975.462 716.341 973.719 697.59 971.133C690.812 970.198 683.778 969.07 676.952 968.354C672.704 934.475 654.56 906.67 619.029 901.183L618.324 885.835L661.341 875.992C669.488 874.114 677.646 872.413 685.645 869.97C692.436 867.896 691.176 861.909 690.557 856.26Z"/><path fill="#FCFCFB" d="M690.557 856.26C690.022 849.401 688.582 838.321 692.506 832.209C697.935 823.755 717.012 822.47 724.92 827.68C730.938 831.645 732.163 843.848 733.308 850.639C725.17 853.049 699.344 855.568 690.557 856.26Z"/><path d="M717.273 892.035C723.662 891.798 740.95 889.923 743.184 896.936C742.851 899.696 741.215 901.397 739.15 903.047C732.357 904.079 705.475 905.427 717.273 892.035Z"/><path fill="#0993AA" d="M717.914 893.958C723.103 893.843 739.599 892.047 740.977 897.667C740.503 899.609 740.372 899.657 738.906 901.119C735.149 901.792 721.955 902.191 718.262 900.27C716.738 899.477 716.694 898.9 716.192 897.547C716.366 895.764 716.844 895.385 717.914 893.958Z"/><path d="M734.147 909.575C740.515 909.583 746.974 909.182 753.313 909.559C760.223 909.969 762.111 916.115 756.093 920.167C750.362 920.836 720.061 922.425 734.147 909.575Z"/><path fill="#0993AA" d="M735.171 911.53C738.65 911.511 742.302 911.375 745.76 911.48C749.557 911.594 757.393 910.433 757.955 915.369C757.27 917.235 757.21 917.161 755.834 918.473C750.816 918.649 734.417 920.404 733.043 914.858C733.514 913.059 733.895 912.845 735.171 911.53Z"/><path d="M760.547 925.658C766.742 925.543 773.719 925.181 779.816 925.841C786.958 926.615 788.083 932.679 781.409 936.307C775.61 936.123 755.347 939.208 757.383 929.9C757.908 927.497 758.645 926.914 760.547 925.658Z"/><path fill="#0993AA" d="M760.89 927.438C765.783 927.45 770.702 927.325 775.588 927.419C778.76 927.481 782.366 927.44 783.716 930.647C783.47 932.543 782.891 932.888 781.581 934.288C778.614 934.814 764.281 935.007 761.192 933.565C759.627 932.834 759.625 932.421 759.061 931.087C759.24 929.201 759.695 928.897 760.89 927.438Z"/><path fill="#0993AA" d="M305.362 987.497C323.293 975.874 340.143 974.263 360.81 971.324L418.301 963.568C425.852 962.541 437.02 961.382 444.03 959.979C446.212 965.678 451.231 980.021 454.357 984.648C462.854 997.228 465.508 995.688 465.556 1012.53C465.705 1015.36 465.591 1018.57 465.562 1021.44L376.052 1021.44L371.875 1012.53C370.325 1008.98 368.614 1005.9 366.767 1002.5C356.695 1002.31 346.621 1002.24 336.547 1002.28C334.897 1005.54 333.065 1008.99 331.729 1012.37L327.792 1021.44L173.544 1021.46C171.855 1017.61 171.472 1016.32 170.491 1012.21C169.621 1002.85 170.144 988.157 182.927 987.68C196.194 987.185 209.699 987.436 222.996 987.424L305.362 987.497Z"/><path fill="#0C516B" d="M170.491 1012.21C199.105 1011.15 232.646 1012.05 261.612 1012.08L305.442 1012.11C313.668 1012.11 323.654 1011.87 331.729 1012.37L327.792 1021.44L173.544 1021.46C171.855 1017.61 171.472 1016.32 170.491 1012.21Z"/><path fill="#0C516B" d="M394.115 1012.6C397.478 1010.72 396.412 1004.23 403.108 1003.55C409.984 1002.85 417.232 1003.1 424.11 1003.24C427.996 1003.38 431.074 1013.48 433.193 1012.62L465.556 1012.53C465.705 1015.36 465.591 1018.57 465.562 1021.44L376.052 1021.44L371.875 1012.53C378.543 1012.23 387.448 1012.35 394.115 1012.6Z"/><path d="M394.115 1012.6C394.902 1002 401.898 1001 410.954 1001.24C422.837 1001.55 429.422 999.259 433.193 1012.62C431.074 1013.48 427.996 1003.38 424.11 1003.24C417.232 1003.1 409.984 1002.85 403.108 1003.55C396.412 1004.23 397.478 1010.72 394.115 1012.6Z"/><path fill="#0993AA" d="M604.157 959.385C612.653 961.658 628.399 963.549 637.622 964.794C656.295 967.156 674.943 969.702 693.566 972.432C713.343 975.361 725.421 976.467 742.585 987.57L820.715 987.102C835.568 987.067 853.773 986.778 868.55 987.602C878.126 995.884 878.286 1000.55 876.76 1012.61C876.383 1014.9 875.173 1019.12 874.551 1021.52L719.684 1021.47L715.992 1012.41L711.661 1002.41C701.515 1002.08 691.364 1001.93 681.212 1001.98C680.1 1004.23 676.868 1010.41 676.201 1012.48C675.041 1015.51 673.711 1018.5 672.43 1021.49L583.526 1021.48C583.471 1017.38 583.157 1009.09 583.95 1005.34C584.817 992.541 590.439 991.434 596.012 981.11C598.99 975.593 602.224 965.614 604.157 959.385Z"/><path fill="#0C516B" d="M715.992 1012.41C762.967 1011.85 810.122 1012.87 857.116 1012.53C863.591 1012.48 870.299 1012.44 876.76 1012.61C876.383 1014.9 875.173 1019.12 874.551 1021.52L719.684 1021.47L715.992 1012.41Z"/><path fill="#0C516B" d="M614.231 1012.59L614.834 1012.8C616.529 1012.13 619.127 1004.34 621.839 1003.94C626.725 1003.22 642.649 1002.58 647.026 1004.43C649.059 1005.29 651.265 1012.04 652.692 1012.83L653.264 1012.06C654.879 1012.82 672.779 1012.48 676.201 1012.48C675.041 1015.51 673.711 1018.5 672.43 1021.49L583.526 1021.48C583.471 1017.38 583.157 1009.09 583.95 1005.34C583.943 1007.75 583.984 1010.13 583.783 1012.52C593.932 1012.48 604.082 1012.5 614.231 1012.59Z"/><path d="M614.231 1012.59C615.087 1009.59 618.361 1002.59 621.52 1002.03C627.372 1001 642.432 1000.8 648.182 1002.66C650.835 1003.52 652.563 1009.7 653.264 1012.06L652.692 1012.83C651.265 1012.04 649.059 1005.29 647.026 1004.43C642.649 1002.58 626.725 1003.22 621.839 1003.94C619.127 1004.34 616.529 1012.13 614.834 1012.8L614.231 1012.59Z"/><path fill="#F28115" d="M622.193 542.746C623.956 543.97 635.527 560.053 637.649 562.917C658.469 590.569 678.718 618.647 698.382 647.133C693.024 667.543 679.044 680.865 657.522 668.882C643.434 659.239 641.179 641.795 622.796 638.097C613.105 636.148 600.848 639.28 592.196 637.394C587.29 636.316 583.025 633.306 580.365 629.046C577.291 624.114 576.589 617.132 578.038 611.603C583.88 589.301 615.772 590.013 620.9 566.883C622.68 558.856 620.379 550.616 622.193 542.746Z"/><path fill="#F28115" d="M391.965 599.897C393.226 601.135 393.979 602.076 394.881 603.555C407.633 624.464 388.82 637.206 385.096 654.764C380.619 675.869 404.237 677.272 412.43 689.987C415.159 694.223 416.128 698.871 414.916 703.676C408.083 730.769 384.754 718.337 366.454 724.567C358.139 727.397 348.378 737.983 340.291 743.149C324.726 751.266 312.783 744.098 305.505 729.685C326.196 694.914 349.931 661.869 372.148 628.049C378.353 618.603 385.009 608.769 391.965 599.897Z"/><path fill="#FCFCFB" d="M688.052 802.71C689.611 802.562 690.387 802.326 691.79 803.006C694.279 808.231 697.646 818.789 699.573 824.581C678.158 837.147 693.855 858.415 688.008 866.167C686.967 867.548 685.407 868.179 683.822 868.752C677.386 871.082 670.115 872.169 663.417 873.681C654.226 875.756 645.087 878.158 635.834 879.937L632.504 871.546C628.277 860.496 626.229 859.427 620.572 850.348C617.334 845.152 613.308 830.694 611.119 824.232C635.016 810.639 660.928 804.845 688.052 802.71Z"/><path fill="#FCFCFB" d="M355.333 803.017C383.127 804.711 410.142 810.942 434.326 825.252C428.26 842.475 421.796 854.572 414.994 870.754L411.172 880.201C403.562 878.293 395.936 876.454 388.293 874.685C383.334 873.561 358.614 869.297 358.339 864.427C357.33 846.54 367.679 834.227 346.456 823.944C349.327 817.38 352.179 809.273 355.333 803.017Z"/><path fill="#F3AFA7" d="M669.336 742.604C672.284 746.046 688.742 794.111 691 800.804C663.1 802.294 640.165 807.584 615.109 820.028L610.515 822.404C605.664 811.271 599.104 789.013 595.116 776.758C622.114 760.476 639.627 752.976 669.336 742.604Z"/><path fill="#683091" d="M723.682 732.207C735.55 731.569 766.124 732.72 758.255 751.946C750.714 770.371 725.004 783.283 707.794 790.979C702.607 793.258 697.345 795.362 692.016 797.287C686.523 784.36 681.189 767.665 676.342 754.164C697.87 740.457 693.9 733.573 723.682 732.207Z"/><path fill="#F3AFA7" d="M370.481 764.987C376.905 766.055 383.939 766.568 390.746 767.723C411.048 771.103 430.847 777.017 449.677 785.327L435.144 823.335C410.298 809.253 384.348 802.916 356.013 801.153C361.084 789.198 365.908 777.14 370.481 764.987Z"/><path fill="#683091" d="M338.816 764.223C344.989 763.939 351.775 764.258 357.992 764.411C360.992 767.251 362.556 768.47 365.987 770.661C360.905 784.331 355.419 797.848 349.537 811.194C337.618 808.323 326.4 806.73 313.919 803.35C303.953 800.734 281.437 794.787 278.07 782.729C276.181 775.966 292.914 770.568 297.824 769.179C311.098 765.423 325.033 764.72 338.816 764.223Z"/><path fill="#F28115" d="M427.212 902.549L427.914 902.707C428.098 902.983 430.181 917.823 430.822 920.199C434.3 933.077 439.024 945.529 443.507 958.053C424.905 960.849 406.274 963.45 387.618 965.855C382.596 966.566 377.563 967.187 372.519 967.718C378.338 932.433 392.15 912.287 427.212 902.549Z"/><path fill="#F28115" d="M619.081 902.844C653.888 908.041 670.117 935.719 675.117 968.033C671.312 967.38 667.221 966.849 663.38 966.278C643.771 963.836 624.217 960.975 604.73 957.698C611.513 940.505 618.096 921.32 619.081 902.844Z"/><path fill="#683091" d="M592.929 778.024C595.443 781.541 606.658 816.957 608.989 823.881C590.044 828.442 568.928 833.361 549.386 833.553C547.453 833.542 545.524 833.407 543.609 833.149C540.302 832.731 535.07 831.812 533.21 828.743C532.623 827.776 532.546 826.718 532.769 825.632C535.151 814.044 580.657 785.596 592.929 778.024Z"/><path fill="#683091" d="M389.244 354.436C391.017 355.898 397.623 365.633 399.416 368.204C387.813 375.574 374.106 384.049 360.907 387.6C298.574 404.367 276.207 363.672 212.746 400.35C209.577 402.452 206.419 404.57 203.271 406.704C227.175 381.264 260.29 368.706 294.984 373.427C311.668 375.698 326.738 379.752 343.781 376.353C361.931 372.733 374.472 364.546 389.244 354.436Z"/><path fill="#683091" d="M451.478 785.847C465.901 791.303 482.661 799.695 495.682 808.036C511.568 818.212 516.348 829.395 493.118 832.86C470.923 835.287 456.665 830.673 435.771 827.185C440.418 816.786 447.552 796.904 451.478 785.847Z"/><path fill="#F3AFA7" d="M350.279 184.186C353.261 184.719 354.279 185.898 356.156 188.252C362.608 196.344 367.781 205.302 374.381 213.301C372.679 216.255 371.714 218.335 370.313 221.451C376.011 217.256 381.546 201.571 386.642 201.131L387.548 201.912C389.272 208.259 386.182 221.69 384.709 228.368C388.828 234.008 392.78 239.768 396.561 245.64C390.827 251.891 384.336 258.248 377.615 263.386L373.925 259.199C365.988 250.845 334.167 212.962 332.252 203.693C332.583 202.396 332.493 202.436 333.501 201.581L334.835 201.736C339.196 204.629 346.142 215.995 349.168 220.847C354.212 217.033 358.759 213.542 364.087 210.128C360.606 205.553 350.822 192.601 348.687 187.862C348.554 186.298 349.36 185.53 350.279 184.186Z"/><path fill="#F3AFA7" d="M646.012 197.758L647.698 198.186C648.284 198.904 649.035 199.663 648.809 200.717C647.6 206.354 637.347 219.796 633.64 223.631C637.938 227.074 644.133 231.073 648.767 234.243C651.043 230.632 661.481 213.832 664.759 213.588C665.606 214.525 665.93 214.849 666.036 216.184C666.5 222.008 632.322 265.263 626.995 272.183L622.716 277.748C615.34 273.032 608.25 266.408 602.582 259.767C606.307 254.215 609.34 249.906 612.333 243.847C615.659 237.115 606.43 217.748 611.666 215.076C617.369 216.232 622.834 230.937 629.004 235.519C627.54 232.421 625.667 229.573 623.858 226.662C629.012 220.107 641.348 201.973 646.012 197.758Z"/><path fill="#F3AFA7" d="M505.57 307.194C508.865 309.196 510.131 309.991 512.819 312.737C515.395 312.506 518.563 311.891 521.163 311.461C520.641 314.162 520.203 315.828 519.439 318.427C533.089 334.651 528.018 343.451 510.858 352.203C514.682 355.841 521.193 365.284 526.282 370.591C524.266 377.34 521.877 379.673 514.775 380.702C504.584 378.281 499.608 375.61 491.628 368.759C496.865 360.334 496.459 352.901 495.265 343.485C488.837 344.764 480.623 342.518 481.264 334.651C481.427 332.696 482.364 330.887 483.868 329.626C487.271 326.797 489.988 327.538 494.135 327.983C501.46 322.087 503.667 315.991 505.57 307.194Z"/><path fill="#683091" d="M492.311 304.664C511.43 301.977 501.045 318.674 493.487 325.573C488.07 325.651 482.311 325.856 479.948 331.963C479.051 334.334 479.21 336.975 480.385 339.22C482.652 343.607 486.34 344.959 490.649 346.235C488.464 351.204 486.053 355.744 483.551 360.551L480.454 357.685C469.856 346.913 463.362 338.319 454.615 326.183C466.558 315.883 476.117 306.992 492.311 304.664Z"/><path fill="#FCFCFB" d="M337.447 1003.95C346.86 1004.18 356.612 1004.14 366.053 1004.23L374.036 1021.4L366.402 1021.44L329.555 1021.4C332.028 1015.51 334.66 1009.69 337.447 1003.95Z"/><path fill="#FCFCFB" d="M682.061 1003.81L710.535 1004.02C712.631 1009.61 715.547 1015.93 718.108 1021.31L710.51 1021.36L674.283 1021.35C676.817 1015.36 679.203 1009.66 682.061 1003.81Z"/><path fill="#FCFCFB" d="M612.545 852.474C626.173 852.57 629.91 869.921 633.936 880.589L627.885 881.93L617.493 884.216C615.721 878.781 613.226 873.786 611.257 868.475C608.99 862.361 605.137 856.107 612.545 852.474Z"/><path fill="#FCFCFB" d="M431.279 852.557C446.046 852.319 432.272 876.079 429.358 884.153L422.606 882.754L412.945 880.555C416.508 871.255 420.816 855.379 431.279 852.557Z"/><path fill="#F3AFA7" d="M655.404 197.773C657.565 197.758 657.729 197.944 658.89 199.578C659.632 204.255 645.544 222.134 642.096 226.993C640.384 226.002 638.35 224.458 636.703 223.282C641.046 217.064 650.67 202.65 655.404 197.773Z"/><path fill="#F3AFA7" d="M340.617 184.7C345.475 185.727 358.043 204.285 360.716 209.263C360.18 210.76 359.423 210.897 357.895 212.062L356.694 212.936L355.888 212.687C352.782 209 341.023 192.801 339.131 188.633C339.222 186.324 339.271 186.943 340.617 184.7Z"/><path fill="#F3AFA7" d="M660.454 204.755C662.672 205.121 662.939 205.614 663.644 207.514C663.234 211.649 651.237 227.093 647.987 231.701L643.524 227.945C647.799 221.724 655.438 210.165 660.454 204.755Z"/><path fill="#F3AFA7" d="M336.268 191.11C339.599 191.943 351.307 209.963 354.691 214.438L351.318 217.211C350.35 217.828 350.884 217.665 349.711 217.681C346.858 213.824 335.094 198.374 334.243 194.849C334.412 193.001 335.062 192.536 336.268 191.11Z"/><path fill="#FAD18F" d="M526.29 358.983L526.742 359.55C527.018 361.668 527.846 366.531 525.728 367.727L524.498 366.68L520.685 362.342L526.29 358.983Z"/><path fill="#FAD18F" d="M806.673 177.708C809.933 177.318 813.68 177.639 816.939 178.055C853.477 182.724 881.859 206.182 891.522 242.168C907.308 241.102 919.613 242.028 932.624 252.502C945.214 262.636 948.469 273.272 950.045 288.495L792.375 288.057L651.742 287.926C656.271 250.215 689.461 232.864 724.13 245.595C735.016 204.53 764.933 181.254 806.673 177.708Z"/><path d="M533.64 15.4727C540.912 15.6836 542.19 19.6346 542.884 25.992C553.282 30.9466 561.722 38.464 563.367 50.6518C564.118 56.2126 564.07 55.8089 568.511 59.1847C570.644 60.8057 569.95 64.4483 568.956 66.4577C566.848 72.1683 563.564 69.9313 559.352 71.455C559.089 71.5501 553.679 77.5979 552.881 78.4586C565.217 74.7559 574.819 68.4891 585.751 61.9692C587.352 61.0146 589.647 62.0203 591.209 62.5842L591.86 62.8244C595.307 59.4683 596.895 54.096 600.228 51.7314C602.398 51.4573 601.44 51.2671 603.254 52.0067C604.151 53.4573 603.767 55.0593 603.645 56.8603C606.01 55.8901 611.835 52.5282 614.209 53.9535C616.124 55.1026 617.227 58.3044 617.844 60.3439C619.572 66.0541 616.98 65.1403 614.988 68.5125C615.118 69.8637 615.158 69.8852 614.92 71.2051C612.177 73.9631 605.909 74.1023 600.958 75.9448L600.173 76.2411C600.333 77.8569 600.629 79.8491 599.638 81.1527C589.675 94.2602 568.235 103.469 553.487 107.296C554.042 114.412 555.002 125.767 554.329 133.13C554.29 133.558 552.646 135.839 552.284 136.341L551.851 136.934C551.912 140.087 556.645 151.086 557.662 153.483C565.276 171.431 555.818 179.944 547.014 194.04C546.259 195.249 548.547 199.918 545.816 204.144C541.198 211.291 536.491 209.893 530.109 206.624C528.325 209.004 526.544 211.836 524.886 214.348C526.051 217.326 527.219 220.362 528.494 223.306C529.96 226.692 535.278 232.295 534.069 236.085C533.123 239.049 527.201 242.413 524.577 243.848C516.316 235.81 499.959 218.518 493.045 209.541C497.847 202.517 503.179 200.16 508.037 192.228C501.179 185.18 505.254 176.845 513.7 174.312L516.752 165.763C514.039 162.047 512.104 158.679 509.033 155.059C505.022 156.028 499.65 157.999 495.63 159.346C494.773 162.274 493.996 165.758 493.249 168.759C496.297 173.137 496.525 178.037 493.447 182.56C491.693 185.139 490.239 185.181 487.329 185.682C486.809 195.134 489.785 198.518 490.273 207.426C488.06 208.204 485.706 208.792 483.417 209.329C470.643 212.329 457.826 216.125 444.948 218.567C436.079 205.113 443.616 202.352 454.555 198.068C455.848 197.562 459.789 194.413 461.104 193.418C460.975 190.552 460.96 187.479 460.893 184.592C456.808 183.787 452.918 183.338 450.424 179.551C446.77 174.006 449.521 168.702 454.492 165.412C453.857 144.783 453.454 134.59 473.767 124.363C476.32 123.077 480.102 121.104 482.26 119.275C481.701 116.053 481.33 114.73 482.978 111.712C486.282 105.663 489.727 99.6937 493.127 93.6972C486.949 88.3566 481.737 83.9676 476.378 77.3673C470.906 70.6295 465.224 62.2614 462.188 53.9222C461.829 52.9364 462.586 48.4051 462.578 47.8055C462.548 45.6381 454.715 42.7127 453.154 40.9848C451.621 39.2884 451.703 39.4406 451.556 37.3991C452.429 36.3837 452.667 36.3178 452.992 35.0593C450.622 31.1261 450.744 29.4039 454.768 26.0239C456.209 24.8137 455.932 24.4803 457.158 23.2467C461.83 21.5013 464.43 26.0123 467.299 29.216C468.119 26.4411 467.768 25.014 470.701 23.8177L471.78 24.3023C474.455 27.5807 474.986 33.465 475.935 37.882C480.23 37.0001 480.974 37.4606 483.564 41.0327C487.138 45.9636 490.533 51.2085 493.902 56.2736C493.635 49.5673 493.327 45.1451 501.784 45.3076C507.131 31.8913 516.16 24.5139 531.119 24.6002C534.164 24.6178 536.839 25.4711 539.927 25.136C541.204 24.0946 540.759 24.7383 541.233 23.0876C540.285 19.4009 536.402 17.6437 532.827 17.7626L532.626 17.0136L533.64 15.4727Z"/><path fill="#F28115" d="M478.756 38.9366C479.939 39.3991 480.718 40.237 481.398 41.304C488.055 51.7546 495.179 60.6425 503.547 69.7521C508.644 75.3008 509.558 77.3663 516.048 81.7357C519.566 91.8472 528.872 93.224 536.204 85.627C542.93 84.3682 557.039 79.0961 563.669 76.4611C570.919 73.5799 581.292 66.7993 588.327 62.6665C591.922 65.8357 594.333 69.8704 596.786 73.9458C600.899 80.7799 595.462 83.7504 590.487 87.5437C579.096 96.2282 567.299 101.557 553.564 105.472C553.476 102.418 553.194 99.1878 552.977 96.122L551.984 95.8381C550.758 98.0032 553.059 127.354 552.593 133.959C545.328 136.518 537.65 137.703 529.952 137.452C512.709 136.793 494.594 128.656 482.866 116.023C487.327 105.975 497.507 92.5076 500.196 81.9067C500.107 82.0253 500.018 82.1438 499.929 82.2624L499.496 82.8624C497.067 86.1753 495.932 88.4877 494.002 92.1451C480.948 81.3745 468.535 67.2913 463.121 50.9867C467.131 45.9284 473.256 42.1524 478.756 38.9366Z"/><path fill="#FAD18F" d="M484.162 120.416C485.594 120.946 493.118 127.085 495.507 128.511C513.503 139.253 529.24 141.635 549.347 136.986C560.789 165.494 564.013 167.911 544.515 193.935C536.054 191.815 530.885 189.286 523.973 184.146C520.53 181.117 517.873 178.389 515.131 174.742C516.399 171.61 517.545 168.43 518.568 165.21C507.783 151.894 513.077 151.007 494.485 157.897C493.583 160.741 492.738 164.517 491.989 167.477C479.551 171.578 467.953 170.888 456.008 165.708C455.653 135.256 457.849 135.047 484.162 120.416Z"/><path fill="#F3AFA7" d="M526.787 26.6097C529.775 26.3243 539.213 25.5134 540.215 28.5811C539.484 30.9358 538.046 31.9084 535.988 33.0486C534.301 33.2061 533.63 32.752 532.061 32.0936L531.459 31.8362L530.672 32.2329L530.34 33.2702C531.909 35.6502 534.468 35.6018 537.01 34.7332C540.238 33.6307 541.642 30.8435 543.013 27.9245C547.195 29.9479 551.119 32.589 554.281 36.0144C559.548 41.662 562.258 49.2289 561.773 56.9363C561.272 65.0558 557.626 71.4912 551.698 76.8412C540.729 85.2336 526.23 85.8482 514.601 78.3623C508.654 74.511 504.476 68.459 502.983 61.5325C499.235 44.231 509.311 29.91 526.787 26.6097Z"/><path d="M517.715 61.1397C519.075 61.3956 522.972 63.22 524.651 63.8223C530.609 65.9589 534.772 65.8262 540.991 65.8654C539.745 67.9891 538.809 69.2714 537.326 71.2481C535.246 73.0351 533.226 74.2369 530.458 74.6514C527.889 75.0542 525.269 74.3611 523.236 72.7408C519.444 69.7459 518.359 65.6454 517.715 61.1397Z"/><path fill="#F3AFA7" d="M519.974 64.2237C528.5 66.4713 526.077 67.8088 536.934 67.7296L537.044 68.4966L535.478 70.3395C534.618 70.9373 533.707 71.4579 532.756 71.8952C526.131 74.8971 521.992 69.9922 519.974 64.2237Z"/><path d="M539.489 52.1484L541.521 52.9176C543.767 55.6326 542.481 57.6644 540.788 60.317C536.272 59.1105 538.148 55.0761 539.489 52.1484Z"/><path d="M521.689 49.6394L523.193 50.094C525.687 52.7394 524.106 54.7814 522.267 57.3564C520.401 56.5751 520.325 56.2214 519.733 54.5084C520.005 52.1794 520.456 51.7345 521.689 49.6394Z"/><path d="M530.176 56.8045L530.743 57.3075C530.302 61.5553 532.195 57.9881 531.636 61.7861C529.961 61.3894 529.648 61.4635 528.322 60.3534C528.38 58.5253 528.804 58.6252 530.176 56.8045Z"/><path fill="#0993AA" d="M462.51 184.522C470.527 185.434 477.729 185.619 485.785 185.851C485.651 192.617 485.917 194.086 487.965 200.59L462.871 206.7C458.301 207.842 447.169 211.432 443.606 210.397C442.894 209.619 442.354 209.341 442.636 207.971C443.939 201.635 449.662 203.183 453.469 200.908C456.483 199.106 460.247 196.159 462.943 194.135C462.593 190.972 462.586 187.709 462.51 184.522Z"/><path fill="#0993AA" d="M509.327 193.312C515.719 198.112 521.76 201.936 528.563 206.047C526.664 208.718 524.785 211.403 522.928 214.103C524.479 218.943 526.747 226.142 530.55 229.509C533.551 232.165 532.853 235.796 529.995 238.066L528.97 237.698C519.235 228.33 507.678 215.361 498.584 205.17C504.204 201.076 505.736 199.037 509.327 193.312Z"/><path fill="#FCFCFB" d="M511.888 176.373C514.827 176.544 518.295 180.678 520.154 183.18C525.967 190.998 539.353 192.484 545.209 196.595C546.929 200.732 543.196 205.346 540.103 207.769C532.084 208.029 515.445 195.941 508.997 190.748C503.216 186.093 507.329 180.15 511.888 176.373Z"/><path fill="#FCFCFB" d="M454.079 167.259C455.92 167.603 458.545 168.642 460.497 169.261C468.381 171.761 476.869 172.776 485.039 171.211C487.527 170.735 489.225 169.876 491.755 170.095C495.276 172.997 493.158 179.494 491.546 182.99C483.664 185.095 437.028 186.458 454.079 167.259Z"/><path fill="#F3AFA7" d="M601.324 52.8097C603.279 54.6147 600.886 58.6408 599.99 60.7253C603.777 59.1598 610.522 54.6938 613.835 55.6845L614.065 56.4449C612.575 58.6425 607.77 58.2025 607.768 61.1241C609.875 61.5435 612.448 59.1592 615.787 58.996L616.357 59.761C615.388 60.99 610.606 62.9223 608.288 64.6562L608.415 65.2668C610.124 65.5746 613.109 64.265 615.729 63.8704L616.36 63.7795C614.452 67.9343 611.6 66.2541 608.129 68.6438L608.187 69.3243C610.131 69.4851 611.532 69.639 613.452 69.9721L613.316 70.5699C608.28 72.8128 604.674 71.8088 599.403 75.0399C597.235 71.2297 595.197 68.2034 592.747 64.5856C596.557 60.6148 597.992 57.0289 601.324 52.8097Z"/><defs><linearGradient id="gradient_2" gradientUnits="userSpaceOnUse" x1="457.6409" y1="27.829792" x2="470.3154" y2="40.663685"><stop offset="0" stop-color="#F3979E"/><stop offset="1" stop-color="#F9B6B2"/></linearGradient></defs><path fill="url(#gradient_2)" d="M458.721 24.4546C462.339 25.6631 464.733 29.422 467.8 32.1198C469.02 31.2666 470 27.675 470.611 25.9961L471.176 25.7552C471.894 27.1793 473.841 36.8359 474.377 39.1127C470.993 41.3191 467.932 43.7538 464.743 46.2223C461.388 43.7561 459.685 42.7004 456.028 40.69C454.512 39.4067 454.21 39.2631 453.892 37.6711C455.436 37.2713 456.143 37.9534 458.043 38.513C457.194 36.2196 454.902 34.5187 453.583 31.4978L454.14 31.3006C457.201 32.6487 459.708 34.7159 462.939 36.4715C459.631 32.6666 457.058 30.7259 453.921 26.3827C457.476 27.8962 461.646 31.1963 465.046 33.478C462.862 30.7323 459.461 27.7376 458.721 24.4546Z"/><path fill="#0993AA" d="M487.183 202.094L487.866 202.539C488.5 204.104 488.735 204.258 488.411 205.917C486.711 206.784 483.945 207.335 482.009 207.802C469.98 210.7 457.967 214.057 445.881 216.679C444.749 215.34 444.114 214.616 444.223 213.107C447.874 211.594 456.147 209.845 460.226 208.855C469.238 206.708 478.224 204.455 487.183 202.094Z"/><path fill="#0993AA" d="M497.343 206.316C498.845 207.399 500.701 209.639 501.974 211.09C510.347 220.636 519.094 229.779 527.75 239.062C527.669 240.48 527.303 240.409 526.145 241.77C523.079 241.345 498.578 214.07 495.658 209.869C495.698 207.948 495.973 208.234 497.343 206.316Z"/><path fill="#F3AFA7" d="M499.296 46.7981C500.586 47.1387 500.137 46.7528 500.813 47.7922C500.843 50.0381 500.974 57.3849 499.897 58.9646L498.601 58.8863C494.175 54.5386 493.697 50.3178 499.296 46.7981Z"/><path fill="#F3AFA7" d="M563.868 57.3981C564.692 57.7513 565.446 58.25 566.094 58.8702C569.768 62.3264 567.189 66.7504 564.083 69.3577C562.884 69.4798 562.995 69.4217 561.769 69.2752C560.85 67.4371 563.277 60.7202 563.868 57.3981Z"/><path fill="#F3AFA7" d="M518.034 82.8218C518.485 82.889 533.622 85.9394 533.172 85.7855L532.82 86.7751C526.017 89.701 522.491 88.9289 518.034 82.8218Z"/><path d="M180.079 161.157C180.45 161.321 181.547 161.977 181.602 162.184C184.081 171.559 182.91 180.112 188.229 188.847C197.548 204.151 211.521 202.039 225.165 205.878L225.885 206.085C194.523 210.137 184.931 214.991 182.358 248.384C181.934 249.493 182.297 249.111 181.365 249.617C179.32 248.094 178.113 234.731 177.035 231.209C170.975 211.406 156.704 209.221 138.744 205.729C147.969 202.535 158.327 203.237 166.14 197.147C177.553 188.25 178.296 174.074 180.079 161.157Z"/><path fill="#EDE7D5" d="M180.796 171.925C181.737 173.278 182.791 182.836 185.287 187.442C192.551 200.853 199.83 201.483 212.224 205.857C192.272 209.763 184.837 219.252 181.195 238.893C180.041 238.179 178.381 227.175 175.7 222.791C168.766 211.454 160.992 209.081 149.26 205.51C170.959 200.566 176.173 193.088 180.796 171.925Z"/><path d="M88.1972 783.198C98.1512 782.051 107.173 789.133 108.422 799.075C109.671 809.016 102.683 818.11 92.7544 819.462C86.2403 820.349 79.7519 817.669 75.7627 812.443C71.7734 807.218 70.8981 800.253 73.4704 794.203C76.0427 788.153 81.6663 783.95 88.1972 783.198Z"/><path fill="#FAD18F" d="M87.2069 785.32C96.1176 783.594 104.732 789.447 106.408 798.368C108.083 807.288 102.18 815.869 93.2494 817.493C84.3919 819.103 75.8965 813.259 74.2346 804.411C72.5728 795.562 78.3686 787.033 87.2069 785.32Z"/><path d="M218.596 596.359C222.512 596.548 225.813 598.755 228.461 601.661C247.787 622.866 252.623 652.691 250.211 680.404C249.665 686.678 249.877 695.696 245.236 700.205C241.845 699.967 238.735 699.53 238.708 695.387C238.672 689.815 240.386 684.068 240.876 678.553C243.038 654.188 239.195 624.06 219.366 607.3C214.995 603.605 215.477 600.511 218.596 596.359Z"/><path fill="#F28115" d="M219.728 598.118C234.277 599.809 248.594 642.089 248.571 654.543C248.55 665.407 250.124 689.156 244.578 698.284C240.911 698.491 240.091 696.762 240.654 693.481C245.33 666.215 244.678 636.195 227.774 612.953C225.141 609.333 220.073 605.973 218.135 602.262C218.028 600.542 218.827 599.636 219.728 598.118Z"/><path d="M126.598 488.855C129.421 490.661 129.528 498.554 130.289 501.825C131.951 508.969 134.757 513.285 141.774 516.118C144.676 517.29 152.087 516.752 153.835 519.462C151.772 521.033 142.199 520.812 136.412 525.311C129.79 530.461 129.411 540.648 128.113 548.856C124.09 545.637 125.919 533.287 119.958 526.72C114.095 520.26 102.75 521.782 100.623 519.06C102.184 517.745 113.854 515.854 117.188 513.622C125.541 508.032 124.089 497.034 126.598 488.855Z"/><path fill="#FCFCFB" d="M127.124 497.372C132.075 511.833 130.023 514.139 146.713 519.383C132.993 522.037 130.446 527.462 127.164 540.228C124.249 526.583 121.206 522.935 107.599 519.077C122.183 514.395 123.665 512.344 127.124 497.372Z"/><path d="M193.071 557.673C199.702 556.139 206.328 560.248 207.9 566.871C209.472 573.494 205.399 580.142 198.785 581.751C192.119 583.373 185.406 579.261 183.821 572.586C182.237 565.91 186.387 559.22 193.071 557.673Z"/><path fill="#F28115" d="M192.895 559.696C196.492 558.66 200.368 559.646 203.032 562.275C205.696 564.905 206.733 568.768 205.743 572.378C204.753 575.988 201.891 578.782 198.258 579.685C192.783 581.046 187.227 577.772 185.765 572.323C184.303 566.875 187.474 561.259 192.895 559.696Z"/><path d="M108.374 244.745C110.263 243.862 112.484 244.084 114.162 245.323C115.84 246.561 116.705 248.619 116.416 250.685C116.128 252.75 114.732 254.492 112.78 255.224C109.92 256.296 106.723 254.918 105.54 252.103C104.356 249.287 105.607 246.039 108.374 244.745Z"/><path fill="#FAD18F" d="M109.895 246.262C111.886 245.799 113.882 247.012 114.39 248.992C114.898 250.973 113.731 252.996 111.763 253.549C110.449 253.918 109.039 253.547 108.077 252.579C107.115 251.61 106.752 250.197 107.13 248.886C107.507 247.575 108.565 246.57 109.895 246.262Z"/><path d="M115.72 416.8C117.973 415.502 120.85 416.231 122.213 418.446C123.575 420.661 122.928 423.558 120.753 424.983C119.29 425.941 117.421 426.029 115.874 425.211C114.327 424.394 113.347 422.8 113.315 421.051C113.283 419.302 114.205 417.674 115.72 416.8Z"/><path fill="#FCFCFB" d="M116.874 418.245C117.881 417.775 119.068 417.92 119.933 418.618C120.798 419.316 121.19 420.445 120.942 421.529C120.695 422.613 119.853 423.461 118.771 423.715C117.319 424.056 115.844 423.245 115.356 421.836C114.867 420.427 115.523 418.876 116.874 418.245Z"/><path d="M310.657 605.77C312.264 605.112 314.102 605.394 315.438 606.502C316.774 607.61 317.39 609.365 317.04 611.065C316.69 612.765 315.432 614.134 313.766 614.625C311.367 615.332 308.833 614.035 308.005 611.675C307.176 609.314 308.342 606.718 310.657 605.77Z"/><path fill="#FAD18F" d="M312.151 607.305C313.593 607.148 314.911 608.13 315.174 609.556C315.437 610.983 314.556 612.37 313.153 612.738C312.148 613.001 311.081 612.68 310.388 611.907C309.695 611.133 309.493 610.038 309.864 609.068C310.236 608.098 311.119 607.418 312.151 607.305Z"/><path d="M28.1996 754.24C30.6589 753.8 33.0285 755.376 33.5737 757.814C34.1189 760.252 32.646 762.687 30.2333 763.336C28.578 763.781 26.8119 763.283 25.6337 762.038C24.4555 760.793 24.055 759.002 24.5908 757.374C25.1266 755.745 26.5123 754.542 28.1996 754.24Z"/><path fill="#FAD18F" d="M27.8424 756.293C29.1924 755.643 30.8143 756.175 31.5177 757.498C32.2211 758.82 31.7553 760.462 30.4622 761.219C29.5779 761.736 28.4814 761.727 27.6054 761.196C26.7293 760.665 26.2144 759.697 26.2639 758.674C26.3134 757.651 26.9192 756.737 27.8424 756.293Z"/></svg>