<?xml version="1.0" encoding="utf-8" ?><svg xmlns="http://www.w3.org/2000/svg" xmlns:xlink="http://www.w3.org/1999/xlink" width="1024" height="1024" viewBox="140 68 744 956"><path fill="#010000" d="M376.791 254.189C368.518 244.056 347.634 219.279 341.988 206.142C341.328 204.605 343.164 202.753 344.282 201.57L344.772 201.061C346.045 197.816 342.366 196.815 345.173 192.888C346.701 192.212 347.975 191.869 348.953 190.564C349.022 189.323 349.063 186.963 349.721 186.08C353.449 181.083 355.88 187.375 358.637 187.139C359.198 187.091 360.249 184.491 363.716 184.133C369.968 186.639 380.64 205.849 386.865 212.811L387.335 213.33C389.94 209.172 393.523 200.293 399.077 199.861C405.248 203.11 399.981 223.53 398.613 229.51C400.889 232.81 403.415 236.752 406.059 239.696C408.431 242.337 411.813 238.408 414.459 242.694C419.024 250.09 423.142 257.735 427.417 265.301C434.898 278.486 442.632 291.525 450.614 304.413C454.782 311.086 460.498 320.315 465.313 326.41C477.501 315.38 492.191 302.663 509.916 304.719C515.998 305.424 520.727 308.714 525.574 312.112C528.802 311.847 532.031 311.604 535.261 311.384C534.764 314.255 534.448 317.127 534.101 320.019C546.136 335.971 543.088 345.22 526.208 354.68C527.84 357.26 530.017 359.808 531.95 362.199C542.401 356.137 551.812 346.518 559.205 337.062C567.477 326.482 574.678 314.86 581.388 303.243C585.322 296.432 605.707 256.362 608.721 254.857C610.695 253.871 613.887 255.185 615.863 255.754C618.74 252.172 621.803 247.163 623.794 243.022C622.876 238.211 616.659 214.11 623.974 213.734C628.644 215.745 632.406 222.737 634.964 226.985C638.539 222.233 642.11 217.295 645.643 212.536C648.454 208.749 654.595 198.553 658.842 197.604C660.781 197.81 662.001 199.095 663.554 200.334C665.918 200.196 665.721 198.729 668.574 197.658C673.839 198.463 676.953 209.137 678.567 213.47C678.702 213.833 680.823 216.45 681.18 216.885C673.785 232.825 655.833 254.202 645.507 268.892C652.014 276.005 659.232 283.758 662.649 292.85C660.13 302.752 654.757 311.973 649.937 321.009C632.51 354.03 611.49 385.027 587.26 413.436C589.679 418.384 594.944 426.751 597.971 431.406C624.541 431.419 649.142 416.418 673.105 406.956C691.665 399.628 709.721 394.723 729.69 393.104C735.561 392.627 747.761 391.837 753.085 392.981C760.169 394.502 770.465 394.736 776.567 397.468C780.652 398.031 786.7 400.354 790.609 401.844L791.181 402.23C794.772 403.357 797.254 404.609 800.648 406.225C807.906 409.006 822.872 416.903 829.515 421.078C825.274 423.263 824.181 423.734 819.719 424.985C816.868 425.783 808.242 427.013 806.341 428.095C809.554 431.831 834.533 428.723 841.956 450.838C844.455 458.284 845.46 470.488 847.008 477.163C849.78 463.426 848.911 454.828 856.6 442.576C865.832 453.159 876.705 468.279 884.064 480.267C893.862 496.228 902.4 512.36 913.343 527.775C919.763 536.741 926.797 545.252 934.395 553.244C937.133 556.081 944.764 562.823 946.678 565.469C948.112 566.889 950.803 569.401 951.982 570.881C953.573 571.99 956.613 574.524 957.721 576.043C964.899 583.02 971.975 590.101 978.947 597.283C994.972 612.82 1008.92 638.206 1017.58 658.584C1019.66 663.466 1022.08 672.955 1024 676.757L1024 809.408L1024 1024L888.23 1024L886.283 1024L732.16 1024L730.214 1024L686.127 1024L684.087 1024L596.537 1024L594.057 1024L479.514 1024L477.556 1024L387.699 1024L385.784 1024L341.384 1024L339.381 1024L184.543 1024L183.131 1024C177.082 1011.99 177.549 999.129 188.519 990.161C188.5 985.741 188.507 982.74 188.968 978.376C184.109 975.377 178.823 972.761 173.815 969.594C157.559 959.379 142.737 947.043 129.741 932.912C116.668 918.464 102.558 897.32 103.721 876.884C104.644 860.687 115.547 850.723 130.478 846.456C138.978 844.027 149.441 843.402 156.163 837.119C162.288 831.394 164.865 822.566 164.931 814.384C165.245 775.194 118.62 750.163 94.6478 725.551C78.1662 708.63 66.2827 687.172 66.6505 662.995C66.9632 642.444 74.3738 623.806 89.2275 609.434C104.432 594.724 124.127 586.901 145.253 587.39C164.008 587.824 182.732 594.306 196.793 606.942C247.626 652.621 215.303 712.377 240.959 738.868C259.244 757.749 282.083 748.239 304.766 748.476C313.975 735.164 324.634 717.071 333.566 703.052C347.35 681.591 361.392 660.297 375.69 639.175C388.222 620.674 400.963 602.315 413.91 584.101C419.806 575.647 427.037 565.834 432.335 557.181C425.628 544.382 415.569 536.228 401.862 531.914C363.536 519.853 340.597 560.702 305.08 557.777C299.045 557.28 291.842 554.591 286.67 551.419C263.237 536.555 272.095 510.101 250.573 493.691C234.981 481.802 216.76 488.295 204.346 472.619C198.065 464.724 195 451.406 196.763 441.489C204.409 398.469 255.33 369.91 296.549 372.722C306.969 373.432 318.479 375.375 328.594 377.01C355.323 381.33 379.349 370.34 400.104 354.393C399.135 352.662 398.069 351.335 396.885 349.763C375.373 363.552 352.457 370.348 327.019 367.166C316.698 365.876 305.841 363.858 295.57 363.118C278.075 361.852 260.505 364.178 243.942 369.953C219.753 378.456 198.43 394.823 187.158 418.244C185.441 421.811 181.604 436.992 179.82 437.612C179.282 435.909 179.841 434.488 180.234 432.718C190.867 384.819 242.936 359.755 288.719 360.953C310.524 361.524 328 367.772 349.759 365.403C366.822 363.545 381.614 357.089 396.027 348.066C386.536 330.317 366.579 301.055 361.426 280.008C359.846 273.554 371.932 259.571 376.791 254.189Z"/><path fill="#E8E4D3" d="M597.971 431.406C624.541 431.419 649.142 416.418 673.105 406.956C691.665 399.628 709.721 394.723 729.69 393.104C735.561 392.627 747.761 391.837 753.085 392.981C760.169 394.502 770.465 394.736 776.567 397.468C780.652 398.031 786.7 400.354 790.609 401.844L791.181 402.23C794.772 403.357 797.254 404.609 800.648 406.225C807.906 409.006 822.872 416.903 829.515 421.078C825.274 423.263 824.181 423.734 819.719 424.985C816.868 425.783 808.242 427.013 806.341 428.095C809.554 431.831 834.533 428.723 841.956 450.838C844.455 458.284 845.46 470.488 847.008 477.163C849.78 463.426 848.911 454.828 856.6 442.576C865.832 453.159 876.705 468.279 884.064 480.267C893.862 496.228 902.4 512.36 913.343 527.775C919.763 536.741 926.797 545.252 934.395 553.244C937.133 556.081 944.764 562.823 946.678 565.469C948.112 566.889 950.803 569.401 951.982 570.881C953.573 571.99 956.613 574.524 957.721 576.043C964.899 583.02 971.975 590.101 978.947 597.283C994.972 612.82 1008.92 638.206 1017.58 658.584C1019.66 663.466 1022.08 672.955 1024 676.757L1024 809.408L1023.6 810.279C1022.01 813.805 1020.87 818.151 1019.5 821.834C1010.44 846.275 998.391 871.798 981.67 891.909C976.548 870.794 962.595 857.542 942.679 849.679C956.147 827.682 964.863 806.947 967.251 781.036C967.849 774.541 967.814 769.174 968.181 762.779C966.948 761.87 966.246 760.409 966.307 758.879C966.367 757.348 967.181 755.947 968.482 755.138C967.224 752.228 967.308 746.081 966.52 742.668C961.97 722.966 954.538 703.556 942.018 687.465C940.021 684.898 938.237 682.075 935.762 680.219C941.116 645.409 915.328 623.349 881.524 631.903C869.875 617.557 862.008 602.013 853.474 585.957C841.532 564.16 826.689 542.417 806.683 527.518C768.667 499.205 723.539 493.729 684.417 522.806C682.413 524.295 678.858 526.572 677.388 528.52C674.339 532.63 665.953 539.796 661.726 544.72C657.58 549.55 652.665 556.829 649.013 560.86L648.492 560.415C638.005 546.343 627.6 532.209 617.277 518.016C611.679 510.429 605.228 502.425 599.934 494.756C601.541 493.956 603.133 493.124 604.708 492.262C624.784 481.228 618.069 466.277 608.896 450.782C605.211 444.556 601.555 437.743 597.971 431.406Z"/><path fill="#010000" d="M968.482 755.138C970.457 753.908 973.039 754.339 974.508 756.144C975.977 757.949 975.874 760.565 974.268 762.249C972.662 763.933 970.054 764.16 968.181 762.779C966.948 761.87 966.246 760.409 966.307 758.879C966.367 757.348 967.181 755.947 968.482 755.138Z"/><path fill="#F3D296" d="M969.447 756.822C970.229 756.302 971.232 756.244 972.069 756.671C972.906 757.098 973.447 757.943 973.485 758.882C973.523 759.821 973.052 760.708 972.253 761.201C971.045 761.947 969.462 761.586 968.696 760.391C967.931 759.196 968.265 757.607 969.447 756.822Z"/><path fill="#F2BB6B" d="M648.492 560.415C655.238 550.977 668.023 534.683 677.388 528.52C674.339 532.63 665.953 539.796 661.726 544.72C657.58 549.55 652.665 556.829 649.013 560.86L648.492 560.415Z"/><path fill="#B9B5AE" d="M978.947 597.283C976.753 596.828 958.253 578.145 957.721 576.043C964.899 583.02 971.975 590.101 978.947 597.283Z"/><path fill="#B9B5AE" d="M776.567 397.468C780.652 398.031 786.7 400.354 790.609 401.844C788.625 402.182 777.776 398.859 776.567 397.468Z"/><path fill="#B9B5AE" d="M791.181 402.23C794.772 403.357 797.254 404.609 800.648 406.225C798.243 406.551 792.976 403.885 791.181 402.23Z"/><path fill="#B9B5AE" d="M946.678 565.469C948.112 566.889 950.803 569.401 951.982 570.881C949.79 570.426 947.08 567.686 946.678 565.469Z"/><path fill="#010000" d="M671.643 473.188C674.17 472.856 676.509 474.578 676.941 477.09C677.373 479.602 675.744 482.006 673.251 482.537C671.549 482.899 669.785 482.301 668.654 480.978C667.523 479.655 667.208 477.819 667.831 476.194C668.455 474.569 669.917 473.416 671.643 473.188Z"/><path fill="#F3D296" d="M671.56 475.182C672.923 474.798 674.36 475.486 674.915 476.788C675.47 478.091 674.97 479.604 673.748 480.32C672.807 480.872 671.631 480.83 670.731 480.211C669.831 479.593 669.37 478.51 669.548 477.433C669.725 476.356 670.51 475.479 671.56 475.182Z"/><path fill="#F3D296" d="M677.388 528.52C678.858 526.572 682.413 524.295 684.417 522.806C723.539 493.729 768.667 499.205 806.683 527.518C826.689 542.417 841.532 564.16 853.474 585.957C862.008 602.013 869.875 617.557 881.524 631.903C869.829 636.075 863.444 640.107 855.414 649.89C850.489 655.809 846.587 662.509 843.869 669.713C841.463 676.14 839.895 683.992 838.454 690.707C830.241 728.976 815.005 750.526 773.876 749.47C773.67 737.885 771.96 731.72 765.02 722.17C737.524 684.343 710.987 645.794 683.41 608.031L660.301 576.59C657.213 572.389 651.465 565.138 649.013 560.86C652.665 556.829 657.58 549.55 661.726 544.72C665.953 539.796 674.339 532.63 677.388 528.52Z"/><path fill="#010000" d="M821.172 632.506C823.738 632.457 824.827 632.665 826.918 634.108C829.816 639.177 822.92 643.078 819.563 646.13C804.879 659.478 799.704 680.574 797.775 699.589C797.169 705.564 799.124 713.163 794.758 717.431C788.345 717.565 787.495 711.631 787.779 706.528C789.241 680.265 797.559 647.243 821.172 632.506Z"/><path fill="#F3D296" d="M822.198 634.428C824.194 634.532 824.702 634.771 825.799 636.261C825.649 637.27 825.542 638.347 824.693 638.969C801.493 655.969 795.276 685.782 795.261 712.952C795.261 713.486 794.263 715.086 793.885 715.651C789.59 715.067 789.512 710.401 789.696 706.86C790.995 681.873 799.278 648.287 822.198 634.428Z"/><path fill="#261511" d="M834.97 600.765C838.027 599.729 841.406 600.431 843.797 602.6C846.188 604.769 847.216 608.063 846.481 611.207C845.747 614.351 843.367 616.849 840.263 617.735C835.622 619.059 830.773 616.439 829.336 611.832C827.899 607.226 830.399 602.314 834.97 600.765Z"/><path fill="#EB831E" d="M835.958 602.716C839.555 601.631 843.351 603.669 844.432 607.267C845.514 610.865 843.472 614.658 839.873 615.736C836.279 616.813 832.492 614.774 831.412 611.181C830.332 607.588 832.367 603.8 835.958 602.716Z"/><path fill="#010000" d="M769.307 514.758C771.733 514.129 774.308 514.853 776.052 516.652C777.795 518.451 778.437 521.048 777.732 523.452C777.028 525.856 775.085 527.696 772.647 528.27C768.935 529.142 765.212 526.866 764.297 523.165C763.383 519.463 765.617 515.715 769.307 514.758Z"/><path fill="#F7F7F7" d="M769.465 516.778C771.165 516.163 773.065 516.539 774.402 517.755C775.739 518.971 776.293 520.827 775.842 522.578C775.391 524.328 774.009 525.684 772.25 526.103C769.736 526.701 767.192 525.232 766.453 522.756C765.713 520.279 767.035 517.656 769.465 516.778Z"/><path fill="#F3D296" d="M524.138 828.684C528.814 828.554 537.314 828.965 542.081 829.447C547.789 837.324 556.033 838.851 565.244 838.291C583.741 837.168 603.695 832.946 621.644 828.437C625.078 835.98 627.83 845.659 630.778 853.596C625.513 853.346 618.723 853.047 618.471 860.645C618.242 867.536 623.547 875.015 625.688 881.391C630.634 893.533 629.779 907.671 627.225 920.284C614.273 927.724 606.446 935.266 601.658 949.947C601.884 943.983 602.723 926.043 600.931 921.439C598.921 919.278 597.825 919.443 594.793 919.296C597.763 916.558 599.658 914.968 601.468 911.228C608.686 896.309 599.236 880.093 582.415 880.155C576.56 880.134 570.946 882.483 566.851 886.667C563.047 890.492 560.968 895.703 561.094 901.097C561.23 910.062 564.478 912.9 569.918 918.725C568.546 919.06 563.334 919.204 563.141 921.826C561.692 941.516 563.182 974.229 562.494 992.747C559.31 994.796 560.68 995.758 560.094 999.266C560.086 1009.48 560.091 1010.97 548.183 1010.5C541.72 1010.25 526.818 1011.84 521.936 1008.19C520.366 1005.08 520.986 990.94 520.953 986.242L519.861 986.398C520.091 987.731 520.139 987.699 520.619 988.991L520.273 989.781L519.081 989.398L518.982 986.343C518.407 986.918 518.269 991.77 518.077 993.138C517.977 971.901 518.008 950.663 518.171 929.426C518.25 917.457 518.869 905.067 518.028 893.125C517.919 891.579 517.729 888.144 516.62 887.001C513.818 884.116 488.083 884.946 483.613 885.339C482.611 885.426 481.127 885.789 480.438 886.552C477.851 889.416 478.994 930.411 478.939 937.013C473.161 914.831 462.434 903.838 442.335 893.988C443.142 889.679 443.93 886.335 445.269 882.171C447.283 875.906 451.496 869.291 452.399 862.787C453.924 851.799 445.21 852.76 438.058 855.062C440.854 847.081 443.863 839.176 447.082 831.355C466.547 835.895 500.799 843.569 519.419 833.021C520.841 832.216 522.942 829.96 524.138 828.684Z"/><path fill="#010000" d="M520.953 986.242C521.242 974.818 519.868 889.962 522.172 887.081C523.101 885.919 525.382 885.373 526.78 885.173C531.099 884.556 535.615 885.172 539.961 885.171C544.193 885.17 548.555 884.714 552.769 885.074C555.005 885.265 556.856 885.671 558.655 887.041C561.606 892.208 559.425 984.053 560.094 999.266C560.086 1009.48 560.091 1010.97 548.183 1010.5C541.72 1010.25 526.818 1011.84 521.936 1008.19C520.366 1005.08 520.986 990.94 520.953 986.242Z"/><defs><linearGradient id="gradient_0" gradientUnits="userSpaceOnUse" x1="541.14819" y1="937.46356" x2="539.33301" y2="891.0567"><stop offset="0" stop-color="#BC83A6"/><stop offset="1" stop-color="#9C75E4"/></linearGradient></defs><path fill="url(#gradient_0)" d="M526.806 890.895L554.066 890.857L554.202 938.037C554.296 945.274 554.343 952.51 554.344 959.747C554.482 974.694 554.486 989.641 554.355 1004.59L526.541 1004.76C526.657 990.099 526.679 975.435 526.607 960.771C526.57 945.669 526.625 930.567 526.774 915.466L526.806 890.895Z"/><path fill="#EB831E" d="M527.633 951.658C534.845 950.008 543.751 948.59 551.121 949.741C555.506 950.426 551.497 956.047 554.344 959.747C554.482 974.694 554.486 989.641 554.355 1004.59L526.541 1004.76C526.657 990.099 526.679 975.435 526.607 960.771C527.772 957.077 527.628 955.463 527.633 951.658Z"/><path fill="#CA8480" d="M526.774 915.466C526.792 922.831 526.937 930.194 527.21 937.554C532.617 936.745 549.524 936.314 554.202 938.037C554.296 945.274 554.343 952.51 554.344 959.747C551.497 956.047 555.506 950.426 551.121 949.741C543.751 948.59 534.845 950.008 527.633 951.658C527.628 955.463 527.772 957.077 526.607 960.771C526.57 945.669 526.625 930.567 526.774 915.466Z"/><path fill="#F7F7F7" d="M981.67 891.909C998.391 871.798 1010.44 846.275 1019.5 821.834C1020.87 818.151 1022.01 813.805 1023.6 810.279L1024 809.408L1024 1024L888.23 1024C891.697 1012.69 892.389 1008.78 889.598 997.264C917.977 988.466 951.191 972.948 968.323 947.974C980.993 929.503 985.568 913.958 981.67 891.909Z"/><path fill="#F3D296" d="M935.762 680.219C938.237 682.075 940.021 684.898 942.018 687.465C954.538 703.556 961.97 722.966 966.52 742.668C967.308 746.081 967.224 752.228 968.482 755.138C967.181 755.947 966.367 757.348 966.307 758.879C966.246 760.409 966.948 761.87 968.181 762.779C967.814 769.174 967.849 774.541 967.251 781.036C964.863 806.947 956.147 827.682 942.679 849.679C918.9 842.488 893.955 843.023 879.976 818.937C861.938 787.857 877.501 753.654 901.309 730.911C917.751 715.204 930.269 702.816 935.762 680.219Z"/><path fill="#010000" d="M922.333 785.76C929.232 783.885 936.341 787.971 938.193 794.876C940.045 801.782 935.935 808.878 929.023 810.706C922.145 812.526 915.09 808.44 913.247 801.567C911.404 794.695 915.467 787.626 922.333 785.76Z"/><path fill="#F7F7F7" d="M924.852 787.256C930.853 786.76 936.126 791.207 936.649 797.206C937.172 803.204 932.748 808.497 926.753 809.047C920.718 809.601 915.384 805.143 914.858 799.106C914.331 793.069 918.813 787.755 924.852 787.256Z"/><path fill="#0C8FA2" d="M677.244 977.377C682.75 977.152 690.569 978.318 695.233 975.364C699.602 972.597 726.853 978.994 732.498 980.563C735.758 981.469 739.198 982.285 742.278 983.707C746.236 985.534 750.61 989.054 754.819 989.932C762.391 991.512 780.966 990.257 789.454 990.185L846.767 990.052C857.218 990.052 870.197 989.708 880.484 990.303C889.417 996.646 890.765 1005.36 888.803 1015.48C888.269 1018.89 887.48 1020.76 886.283 1024L732.16 1024L730.214 1024L686.127 1024L684.087 1024C685.435 1021.15 686.747 1018.28 688.025 1015.39C684.229 1014.98 669.457 1014.84 665.934 1015.47C665.398 1014.02 664.48 1012.2 664.822 1010.82C670.355 1007.9 694.122 997.526 688.947 986.415C687.849 984.058 679.797 979.069 677.244 977.377Z"/><path fill="#0C536A" d="M888.803 1015.48C888.269 1018.89 887.48 1020.76 886.283 1024L732.16 1024C730.67 1021.02 729.469 1018.28 728.151 1015.22C742.056 1015.75 758.838 1015.07 773.13 1015.15L888.803 1015.48Z"/><path fill="#F7F7F7" d="M693.3 1005.01C703.778 1004.81 713.62 1004.65 724.081 1005.02C725.397 1008.44 726.753 1011.84 728.151 1015.22C729.469 1018.28 730.67 1021.02 732.16 1024L730.214 1024L686.127 1024L684.087 1024C685.435 1021.15 686.747 1018.28 688.025 1015.39C689.641 1011.7 691.187 1008.47 693.3 1005.01Z"/><path fill="#010000" d="M693.3 1005.01C703.778 1004.81 713.62 1004.65 724.081 1005.02C725.397 1008.44 726.753 1011.84 728.151 1015.22C729.469 1018.28 730.67 1021.02 732.16 1024L730.214 1024C727.394 1018.55 725.026 1012.55 722.648 1006.87C713.101 1006.64 703.413 1006.91 693.775 1006.68C691.373 1012.51 688.823 1018.29 686.127 1024L684.087 1024C685.435 1021.15 686.747 1018.28 688.025 1015.39C689.641 1011.7 691.187 1008.47 693.3 1005.01Z"/><defs><linearGradient id="gradient_1" gradientUnits="userSpaceOnUse" x1="713.51202" y1="997.87878" x2="705.57745" y2="984.95245"><stop offset="0" stop-color="#010000"/><stop offset="1" stop-color="#0F2124"/></linearGradient></defs><path fill="url(#gradient_1)" d="M708.537 983.823C712.831 983.116 716.908 985.95 717.742 990.22C718.576 994.491 715.865 998.651 711.622 999.612C708.762 1000.26 705.776 999.301 703.828 997.109C701.881 994.917 701.279 991.839 702.259 989.075C703.238 986.311 705.644 984.299 708.537 983.823Z"/><path fill="#F7F7F7" d="M707.733 986.324C710.696 985.215 713.997 986.719 715.105 989.683C716.212 992.646 714.706 995.947 711.741 997.052C708.779 998.157 705.483 996.652 704.376 993.691C703.27 990.729 704.773 987.432 707.733 986.324Z"/><path fill="#0C8FA2" d="M346.657 978.628C351.727 977.473 354.773 977.103 359.99 976.569C367.716 990.404 375.865 999.737 390.936 1006.63C395.847 1008.87 401.417 1009.71 406.105 1011.6L406.425 1013C406.022 1014.04 406.03 1014.75 405.246 1014.91C399.58 1016.07 389.534 1015.19 383.757 1014.96L387.699 1024L385.784 1024L341.384 1024L339.381 1024L184.543 1024C183.726 1021.07 183.176 1017.99 182.587 1015C180.592 1003.8 182.354 998.418 190.728 990.72C202.538 989.484 223.99 990.065 236.426 990.075C263.449 990.06 290.472 990.219 317.492 990.551C326.107 984.585 334.294 981.769 344.443 979.308C343.88 983.388 343.746 984.174 342.052 987.866C339.241 989.601 335.547 990.587 332.311 991.899C335.312 993.218 338.377 994.366 341.436 995.546C343.418 999.634 343.826 1001.57 344.97 1006.04C346.435 1003.08 347.967 999.14 349.273 996.029C352.054 994.65 354.822 993.245 357.577 991.813C354.408 990.287 351.948 989.089 348.934 987.292C348.096 984.449 347.389 981.504 346.657 978.628Z"/><path fill="#0C536A" d="M182.587 1015L292.739 1015.04L325.114 1015.08C329.685 1015.08 339.154 1014.86 343.342 1015.3C342.069 1018.13 340.742 1021.25 339.381 1024L184.543 1024C183.726 1021.07 183.176 1017.99 182.587 1015Z"/><path fill="#F7F7F7" d="M348.033 1005.46C357.848 1004.75 368.708 1005.06 378.564 1005.29C380.164 1008.46 382.055 1011.81 383.757 1014.96L387.699 1024L385.784 1024L341.384 1024L339.381 1024C340.742 1021.25 342.069 1018.13 343.342 1015.3C344.624 1012.13 346.488 1008.58 348.033 1005.46Z"/><path fill="#010000" d="M348.033 1005.46C357.848 1004.75 368.708 1005.06 378.564 1005.29C380.164 1008.46 382.055 1011.81 383.757 1014.96L387.699 1024L385.784 1024C383.008 1018.38 380.309 1012.72 377.688 1007.02L349.114 1006.98C346.612 1012.68 344.035 1018.36 341.384 1024L339.381 1024C340.742 1021.25 342.069 1018.13 343.342 1015.3C344.624 1012.13 346.488 1008.58 348.033 1005.46Z"/><path fill="#F7F7F7" d="M518.077 993.138C518.269 991.77 518.407 986.918 518.982 986.343L519.081 989.398L520.273 989.781L520.619 988.991C520.139 987.699 520.091 987.731 519.861 986.398L520.953 986.242C520.986 990.94 520.366 1005.08 521.936 1008.19C526.818 1011.84 541.72 1010.25 548.183 1010.5C560.091 1010.97 560.086 1009.48 560.094 999.266C560.68 995.758 559.31 994.796 562.494 992.747C562.499 996.523 561.911 1005.64 563.769 1008.53C568.453 1011.85 586.723 1010.41 593.69 1010.57L594.057 1024L479.514 1024C479.613 1019.99 479.095 1012 479.784 1008.66C486.23 1012.33 498.467 1009.89 506.021 1010.59C509.067 1010.87 514.023 1010.41 516.697 1008.91C518.674 1006.24 518.076 996.756 518.077 993.138Z"/><path fill="#0C536A" d="M440.751 1009.25C441.319 1009.02 441.403 1008.76 441.882 1008.24C443.326 1010.8 444.199 1012.3 445.283 1015.08C446.983 1015.99 473.656 1015.54 477.649 1015.29L477.556 1024L387.699 1024L383.757 1014.96C389.534 1015.19 399.58 1016.07 405.246 1014.91C406.03 1014.75 406.022 1014.04 406.425 1013L406.663 1014.95L407.228 1014.98C407.669 1014 408.08 1013.17 408.57 1012.21C412.228 1011.59 418.628 1012.82 423.35 1012.47C428.095 1012.12 437.585 1009.16 440.751 1009.25Z"/><path fill="#000F15" d="M440.751 1009.25C441.319 1009.02 441.403 1008.76 441.882 1008.24C443.326 1010.8 444.199 1012.3 445.283 1015.08C444.91 1015.66 445.182 1015.37 444.326 1015.78C442.804 1014.55 441.512 1011.14 440.751 1009.25Z"/><path fill="#0C536A" d="M626.782 1015.59C627.607 1013.18 628.005 1011.56 629.449 1009.44L631.094 1009.63C642.387 1012.54 650.513 1013.69 662.125 1011.32C662.588 1012.97 662.829 1014.8 664.126 1015.78C665.313 1015.8 664.89 1015.92 665.934 1015.47C669.457 1014.84 684.229 1014.98 688.025 1015.39C686.747 1018.28 685.435 1021.15 684.087 1024L596.537 1024C596.4 1020.91 595.913 1014.05 596.277 1011.27C596.579 1013.11 596.39 1014.45 597.48 1015.28C607.029 1015.93 617.258 1015.22 626.782 1015.59Z"/><path fill="#000F15" d="M626.782 1015.59C627.607 1013.18 628.005 1011.56 629.449 1009.44L631.094 1009.63C630.137 1011.79 629.356 1014.04 627.775 1015.72L626.782 1015.59Z"/><path fill="#0C8FA2" d="M467.268 989.909C475.921 999.253 477.563 1002.58 477.649 1015.29C473.656 1015.54 446.983 1015.99 445.283 1015.08C444.199 1012.3 443.326 1010.8 441.882 1008.24C454.197 1002.33 457.608 999.667 467.268 989.909Z"/><path fill="#0C8FA2" d="M601.991 993.438C603.167 992.054 604.783 990.599 606.115 989.326C610.103 995.714 615.576 1001.04 622.067 1004.86C624.059 1006.05 627.987 1007.96 629.449 1009.44C628.005 1011.56 627.607 1013.18 626.782 1015.59C617.258 1015.22 607.029 1015.93 597.48 1015.28C596.39 1014.45 596.579 1013.11 596.277 1011.27C603.807 1008.66 602.011 1000.25 601.991 993.438Z"/><path fill="#9E71D2" d="M548.336 467.219C561.516 467.055 577.365 469.209 586.189 480.157C590.452 485.446 594.451 490.998 598.554 496.425L632.609 542.343C629.304 553.056 633.966 562.272 629.269 572.887C621.251 591.008 595.92 591.11 588.566 610.853C586.4 616.669 586.521 625.26 589.36 630.807C599.184 650.002 622.548 637.443 637.967 643.353C654.891 649.84 657.604 670.797 674.839 676.421C681.74 678.672 689.865 677.973 696.239 674.633C706.087 669.471 709.076 661.235 712.223 651.506C715.305 656.457 720.498 663.35 724.006 668.318C733.339 681.479 742.746 694.588 752.227 707.643C760.053 718.55 768.945 728.735 771.696 742.052C755.734 727.63 724.184 732.847 704.598 737.078C659.157 746.894 616.576 769.02 578.914 795.81C563.525 806.757 553.002 810.89 542.397 827.437C537.295 827.497 532.216 827.075 527.141 826.625C529.356 804.745 530.474 781.519 531.906 759.438L539.22 640.291C540.394 620.356 541.028 595.743 543.065 576.303C550.874 566.656 564.241 555.533 573.001 545.327L573.325 544.466L572.55 544.296C568.738 546.654 562.605 553.61 559.312 556.906L540.648 575.254C539.001 623.369 535.077 673.548 532.255 721.754L528.262 786.895C527.451 799.701 526.781 815.55 525.087 828.027C523.936 825.489 522.839 822.753 521.255 820.456C509.536 803.457 460.468 784.222 440.101 777.599C428.66 773.884 416.992 770.911 405.169 768.698C376.008 763.535 316.609 760.074 291.685 777.506C297.538 763.4 307.52 747.874 315.76 734.779C321.041 743.841 327.596 750.126 338.598 751.106C356.846 752.732 364.484 733.163 380.492 728.736C392.843 725.096 410.781 730.505 421.166 721.032C432.977 710.257 431.973 691.178 417.599 683.039C412.968 680.417 405.031 676.282 402.173 672.373C390.144 655.925 411.835 640.163 413.207 624.067C414.017 614.186 410.67 607.45 404.867 600.195L452.175 533.06C457.635 525.269 463.142 517.511 468.696 509.786C474.906 501.037 483.376 487.928 492.42 482.227C508.736 471.944 529.266 467.93 548.336 467.219Z"/><path fill="#F3D296" d="M71.0086 643.399C78.7051 621.581 89.802 606.651 111.155 596.481C129.723 587.737 151.008 586.74 170.313 593.711C190.59 601.119 207.139 616.207 216.384 635.716C222.494 648.702 225.542 663.915 226.605 678.364C228.643 706.059 222.805 737.679 254.902 750.319C270.088 756.299 286.744 750.174 302.399 750.5L303.148 750.51L303.598 750.523C299.679 757.913 285.18 779.545 288.846 786.75C299.494 807.681 341.204 810.133 360.725 815.676C359.473 819.29 358.208 823.178 356.88 826.739C348.754 825.548 340.104 824.58 333.003 829.795C329.072 832.683 326.007 839.546 325.93 844.406L325.354 846.225C324.125 853.766 322.953 861.315 321.837 868.874C319.215 885.74 317.188 895.253 302.402 905.836C292.936 912.612 280.892 917.749 270.428 923.104C260.304 928.284 249.777 934.144 239.524 938.891L237.019 940.001C217.456 949.939 199.076 954.714 189.491 976.506C158.233 958.457 131.31 938.946 113.302 906.494C100.567 883.545 102.09 855.861 131.008 848.074C138.369 846.092 145.771 845.399 152.585 841.813L153.19 841.488L155.389 840.078C167.207 831.044 168.967 814.264 164.916 800.815C150.927 754.904 98.2315 740.459 77.4029 698.855C69.7631 683.595 65.4926 661.561 70.8137 644.97L71.0086 643.399Z"/><path fill="#F3D296" d="M71.0086 643.399C78.7051 621.581 89.802 606.651 111.155 596.481C129.723 587.737 151.008 586.74 170.313 593.711C190.59 601.119 207.139 616.207 216.384 635.716C222.494 648.702 225.542 663.915 226.605 678.364C228.643 706.059 222.805 737.679 254.902 750.319C270.088 756.299 286.744 750.174 302.399 750.5L303.148 750.51L303.598 750.523C299.679 757.913 285.18 779.545 288.846 786.75C299.494 807.681 341.204 810.133 360.725 815.676C359.473 819.29 358.208 823.178 356.88 826.739C348.754 825.548 340.104 824.58 333.003 829.795C329.072 832.683 326.007 839.546 325.93 844.406L325.354 846.225C310.172 844.211 281.185 831.259 266.664 824.975C262.333 823.101 255.611 819.032 250.741 816.77L249.6 816.416C249.074 815.206 243.403 811.934 241.943 810.929C236.977 807.558 232.231 803.874 227.733 799.9C204.942 779.98 195.888 759.388 187.567 731.02C181.938 711.831 179.207 688.568 165.875 673.06C149.141 653.594 120.072 646.79 95.4403 645.58C87.787 645.18 77.9769 646.354 71.3482 645.868L70.8137 644.97L71.0086 643.399Z"/><path fill="#E8E4D3" d="M71.0086 643.399C78.8486 643.314 86.902 642.79 94.7546 643.221C119.366 644.571 145.779 650.351 164.055 667.988C175.8 679.324 180.229 694.021 184.204 709.26C187.421 721.594 190.787 733.96 194.804 745.908C207.072 782.392 232.951 806.052 267.018 822.372C281.796 829.452 309.634 841.123 325.93 844.406L325.354 846.225C310.172 844.211 281.185 831.259 266.664 824.975C262.333 823.101 255.611 819.032 250.741 816.77L249.6 816.416C249.074 815.206 243.403 811.934 241.943 810.929C236.977 807.558 232.231 803.874 227.733 799.9C204.942 779.98 195.888 759.388 187.567 731.02C181.938 711.831 179.207 688.568 165.875 673.06C149.141 653.594 120.072 646.79 95.4403 645.58C87.787 645.18 77.9769 646.354 71.3482 645.868L70.8137 644.97L71.0086 643.399Z"/><path fill="#E8E4D3" d="M189.491 976.506C158.233 958.457 131.31 938.946 113.302 906.494C100.567 883.545 102.09 855.861 131.008 848.074C138.369 846.092 145.771 845.399 152.585 841.813L153.19 841.488C169.469 881.819 191.398 921.13 233.526 938.891C234.676 939.377 235.835 939.645 237.019 940.001C217.456 949.939 199.076 954.714 189.491 976.506Z"/><path fill="#010000" d="M250.741 816.77C251.519 820.505 252.012 825.759 252.82 829.7C256.157 845.96 264.768 852.193 280.547 855.191C283.065 855.67 286.684 855.589 288.382 857.153C286.539 859.369 274.766 860.42 270.69 861.907C259.636 865.94 254.878 874.269 252.697 885.217C251.956 888.934 251.855 893.711 250.208 897.002C249.359 896.765 248.738 895.581 248.618 894.879C246.205 880.732 244.413 867.147 228.539 861.915C225.521 860.92 213.23 859.176 211.567 857.723C215.671 854.161 228.81 855.499 237.748 847.779C248.73 838.295 246.402 820.061 249.6 816.416L250.741 816.77Z"/><path fill="#E8E4D3" d="M249.639 825.85C254.937 846.71 259.148 852.308 280.626 857.462C261.292 860.886 253.584 867.949 250.166 887.564C246.672 886.383 252.174 864.053 218.975 857.476C240.427 852.684 244.909 846.805 249.639 825.85Z"/><path fill="#F7F7F7" d="M155.389 840.078C158.923 844.702 160.826 852.869 163.334 858.288C165.436 862.83 167.343 867.545 169.762 871.965C183.219 896.476 198.527 916.101 222.822 930.779C227.23 933.442 237.306 937.288 239.524 938.891L237.019 940.001C235.835 939.645 234.676 939.377 233.526 938.891C191.398 921.13 169.469 881.819 153.19 841.488L155.389 840.078Z"/><defs><linearGradient id="gradient_2" gradientUnits="userSpaceOnUse" x1="806.57538" y1="752.18811" x2="838.79181" y2="938.51727"><stop offset="0" stop-color="#F3AD49"/><stop offset="1" stop-color="#F4CA80"/></linearGradient></defs><path fill="url(#gradient_2)" d="M840.191 691.765C840.786 684.88 844.273 674.982 846.576 668.532C860.89 628.456 915.323 613.652 933.679 659.354L934.302 661.89C938.784 708.23 901.003 720.119 880.831 753.311C876.044 762.368 872.438 770.647 870.866 780.84C867.285 804.073 877.889 828.245 899.052 839.297L899.516 839.535L901.668 840.653C924.311 849.331 945.687 846.854 964.663 865.352C969.82 870.313 973.979 876.216 976.914 882.742C983.096 896.782 982.64 914.485 977.001 928.609C964.622 959.615 939.722 975.264 910.533 987.855C903.61 990.9 896.469 993.424 889.17 995.404C887.162 993.487 884.794 991.324 882.893 989.355C883.652 980.466 882.341 972.768 876.335 965.633C868.783 956.663 857.083 951.169 846.884 945.768C844.814 944.672 839.834 942.369 838.157 941.177L836.571 940.619C833.612 938.791 826.885 935.694 823.55 934.025L794.095 919.412C782.309 913.565 770.609 908.158 761.123 898.785C753.659 891.411 752.508 882.581 750.79 872.755L750.194 869.74C749.986 867.293 749.537 864.616 749.129 862.168C744.955 837.154 744.988 820.938 713.53 826.954C711.279 819.041 707.473 810.491 705.018 802.013C729.677 791.687 764.031 778.16 773.619 751.227C815.583 753.582 831.444 729.243 840.191 691.765Z"/><defs><linearGradient id="gradient_3" gradientUnits="userSpaceOnUse" x1="804.64331" y1="694.07495" x2="788.03015" y2="871.95837"><stop offset="0" stop-color="#EF9025"/><stop offset="1" stop-color="#F4BE64"/></linearGradient></defs><path fill="url(#gradient_3)" d="M840.191 691.765C840.786 684.88 844.273 674.982 846.576 668.532C860.89 628.456 915.323 613.652 933.679 659.354L934.302 661.89C938.784 708.23 901.003 720.119 880.831 753.311C874.563 748.385 870.984 748.587 866.078 740.809C832.209 761.799 829.363 785.083 818.067 820.003C808.255 850.336 781.455 866.767 750.79 872.755L750.194 869.74C749.986 867.293 749.537 864.616 749.129 862.168C744.955 837.154 744.988 820.938 713.53 826.954C711.279 819.041 707.473 810.491 705.018 802.013C729.677 791.687 764.031 778.16 773.619 751.227C815.583 753.582 831.444 729.243 840.191 691.765Z"/><path fill="#EB831E" d="M840.191 691.765C840.786 684.88 844.273 674.982 846.576 668.532C860.89 628.456 915.323 613.652 933.679 659.354C923.792 659.862 911.912 665.649 905.306 673.093C897.744 681.614 896.506 690.729 894.59 701.556C885.885 701.343 877.151 702.253 868.582 701.701C857.354 698.196 852.281 697.958 840.576 696.699C840.211 695.408 840.543 694.071 840.323 692.599L840.191 691.765Z"/><path fill="#EB831E" d="M934.302 661.89C938.784 708.23 901.003 720.119 880.831 753.311C874.563 748.385 870.984 748.587 866.078 740.809C876.937 732.417 892.258 722.31 895.122 708.352C900.602 681.65 903.719 666.571 934.302 661.89Z"/><path fill="#E8E4D3" d="M894.59 701.556C896.506 690.729 897.744 681.614 905.306 673.093C911.912 665.649 923.792 659.862 933.679 659.354L934.302 661.89C903.719 666.571 900.602 681.65 895.122 708.352C892.258 722.31 876.937 732.417 866.078 740.809C832.209 761.799 829.363 785.083 818.067 820.003C808.255 850.336 781.455 866.767 750.79 872.755L750.194 869.74C760.669 867.801 768.5 864.961 777.995 860.895C823.595 841.369 814.127 794.35 839.774 760.521C855.911 739.235 883.302 733.576 892.821 707.602C893.486 705.822 894.069 703.432 894.59 701.556Z"/><path fill="#E58F32" d="M868.582 701.701C877.151 702.253 885.885 701.343 894.59 701.556C894.069 703.432 893.486 705.822 892.821 707.602C892.681 706.783 892.09 703.944 891.532 703.439C887.297 699.6 872.212 705.304 868.582 701.701Z"/><path fill="#F3D296" d="M836.571 940.619C839.353 937.775 850.742 934.141 855.182 932.152C859.251 930.307 863.208 928.223 867.032 925.912C892.179 910.413 900.428 885.37 899.811 857.007C899.759 854.613 898.822 841.118 899.516 839.535L901.668 840.653C924.311 849.331 945.687 846.854 964.663 865.352C969.82 870.313 973.979 876.216 976.914 882.742C983.096 896.782 982.64 914.485 977.001 928.609C964.622 959.615 939.722 975.264 910.533 987.855C903.61 990.9 896.469 993.424 889.17 995.404C887.162 993.487 884.794 991.324 882.893 989.355C883.652 980.466 882.341 972.768 876.335 965.633C868.783 956.663 857.083 951.169 846.884 945.768C844.814 944.672 839.834 942.369 838.157 941.177L836.571 940.619Z"/><path fill="#E8E4D3" d="M836.571 940.619C839.353 937.775 850.742 934.141 855.182 932.152C859.251 930.307 863.208 928.223 867.032 925.912C892.179 910.413 900.428 885.37 899.811 857.007C899.759 854.613 898.822 841.118 899.516 839.535L901.668 840.653C903.929 886.364 898.565 917.098 854.053 935.629C849.288 937.613 843.246 940.422 838.157 941.177L836.571 940.619Z"/><path fill="#66318C" d="M411.856 372.437C414.075 373.144 421.023 383.944 423.344 386.772C435.858 402.025 450.915 420.375 465.624 433.316C460.866 442.653 455.922 458.798 452.087 468.934C448.273 480.129 443.584 490.95 440.357 502.333C436.244 516.842 440.499 522.205 454.585 525.263C449.525 534.036 440.19 546.97 434.14 555.154C427.502 545.392 419.27 536.374 408.141 531.848C389.052 524.084 368.572 529.49 351.253 539.12C343.261 543.564 336.269 549.046 327.699 552.466C315.932 557.163 304.446 557.247 292.839 552.38C269.455 541.725 273.013 522.814 262.307 504.024C253.513 488.227 239.043 484.908 222.491 481.421C201.737 477.251 195.104 454.805 200.14 436.401C206.373 413.621 227.506 400.154 248.586 393.257C286.253 380.934 318.197 399.881 356.511 395.137C371.515 393.138 385.961 388.133 398.985 380.422C403.409 377.835 407.233 375.035 411.856 372.437Z"/><path fill="#F2BB6B" d="M413.575 244.916C415.308 246.068 428.897 271.173 431.159 274.986C447.934 303.275 464.149 332.613 486.753 356.799C495.275 365.917 505.392 376.422 516.894 381.682C539.353 391.118 540.304 375.444 540.496 358.678C545.333 353.87 550.396 349.422 554.99 344.371C569.181 328.766 579.823 310.315 590.068 292.013C596.092 281.249 601.874 268.976 608.215 258.596C611.799 261.133 617.484 267.789 621.09 271.232C633.572 283.151 644.737 287.684 660.476 293.576C658.334 301.578 652.456 311.624 648.504 319.161C630.759 352.996 611.067 382.447 586.377 411.497C580.992 403.082 576.474 393.685 569.844 386.089C573.106 393.893 580.5 405.702 585.051 413.463C592.436 426.006 599.713 438.612 606.88 451.28C611.928 460.081 616.073 465.942 615.952 476.319C594.365 461.304 568.32 459.053 542.671 460.94C512.113 463.19 460.65 485.142 440.927 509.133C442.38 501.545 448.779 484.546 451.699 476.686C456.665 463.318 461.77 446.973 467.41 434.202C468.478 434.543 469.556 434.852 470.642 435.129C478.382 437.037 482.307 432.852 484.926 426.021C489.78 413.359 497.936 398.588 500.334 385.396C496.33 391.427 488.312 410.542 486.323 417.456C477.362 448.594 461.946 427.975 448.296 412.99C420.115 382.291 396.163 347.965 377.074 310.923C372.223 301.612 366.569 290.883 363.192 280.994C378.28 275.788 389.514 269.208 400.866 257.761C404.958 253.634 408.992 248.355 413.575 244.916Z"/><path fill="#E8E4D3" d="M702.911 858.653C700.514 840.471 701.423 827.609 723.819 827.212C742.567 826.88 742.914 838.31 745.686 853.138C746.632 859.945 747.738 866.728 749.003 873.483C751.817 888.857 753.645 896.588 767.004 906.407C778.099 914.561 791.98 920.629 804.39 926.641L839.785 944.191C859.577 953.96 882.275 962.92 881.346 988.494L755.377 988.713C737.605 976.348 717.436 974.979 696.466 972.156C699.213 950.451 690.466 927.842 668.651 919.571C662.844 917.369 658.236 914.128 652.943 910.969C646.248 907.236 638.732 905.311 631.215 903.889C630.933 899.052 630.5 893.656 630.434 888.854C644.742 885.304 659.095 881.938 673.489 878.756C681.724 876.909 690.053 875.235 698.157 872.895C704.84 870.966 703.504 863.968 702.911 858.653Z"/><path fill="#F7F7F7" d="M702.911 858.653C700.514 840.471 701.423 827.609 723.819 827.212C742.567 826.88 742.914 838.31 745.686 853.138C730.498 855.635 718.243 857.653 702.911 858.653Z"/><path fill="#010000" d="M702.39 892.218C705.214 894.727 704.577 904.597 708.131 908.504C711.568 912.282 722.113 913.748 724.512 916.075C721.561 917.685 717.691 917.131 713.495 919.159C705.239 923.15 705.632 929.772 702.917 937.687C699.678 934.631 701.221 924.646 694.842 920.665C690.092 917.7 685.138 918.007 681.329 915.909C682.089 913.764 690.214 913.091 693.241 911.416C700.509 907.394 700.127 899.506 702.39 892.218Z"/><path fill="#E8E4D3" d="M702.628 900.371C705.836 910.843 707.849 912.617 718.383 915.535C708.846 918.563 706.168 920.382 702.728 929.957L702.301 929.929C699.333 919.69 697.446 918.38 687.127 915.433C697.536 912.81 699.715 910.789 702.628 900.371Z"/><path fill="#010000" d="M730.116 894.64C736.028 894.48 742.973 894.088 748.798 894.669C756.476 895.434 757.376 901.748 751.058 905.922C745.345 906.213 738.969 906.186 733.298 905.833C725.671 905.358 723.887 898.974 730.116 894.64Z"/><path fill="#0C8FA2" d="M731.02 896.743C736.484 896.462 747.97 895.398 752.19 898.326C753.947 901.444 753.007 902.359 750.501 903.948C746.116 904.232 729.305 905.691 728.361 899.855C729.171 898.011 729.337 897.979 731.02 896.743Z"/><path fill="#010000" d="M774.103 928.165C776.363 928.036 779.097 928.049 781.565 928.113C786.356 928.238 801.483 927.053 797.43 935.985C796.555 937.914 794.76 938.571 792.866 939.238L774.021 939.364C770.979 937.564 768.106 935.568 769.842 930.967C770.52 929.167 772.321 928.578 774.103 928.165Z"/><path fill="#0C8FA2" d="M773.282 930.479C777.624 930.05 789.4 929.862 793.724 931.223C795.067 931.646 795.311 932.531 795.736 933.576C795.513 935.367 795.24 935.416 794.042 936.762C789.609 937.422 777.807 937.939 773.531 936.313C772.137 935.783 771.938 934.933 771.508 933.809C771.676 932.053 772.112 931.796 773.282 930.479Z"/><path fill="#010000" d="M745.983 912.551C751.554 912.245 758.052 912.145 763.63 912.424C771.021 912.793 776.352 917.021 768.346 922.855C762.326 923.646 733.314 925.799 745.983 912.551Z"/><defs><linearGradient id="gradient_4" gradientUnits="userSpaceOnUse" x1="752.21869" y1="911.3515" x2="763.2204" y2="923.70276"><stop offset="0" stop-color="#127989"/><stop offset="1" stop-color="#1E97A4"/></linearGradient></defs><path fill="url(#gradient_4)" d="M747.485 914.573C752.514 914.425 763.838 913.698 768.727 915.575C770.022 916.072 770.142 917.036 770.394 918.077C769.61 919.849 769.507 919.777 768 920.889C763.237 921.371 747.778 922.997 745.566 917.825C745.716 916.201 746.363 915.783 747.485 914.573Z"/><path fill="#010000" d="M715.065 949.75C719.304 948.689 723.612 951.22 724.748 955.44C725.883 959.66 723.428 964.012 719.229 965.222C716.446 966.024 713.447 965.261 711.385 963.228C709.323 961.194 708.518 958.206 709.281 955.412C710.044 952.618 712.255 950.453 715.065 949.75Z"/><path fill="#E8E4D3" d="M714.607 952.267C717.51 950.944 720.936 952.216 722.272 955.112C723.608 958.008 722.352 961.44 719.462 962.79C716.553 964.148 713.094 962.882 711.75 959.967C710.405 957.052 711.686 953.599 714.607 952.267Z"/><path fill="#E8E4D3" d="M326.24 852.596C328.469 834.124 332.343 825.184 353.381 827.736C371.846 829.977 371.324 844.634 369.181 859.27C368.543 863.454 367.3 869.997 372.217 872.053C377.753 874.367 384.004 875.471 389.865 876.819L426.478 885.623C430.382 886.566 437.454 887.693 440.762 888.887L441.099 889.631C440.945 891.383 441.2 892.132 440.311 893.293C388.404 875.585 340.799 921.28 359.376 974.603C342.582 976.514 330.69 979.666 316.476 988.834C290.851 988.103 263.16 988.561 237.392 988.521L209.711 988.496C203.803 988.496 195.976 988.307 190.246 989.034C190.153 982.507 190.466 975.584 194.418 970.074C204.43 956.116 221.999 949.401 236.942 942.161C248.624 936.414 260.263 930.581 271.858 924.66C282.854 919.111 292.324 914.412 302.755 907.812C324.164 894.265 321.851 875.503 326.24 852.596Z"/><path fill="#F7F7F7" d="M326.24 852.596C328.469 834.124 332.343 825.184 353.381 827.736C371.846 829.977 371.324 844.634 369.181 859.27C363.78 858.008 328.135 854.389 326.24 852.596Z"/><path fill="#010000" d="M319.897 895.004C325.016 894.456 330.509 894.859 335.644 894.761C342.934 894.623 348.69 900.806 340.624 905.802C334.012 906.648 305.024 908.914 319.897 895.004Z"/><path fill="#0C8FA2" d="M320.141 897.083C325.058 896.917 341.384 894.867 342.539 900.712C341.983 902.647 341.851 902.684 340.266 904.048C336.677 904.86 311.299 907.089 320.141 897.083Z"/><path fill="#010000" d="M275.712 928.548C281.178 928.468 286.668 928.302 292.132 928.468C299.681 928.698 306.571 932.884 297.805 939.233C292.486 940.127 274.363 941.158 272.338 934.936C272.409 931.883 273.561 930.687 275.712 928.548Z"/><path fill="#0C8FA2" d="M275.899 930.535C280.996 930.36 296.721 928.72 299.036 933.663C298.903 935.507 298.514 935.741 297.331 937.149C294.003 937.766 280.582 938.102 277.069 936.713C275.62 936.14 275.334 935.602 274.729 934.295C274.622 932.308 274.828 932.165 275.899 930.535Z"/><path fill="#010000" d="M301.671 912.626C304.626 912.551 307.851 912.398 310.764 912.413C315.607 912.438 327.501 910.764 326.237 918.73C325.892 920.905 324.582 921.813 322.943 922.979C318.512 923.623 302.624 924.957 299.268 920.843C297.051 918.124 299.028 914.681 301.671 912.626Z"/><path fill="#0C8FA2" d="M302.341 914.5C306.953 914.385 323.512 912.693 324.462 917.799C323.77 919.492 323.365 919.615 321.883 920.651C317.491 921.598 302.054 923.467 300.467 918.088C300.771 916.223 301.166 915.949 302.341 914.5Z"/><path fill="#010000" d="M361.757 887.755C364.707 886.976 367.847 887.85 369.97 890.041C372.094 892.232 372.869 895.398 371.998 898.322C371.127 901.246 368.745 903.472 365.769 904.144C361.282 905.157 356.809 902.389 355.715 897.92C354.621 893.451 357.309 888.93 361.757 887.755Z"/><path fill="#9E71D2" d="M361.553 890.274C363.609 889.439 365.957 889.786 367.684 891.179C369.412 892.573 370.247 894.794 369.866 896.98C369.485 899.167 367.947 900.974 365.85 901.701C362.722 902.785 359.3 901.179 358.135 898.081C356.97 894.982 358.486 891.52 361.553 890.274Z"/><path fill="#010000" d="M340.08 909.867C341.891 911.472 341.741 916.888 343.894 919.069C346.149 921.354 352.246 921.667 353.614 924.048C351.749 925.562 348.685 925.199 346.47 926.394C342.731 928.409 341.813 933.2 340.59 937.162L340.231 937.196C338.528 935.914 337.734 930.976 336.513 928.732C334.952 925.864 328.597 924.488 325.202 923.383C337.646 919.209 335.11 922.433 340.08 909.867Z"/><path fill="#E8E4D3" d="M340.245 916.906C342.421 921.183 343.167 921.352 347.329 923.527C343.399 925.666 342.747 926.328 340.349 930.114L339.849 930.16C338.554 927.543 336.716 925.645 334.942 923.19C337.699 921.305 338.455 920.475 339.969 917.468L340.245 916.906Z"/><path fill="#010000" d="M333.543 949.755C337.904 948.328 342.597 950.698 344.038 955.053C345.479 959.409 343.125 964.11 338.774 965.565C334.403 967.027 329.676 964.66 328.228 960.284C326.78 955.908 329.163 951.189 333.543 949.755Z"/><path fill="#E58F32" d="M334.178 951.752C337.343 950.64 340.813 952.284 341.957 955.438C343.101 958.592 341.491 962.079 338.349 963.254C336.288 964.025 333.972 963.63 332.283 962.219C330.594 960.808 329.793 958.599 330.185 956.434C330.577 954.269 332.102 952.481 334.178 951.752Z"/><defs><linearGradient id="gradient_5" gradientUnits="userSpaceOnUse" x1="416.72156" y1="1005.0613" x2="417.29205" y2="951.82465"><stop offset="0" stop-color="#F58A0E"/><stop offset="1" stop-color="#DA895D"/></linearGradient></defs><path fill="url(#gradient_5)" d="M363.217 935.348C367.885 919.178 380.192 906.216 395.664 899.832C410.137 893.902 426.364 893.907 440.833 899.847C452.485 904.752 463.972 914.908 468.816 926.742C473.919 935.281 475.936 951.895 473.497 961.481C472.919 971.688 464.524 984.822 457.177 991.569C421.344 1024.48 359.121 1000.33 360.985 949.34C360.646 944.888 362.02 939.582 363.217 935.348Z"/><defs><linearGradient id="gradient_6" gradientUnits="userSpaceOnUse" x1="417.69208" y1="937.53448" x2="418.55695" y2="895.95959"><stop offset="0" stop-color="#BD82A0"/><stop offset="1" stop-color="#9D75E9"/></linearGradient></defs><path fill="url(#gradient_6)" d="M363.217 935.348C367.885 919.178 380.192 906.216 395.664 899.832C410.137 893.902 426.364 893.907 440.833 899.847C452.485 904.752 463.972 914.908 468.816 926.742C473.919 935.281 475.936 951.895 473.497 961.481C472.412 959.19 473.567 958.128 473.167 954.815C471.225 953.314 450.414 954.709 446.121 954.748C445.735 956.953 446.016 957.776 444.748 959.031C446.98 951.593 446.044 943.565 442.161 936.84C436.822 927.592 426.715 922.156 416.055 922.799C405.396 923.442 396.016 930.054 391.827 939.877C391.345 938.697 391.531 938.312 391.579 936.956C391.01 936.71 384.485 936.659 383.492 936.777C379.878 937.208 365.55 934.598 363.217 935.348Z"/><defs><linearGradient id="gradient_7" gradientUnits="userSpaceOnUse" x1="459.14529" y1="954.92401" x2="457.89255" y2="936.14032"><stop offset="0" stop-color="#D78966"/><stop offset="1" stop-color="#C18596"/></linearGradient></defs><path fill="url(#gradient_7)" d="M442.161 936.84L443.71 938.218C445.165 938.326 449.465 937.742 450.622 937.317C454.913 935.741 468.421 938.132 471.38 935.908C471.334 933.836 469.325 929.895 468.404 927.801L468.816 926.742C473.919 935.281 475.936 951.895 473.497 961.481C472.412 959.19 473.567 958.128 473.167 954.815C471.225 953.314 450.414 954.709 446.121 954.748C445.735 956.953 446.016 957.776 444.748 959.031C446.98 951.593 446.044 943.565 442.161 936.84Z"/><path fill="#010000" d="M391.827 939.877C396.016 930.054 405.396 923.442 416.055 922.799C426.715 922.156 436.822 927.592 442.161 936.84C446.044 943.565 446.98 951.593 444.748 959.031C440.673 972.616 427.137 981.056 413.145 978.737C399.153 976.418 389.063 964.063 389.588 949.89C389.715 946.443 390.474 943.049 391.827 939.877Z"/><path fill="#EB831E" d="M414.047 928.57C435.199 926.791 444.889 946.252 435.725 963.907C430.689 964.182 423.766 965.173 418.618 965.777C413.245 966.632 408.989 967.036 403.717 968.517C390.544 954.973 394.705 933.298 414.047 928.57Z"/><path fill="#0C8FA2" d="M428.427 966.697C429.823 966.474 432.989 966.413 434.532 966.337C427.321 973.693 423.256 974.165 413.353 973.376C410.012 972.371 409.208 972.081 406.13 970.408C412.706 968.606 421.58 967.586 428.427 966.697Z"/><path fill="#CA8480" d="M363.217 935.348C365.55 934.598 379.878 937.208 383.492 936.777C384.485 936.659 391.01 936.71 391.579 936.956C391.531 938.312 391.345 938.697 391.827 939.877C390.474 943.049 389.715 946.443 389.588 949.89C388.733 951.432 389.495 951.407 388.657 952.58C383.139 950.687 373.764 952.674 367.758 952.521C364.723 952.443 363.689 953.663 362.031 953.723C361.695 953.135 361.221 950.276 360.985 949.34C360.646 944.888 362.02 939.582 363.217 935.348Z"/><path fill="#EB831E" d="M634.459 544.856C645.011 557.659 657.386 576.047 667.646 589.886C676.409 601.724 685.068 613.638 693.622 625.627C698.584 632.48 705.925 642.049 709.954 649.121C706.295 670.781 689.359 682.934 668.753 670.823C660.633 664.128 655.685 655.343 648.287 647.141C633.246 630.466 603.13 649.93 592.007 630.95C582.022 613.914 597.541 598.805 611.757 592.039C623.647 586.38 634.663 575.44 633.556 561.127C633.306 555.66 633.042 550.282 634.459 544.856Z"/><path fill="#EB831E" d="M403.673 602.423C404.902 603.574 405.389 604.154 406.318 605.546C420.406 626.669 400.21 640.243 396.735 658.032C392.693 678.721 415.53 679.977 423.763 691.685C426.714 695.882 427.719 702.113 426.519 707.121C420.183 733.553 394.168 720.96 377.074 727.494C369.442 730.412 359.944 740.693 352.17 745.801C351.428 746.205 350.677 746.591 349.916 746.958C344.454 749.506 338.197 749.752 332.552 747.639C324.925 744.853 320.791 739.286 317.515 732.305C341.338 692.532 368.512 653.909 394.263 615.338C397.141 611.026 400.41 606.432 403.673 602.423Z"/><defs><linearGradient id="gradient_8" gradientUnits="userSpaceOnUse" x1="647.17609" y1="1005.5439" x2="648.62854" y2="950.03241"><stop offset="0" stop-color="#F08813"/><stop offset="1" stop-color="#D9895A"/></linearGradient></defs><path fill="url(#gradient_8)" d="M605.983 962.691C604.983 914.57 681.575 904.251 690.522 955.689C691.451 961.434 691.206 965.649 690.859 971.472C671.204 971.542 651.55 971.512 631.895 971.381C632.612 973.507 633.294 975.803 634.581 977.641C642.597 989.099 658.497 986.781 666.712 977.123C672.258 980.654 678.604 985.52 683.759 989.67C658.943 1023.62 601.568 1002.73 605.983 962.691Z"/><defs><linearGradient id="gradient_9" gradientUnits="userSpaceOnUse" x1="648.06195" y1="954.15955" x2="646.36017" y2="922.29382"><stop offset="0" stop-color="#D8865E"/><stop offset="1" stop-color="#B682AF"/></linearGradient></defs><path fill="url(#gradient_9)" d="M605.983 962.691C604.983 914.57 681.575 904.251 690.522 955.689C689.814 954.385 689.715 954.066 688.701 952.949C685.45 952.174 666.795 950.423 663.706 951.408C664.176 953.14 664.746 954.292 664.114 955.907C660.423 957.243 638.06 956.061 632.354 956.539C629.179 954.014 610.214 954.122 607.793 955.897C606.593 959.385 607.656 960.034 605.983 962.691Z"/><path fill="#010000" d="M632.354 956.539C633.232 946.932 642.725 940.862 651.958 942.628C658.309 943.843 660.202 946.504 663.706 951.408C664.176 953.14 664.746 954.292 664.114 955.907C660.423 957.243 638.06 956.061 632.354 956.539Z"/><path fill="#F2BB6B" d="M645.087 948.598C647.495 948.43 653.193 948.002 654.503 950.236L653.125 950.42C651.014 950.441 644.388 950.813 642.898 950.291L642.931 949.791L645.087 948.598Z"/><path fill="#F7F7F7" d="M703.965 805.367C704.932 806.456 710.983 824.373 711.974 827.225C687.202 839.418 711.158 867.861 695.854 871.696C684.297 874.592 660.753 879.853 648.46 882.686C646.928 879.246 645.59 875.875 644.199 872.376C640.299 862.023 638.04 861.859 633.237 853.891C629.637 847.918 625.674 833.893 623.315 826.798C649.791 812.922 673.927 806.29 703.965 805.367Z"/><path fill="#F7F7F7" d="M367.053 805.931C389.248 805.708 428.053 815.313 446.105 827.933C442.824 839.618 432.37 861.526 427.032 872.686C425.609 875.865 424.339 879.628 423.136 882.943C409.789 879.6 385.672 874.621 373.504 870.354C362.197 866.389 385.361 840.962 358.79 826.787C360.924 819.976 364.247 812.541 367.053 805.931Z"/><path fill="#EBACA2" d="M680.146 745.495C682.671 745.33 683.636 749.97 684.455 752.155C690.829 769.167 697.297 786.226 703.15 803.423C675.004 805.238 655.279 809.159 629.309 821.608L622.6 825.008C617.278 811.095 611.891 794.136 607.222 779.831C626.848 766.479 657.621 752.96 680.146 745.495Z"/><path fill="#66318C" d="M733.918 734.705C745.172 733.736 778.719 734.778 770.259 754.253C761.844 773.622 738.483 785.035 720.121 793.252C715.267 795.535 709.529 797.718 704.512 799.76C700.114 790.128 691.316 767.46 689.141 757.442C705.949 741.089 711.733 736.53 733.918 734.705Z"/><path fill="#EBACA2" d="M382.302 767.502C409.589 770.364 436.313 777.182 461.637 787.739C457.217 799.58 451.924 814.261 446.991 825.681C442.535 823.557 436.904 820.044 432.601 818.259C412.083 809.744 390.186 805.102 368.115 803.711L382.302 767.502Z"/><path fill="#66318C" d="M347.063 766.714C354.521 766.308 361.769 766.794 369.251 766.576C372.24 770.052 373.644 771.465 377.51 773.718C372.795 787.008 366.711 800.403 361.768 813.515C350.457 811.405 340.069 809.348 328.888 806.638C318.789 803.762 290.546 795.59 290.14 785.412C289.537 770.282 338.22 767.193 347.063 766.714Z"/><path fill="#66318C" d="M400.753 356.441C403.366 357.665 409.064 367.41 410.866 370.354C398.4 377.87 387.166 385.535 372.773 389.518C309.69 406.975 287.009 364.834 222.636 403.291C219.65 405.367 216.641 407.41 213.609 409.42C238.159 383.428 274.475 368.952 309.567 375.898C351.014 384.102 366.017 379.303 400.753 356.441Z"/><path fill="#66318C" d="M604.549 781.431L605.321 781.657C607.553 785.095 618.482 819.891 620.902 826.474C601.462 831.188 581.19 835.725 561.217 835.996C558.436 835.856 555.391 835.727 552.683 835.083C550.213 834.496 547.022 833.467 545.708 831.083C545.05 829.888 544.905 828.591 545.306 827.286C548.571 816.66 593.728 786.788 604.549 781.431Z"/><defs><linearGradient id="gradient_10" gradientUnits="userSpaceOnUse" x1="580.32812" y1="1004.0847" x2="583.21844" y2="950.55286"><stop offset="0" stop-color="#F38A11"/><stop offset="1" stop-color="#DA8B59"/></linearGradient></defs><path fill="url(#gradient_10)" d="M568.419 924.937C577.413 924.819 586.709 924.972 595.726 925.005C595.926 936.964 595.976 948.925 595.878 960.886C596.015 975.449 595.977 990.013 595.764 1004.58C586.625 1004.77 577.485 1004.87 568.344 1004.87L568.385 978.491C568.393 975.009 568.209 967.873 568.52 964.705C568.071 952.008 568.382 937.761 568.419 924.937Z"/><defs><linearGradient id="gradient_11" gradientUnits="userSpaceOnUse" x1="581.12982" y1="952.55493" x2="582.38983" y2="925.01459"><stop offset="0" stop-color="#D78964"/><stop offset="1" stop-color="#B77EA9"/></linearGradient></defs><path fill="url(#gradient_11)" d="M568.419 924.937C577.413 924.819 586.709 924.972 595.726 925.005C595.926 936.964 595.976 948.925 595.878 960.886L595.075 960.486C594.954 957.6 595.317 954.853 594.343 952.366C592.102 950.405 573.054 952.215 569.436 952.867C568.482 956.995 569.633 960.128 568.52 964.705C568.071 952.008 568.382 937.761 568.419 924.937Z"/><path fill="#66318C" d="M463.486 788.299C465.053 788.791 468.455 790.071 470.629 791.243C485.639 799.336 513.611 808.467 520.879 824.629C523.872 831.286 510.659 834.34 505.129 835.344C484.969 837.247 467.291 833.675 447.882 829.266C450.118 824.997 452.384 818.333 454.121 813.647L463.486 788.299Z"/><path fill="#EBACA2" d="M362.045 186.209C368.385 186.657 376.624 203.844 381.177 208.652C382.623 210.178 385.02 213.667 386.456 215.507C385.143 217.361 383.684 218.903 383.828 221.082C388.525 219.151 394.296 199.426 399.32 203.409C401.333 208.57 397.937 223.878 396.728 229.952C399.043 234.15 405.333 242.769 408.378 247.485C402.298 254.522 397.009 259.593 389.68 265.221L385.754 261.09C378.804 253.963 344.417 212.291 344.269 205.817C344.239 204.496 344.393 204.23 345.237 203.345C349.403 203.58 359.598 219.015 360.981 223.1C366.565 218.655 370.174 215.89 376.082 211.91C372.301 207.983 363.468 195.004 360.601 189.515C360.051 188.461 361.291 187.272 362.045 186.209Z"/><path fill="#EBACA2" d="M517.777 309.345C520.729 310.575 522.34 312.178 524.636 314.273L533.195 313.281L531.954 320.207C543.658 337.857 542.292 344.208 522.968 354.12C525.497 357.798 528.592 360.942 531.309 364.512C534.295 368.437 541.012 373.844 535.727 378.753C532.467 381.78 530.255 382.535 525.928 382.54C516.374 380.494 511.483 377.529 504.073 371.342C508.227 361.166 508.315 356.254 507.332 345.297C498.554 347.046 488.055 341.398 495.444 332.081C497.836 329.065 503.158 329.631 506.757 329.855C513.358 323.953 515.552 317.733 517.777 309.345Z"/><path fill="#EBACA2" d="M657.789 199.767L659.546 200.1C662.419 202.723 658.435 207.776 656.706 210.426C653.307 215.639 649.531 220.721 645.869 225.757C650.709 229.166 655.528 232.606 660.325 236.076C662.464 232.911 673.259 216.367 675.728 215.346C677.173 215.851 677.353 215.723 678.198 216.924C678.236 223.111 644.959 266.821 638.913 274.135L634.677 279.438C626.815 274.563 620.865 268.482 614.376 262.029C617.617 256.659 621.291 252.094 624.297 246.122C628.02 238.727 619.008 220.008 623.976 217.089C629.314 217.81 634.54 231.896 641.064 237.437L641.591 237.876C639.88 234.649 638.094 231.598 636.254 228.443C641.844 220.94 651.844 206.037 657.789 199.767Z"/><path fill="#EB831E" d="M484.556 936.028L485.341 937.514C491.919 939.196 506.876 937.111 512.489 939.742C512.482 947.28 512.571 955.019 512.462 962.539L512.455 1004.68C503.229 1004.79 494.003 1004.84 484.777 1004.85C484.591 989.826 484.539 974.803 484.619 959.78L484.556 936.028Z"/><path fill="#CA8480" d="M484.556 936.028L485.341 937.514C491.919 939.196 506.876 937.111 512.489 939.742C512.482 947.28 512.571 955.019 512.462 962.539C511.309 958.503 511.725 956.046 510.858 953.167C505.896 950.626 491.898 950.14 486.298 951.46C485.106 951.741 485.189 957.452 484.778 959.151L484.619 959.78L484.556 936.028Z"/><defs><linearGradient id="gradient_12" gradientUnits="userSpaceOnUse" x1="498.21979" y1="938.48401" x2="498.28091" y2="891.48413"><stop offset="0" stop-color="#BB82A6"/><stop offset="1" stop-color="#9C75E7"/></linearGradient></defs><path fill="url(#gradient_12)" d="M484.604 890.995C493.8 890.975 503.256 890.84 512.43 890.994L512.489 939.742C506.876 937.111 491.919 939.196 485.341 937.514L484.556 936.028L484.604 890.995Z"/><path fill="#66318C" d="M502.254 306.632C522.228 303.935 514.348 318.78 506.171 327.517C503.167 327.458 500.308 327.17 497.409 328.437C492.049 330.78 489.444 337.018 492.644 342.213C494.977 346.001 498.532 347.495 502.818 348.442C501.291 351.336 497.041 359.8 495.136 361.582L493.837 360.999C483.428 350.983 475.12 340.525 467.159 328.524C476.468 317.812 487.99 309.145 502.254 306.632Z"/><path fill="#9E71D2" d="M581.57 885.678C590.065 885.149 597.42 891.518 598.112 900.001C598.804 908.485 592.577 915.961 584.108 916.815C578.484 917.382 572.992 914.866 569.748 910.238C566.503 905.609 566.013 899.588 568.464 894.495C570.916 889.402 575.928 886.03 581.57 885.678Z"/><path fill="#F7F7F7" d="M623.29 855.575C638.535 853.989 642.031 871.727 646.256 883.163L640.407 884.723C636.93 885.519 633.438 886.251 629.934 886.918C627.079 879.12 622.733 871.556 620.694 863.537C619.819 860.099 620.239 857.604 623.29 855.575Z"/><path fill="#F7F7F7" d="M442.702 855.553C456.126 854.758 449.626 866.044 446.754 873.35C445.048 877.691 443.07 881.493 441.784 886.058L441.566 886.845C439.751 886.352 437.739 885.943 435.892 885.528C432.11 884.832 428.919 884.073 425.184 883.132C428.23 874.34 433.033 858.524 442.702 855.553Z"/><path fill="#EBACA2" d="M667.055 199.816C669.478 200.02 671.236 200.19 671.804 202.785C670.117 206.275 657.352 224.369 654.409 228.696C652.968 228.083 650.489 226.204 649.11 225.231C651.7 220.719 663.593 203.161 667.055 199.816Z"/><path fill="#EB831E" d="M631.23 905.436C642.213 907.44 650.07 910.915 659.503 916.528L654.625 916.027C645.261 915.196 638.093 916.238 629.307 919.454C630.243 914.572 630.775 910.366 631.23 905.436Z"/><path fill="#EBACA2" d="M352.659 186.402C353.565 186.592 355.167 186.945 355.76 187.619C361.511 194.145 367.964 204.349 372.765 211.404L369.179 214.138L368.368 214.647C366.591 213.652 351.522 192.446 350.546 190.003C350.907 187.827 350.959 188.36 352.659 186.402Z"/><path fill="#EBACA2" d="M348.087 193.167C352.063 193.907 363.323 211.676 366.349 216.032L362.907 219.133L361.997 219.636L361.291 219.399C358.093 214.368 347.332 200.945 346.104 196.633C346.224 194.927 346.925 194.456 348.087 193.167Z"/><path fill="#F7F7F7" d="M478.722 966.896C479.24 969.811 479.106 977.066 479.101 980.271L479.03 1003.7C477.787 1000.6 477.198 999.379 475.544 996.479C473.096 992.959 471.361 991.242 468.343 988.191C473.686 980.352 475.788 975.974 478.722 966.896Z"/><path fill="#EBACA2" d="M672.499 206.712C678.651 207.938 673.809 213.888 671.796 216.513C667.752 221.787 664.089 228.308 659.638 233.185L655.482 229.867C661.058 222.761 666.192 213.021 672.499 206.712Z"/><path fill="#F7F7F7" d="M345.403 986.373C347.794 989.246 348.207 989.682 351.389 991.713C348.252 993.95 347.368 994.683 345.594 998.092C343.358 994.688 343.094 994.179 339.609 991.949C342.75 990.1 343.348 989.415 345.403 986.373Z"/><path fill="#F2BB6B" d="M538.103 360.965L538.604 361.556C538.817 363.838 539.34 367.859 537.999 369.683L537.047 369.168C535.575 367.76 534.267 366.134 532.942 364.579L538.103 360.965Z"/><path fill="#F3D296" d="M601.617 978.499C602.539 980.75 605.315 985.973 604.264 987.964C602.803 989.057 603.482 988.966 602.018 989.076C600.813 986.652 601.477 981.473 601.617 978.499Z"/><path fill="#54B5B4" d="M642.604 977.641C645.192 977.452 653.653 977.322 656.062 977.682L656.079 978.176C651.252 980.037 647.228 979.725 642.604 977.641Z"/><path fill="#010000" d="M846.66 380.127C850.215 394.547 849.406 412.489 863.719 420.98C871.639 425.678 880.324 425.523 888.883 428.601C876.307 430.987 864.87 431.175 856.6 442.576C848.911 454.828 849.78 463.426 847.008 477.163C845.46 470.488 844.455 458.284 841.956 450.838C834.533 428.723 809.554 431.831 806.341 428.095C808.242 427.013 816.868 425.783 819.719 424.985C824.181 423.734 825.274 423.263 829.515 421.078C845.807 410.307 843.199 396.883 846.66 380.127Z"/><path fill="#F3D296" d="M846.724 393.384C848.164 394.832 849.43 407.479 852.673 412.588C859.272 422.983 866.88 425.066 877.872 428.116C857.114 434.333 851.206 441.488 847.174 462.818C845.393 459.094 845.262 451.551 841.898 445.606C835.558 434.402 827.079 431.627 815.708 427.948C836.232 424.356 843.94 413.079 846.724 393.384Z"/><path fill="#F3D296" d="M815.284 179.703C827.836 177.773 849.128 183.1 860.131 189.124C884.693 202.569 895.892 218.961 904.137 244.628C933.985 238.506 960.91 259.693 962.681 289.931C947.631 290.435 929.43 289.846 913.995 289.854L809.125 289.891C760.515 290.04 711.905 289.909 663.297 289.498C665.456 279.927 667.509 270.972 673.629 263.114C683.243 250.769 697.229 243.69 712.866 243.333C721.42 243.137 728.189 245.235 736.308 247.526C746.337 209.104 775.573 183.38 815.284 179.703Z"/><path fill="#010000" d="M522.538 68.4933C528.67 68.8732 530.682 72.1192 530.358 78.0571L530.853 78.3807C537.911 83.0698 538.409 85.6454 539.975 93.4693C541.641 94.6782 542.089 95.1334 542.468 97.0744C541.816 100.387 536.407 102.764 533.825 106.61L533.415 107.233C545.678 102.794 549.725 95.8326 558.75 87.5135C559.437 87.5377 561.984 87.5031 562.566 87.5901C567.116 88.2705 564.443 79.5875 567.544 76.3768L568.601 76.3707C570.078 77.3032 570.474 78.3698 571.342 79.899C574.857 77.6228 578.266 76.4654 581.571 80.1128C582.492 81.1142 582.963 82.4479 582.877 83.8052C582.566 88.6272 575.862 91.8202 571.758 95.2551L573.748 99.8182C569.392 110.57 556.641 120.922 547.272 127.143C549.352 133.28 552.95 141.14 551.399 147.3C551.233 147.958 558.132 155.99 559.697 158.202C564.313 164.726 567.625 171.769 571.804 178.613C573.123 178.834 574.425 179.148 575.7 179.553C577.566 180.162 579.781 182.761 580.509 184.548C583.702 192.379 578.936 195.793 573.095 198.519C574.301 201.284 575.654 203.599 577.131 206.22C592.602 212.148 597.31 196.276 606.47 216.254C591.619 222.873 576.482 230.522 561.756 237.555C556.881 229.665 558.135 226.547 555.455 218.103C554.532 215.194 552.192 211.212 550.657 208.501C539.399 210.141 537.53 202.811 539.484 194.786C539.729 193.782 535.168 185.36 534.092 183.64C530.468 177.846 527.058 169.773 519.283 169.454C512.549 171.156 503.655 179.946 501.524 186.641C500.963 188.406 500.801 192.481 500.325 194.644C498.809 201.518 494.433 202.568 488.262 201.001C487.446 202.501 485.015 206.926 484.65 208.294C482.147 217.687 482.754 219.903 478.015 228.653C464.842 221.87 446.942 212.108 434.191 204.439C447.073 178.777 457.78 213.374 466.853 188.45C463.835 186.391 460.944 184.55 460.121 180.715C458.453 172.936 469.412 169.66 470.491 167.853C477.673 155.817 480.281 151.844 492.886 145.361C491.484 139.156 495.831 130.734 498.247 124.549C490.918 118.781 467.655 105.741 473.592 94.1983C465.889 87.9652 456.164 84.4604 468.252 75.512C470.268 76.7497 471.777 78.1975 474.151 78.2094C475.861 77.1243 475.173 77.8742 475.887 75.5527L476.755 75.1091C481.539 77.2636 478.383 81.4317 479.962 84.9647C481.151 87.6253 485.295 84.9664 487.86 87.3779C496.535 95.534 502.272 102.871 513.572 107.506C512.613 106.243 504.726 96.4381 504.636 96.0548C505.474 92.6066 511.157 82.1737 514.405 79.9048C516.285 78.5913 522.647 78.445 523.984 76.7476L523.814 75.6188L523.019 75.1362C522.111 75.7656 521.795 75.9557 520.807 76.4506C519.102 75.936 519.16 76.0504 518 74.7278C517.497 71.2762 519.725 69.8006 522.538 68.4933Z"/><path fill="#EB831E" d="M483.973 87.3176C488.716 87.6551 502.216 107.851 514.682 108.631C518.537 118.699 525.995 121.739 530.296 110.032C533.337 108.678 536.349 107.982 539.517 106.373C547.543 102.296 553.563 94.7446 560.246 88.4732C563.554 90.3605 572.874 96.3016 571.519 100.278C568.566 108.943 553.939 120.642 547.121 125.379L544.518 117.659L543.935 117.611C543.034 120.898 551.39 141.966 550.148 145.526C548.235 147.157 544.619 147.713 542.25 148.409C524.548 153.609 514.973 145.874 498.644 144.104C496.802 143.904 495.31 144.074 494.311 142.917C494.047 139.538 500.145 125.089 501.458 119.571L501.023 118.695L501.464 118.1L501.632 118.517L501.599 118.063L501.046 118.127L501.395 118.244C499.856 119.029 499.47 121.399 498.838 123.282C488.639 115.691 479.699 110.694 473.134 98.5222C476.192 93.3196 479.149 90.6696 483.973 87.3176Z"/><path fill="#F3D296" d="M495.503 145.65C501.278 145.364 506.3 146.419 511.704 148.366C526.993 153.876 534.473 152.291 549.564 148.055C559.707 159.595 563.851 166.782 570.572 180.174C562.726 189.486 553.211 191.999 541.481 193.319C540.324 191.531 539.16 189.547 538.038 187.718C534.87 182.142 530.368 173.288 525.115 169.666C514.982 162.68 503.539 179.465 498.936 186.48C485.707 183.794 479.608 181.183 471.161 170.628C477.551 157.743 482.47 152.132 495.503 145.65Z"/><path fill="#0C8FA2" d="M571.508 198.96C572.433 199.65 576.027 206.107 577.194 207.878C580.211 209.206 581.562 209.464 584.763 210.202C588.039 209.265 591.657 208.026 594.951 206.994C597.078 207.546 602.199 208.7 601.68 211.527C596.884 214.339 584.227 219.257 578.309 221.839L560.44 231.283C558.729 226.511 558.396 221.258 556.506 216.486C555.334 213.527 553.792 210.796 552.262 208.013C558.645 204.849 565.249 202.306 571.508 198.96Z"/><path fill="#0C8FA2" d="M467.926 189.15C472.481 192.442 480.449 196.065 486.591 200.41C480.58 212.045 483.165 210.813 480.048 222.828C475.003 219.533 468.095 215.852 462.713 212.818C455.996 209.112 444.792 203.242 438.705 199.074C450.326 189.107 460.396 211.241 467.926 189.15Z"/><path fill="#EBACA2" d="M529.981 79.8528C537.931 84.4151 536.253 86.669 538.165 94.2652C545.222 99.4653 537.146 100.434 536.913 100.696C529.116 109.48 526.112 111.604 514.703 106.469C510.884 103.096 511.931 102.347 509.563 98.3549C509.175 97.702 507.948 97.8967 506.914 97.8468C505.48 96.4696 506.074 97.2893 505.51 95.0054C506.483 92.5088 508.712 92.8452 509.303 91.8739C512.56 86.5245 509.745 81.986 517.887 80.4207C519.751 81.1969 519.466 82.0344 520.635 84.4427C524.338 86.5016 527.55 83.1887 529.612 80.3669L529.981 79.8528Z"/><path fill="#F7F7F7" d="M572.859 179.855C579.001 180.768 580.909 191.23 579.288 192.72C574.035 197.551 553.365 205.728 547.197 207.693C545.901 207.522 544.198 206.908 543.355 205.93C533.148 194.069 545.82 194.185 553.59 192.575C561.219 190.994 567.846 185.095 572.859 179.855Z"/><path fill="#F7F7F7" d="M467.654 170.221C469.876 171.287 471.657 173.248 473.345 175.109C477.81 180.245 483.344 183.915 489.916 185.841C495.857 187.583 503.088 186.634 498.699 195.451C497.337 198.186 496.677 198.928 494.043 200.551C487.803 200.351 468.561 187.91 463.012 183.472C459 180.264 464.829 172.667 467.654 170.221Z"/><path fill="#0C8FA2" d="M437.611 200.084C438.697 200.487 447.908 205.899 449.429 206.796C458.842 212.35 469.261 217.683 478.457 223.471C479.097 224.635 478.782 224.547 478.345 226.281C473.541 225.917 442.303 207.517 436.826 203.792C436.558 202.163 436.988 201.87 437.611 200.084Z"/><path fill="#0C8FA2" d="M601.567 213.481C603.112 213.762 604.025 214.313 604.263 215.872C598.798 219.033 590.048 222.149 584.077 225.095C577.324 228.426 570.661 231.913 563.841 235.064L562.836 235.224C561.384 234.313 561.842 234.939 561.398 233.298C562.943 229.895 596.034 215.632 601.567 213.481Z"/><path fill="#EBACA2" d="M567.955 77.8135C569.061 79.2702 569.843 81.2815 570.607 82.9779C572.953 80.8108 576.865 77.4352 579.416 80.6987C582.81 85.0409 578.457 88.4461 575.751 90.2922C573.246 92.0032 572.763 92.42 570.723 94.6628C568.703 92.8358 566.26 90.9343 564.129 89.1939C567.982 85.2663 566.604 83.7242 567.851 78.2566L567.955 77.8135Z"/><path fill="#EBACA2" d="M477.005 76.7403C479.501 80.7541 476.1 82.7234 480.42 87.8208C479.63 89.3257 476.159 92.0281 474.663 93.3279C473.081 91.807 470.819 90.1655 469.044 88.7947C466.068 86.4737 462.303 83.4966 464.981 79.3778C468.937 77.0092 471.743 79.5832 474.89 81.7926C475.591 79.7439 476.05 78.6875 477.005 76.7403Z"/><path fill="#F7F7F7" d="M522.813 70.0248C535.518 72.3556 525.772 86.2869 520.309 82.1351C522.519 80.3083 526.241 79.2712 525.473 75.3852C523.565 73.9098 522.169 74.6634 519.632 73.5409L519.626 72.6135C520.564 70.9555 521.112 70.8656 522.813 70.0248Z"/><path fill="#EBACA2" d="M517.199 109.974C520.376 110.158 525.558 109.546 527.776 111.015C528.088 112.731 527.732 112.518 526.556 114.518C521.609 117.303 518.228 115.475 517.199 109.974Z"/><path fill="#010000" d="M192.134 162.307C195.214 164.673 194.678 183.442 200.56 191.161C211.172 205.085 222.1 204.091 237.272 207.403C226.516 209.749 215.641 209.232 206.682 216.795C196.48 225.408 195.179 238.216 193.977 250.486C193.84 251.293 194.016 250.896 193.294 251.595C191.221 249.869 189.589 235.554 188.42 231.501C187.696 229.053 186.677 226.703 185.385 224.502C177.659 211.403 164.015 210.44 150.724 207.069C157.662 204.74 164.653 205.145 172.083 201.953C183.445 197.444 188.261 186.124 189.939 174.834C190.521 170.913 190.335 165.943 192.134 162.307Z"/><path fill="#E8E4D3" d="M192.268 174.894C193.295 176.035 194.012 180.533 194.552 182.312C199.549 198.768 208.501 202.43 223.406 207.371C203.751 211.527 196.854 220.995 192.966 240.215C191.699 237.697 190.077 229.846 187.707 224.953C182.156 213.496 172.904 210.972 161.589 207.029C182.232 203.146 187.69 194.039 192.268 174.894Z"/><path fill="#010000" d="M98.1677 785.853C108.016 783.538 117.884 789.615 120.251 799.451C122.617 809.287 116.592 819.187 106.768 821.604C96.8721 824.04 86.8831 817.96 84.4993 808.052C82.1156 798.143 88.2467 788.186 98.1677 785.853Z"/><path fill="#F3D296" d="M99.0305 787.767C107.91 785.886 116.623 791.597 118.44 800.49C120.258 809.383 114.484 818.055 105.578 819.809C96.7622 821.545 88.197 815.842 86.3979 807.038C84.5989 798.235 90.2401 789.629 99.0305 787.767Z"/><path fill="#010000" d="M231.497 598.315C234.927 599.145 238.22 601.618 240.572 604.269C262.844 629.375 265.53 665.496 260.33 697.273C259.865 700.12 258.865 701.312 256.568 702.712C254.743 702.519 250.629 701.279 250.882 698.989C253.993 670.9 256.256 641.694 238.644 617.402C234.603 611.827 222.209 604.904 231.497 598.315Z"/><path fill="#EB831E" d="M232.241 600.206C248.927 608.148 259.978 642.383 260.47 659.395C260.732 668.478 261.457 694.795 256.167 700.714C254.504 700.24 252.742 699.854 252.69 697.735C252.569 692.757 253.922 687.859 254.396 682.903C254.973 676.159 255.144 669.387 254.909 662.622C254.235 646.18 249.914 629.514 240.04 616.049C237.017 611.927 232.322 608.627 230.145 604.038C230.32 602.422 231.241 601.539 232.241 600.206Z"/><path fill="#010000" d="M138.614 490.358C141.396 493.482 141.323 504.82 144.27 510.285C149.437 519.866 158.506 518.158 167.596 521.302L168.247 521.531C161.999 522.684 155.128 523.308 149.486 526.376C141.299 530.83 141.983 543.449 139.731 551.176C136.32 548.359 137.157 537.93 133.932 532.2C128.787 523.055 119.341 524.163 110.06 521.33C116.354 519.473 128.526 518.638 132.597 512.81C136.276 507.544 136.753 497.021 138.457 490.904L138.614 490.358Z"/><path fill="#F7F7F7" d="M138.777 500.389C140.397 502.535 141.443 509.418 142.888 511.914C146.196 517.629 152.587 519.529 158.296 521.419C145.906 524.195 141.835 529.094 139.222 541.139C138.232 540.165 136.382 532.75 135.335 530.927C132.084 525.263 125.242 523.162 119.616 521.346C132.891 517.979 136.16 513.313 138.777 500.389Z"/><path fill="#010000" d="M204.99 559.817C211.717 558.324 218.374 562.592 219.826 569.329C221.277 576.065 216.967 582.696 210.222 584.105C203.535 585.502 196.975 581.239 195.537 574.561C194.098 567.883 198.321 561.297 204.99 559.817Z"/><path fill="#EB831E" d="M204.683 561.838C210.124 560.199 215.869 563.261 217.541 568.692C219.213 574.123 216.186 579.886 210.765 581.591C205.297 583.311 199.474 580.253 197.788 574.774C196.101 569.296 199.195 563.492 204.683 561.838Z"/><path fill="#010000" d="M120.551 246.27C122.51 245.56 124.7 245.963 126.278 247.323C127.857 248.684 128.577 250.791 128.163 252.833C127.749 254.876 126.265 256.536 124.281 257.174C121.29 258.137 118.079 256.527 117.062 253.554C116.045 250.581 117.597 247.341 120.551 246.27Z"/><path fill="#F3D296" d="M121.101 248.233C123.014 247.496 125.162 248.45 125.898 250.363C126.634 252.276 125.68 254.423 123.767 255.159C121.855 255.894 119.708 254.941 118.972 253.029C118.236 251.117 119.189 248.97 121.101 248.233Z"/><path fill="#010000" d="M128.163 418.319C129.858 417.609 131.806 417.878 133.244 419.023C134.682 420.167 135.383 422.004 135.072 423.815C134.761 425.627 133.488 427.125 131.75 427.724C129.181 428.609 126.373 427.297 125.404 424.758C124.436 422.219 125.657 419.369 128.163 418.319Z"/><path fill="#F7F7F7" d="M128.569 420.305C129.945 419.455 131.749 419.877 132.605 421.248C133.461 422.619 133.048 424.425 131.681 425.288C130.304 426.156 128.484 425.74 127.622 424.359C126.76 422.979 127.185 421.161 128.569 420.305Z"/><path fill="#010000" d="M322.475 607.868C324.128 607.205 326.013 607.5 327.384 608.638C328.755 609.775 329.394 611.572 329.048 613.32C328.702 615.068 327.427 616.487 325.726 617.016C323.236 617.791 320.578 616.462 319.704 614.004C318.831 611.547 320.054 608.838 322.475 607.868Z"/><path fill="#F2BB6B" d="M322.834 609.825C323.738 609.254 324.881 609.224 325.814 609.745C326.747 610.267 327.32 611.256 327.308 612.325C327.296 613.394 326.7 614.37 325.755 614.87C324.369 615.604 322.652 615.11 321.866 613.753C321.08 612.396 321.508 610.661 322.834 609.825Z"/><path fill="#010000" d="M39.1702 756.709C41.5358 755.654 44.3113 756.685 45.4132 759.03C46.5151 761.374 45.538 764.169 43.2154 765.317C41.6721 766.079 39.8372 765.948 38.4178 764.975C36.9984 764.001 36.2159 762.336 36.372 760.621C36.528 758.907 37.5982 757.411 39.1702 756.709Z"/><path fill="#F3D296" d="M39.5952 758.781C40.8212 758.02 42.4289 758.363 43.2377 759.558C44.0465 760.753 43.7677 762.373 42.6062 763.229C41.8125 763.813 40.7624 763.917 39.87 763.498C38.9776 763.079 38.3861 762.205 38.3288 761.221C38.2714 760.237 38.7574 759.3 39.5952 758.781Z"/></svg>